/* XPM */
static char *b3059cfefd0c4d9086c5dcc4b233ecb8BJmzljvwrgetkkZ1[] = {
/* columns rows colors chars-per-pixel */
"64 64 229 2 ",
"   c #3D636D",
".  c #35706E",
"X  c #3D6473",
"o  c #356C75",
"O  c #3C6B74",
"+  c #3C657B",
"@  c #346D7A",
"#  c #3D6C7B",
"$  c #336474",
"%  c #36727C",
"&  c #3C727C",
"*  c #3B7076",
"=  c #425E74",
"-  c #4A5E77",
";  c #475F79",
":  c #565F7C",
">  c #705D70",
",  c #6C5C71",
"<  c #42646D",
"1  c #486B6B",
"2  c #4A676F",
"3  c #50646D",
"4  c #446474",
"5  c #4A6474",
"6  c #446B75",
"7  c #4A6A75",
"8  c #44657B",
"9  c #4B657A",
"0  c #436B7B",
"q  c #4A6B7C",
"w  c #536475",
"e  c #52667A",
"r  c #59637E",
"t  c #526B7B",
"y  c #546A77",
"u  c #407176",
"i  c #4E7073",
"p  c #42717C",
"a  c #4D727D",
"s  c #50707F",
"d  c #687877",
"f  c #687878",
"g  c #67767C",
"h  c #72737C",
"j  c #79767E",
"k  c #737B7D",
"l  c #7A6D70",
"z  c #9F5D3B",
"x  c #B25B2E",
"c  c #A65A35",
"v  c #AB553D",
"b  c #A45B3B",
"n  c #AB5B3D",
"m  c #A75736",
"M  c #B25B3B",
"N  c #B05A37",
"B  c #A6613C",
"V  c #B3603E",
"C  c #865649",
"Z  c #954D57",
"A  c #8B5756",
"S  c #935545",
"D  c #A45E46",
"F  c #AC5B42",
"G  c #A95846",
"H  c #B15C43",
"J  c #B75746",
"K  c #916C54",
"L  c #A56243",
"P  c #AA6348",
"I  c #AA6150",
"U  c #8F5E73",
"Y  c #9C7768",
"T  c #8D656E",
"R  c #A8766A",
"E  c #AA7572",
"W  c #A86E63",
"Q  c #5F837F",
"!  c #72867B",
"~  c #A58266",
"^  c #C7934A",
"/  c #C78C52",
"(  c #D58C56",
")  c #CC9458",
"_  c #D29557",
"`  c #CE8E4C",
"'  c #DCA659",
"]  c #D8B25F",
"[  c #E4A35B",
"{  c #E3A556",
"}  c #D59865",
"|  c #D3A563",
" . c #D8A963",
".. c #D9A772",
"X. c #E7AC63",
"o. c #F2B467",
"O. c #EBC86A",
"+. c #F4C26C",
"@. c #F6CC75",
"#. c #EADD73",
"$. c #EDC77E",
"%. c #3F6483",
"&. c #3D6C82",
"*. c #356B89",
"=. c #3B7487",
"-. c #4F5D82",
";. c #456581",
":. c #4B6481",
">. c #446B82",
",. c #4B6B82",
"<. c #496C88",
"1. c #536483",
"2. c #526C82",
"3. c #596A89",
"4. c #4A7182",
"5. c #477285",
"6. c #5A728C",
"7. c #5E7B8C",
"8. c #557282",
"9. c #5D7B97",
"0. c #686E8D",
"q. c #716F84",
"w. c #796E8B",
"e. c #647585",
"r. c #6C7484",
"t. c #657B84",
"y. c #6C7B84",
"u. c #64758C",
"i. c #6C758B",
"p. c #647B8B",
"a. c #6C7B8C",
"s. c #737484",
"d. c #797584",
"f. c #747A85",
"g. c #7C7986",
"h. c #73758B",
"j. c #7C758B",
"k. c #737A8C",
"l. c #7B7A8D",
"z. c #657593",
"x. c #6D7592",
"c. c #647C93",
"v. c #6C7B93",
"b. c #657E9A",
"n. c #6E7C99",
"m. c #6F779E",
"M. c #747592",
"N. c #7C7694",
"B. c #747B93",
"V. c #7A7B93",
"C. c #727499",
"Z. c #747D9A",
"A. c #7B7D9B",
"S. c #7B779A",
"D. c #736D91",
"F. c #6F7DA3",
"G. c #747DA2",
"H. c #7A7DA3",
"J. c #7B7EAA",
"K. c #82798C",
"L. c #88778A",
"P. c #817B95",
"I. c #827C9E",
"U. c #997A82",
"Y. c #837DA4",
"T. c #857FA7",
"R. c #5D868C",
"E. c #668186",
"W. c #698286",
"Q. c #63818B",
"!. c #6C818C",
"~. c #72818C",
"^. c #7B818B",
"/. c #6D8294",
"(. c #668699",
"). c #6D839B",
"_. c #6D899D",
"`. c #678494",
"'. c #738294",
"]. c #7B8296",
"[. c #73839C",
"{. c #7A839C",
"}. c #74899C",
"|. c #7B899E",
" X c #738B96",
".X c #74909E",
"XX c #6685A1",
"oX c #6C83A2",
"OX c #6B88AE",
"+X c #6C86A6",
"@X c #7484A3",
"#X c #7B84A3",
"$X c #748AA4",
"%X c #7B8AA4",
"&X c #7684AA",
"*X c #7B84AB",
"=X c #758DAA",
"-X c #7C8BAA",
";X c #7B90A8",
":X c #7883B0",
">X c #7288B1",
",X c #828483",
"<X c #828295",
"1X c #82839C",
"2X c #81899A",
"3X c #89859E",
"4X c #B19F87",
"5X c #B9A280",
"6X c #8284A4",
"7X c #8389A4",
"8X c #8184AA",
"9X c #8987A6",
"0X c #929BBE",
"qX c #8BA4BA",
"wX c #E6BF98",
"eX c #EBBAA4",
"rX c #EFD487",
"tX c #F1C29D",
"yX c #F5D38B",
"uX c #D8D6AC",
"iX c #E1D1AF",
"pX c #E3CBAC",
"aX c #F4F5B4",
"sX c #F9F3BC",
"dX c #F7EEB0",
"fX c #CDD5C1",
"gX c #EDE9EB",
"hX c #FEFFED",
"jX c #FFFEF2",
/* pixels */
"a.Z.%XZ.B.r.e n.h.H.%Xi.a.k.k.d.k.Z.%X@X$X[.%Xa.>.8 6 0 8 5 a.h.H.].a.q >.>.a.f.k.#X@Xi.*X@X/.&Xa.Z.%XB.B.r.t v.M.H.%Xa.k.a.h.d.",
"k.v.:X*XG.-XZ.[.$X'.t.>.4 w y.}.A.k.h.s.a.i.Z.[.h.f.k.a.[.G.$XZ.~.k.a.u.k.f.k.f.Z.B.'.r.k.s.s.f.B.v.:X:XG.%XZ.[.$X'.e.>.4 w y.}.",
"Z.|.<Xt.f.W.l.{.h a.k.g.d.i.v.g.!.}.#XJ.J.A.Y.N.s.s.f.i.[.$Xz.3.O t s.g.k.a.y.f.).7 8 ,.t.~.'.y.Z.}.<Xt.f.W.N.{.h a.k.g.d.a.B.g.",
"{._.x.>.B.6 V.k.6.u.'.[.@X|.@Xc.a.].r.5   O * % a.a.B.k.'.%Xc.a.Q.XX>X@Xf.f.x.+Xc.7 8 8 s z.H.#X{.}.x.>.B.6 V.k.6.u.'.[.@X[.$Xc.",
"B.9 r 0 i.0 V.a.= e a.'.|.i.t.7 q 7.v.$X=X&X#X#X].B.].<XC.[.[.'.*XH.N.h.k.}.#XT.h h.a.W.[.{.k.V.B.9 r 0 i.q V.y.= e a.B.|.i.y.7 ",
"n.5 t.E.y.E.r.].@XOXOX#Xv.;.>.5 h l.V.A.#XZ.k.k.f.r.k.a.1.;.>.>.s.A.%X[.y.f k.M.N.J.%X'.@X%Xk.B.n.5 t.Q y.E.r.|.+XOXOX%Xv.;.>.4 ",
"[.[.7X%XH.*Xi.|.%XP.s.#XA.s.s.[.{.6Xu.q # # # >.f.k.a.a.,.&.>.>.9 a.'.'.`.2.W.y.%X@XoXz.1.0.v.}.[.).7X-XH.*Xi.|.%X<Xq.6XA.s.s.[.",
"@Xk.r.h.i.{.7Xi.y.v.w k.v.@X[.[.a.a.8 >.>.0 9 r.v.%X'.%X}.@X[.V.@X$XM.Z.8XC.6Xk.y.d '.#Xh.<X#Xk.%Xh.r.h.i.{.6Xi.y.v.w i.B.$X[.[.",
"0 & O a.K.s.u.}.#XM.B.'.[.&X@XH.B.B.f.f.f.h.].|.L.k.y.h.V.i.%X#X*X*Xv.w i.i.l.j.8 5.@ @X#X{.a.B.0 0 O a.j.s.a.}.H.B.B.'.[.-XG.#X",
"- 5 6 * a.5 a h.}./.y.~.~.p.s 0 S.[.).&X*XXX@XS.t.7 4 0 >.0 q t.[.[./.}.`.,.8 Q.,.+ :.%X6X6Xi.5 - 5 u * v.5 a M.}.B.y.~.!.u.s 0 ",
"[.x.q 4 i.7 & i.[.).w 9 9 8 8 O i._.@XT.Y.oX_.i.%.# &.* < k.M.A.N.h.k.r.Z.{.%XZ.@Xn.$X(.(.[.%X[.[.x.q 6 a.5 p e.[.n.e 9 9 8 8 O ",
"Z.#XZ.V.V.u.p.7X8XC.4 8 # + ,.).Z.<X{.a.e.V.6X#XoXA.N.Z._.%Xk.h.O O a q 9 :.b.$X#X6XB.7 p.x.V.%XZ.#XB.N.V.u.p.7X6Xn.4 8 # + ,.).",
"#X).{.N.%X[.{.M.s.|.!.< 5 /.a.s.H.@X%X%X}.@X#X*X|.I.A.Z.@XB.v.q 5.X 9 z.v.#XA.Z.X a.j.h.V.j.B._.#X(.{.N.%X[.].M.s.2X!.< 5 `.k.r.",
"9 =.c.V./.'.V.p.y.k.'.i.Z.#XV.'.p.6 ,.z.z.,.O 9 @ c.{.B.a.a.#XH.[.$X$X[.}.-X[.t q u.h.{.'.h.].i.9 =.c.P.'.[.B.p.i.k.'.a.B.#XB.].",
"0 o ,.B.|.%Xe.7 k.k.].A.#XH.@X[.l.6 X q 9 # 0 r.B.B.%X#X[.v.a.k.P.w.j.k.[.}.).p.%X[._.(.q 4 t.l.8 @ ,.B.[.|.e.q k.k.].Z.*XH.@X|.",
"M.q #   v.i.V.{.g.s.a.a.n.e p.k.H.m.|.[.[.@X@X-XH.%X$Xu.7 p 5 , > > , h.M.#XB.N.x.9 q 8 q # q h.M.7 # X B.v.k.].g.s.k.k.c.9 i.a.",
"h.5 Q.5 6 5 B.#XB.0 5 O & 8 5 a.B.1Xx.%Xk.d.V.oX#Xy.a.k.y.g.M.c B G J L.J.).&XJ.#XM.9 0 @ >.5 a.k.4 E.7 6 5 B.#Xi.q 4 O & 8 9 a.",
"|.a.k.B.6 7.x.6Xk.i.&.,.r.a.|.@X[.[.Z.Z.[.}.@XH.H.#X*Xa.p.*X&XL b c c W.# y a.].'.y.V.i.V.M.s.K.].v.k.k.7 p.v.6Xk.i.&.,.e.k.|.@X",
"[.V.i.k.a.[.).v.@X{.r.N.$X=XY.t.Z.>.@ :.Z.[._.-XA.).oXh.7 6 5 L J F S '.6 0 ;.O >.,.n.%X@XqX=XqX{.M.i.k.i.[.}.n.@X|.i.N.$X=X6Xy.",
"[.{.{.B.9XC.(.8.B.Z.6X@XA.i.8 8 0 X 9 2.p.5 9 x.=X^.r.y 4 l K / ( 5X4XU.l 2.>.>.# 5 Q.'.[.{.h.a.}.{.%XB.9XB.(.<.B.Z.#X{.V.i.8 8 ",
"# B.A.B.i.0 >.4 4 9 n.}.6XB.# 0 4 q 4 q z.h.{.'.x.h f.B.s.L m [ ' uXfXI W y.W.v.N.h.V.].v.e 9 6 # M.{.V.e.9 & = 9 q c.}.#XV.# >.",
"8 v.{.'.i.t ,.8 @ & 7 a.$XXX0.5 # a.h.|._.v.V.~.V.a O i.L.D b o.[ gXgXG R l.! B.OX$Xn.%Xz.:.%.=.8 n.{.B.i.t ,.8 @ p 7 a.$XXXi.5 ",
"C.).}.B.[.a.p.,.6 e $ q h.V.%X@X@X'.e.[.%XZ.k.a.[.).).).'.D V ) ..jXhXD Y M.h I.{.a.~.y.'.w 6 O B.).[.v.[.a.z.,.6 9 $ q s.B.#X@X",
"{.[.N.N./.}.A.v.V.t.N.~.[.{.n.%X@X[.{.A.A.@X'.j.N.j q.H.#Xc N ) _ dXaXn Y &Xy.oX8Xv.9 7 p.#XG.*X@X[.N.l./.}.{.B.V.i.l.B.[.#Xn.%X",
"a.6 6 9 c.$XoXA.%XA.%XB.u.9 V.k.#X(.6X[.[.2.# + 8 i.A.i.@XF G ^ / dXaXL Z f. Xx.4 ,.X ,.5 k.h.%Xa.6 + 9 7.$XoXA.@XA.|.B.u.9 N.a.",
"r.a.0 ,.5 4 B.#XJ.oXn.  i p.t.f.e N.c.9Xp.9 ,.6 # ,.5 6 >.n J [ X.sXaXz Z r. X8Xc.a.k.o q >.i.d.r./.q q 9 5 B.6X*XoXv.  q E.W.f.",
"k.u.n.X 5 k.e.'.].e.d.k.'.a.0 c.c.j.k._.$Xt.k.q @ q X u + B P _ ' dXaXV E 2Xn.m.j.6X%X~.c.V.K.c.k.u.v.X 6 V.e.B.].r.d.k.'.v.0 p.",
"4 6X[.[.|.'.V.8 $ 2.a.j.w.<X3Xy.k.+ 9 5 k.XXoXs.[.V.k.s.M.M H ' [ aXsXc R W.9 9 0 l.G.*Xs k 0 2 5 6X[.[.|.'.B.6 $ 2.a.j.w.].3Xf.",
"q ).9X@X/.N.t X 0 4 6 c.v./.N.a.>.O p 8 %.B.'.#X}.h.a.h.7XP D ] X.sXsXm E  Xu.!.}.oXj.f.H.#Xj.p.q ).8X[.'.N.t X &.5 6 c.v./.N.a.",
"-X#X).).[.v.i.n.k.!.l.[.$X@X>.9 6 0 &.q ,.:.0.a.k.B.Q.a.B.M F [ | uXuXc E '.v.2X$Xp.q + e.B.@X X%X#X).n.'.v.i.n.k.~.V.[.$X+X,.9 ",
"N.a.v.'.'.r.v.{.G.@XV.B.B.V.t.f.4 a.v.+ z./.<Xq 5 8 * 7 9 b P [ | iXpXb A 5 ,.i./.6XZ.B.4.e.h.T.l.c.v.[.'.r.B.{.F.@XV.B.B.V.t.f.",
"k.a.a.j.L.f.a.A.'.k.< q # X B.f.l.a.[.1X|.c.6 a.n.X 6 k.N.F L ^ ( eXpXc Z >.*.9 :.a.B./.A.%X@X_.l.a.a.j.d.k.B.A.~.k.< 0 4 X '.s.",
"k.f.s.y.E.y.l.k.j.p.. o 9 >.& e.i.B.].'.a.B.B.B.G.#X[.{.k.v F ^ _ eXtXb R a.a.1.0 + 8 t u.h.1XM.k.h.r.y.E.k.h.~.j.p.. . 9 >.&.t.",
"4 1.# ,.n.q X k.l.K.u.3.z.s.B.T.7XV.A.v.@X@X&X&X%X0X|.c.5 F F ` / eXtXF Y '.].c.9 0 @ O 8.B._.0 4 2.# ,.c.q   k.l.K.z.3.x.r.V.8X",
"!.!.y.d.h h.#X#XE.[.&XZ.3X}.oXA.R.8 0 O 7 2 g ~.e.9Xa.>.o n F ^ _ tXyXv R /.%X@X@X$X}.@X[.Z.[.x.v.W.y.j h h.#X#Xt.[.&XZ.1X[.oXA.",
"A.$XZ.%X=XB.l.y.;.k.l.).oX*X#XZ.z.; 8 0 ,.8 >.9 y h.e.>.4.v F ' _ rXrXn R @X:XH.1X#XC.v.C.7X6X[.{.*XZ.%X=X].K.y.0 V.j.).XX-X#XB.",
"0 k.k.g s.V.9.%.9 k.h.2.0 c.A.'.).2.>.+ $ # >.,.r.Z.'.#Xv.H n X.{ yXO.c A [.$X*XC.z.8.0 4 0 8 # 0 k.k.g g.B.9.%.9 k.h.2.>.z.{.'.",
"h.h.a.h.V.y.d ,Xf.}.@Xe.i 0 c.|.Z.Z.{.].i.f.f.f.'.@X|.A.{.H m ` ^ +.+.b Y ].h.7 * o 8 q # O q v.s.k.y.h.V.y.g ,Xf.@X$Xe.i 0 b.].",
"v.4.!.N.u.%X8XF.V.p.B.#X[.s.j.$X-X[.#XA.#X&X@X@X$Xz.p.q p.F H ^ ) O.@.b R i.u.1 4 6 p 8 i.A.j.h.v.4.a.V.i.%X8XG.B.e.B.#X|.r.l.$X",
"# 5 q 6 p.1Xh.h.9 % 6 h.A.*Xc.7 + 0 c.v.].k.f.k.8 1.9 # . n v ) ( O.O.J C q 5.a.B.h.l.k.}./.y.h.# = 9 0 p.2Xh.h.9 % 6 h.A.*Xc.5 ",
"a.t.s.C.=X|.h.:.V.u.[.*XH.Z.8 # # 0 9 p.7X{.h.k.>.# >.# 8 D n / ` +.$.H C 9   7 B.a.'.v.k.r.k.k.a.t.s.Z.=X].h.:.k.a.Z.*X6XC.0 # ",
"#X6XY.A.[.y.f.!.!.N.%Xu.8 & 0 9 5 q i.Z.[.[. Xu.l.k f.k.h.M x ( _ +.+.B Y Z.B.c.h.A.].|.a.V.h.r.#X6XY.A.[.a.f.W./.N.$Xu.8 % 0 9 ",
"B.@X[.B.a.q 6 p.k.|.1X9 # 0 O :.:.n.B.B.#XB.0.a.x.y.k.J.#XD c X. .#.@.c ~ A.H.oX_.@X|.N.h.r.8.O Z.#X[.v.a.q 0 a.k.[.1X9 0 0 + 9 ",
"p.[.%X3 a.8 &.5 i.r.[.k.h.[.%XXXoX%X|.[.c.4.$ X 4.r.k.$X{.I n [ ' #.@.G W i.}.%X1Xi.i.i.7XB./.a.e.[.;X3 y.8 &.- k.r.B.B.k.[.%XXX",
"6XH.0.^.d.n.8 k.a.'.a.i.k.{.Z.%XoX}.'.B.v.v.M.V.7.'.Z.A.[.U A ` ( | | T U e a r.#X[.2.p.c. XB.%X#XH.0.V.d.z.0 k.!.'.p.i.k.[.B.-X",
"e.x.[.i.A.%X@X{.r.a 4 O y h.B.u.: B.k.r.].%XZ.{.P.|.G.V.n.F.3.L N N z t.j.p.p.l.x.A.B.k.V.A.B.x.e.v.{.h.{.%X@X#Xs.7 4 * y l.v.i.",
"i < '.[.$X@X@XF.h.y.% q u.k.s.t # 6 7 6   7.;X[.g.k.a.s.a.%XZ.n F n b $X%X|.z.'.1X{.a.< 7 5 9 5 6 1 !.[.$X@X#XoXd.i.& q t.B.q.t ",
"<.< B.*X@Xh.j.a.f.i.N.B.'.k.k.r.v.a.y.h.B.%X#XM.*.7 9 O # a.N.b D P v V.M.a.r >.v.{.B.k.a.p.0 % <.= B.*X@Xh.j.a.f.i.M.M.[.k.~.r.",
"a.'.%XZ.B.i.t v.M.H.%Xa.a.k.k.d.k.B.%X[.$X[.%Xa.>.X q # 4 5 a.^.U.L.^.7 0 0 t.k i.#X$Xi.*X#X).=Xa.[.#XV.B.y.e v.M.#X%Xi.k.a.k.d.",
"k.n.J.:XZ.-XZ.[.$X'.p.9 4 w y.}.A.M.h.k.k.u.Z.[.k.h.k.a.).[.%XV.B.a.!.g y.f.N.M.Z.B.'.i.k.s.s.h ~.x.:X:XG.-XZ.[.$X'.t.>.4 w y.}.",
"A.}.{.t.f.W.V.{.k i.k.g.d.i.v.d.W.}.#XJ.J.A.Y.N.k.g.s.r.[.@Xu.3.O i r.l.V.i.h.j.oX7 8 ,.t.~.Z.f.A.}.<Xt.f.W.l.A.h a.k.g.d.v.B.g.",
"].@Xx.0 B.6 N.k.6.u.'.[.@X|.@Xb.k.].y.5   O * % v.v.h.k.{.|.'.e.y.}.:X#Xl.k k.}.a.7 4 0 q z.G.#X{.}.z.,.B.6 N.k.6.u.B.[.@X[.@Xc.",
"v.9 r # i.q B.a.= e a.[.].y.t.7 q 7.n.@X-X&X*XH.'.V.V.<XZ.[.%X'.&XH.j.r.y.`.%XH.h h.a.W.Z.{.h.B.v.9 r 0 i.q '.a.= e k.'.].a.y.7 ",
"n.7 y.E.y.t.r.].@XOXOX#Xn.>.;.5 h K.M.{.@XB.a.k.f.s.k.a.9 8 >.>.i.%X@X).y.r.].x.V.*X%X[.@X%X~.B.n.5 y.Q y.p.r.].+XOXOX#Xv.;.>.4 ",
"[.[.%X%XH.*Xi.2X@X<Xs.6XA.s.h.[.A.7Xu.q # & # >.k.k.k.z.:.%.%.%.9 p.{.G.oX6.k.j %X*XoXz.1.0./.}.[.[.%X%X#X*Xi.|.%XP.q.#XA.s.h.'.",
"#XB.r.f.i.{.%Xi.a.a.w i.a.%X).[.a.p.9 >.>.0 y a.x.{.|.#X@X%X[.{.%X[.k.V.7XC.}.p.y.f k.{.h.1X#Xk.%Xk.r.h.i.A.7Xi.y.v.w a.B.$X[.[.",
"0 p 6 a.j.s.a.}.#XM.'.'.[.%XG.#XB.B.f.f.s.k.].[.V.h.l.h.V.h.[.@XH.$Xz.7 Q.e.l.s.4 5.+ @XH.[.a.l.0 0 O y.j.s.a.}.#XM.'.'.[.*X@X#X",
"- 5 O * a.5 a M.[./.y.k.a.p.4.0 N.}.XX*X*XXX@XN.R.6 6 0 # 0 t e.A.[./.3XV.t 7 a.,.+ >.%X6X6Xz.4 - 5 & & a.5 a h.}.'.y.k.a.p.t 0 ",
").x.q 4 a.q # e.}.).e t 9 0 8 O a.).@XT.Y.@X_.a.; ;.p O < a.a.'.B.V.i.p.@X@X*X[.@Xn.$X(.).@X%X[.[.x.q 5 a.9 & i.[.Z.9 e 9 8 # + ",
"Z.#XB.N.V.p.p.7X6XC.= 8 0 + :.).A.{.].a.e.B.6XH.].h.M.Z.}.$XB.D.O 5 p # &.:.n.$X#X6XB.7 p.k.V.#XZ.#XB.M.V.p.p.7X8Xv.4 8 0 + q ).",
"6X(.{.N.%X[.V.N.s.|.!.< 5 /.a.r.*XG.%X%X@X}.@X*X#X$XG.[.{.j.a.i ,.8 4 B.C.@X[.Z.X v.l.h.l.h.V._.#X/.|.N.%X[.{.M.r.2X!.< 6 /.a.s.",
"9 =.c.P.). X'.p.y.k.'.i.Z.%XV.B.p.6 q z.z.<.X t 0 c.].N.k.u.=XG.@X$X[.#XZ.%X/.t a p.h.].V.h.{.a.9 =.c.A./.'.V.p.a.k.'.i.Z.#XB.B.",
"8 o ,.B.].%Xe.q k.B.].Z.#XH.@X[.l.7 4 q q O 6 r.n.[.@X-XH.M.a.E.B.M.h.a.[.S.P.i.{.[._.(.a 4 t.j.0 o q B.{.%Xe.7 k.k.].Z.*XH.%X[.",
"M.0 # = v.B.k.V.g.s.k.a.n.e p.k.@XC.@X[.[.@X@X:XA.%X].z.9 8 0 9 O 6 4 a.B.|.[.B.x.1.8 8 >.O q s.M.0 # = v.a.V.].j.s.k.a.v.e p.k."
};
