/* XPM */
static char *Colect1676382441[] = {
/* columns rows colors chars-per-pixel */
"64 64 239 2 ",
"   c #3D646D",
".  c #3E6373",
"X  c #3C6A74",
"o  c #3D657B",
"O  c #336B7B",
"+  c #3D6C7B",
"@  c #346875",
"#  c #3C727C",
"$  c #36727B",
"%  c #316C6E",
"&  c #7F6357",
"*  c #425E74",
"=  c #4A5E78",
"-  c #485F6D",
";  c #73586C",
":  c #695B74",
">  c #775B73",
",  c #6B586E",
"<  c #45676C",
"1  c #50646D",
"2  c #446573",
"3  c #4A6474",
"4  c #446C75",
"5  c #4B6A75",
"6  c #44657B",
"7  c #4B657B",
"8  c #436A7B",
"9  c #4A6B7C",
"0  c #536475",
"q  c #516A76",
"w  c #52667A",
"e  c #516B7B",
"r  c #5A657C",
"t  c #407176",
"y  c #43717D",
"u  c #4F717A",
"i  c #50707F",
"p  c #6B777A",
"a  c #73737C",
"s  c #78797C",
"d  c #706779",
"f  c #A45A33",
"g  c #AC5B34",
"h  c #A45B3B",
"j  c #AB5B3C",
"k  c #AB5637",
"l  c #B55839",
"z  c #AC672D",
"x  c #BD7528",
"c  c #AA603B",
"v  c #B66A38",
"b  c #BE763B",
"n  c #9E5836",
"m  c #C7732C",
"M  c #CA6E32",
"N  c #C76E39",
"B  c #D16E38",
"V  c #C37233",
"C  c #CB7534",
"Z  c #C57A33",
"A  c #C4743B",
"S  c #CB743B",
"D  c #CB793B",
"F  c #CA7A36",
"G  c #D37438",
"H  c #CF6E2D",
"J  c #C55339",
"K  c #975849",
"L  c #8B5754",
"P  c #915F5E",
"I  c #AB5D45",
"U  c #A85946",
"Y  c #B45B44",
"T  c #A35D53",
"R  c #8C6455",
"E  c #A86544",
"W  c #BD6D4B",
"Q  c #BD7252",
"!  c #B5744D",
"~  c #935C68",
"^  c #955A76",
"/  c #865D6E",
"(  c #886568",
")  c #96656B",
"_  c #917668",
"`  c #8A6475",
"'  c #976875",
"]  c #8C7C7A",
"[  c #A6766D",
"{  c #C56C4A",
"}  c #C67742",
"|  c #CB6D4B",
" . c #5F837F",
".. c #C88F3C",
"X. c #BE8A4A",
"o. c #BF9B55",
"O. c #B89343",
"+. c #938672",
"@. c #BF9E69",
"#. c #C68B4C",
"$. c #CA8D4D",
"%. c #C88A49",
"&. c #D28C4C",
"*. c #D38948",
"=. c #C4934B",
"-. c #CB914D",
";. c #C99646",
":. c #D3924C",
">. c #D59647",
",. c #C68D53",
"<. c #CC8E52",
"1. c #C98B59",
"2. c #D38B53",
"3. c #DA8D58",
"4. c #C59252",
"5. c #CD9253",
"6. c #C69959",
"7. c #D19354",
"8. c #D99859",
"9. c #E39E5E",
"0. c #D9A759",
"q. c #D2AE5A",
"w. c #E3A75C",
"e. c #C98B63",
"r. c #C7976A",
"t. c #D39C6A",
"y. c #E89D68",
"u. c #DDA564",
"i. c #D9AA63",
"p. c #E2A564",
"a. c #E2AB63",
"s. c #E6A668",
"d. c #EAB86F",
"f. c #F8C669",
"g. c #F2CB6F",
"h. c #3C6B83",
"j. c #3F6184",
"k. c #3C7681",
"l. c #446582",
"z. c #4A6381",
"x. c #446B82",
"c. c #4A6B82",
"v. c #496B89",
"b. c #526C82",
"n. c #556886",
"m. c #4A7083",
"M. c #477485",
"N. c #5A728C",
"B. c #5C7D8D",
"V. c #597795",
"C. c #457093",
"Z. c #6A6E8F",
"A. c #776E87",
"S. c #647486",
"D. c #6C7584",
"F. c #657B84",
"G. c #6C7A84",
"H. c #64748C",
"J. c #6C758B",
"K. c #647A8B",
"L. c #6C7B8C",
"P. c #737484",
"I. c #7A7584",
"U. c #747A84",
"Y. c #7B7A86",
"T. c #73758B",
"R. c #7B758C",
"E. c #727B8C",
"W. c #7B7B8D",
"Q. c #6D7593",
"!. c #647C93",
"~. c #6C7C93",
"^. c #6D7B99",
"/. c #657796",
"(. c #747592",
"). c #7C7693",
"_. c #747B93",
"`. c #7A7B93",
"'. c #747C9A",
"]. c #7B7D9B",
"[. c #707299",
"{. c #6F7DA1",
"}. c #747DA2",
"|. c #7B7DA3",
" X c #7B7EA9",
".X c #7778A4",
"XX c #4B5D83",
"oX c #847A8D",
"OX c #89798B",
"+X c #947988",
"@X c #847C97",
"#X c #896783",
"$X c #837DA4",
"%X c #857DA9",
"&X c #5E848C",
"*X c #6A8286",
"=X c #63818A",
"-X c #6C818C",
";X c #678085",
":X c #72818C",
">X c #788487",
",X c #6C8293",
"<X c #6D839A",
"1X c #6E899D",
"2X c #648597",
"3X c #748294",
"4X c #7B8295",
"5X c #74839C",
"6X c #7A839C",
"7X c #74899D",
"8X c #7B899D",
"9X c #788996",
"0X c #6685A1",
"qX c #6C83A2",
"wX c #6B88AE",
"eX c #6A86A8",
"rX c #7484A3",
"tX c #7B84A3",
"yX c #748AA3",
"uX c #7B8AA4",
"iX c #7584AA",
"pX c #7B84AB",
"aX c #738BAA",
"sX c #7C8AAA",
"dX c #7885B3",
"fX c #7290AC",
"gX c #82839C",
"hX c #82899A",
"jX c #838295",
"kX c #828483",
"lX c #8284A4",
"zX c #8389A4",
"xX c #8686A9",
"cX c #9B97B2",
"vX c #E7BD93",
"bX c #F0BDAA",
"nX c #E5C0A6",
"mX c #EED883",
"MX c #939DC1",
/* pixels */
"L.'.uX'._.G.w ~.(.|.uXG.L.E.E.I.E._.uXrXrX5X8X~.x.o 4 8 6 6 L.E.].6XL.5 x.l.!.U.E.pX7XJ.pXtX<XiXL.'.uX]._.G.w ~.(.|.uXG.L.E.E.I.",
"E.~.pXpX}.sX'.7XyX3XS.c.6 0 G.7X].T.I.L.E.H.'.6XY.E.E.L.5X'.uX'.E.E.L.D.E.U.E.U._.3X_.J.E.U.U.a E.~.pXiX}.uX'.7XyX3XS.c.6 0 G.yX",
"].7XgXF.U.*X`.6Xa G.L.Y.I.L.~.Y.-X7XlX XpX].$X).P.U.U.D.5XyX/.n.X e D.W.E.G.G.U.qX5 6 c.F.:X'.U.].7XgXF.U.-X`.6Xa G.~.Y.U.L.L.Y.",
"6X1XQ.x.(.4 `.E.N.H.'.5XrX6XyX/.E.3XG.3   X $ O ~.L._.T.5XuX~.G.=X0XdXyXE.I.~.eXK.9 2 6 9 !.}.tX6X1XQ.x.(.4 `.E.N.H._.5X}.6XyX/.",
"~.7 r + J.9 `.J.* w L.3X7XJ.G.5 9 N.~.yXsXiXiX X6XE.jX4X'.5X5X3XpX|.).T.E.7XtX$Xa T.-X-X'.6XI.'.~.7 r 8 L.7 `.J.* e L.5X8XL.G.5 ",
"~.3 G. .G.K.D.9XiXwXwXuX~.l.x.3 a W.`.tXuX_.J.Y.Y.p E.L.z.l.x.v.U.6XtX<XG.p Y.T.(.tXtX3XrXuX:X_./.5 G. .G.K.D.9XiXwXwX6X~.l.l.3 ",
"rX5XzXpX|.pXQ.hX5XjXA.tX].I.U.'.6XlXH.9 + + + x.L.E.L.L.c.l.x.h.7 L.3X9X<Xb.2Xp tXpXqX/.n.H.~.7X6X'.uXpXtXpXJ.hX7X@XA.tX].P.U.^.",
"tXE.D.U.J.4XuXJ.G.~.0 L.~.rX<X5XL.L.6 x.x.8 5 G.Q.lX5X7X5XrX7X`.rXyXQ.'.xX[.lXE.G.p :XtXJ.@XtXE.tX_.G.U.J.].uXJ.L.L.0 L._.yX5X5X",
"8 8 4 L.oXU.G.7XtX[._.5X7XrXrX|.'.E.U.U.I.D.6X6X=XF.E.E.T._.5XyX%XlXL.7 H.Y.L.L.6 M.@ yX].6X~._.8 # X G.oXU.H.7XtX(._.9X5XrX}.tX",
"= 5 X t L.3 c.L.7X3XG.E.L.K.i 9 ].<XqXpXpXqXiX).Y.0 3 8 6 c.q S.2X0X<X9X3Xv.7 E.c.o c.rXlXzXJ.3 = 3 4 # L.3 i T.7X,XG.:XL.K.b.8 ",
"<XQ.9 2 J.6 8 J.5X^.w 5 7 6 + X L.<XyX%X$XrX1XL.z.6 y X   K.T.@X(.oXA.P.~.yX].].rX^.uX<X<X5XuX5X5XQ.7 2 J.4 # J.5X^.w 7 7 6 8 X ",
"'.tX'.(.`.K.K.zXlX^.3 6 + o c.^.].4X6XL.S._.tXtXyX~.^.^.7XyX,XS.o 5 5 M.O c./.pXtXzXQ.5 B._.).uX'.tX'.`.`.H.K.zXlX^.3 6 + o c.<X",
"zX<X5X).uX5X6X(.P.hX-X2 5 ,XL.P. X}.uXuXrXrX}.pX7X6X].].tXQ.~.b.8 o 6 L._.iXqX5X. ~.R.T.`.I._.<XlX<X7X).8X7X].(.P.hX-X< 3 ,XL.D.",
"7 # !.].,X9X_.K.L.L.3XJ.'.tX_._.K.4 8 Q.Q.c.X e l.!.7XE.Y.J.zX'.{.yX7X7X'.uX<X9 9 H.T.gX3XT.9XJ.7 # /.].~.7X`.K.J.L.3XJ.'.tX_.3X",
"6 O c._.6XuXS.5 E.T.4X].tX|.uX5XW.5 . 9 9 + 4 D._.3X].zX3XJ.E.U.'.I.P.L.5X].W.Q.6X5X1X2X9 2 S.W.6 O c._.5XuXH.5 E.E.9X].pX|.tX6X",
"E.7 X . ~.L._.].Y.P.L.L.~.w K.E.|.^.7X5X5XrXrXiXqXpX6X`., d ; > , ; > ` @X9X9XE.~.w x.6 x.+ u T.E.7 +   _.L._.4XI.P.E.L.~.z.G.L.",
"E.3 K.3 4 5 [.6X_.4 3 4 + 6 7 L.L.@XE.1X(.I.L.uXrX0XY.T J f c g I g l I [ jXrXwXeXs $ h.7 8 < U.T.3 =X3 4 3 (.6X(.5 3 4 + 6 7 L.",
"7X_.E.E.5 &X~.lXE.L.h.x.J.L.6X5XuX7X].6X5XtXxX).+X] _ Q B A A H A Z m b ! R ` +XOXT.].].S.3XD.].8X~.E.E.5 B.~.lXL.L.+ x.H.L.6XyX",
"6X_.J.E.L.5X<X^.rX6XE.(.yXaXlXK./.z.h.@ !.rX`.) c h E #.#.-.=.6.<.u.i.a.1.E j U R m.K.tX9XMX4XcX6X'.J.E.E.7X5X^.rX7XJ.).rXaXlXG.",
"5X].8X_.xX'.2Xb.'._.lX5X].J.3 8 4 5 8 2 A.d & Q B B A &.#.7.<.1.1.5.#.#.#.<.2.$.{ > +.^.rXiX2XE.5X6X8X_.xX_.2Xv.].'.lX5X`.J.8 6 ",
"8 Q.4X_.P.7 x.2 3 8 ~.rXgX_.+ x.X 4 4 c.L.) n V 6.4.,.<.<.7.$.*.>.;...:.:.p.w.p.>.j _ xX-XX . x.+ (.]._.J.7 y * 7 9 ~.qXzX_.8 x.",
"6 ~.6X_.J.9 x.6 O y 5 L.yX0XZ.5 c.H.~.`.^ | S :.=.;.>.S N m F S A N | N } 4.6.q.;.-.e.#XOX+ m.7 6 ~.5X_.G.e m.6 O # 5 T.yX0XJ.3 ",
"'.<X7X_.6XL.!.9 4 w @ 9 P.`.uX}.].@XG.] l | $.4.1.7.2.{ Y n h I j j v g } *.$.$.u.q.4.Y ) 8 @ 8 '.<X7X_.5XL./.c.4 e @ 6 I.`.uXrX",
"rX5X).`.,X7X].~.`.S.E._.5XtX^.uX3X@X~ W Z ;.=.7.$.m m C S C m S D $.#.$.&.Z &.u.s.$.3...! ^ OXtX5X'.).`.,X7X4XQ.`.S.W._.1X].^.yX",
"L.5 o 7 V.yXyX|.yX].yX-XL.0 '.E.eX+Xh m ,.5.e.2.3.b z %.5.5.$.5.7.p.u.u.#.z A s.u.,.3.w.-.c ^ yXI.4 @ c.!.7X].rXrX@X6X_.J.5 (.E.",
"D.L.y 9 3 3 _.6X|. X^.< 5 L.S.s x.` Y G ,...=.Z v } %.7.<.5.$.$.$.-.=.5.6.2.$.A :.p.8.w.4.h ^ !.E.L.c.6 o w ).tXiXqX~.  y L.*XU.",
"_.H.~.2 5 E.S._.:XD.T.L.:X~.6 L.oX~ k B 5.>.<.x v $.7.<.#.5.5.$.7.$.$.5.5.8.2.z x p.a.u.<.f ) P.P.L.~.7 5 S.J.2X6XD.I.E.3XL.6 =X",
"2 tX5X5X8X3X_.8 % b.2XP.#X6XhXY.T Q #.-.,.V { D %.<.<.<.$.5.$.4.$.$.7.7.$.4.5.%.:.{ $.;.s.s.e.L > 8XqX_.8X9X-X4 @ b.L.R.A.gXgXL.",
"9 ^.xX<X5X).7 2 8 = c._._.~.(.` g M =.=.6.M Y N <.<.4.5.5.%.%.5.$.$.$.4.-.$.7.p.-.h } %.w.d.<.j > ~.aX'._.3X7 o h.3 4 L.~.2X`.P.",
"sXtX<X^.7X-XL.^.U.5X'.9X7XaXz., g S &.*.5.V l D $.<.<.$.7.$.$.<.7.7.$.%.6.$.#.u.-.k C w.w.g.$.l jXzX'.uX7XD.R.~.E.-X`.5XyXiXv.7 ",
"W.~.~.5X3XJ.~.4X'.aX/.L.P.,XS.' h A 2.3.;.Z k m 5.$.$.#.4.<.5.$.$.<.5.$.5.5.-.a.;.Y D w.0.g.o.k oXP.(._.-XE.I.6X}.rX'.(._.E.S.s ",
"W.G.L.R.I.I._.].W.L.2 5 q X W.~ l V =.6.X.C Y C 5.%.5.5.7.%.5.$.<.<.<.<.5.#.%.p.1.U 2.0.mXg.6.I ~ Y.E._.T.U.3X,X3XL.< 9 6 2 3XL.",
"E.E.U.G.=XU.I._.[.S.# O 7 + x./ g H 1.6.#.B Y M 5.%.5.5.<.%.5.$.-.<.5.$.7.<.#.u.$.I 2.u.f.mXr.c ^ U.:XE.U.L.G.J.I.G.% X 6 h.y S.",
"* b.o x.!.9 . E.G.+XA.V.J.U.:X+XT A 3.$.%.C j } 5.$.$.$.5.4.5.$.5.$.-.<.$.%.-.a.:.h 5.a.f.vXr.g , y X v./.8 - 9X_.oXQ.N.Q.P._.lX",
"L.-XG.s a E.tXtXE.yX}..X5X0X|.OXE V <.#.;.D j S $.<.$.$.7.$.$.<.$.<.5.4.7.5.-.0.$.c ;.8.f.nXr.g ' U.U.I.a L.lX.XF.5XiX'.hX5XrX].",
"5XuX].pXaX`.W.G.+ G.:X5XlXyX7X` l C 7.:.2.S g x <.5.7.$.6.%.%.7.$.7.$.#.6.-.4.s.,.j } p.f.nX6.c oX1X^.iXxX,XW.G.8 _.R.<XqXpXuX_.",
"9 E.E.G.U._.V.l.+ R.U.8 l.H.4XOXU } #.#.X.D | G %.5.<.#.$.5.$.<.<.5.$.4.7.-.:.8.%.} 3.y.i.vXr.L > E.I.D.G.K.~.v.7 E.I.b.h.!.6X3X",
"U.T.D.T.4XG.p kXP.iX XL.M.c.~.5XrX] E G $.*.3.F v %.7.<.#.5.4.$.$.%.7.-.$.p.p.z ..>.w.p.5.h R ).a -X_.E.4X*Xa *XU.qXaXS.5 4 ^.6X",
"~.x.!.W.G.rXxX}.`.I.P.7XrXP.U.yXwXOXU B o.=.2.V v } %.7.<.5.$.$.7.<.$.$.:.8.8.v *.a.w.8.7.E ~ _._.w J.3XT.3X$XiX_.D._.tX6XP.W.iX",
"+ 3 5 9 H.gXQ.E.O 6 4 =XiX%XL.4 2 ( Y B 6.-.<.7.3.v z $.5.5.$.5.<.<.<.a.p.Z v 9.1.o.0.f.1.h ' p X % z.7 G.8XR.L.7 $ 4 E.].rX!.4 ",
"-XG.I.^.wX6XT.z.`.L.'.pX X'.3 + 7 : ) W A <.1.:.2.V H F Z D V S C G &.-.O.Z %.3.q.s.s.6.r.) oXL.L.G.U.'.wX9XR.z.E.~.'.pXtX'.6 + ",
"tXtX@X].7XJ.U.:X:X(.yXH.6 $ 6 7 h.M.p ( f F ..;.r.;.&.W c g k I K j E Y } 3.7.#.i.i.1.U ) U.p P.tX|.$X].5XL.U.*X3X(.uXH.6 # 6 7 ",
"'.tX5X,XL.9 4 K.E.7XgX7 8 4 + z.8 S.`.oX) { } 5.,.$.:.D V V G S G B N G *.w.0.p.y.;.6._ >XB.l.C.'.tX7XE.L.5 6 =XE.5X6X7 8 6 X z.",
"S.5XsX1 G.6 h.3 T.S.5XE.E.5XuX0XfXpX4XiXa ~ f A 5.<.2.,.-.-.>.#.%.7.<.0.0.0.p.g.t.E [ s ^.uX`.a S.5XsX1 L.6 h.= T.D.3X_.E.5XuX0X",
"6X$XZ.3XI.~.6 E.L.3XK.J.E.6X_.pX.XyXiXE._.>X' W m M D 4.=.%.<.6.=.s.s.0.a.1.e.o.r.P > ].`.tXrX9XtX|.Z.3XI.~.6 E.-X3XK.D.E.5X'.uX",
"S.Q.6XD.6XsXyX|.D.u 2 4 5 W.~.J.0 !.-XJ.p pXoX#Xh U I 1.4.2.2.7.X.u.w.q.8.v l k ` ].eXJ.a I.`.L.S.~.6XP.4XtXiXtXP.5 2 # q W._.J.",
"t < :X5XiXrX}.rXY.J.$ 9 J.E.P.e $ 4 7 5 c.Y.oXW.) ` P { G S S m F %.4.-.r.+.#X+XoX9X^.6 k.@ 3 + 4 < ,X5XiXyXrXrXP.J.# 9 S._.D.e ",
"c.2 '.pXqXW.I.L.U.J.(._.5XE.L.D.'.U.s _./.iX'._.x.j.1 L l h E k l T Y g U U.h.h.'.oXI.L.P.L.8 l.c.- '.pXqXW.I.L.U.J.(.(.7XE.E.D.",
"L.].uX'._.S.e ^.(.|.uXJ.L.L.Y.I.E._.uXyXrX5X8X~.8 . 0 d ; ; ` ~ oX+X` > : r G.a L.tX8XJ.rXtX5XiXL.'.tX]._.S.e ~.(.tXuXD.E.E.E.I.",
"E.~. XpX.XuX'.9XyX3XK.7 3 q S.yX].(.I.T.E.K.'.uXE.L.T.L.].|.xX].G.E.L.I.E.J.3XE.'.~.3XJ.E.P.D.U.E.~.pXdX.XuX'.6XyX3XK.x.2 0 G.yX",
"].7X6XF.U.*X`.4Xa G.L.Y.I.~.L.W.-X7XtX X X.X@X(.a Y.U.E.tXyXV.c.+ c.S.L.~._._.P.{.5 6 c.F.:X_.U.].7X4XF.s *X`.].a G.L.Y.I.L.L.W.",
"6X7XQ.x.).5 '.E.N.H.5X5XrX6X7X/.E.3XD.5   X # O E.L.U.J.4X6X`.E.I.5XiX7XI.s E.eX2X5 o 6 e ~.}.tX6X7XQ.x.'.5 `.E.N.H.'.5X}.7XyX/.",
"~.7 r 8 L.7 `.J.* w L.5X9XL.G.5 5 N.^.yXsXiXpXtXrX~.5X6X'.'.6X9XtX].`.I.J.4X9X8Xa T.-X-X'.6XE.'.~.7 w 8 Q.6 '.D.* w L._.9XL.G.5 ",
"/.5 G. .G.=XS.9XiXwXwX6X~.l.l.3 a W.`.6XuX_.J.E.E.P.E.,X9 o + @ _.5XqX1XG.U.T./.R. XuX3X}.zXE._.~.5 p =XG.=XD.9XaXwXwXuX~.l.l.3 ",
"6X5XuXpX|.sXJ.8X7XjXA.tX].P.P.<X|.zXH.9 + + + x.Y.Y.G.S.7 8 x.x.6 !.9X6X/.N.L.W.rXiXrXH.n.N.~.yXrX'.uXsXtXsXH.8XtXjXA.tX].T.U.'.",
"tX_.D.U.J.].zXJ.G.~.0 E.~.yX5X5XL.G.6 x.x.8 e G.Q.yX6XrX}.pXrXtXuX6XT.'.aXqXuXG.U.p E.tXP.gXtXY.tXE.G.I.T.].zXJ.G.L.0 L.L.uX<X5X",
"8 + 4 L.oXU.H.5X|.[.3X5X5XrXtX|._._.P.U.U.I.6X6X'.I.W.E._.E.5X7X}.rXL.5 K.J.W.a 2 M.O rX|.5XL.E.8 y X D.R.P.L.7X|.~._.5X5XrX}.tX",
"= 5 X t L.3 i T.7X:XG.G.L.K.m.9 `.5XqXiXiXeXrX).&X4 4 6 6 9 7 H.].7X3XzX'.w 5 L.c.6 z.tXlXzX/.3 = 3 y # L.3 i T.7X_.G.E.-XK.m.9 ",
"5XQ.9 2 L.4 # J.5X<Xw w 9 6 8 X L.<XyX%X$XrX1XL.= l.y X < K.J.3X'._.J.K.5XrXsX5XrX^.yX<X1X5XtX5X<XQ.5 2 L.6 t J.rX<X0 w 9 6 8 X ",
"'.tX'.(.`.H.K.zXxX^.* 8 + o z.<X].6X4XL.S._.tX|.4XE.(.'.1XuX'.P.4 2 u @ h.l.^.iXuXtX(.5 K.L.].tX5X@X'.W.].K.K.zXlX^.* 8 8 o z.<X",
"tX1X6X).uX5X4X(.P.9X-X2 3 ,XL.P. X}.uXuX5X5XiXpXtXrXrX5X].T.L.u c.+ 3 Q.(.iX5X'.X ~.R.T.`.T.'.1XtX<X5X).uX7X].(.D.hX-X< 3 ,XL.G.",
"7 # !.].,X5X`.K.J.E.3XJ._.tX_.3XF.8 9 /./.c.. e o !.].`.E.Q.sX}.rXyX5XuX5XuX,Xe u H.L.6X`.I.4XL.7 k.!.].,X5X3XH.L.E.3XJ._.tX_._.",
"6 O c._.6XuXS.5 E.E.9X].pX}.tX7XW.5 X 7 9 + 6 D.^.'.rXsX|.J.E.;X_.(.I.~.5X].@XJ.6X5X1X<Xi < S.W.4 O c._.6X8XS.5 E.T.6X'.pX|.uX5X",
"T.7 +   ~.L._.gXI.P.E.L.~.w J.L.}.'.5X6X5XyXrXaX].zX5XL.4 9 6 6 o 4 3 L.(.uX~._.Q.b.6 6 x.@ 5 T.(.7 + . ~._.E.].Y.P.E.L.~.z.G.E."
};
