/* XPM */
static char *_72d128253ee43a7b12b668e27f5f255ehRw4uXcRbu2lxn7[] = {
/* columns rows colors chars-per-pixel */
"64 64 242 2 ",
"   c #3C5F7B",
".  c #3C646D",
"X  c #376C6E",
"o  c #35706E",
"O  c #3E6474",
"+  c #346F77",
"@  c #3C6A74",
"#  c #3E657B",
"$  c #336C7A",
"%  c #3D6C7B",
"&  c #346475",
"*  c #3D727C",
"=  c #36727C",
"-  c #7B6A57",
";  c #797457",
":  c #425E74",
">  c #4A5E77",
",  c #505F76",
"<  c #6A5A6D",
"1  c #6E5C72",
"2  c #44686C",
"3  c #50646D",
"4  c #446573",
"5  c #4A6474",
"6  c #446B75",
"7  c #4A6A76",
"8  c #43657B",
"9  c #4A657A",
"0  c #436A7B",
"q  c #4A6B7C",
"w  c #536474",
"e  c #52667A",
"r  c #526A7B",
"t  c #57647D",
"y  c #417175",
"u  c #42717C",
"i  c #4E717D",
"p  c #4D7074",
"a  c #50707E",
"s  c #5E7279",
"d  c #7F6B66",
"f  c #676374",
"g  c #72747C",
"h  c #78777E",
"j  c #6A7878",
"k  c #9D5D2F",
"l  c #AB5B35",
"z  c #A55B3B",
"x  c #AC5C3C",
"c  c #AB5736",
"v  c #B25C3C",
"b  c #B45535",
"n  c #A6582E",
"m  c #9F603D",
"M  c #AA6239",
"N  c #AF6535",
"B  c #C86A3A",
"V  c #CA7138",
"C  c #945550",
"Z  c #AB5B43",
"A  c #A85947",
"S  c #B35A44",
"D  c #B65747",
"F  c #AF574E",
"G  c #856759",
"H  c #9B7056",
"J  c #A46143",
"K  c #AA6148",
"L  c #BC6948",
"P  c #BA7742",
"I  c #AA6654",
"U  c #B27257",
"Y  c #8B5B76",
"T  c #856567",
"R  c #99696B",
"E  c #9D7B6C",
"W  c #9B7466",
"Q  c #83787A",
"!  c #976F78",
"~  c #A47868",
"^  c #AD726A",
"/  c #C36B4A",
"(  c #C66A45",
")  c #C27247",
"_  c #C66B51",
"`  c #D36542",
"'  c #5F837F",
"]  c #73827F",
"[  c #C5913F",
"{  c #BC9154",
"}  c #9D8374",
"|  c #B48573",
" . c #C58C4C",
".. c #CA8D4E",
"X. c #C78A44",
"o. c #D68C49",
"O. c #CB934E",
"+. c #C69348",
"@. c #C58D54",
"#. c #CB8D52",
"$. c #C88855",
"%. c #D38B54",
"&. c #CA9154",
"*. c #CB9359",
"=. c #C79655",
"-. c #D39357",
";. c #D4914A",
":. c #DAA756",
">. c #DFA64F",
",. c #E2A659",
"<. c #D48D65",
"1. c #C8996B",
"2. c #CD8770",
"3. c #DAA969",
"4. c #D9AA74",
"5. c #E3A662",
"6. c #F7BE6A",
"7. c #F7BD75",
"8. c #F7AB60",
"9. c #E69A68",
"0. c #EAC76A",
"q. c #F3C66B",
"w. c #F1D86D",
"e. c #F1C172",
"r. c #F5C778",
"t. c #ECD677",
"y. c #F2D27B",
"u. c #EEC15A",
"i. c #3D6C83",
"p. c #3C6483",
"a. c #3C7481",
"s. c #4B5D83",
"d. c #446582",
"f. c #4A6481",
"g. c #446B82",
"h. c #4B6B82",
"j. c #496C89",
"k. c #526C82",
"l. c #586A87",
"z. c #497081",
"x. c #487385",
"c. c #5A728C",
"v. c #5A798A",
"b. c #5D7B97",
"n. c #6A6E8F",
"m. c #756E88",
"M. c #647485",
"N. c #6C7484",
"B. c #647B84",
"V. c #6B7B84",
"C. c #64758C",
"Z. c #6C758B",
"A. c #647A8B",
"S. c #6C7B8C",
"D. c #737484",
"F. c #797584",
"G. c #747A85",
"H. c #7C7986",
"J. c #73758B",
"K. c #7C758C",
"L. c #737A8C",
"P. c #7B7A8D",
"I. c #647693",
"U. c #6C7593",
"Y. c #647C93",
"T. c #6C7C93",
"R. c #6D7C9A",
"E. c #687B9A",
"W. c #747592",
"Q. c #7B7693",
"!. c #747B93",
"~. c #7A7B93",
"^. c #747D9A",
"/. c #7B7D9B",
"(. c #707299",
"). c #747DA3",
"_. c #7B7EA3",
"`. c #7C7EA9",
"'. c #6C7DA5",
"]. c #8A6883",
"[. c #827A8C",
"{. c #877987",
"}. c #847C9C",
"|. c #827DA4",
" X c #857DA8",
".X c #867FB3",
"XX c #5C8984",
"oX c #6A8286",
"OX c #63818A",
"+X c #6C818D",
"@X c #678085",
"#X c #72818C",
"$X c #7F8289",
"%X c #6D8294",
"&X c #658699",
"*X c #6C839B",
"=X c #6E899D",
"-X c #668897",
";X c #738294",
":X c #7B8296",
">X c #73839C",
",X c #7A839C",
"<X c #74899D",
"1X c #7B899D",
"2X c #778996",
"3X c #6685A1",
"4X c #6C84A2",
"5X c #6D89A3",
"6X c #6B88AE",
"7X c #6C82AB",
"8X c #7484A3",
"9X c #7B84A3",
"0X c #748AA4",
"qX c #7B8AA4",
"wX c #7684AA",
"eX c #7B84AB",
"rX c #738CAA",
"tX c #7C8AAA",
"yX c #7891A7",
"uX c #7883B0",
"iX c #7488B1",
"pX c #82839C",
"aX c #81899A",
"sX c #828295",
"dX c #828483",
"fX c #8284A4",
"gX c #8389A4",
"hX c #8284AA",
"jX c #8A86A7",
"kX c #8BA2B4",
"lX c #E9BB9B",
"zX c #F3B18F",
"xX c #D5A5A1",
"cX c #E9B7AC",
"vX c #F3BBAE",
"bX c #DDA58E",
"nX c #F2C98B",
"mX c #D5D8AB",
"MX c #D7D5B5",
"NX c #D4D5B2",
"BX c #E3C8AB",
"VX c #C8E1AA",
/* pixels */
"S.^.qX^.!.N.r R.J._.tXN.S.L.L.F.S.;XqXqX8X>X,XT.g.8 0 0 % 8 S.J./.,XS.7 g.d.Y.G.S.8X,XZ.wX9X*XwXS.!.qX^.!.N.e R.J.9XqXS.V.L.L.G.",
"L.T.uXeX).tX^.>X0X;XB.g.4 w V.0X/.W.D.J.L.C.>X/.G.G.L.S.>X^.qX/.P.S.L.M.L.G.#XG.^.!.;XZ.G.G.g G.!.T.eXuX).qX^.>X0X;XA.f.8 w N.<X",
"/.<XpXB.G.oX~.,Xg S.L.H.F.T.S.H.+X2X9XeXeX/.|.Q.D.G.G.Z.>X8XI.l.@ q D.P.L.S.V.G.4X7 8 j.B.#X^.G.^.<XpXB.G.oX~./.g S.S.H.F.S.L.P.",
":X8XU.0 W.6 ~.L.c.C.;X>X8X,X8XY.S.:XN.5 . @ = + S.S.W.L.>XqXT.V.OX3XiX8XH.G.S.7X+X5 4 d.k.Y.).9X,X8XU.0 !.7 ~.S.c.C.^.;X8X,X0XY.",
"T.9 t % Z.9 ~.V.: e T.;X,XV.V.7 q c.R.8XtXwX8X8X,XL.sXpX!.>X<X;XwX_.Q.J.S.>XfXfXg Z.S.oX^.,XL.!.^.7 l.0 Z.7 /.V.: e S.;X,XV.V.7 ",
"R.7 V.@Xj OXN.,X8X6X6X9XT.d.g.5 g [.~.,XqX^.J.L.G.N.G.S.f.d.g.j.F.9X8X%XV.j L.W.~. XqX;X8XgX#X!.R.5 j @XV.OXN.1XwX6X6XqXT.d.d.6 ",
">X>XtXqX`.tXZ.1X8XsXD.fX/.D.J.;X_.gXC.q % % % g.L.#XV.Y.h.d.g.p.9 S.:X2X&Xk.S.j qX8X4XI.l.c.!.<X>X;XtXwX_.wXZ.aX8XsXD.9X/.D.J.^.",
"9XL.N.G.Z.,XfXZ.V.T.w Z.S.qX4X>XS.B.9 g.g.0 r V.T.fX>X,X>X8X>X:X8XqXU./.hX(.gXL.V.j ;X,XJ.}._.L.9XL.N.G.Z.,XfXZ.S.S.w S.W.0X8X;X",
"q u @ V.K.D.S.<X9XW.;X;X8XqX).8X!.!.D.G.G.G.,X,XS.G.L.L.L.Z.|.9XwX9XZ.t T.D.P.J.4 x.$ 8X9X/.S.L.0 u @ S.[.D.A.>X9XW.^.;X>XqX).8X",
": 5 % * +X5 i Z.<X;XV.L.S.A.q q /.>X*XwXeX7X8XQ.L.q 8 q d.% i B.>X5X-X1X%Xg.0 OXj.# f.qXfXfXY.5 > 5 % y S.5 a L.<X%XV.L.S.A.k.q ",
">XU.q 4 S.7 0 Z.>XR.e e 9 q 0 % S.*X0X X|.8X=XZ.p.q 0 X . S.W./.~.P.D.N./.).qX^.8XT.0X*X*X>XqX;X;XU.q 4 S.7 % Z.>X;X9 e 9 0 % % ",
"^.9X^.Q.~.C.A.gXhXT.: 0 % # f.*X!.pX,XS.M.W.qX9X,XT.R.^.>XgX!.J.$ 6 7 0 g.> R.rX9XfXT.7 A.U./.qX^.9X^.W.~.C.A.gXfX(.4 0 % # f.%X",
"fX*X>X~.1X>X,XW.D.aXoX5 6 %XS.D.`.).qXqX8X>X8X`.,X>X;X9X/.T.Y.r h.8 O S.T.wXwX~.O T.P.D.~.K.!.=XfX*X>X~.qX2X,XW.D.aXoX5 7 %XS.D.",
"9 * Y.}.%X<X!.A.S.S.;XS.!.9X!.!.A.6 q I.I.j.@ r d.Y.,XS.S.D.fXR.8X8X>X1X;X0X*Xt i C.L.,XL.J.:XZ.9 a.Y.}.%X>X!.A.S.S.;XZ.^.9X!.!.",
"0 + g.W.,XqXM.q L.L.,X!.eX).8X,XP.7 @ 9 q % 6 N.[.^.qXhX_.S.L.{./.F.F.;X8X;X;Xv.,X>X=X*Xz.5 B.~.0 + g.W.,XqXM.7 L.L.:X^.9X).qX>X",
"W.7 % O T.L.W.:XF.D.L.S.T.e S.S.).^.>X,X>X8X8XuXwXqX>Xv.w f < 1 < 1 < {.[.gX;XL.U.r d.8 g.@ 7 L.W.7 % O %XL.W./.F.D.L.S.R.e S.S.",
"J.5 A.5 6 7 W.8XS.7 7 6 % 8 9 S.%X~.~.8XJ.P.L.wXqXL.J.Q N.x A Z J I Z S ~ _..X5XfXU.9 0 @ 0 6 A.J.5 OX5 6 7 W.9XZ.7 5 6 * q 9 S.",
",XS.L.T.7 OXT.fX;XZ.p.g.Z.S.,X8X1X/.R.>X,X>X*X|.R.rX'.! ! L ( l v =.+.F G @ j 2X^.R.>XZ./.K.m.~.1XT.L.L.7 A.T.fXL.U.p.g.M.S.,X8X",
">X~.Z.L.J.>X;XE.>X,XN.Q.0XrX|.B.Z.j.i.@ W.8XrXqXwX(.rXI A %.@.J v 0.7.F C O j.d.* q T.qX;XkXyXkX,X~.Z.L.Z.>X>XR.8X<XN.Q.8XrXfXV.",
">X,X1X!.jX!.=Xj./.^.9X8X^.L.6 8 0 8 # i S.> f.Z.fXdXT V B ( ( L U e.8.2.^ d < d.+ 7 W./.=X5XZ.Q.>X,X,XT.jX!.&Xx./.^.fX>X/.Z.6 0 ",
"% !.,XW.Z.7 g.O 5 f.Y.<XqXW.0 0 h.q . 0 W.K.%X-XL.W A O.{ D M #.$.:.:.vXbXx U G.Q.Q././.T.e 9 0 % !./.W.Z.7 g.4 9 q Y.8XqXW.u g.",
"8 T.,X;XZ.q h.8 $ * 7 L.0X3XU.5 $ L.#X>X^.!.#XL.U.C D { { D J %.o.=.@.lX4.n E 8X*X<X;X1XM.9 0 a.8 R.<X!.S.r u 8 $ u 7 L.8X3XZ.5 ",
"^.*X>X!.;XS.A.h.6 e & 0 D.~.qX8X8X!.M.0X8XZ.L.[.0XW k @.*.x S %.;.J B 7.,.A E S.,XW./.N.;Xq 0 # ^.*X>XW.>XS.I.h.6 q & 0 D.~.qX8X",
">X^.Q.~.;X0X/.T.~.B.P.!.>X,XR.qX,XhXW.;XqX5X9XY ~ ( o./ ` #.=.[ #.A B 0.q.#.;.~ }.Z.u 6 S.,X/.0X>X^.~.~.%X<X,XW.~.N.P.!.>X,XR.8X",
"S.7 4 q A.0X5X_.qX/.,X!.C.9 W.L.4XwXfX'.qX0 4 G x *...( v  .O.%.+.b ( e.e.,.-.S - a 0 q 8 G.!.>XS.6 8 9 Y.0X5X_.8X/.,X!.M.e W.L.",
"N.T.0 g.9 4 !._.`.4XR.. p S.oXG.9 /.W.tXY.> 0 T z &.../ v @.=.) L 4.4.;.O.e.,.z ! V.V.% h.0 Y.F.N.%X0 g.6 5 !./.`.5XR.. q A.oXG.",
"~.C.T.4 7 L.M.!.:XN.H.L.;XZ.0 A.B.P.J.-XqXL.^.G x &.#./ x #...l c y.0.n  .0.5.M ^ }.1XT.*XP.G.T.P.A.U.4 7 L.M.:X:XN.H.L.;XS.0 OX",
"4 9X>X>X1X;X~.6 & k.S.K.K.pXpXV.L.6 6 0 Q.=X<XW x #.../ x *.&.c v zXvXN &.lXcXF - P.'.hXB.j O r 4 qX>X>X1X!.W.6 & k.B.[.m.pXpXS.",
"q *XjX*X;XQ.q O % 4 6 T.T.%X~.S.q 8 u & 4 W.;X} x @.../ v @.&.x z cXcXz %.BXxXb E 7XK.G._.,XJ.OX9 E.jX>X;XQ.q O g.4 6 T.T.*X~.Z.",
"tX9X4XR.>X%XZ.R.L.+XP.<XrX5Xf.9 0 d.0 i.k.e M.W Z  .../ v @.&.x F VXmXZ O.t.r.n E j i % l.:X8X>XtXfX*XR.;X;XL.E.L.S.~.<X0X8Xh.9 ",
"P.T.S.;X;XN.T.pX).8X~.U.!.W.B.G.6 T.Q.% T.%X,XG x &.O./ x #.&.x Z NXMXc -.t.e.N ~ qX^.~.i j Z..XW.S.T.>X;XN.T.pX).8X/.U.!.!.B.G.",
"L.S.S.K.K.G.W.,X;XJ.2 q 8 O ;XG.oXJ.:X}.qXA.4 ~ Z &.#.( c &.&.x n BXlXS #.w.r.A G S.S.0X^.gX8X0X#XS.S.K.F.L.W.,XL.S.2 7 6 O !.G.",
"L.D.D.V.@XL.P.L.K.B.o + 9 i.* M.J.T.;X>X~.L.D.~ x *.O./ l ..&.l S cXvXJ  .w.y.z T 9 8 e C.Z.qXS.G.S.D.V.oXV.P.S.K.B.+ X 9 g.% B.",
": k.% g.Y.7 O J.~.[.Z.l.U.D.~. XqXR.^.(./.>X<XE x ..../ v &.&.z l mXmXM -.nXr.c - g.$ @ l.!.5X6 > k.% g.Y.7 O L.P.[.Z.c.U.N.!.hX",
"+X+XV.h h Z.tX8XB.>XwX^.aX8X5X/.D.e i % q i B.W x  .#./ v #.&.x z mXBXZ { t.r.x } 5X5X2X>X^.).Q.+X+XV.h h J.9X9XB.8XwX^.aX>X8X/.",
">XqX/.qXrX/.[.V.0 W.P.R.4XtX,X^.%X% O # f.@ * d Z  .&./ c $.=.x J r.r.M | mXBXK ^ ,X*XW.!.fXtX!.,XwX/.9XrX/.[.V.g.L.P.R.4XtX,X^.",
"q L.L.V.G.W.Y.p.9 !.G.k.% Y.,X%XU.h.0 g.0 % 9 G x  .&./ v *.#.l z 6.q.v 1.MXBXv ^ C.x.9 8 8 % @ 0 L.G.V.D.W.b.p.4 W.P.k.p.Y./.%X",
"D.L.N.J.~.V.j dXG.>X0XM.7 0 R.,X;X*X,X^.D.L.S.~ v  .&./ v *. .l b w.nXD @.t.e.l ; % 8 7 0 @ g.S.D.L.Z.L.:XV.j dXG.<X8XM.p q R.,X",
"T.g.Y.P.Z.8XhX).W.S.!.9X1Xg ~.8X9X7XqX).9X9X_.~ M ..&.L v #. .) ( :.-.( *.0.,.M G 0 u 5 C.~.!.D.I.z.T.P.N.qXhX).!.S.W.8XqXg P.8X",
"% 5 7 q B.gXZ.L.9 + 0 J./.wXT.7 q 8 A.T.:XS.S.~ x ..&.( v +.-.5.:.I Z ,.:.3.#.M ~ Z.!.Z.qX%XS.H.0 5 7 0 A.aXZ.W.9 + 6 L./.wXY.6 ",
"S.oXG.^.rX,XJ.f.L.S.8XeX_.W.8 % # * 6 Z.jX8XW.Y T U X._ ` X.-.:.,.A L 5.3.X.[ T ].{.~.S.L.N.L.#XS.V.G.^.5X,XJ.f.L.T.^.wX9X^.8 % ",
"9XfX|./.^.S.G.oX%X~.qXC.% * 0 9 d.k.N.T.R.5X<XL.Q H N ..<.A C %.o.V V 5.+.A | j n.,X>X>XJ.~.D.V.9X|.|./.<XS.G.oX+XQ.qXI.8 * 8 9 ",
"^.8X8XT.S.q 7 A.L.,XpX9 0 q & f.f.R.,XL.qX*Xl.V.T.} v O.=.x k o. .+.X.r.,.b ^ 0X8X0X=XY.S.M.r q ^.8X>XT.S.q q A.L.>XpX7 % q % 9 ",
"M.;XqX3 S.8 i.5 Z.N.^.L.L.>XqX3X`.qX,X~.C.z.& 6 5 W S %.+.b N #.=.4.3.7.,.Z R qX}.W.J.W.jX/.^.I.M.>XtX3 V.8 i.> L.N.^.W.L.>XqX3X",
"qX|.n.:XF.T.8 L.%X;XC.N.~.;X^.qX'.5X;X~.P.Z.W./.Z.].Y ( N ( ) -.o.u.3.<.=.- f !.>X%Xv.B.S.:X~.pX,X`.n.#XF.Y.9 L.+X;XS.N.L.>X!.tX",
"M.Z.>XZ./.tX8X,XD.7 4 * 9 P.T.Z.q ^.L.B.!./.,X<X/.8X8XU U +. .) V q.q.K H :XZ.m.W.!.+XS.A.T.S.S.B.W.,XJ.,XqX8X9XD.q O u w P.T.Z.",
"6 2 ;X>X8X8X8X'.H.V.* 0 M.L.D.r + . q u @ N.tX&X[.g S.R Y B ( _ L 1.O.M W ,XoX,XqX,XS.3 6 . % % 7 2 %X;X8X8X8X4XF.N.a.0 B.!.m.r ",
"h.: W.eX5XL.{.S.G.Z.Q.W.<XL.S.N.P.D.W.Z.L.,X/.!.$ p.j.. g.Z D k F M n F ~ S.7 i.R.;XW./.L.S.k.8 j.: ^.eX8XJ.[.S.G.Z.W.W.;XL.+XN.",
"S.^.qX/.L.S.e R.J._.tXV.S.L.G.F.S.>XqX8XqX*X,XW.g.# 0 9 w f P.] sX{.Q f f , V.oXZ.qX<XZ.eXqX;XwXS.!.qX/.!.N.t R.J._.tXS.S.L.L.F.",
"#XT.`.eX).tX^.>X0X;XM.g.4 w V.0X/.W.D.J.L.N.>X_.L.S.oXS.,X/.qX;X#XL.L.D.Q.D.P.D.^.!.;XN.G.D.N.G.#XT.eXuX).tX^.<X0X;XB.9 4 w M.<X",
"/.<X,XB.G.oXP.,Xg S.L.H.F.T.T.H.+X2X9XeXeX_./.Q.h G.L.N./._.I.l.4 7 Z.P.^.Z.L.Q.4X7 8 j.B.;X!.G.^.,XpXB.G.oXP.,Xg V.S.H.F.S.!.H.",
",X>XU.g.!.7 W.L.c.C.;X>X8X,X8XY.L.;XN.w . @ = + L.S.!.L.,X9X^.Z.T.;XrX>X#Xh S.wXT.7 4 # k.I.).9X,X5XU.0 W.6 ~.L.c.C.;X8X8X>X8XY.",
"^.6 t q Z.8 /.V.: e S.!.,XV.V.7 q c.R.0XtXwX8X8X,XS.,X2XR.=X=X2X0X/.Q.N.S.=X2X,Xg J.S.+X^.,XJ.!.^.6 t 0 Z.q !.S.: e S.>X1XV.V.7 ",
"I.7 V.' V.A.N.:XwX6X6XqXT.d.g.5 g [.W.,XqX^.J.L.P.N.L.S.9 # g.0 S.>X8X^.G.D.L.I.Q.9XqX;X).qX#X!.T.5 V.@Xj OXN.,X0X6X6X,XT.d.g.5 ",
",X>XgXtX_.9XI.1X8XsXm.9X/.D.J.^._.gXC.q % % % g.L.L.G.T.j.g.d.d.9 R.:X,X^.l.!.D.qXwX4XI.l.C.T.<X9X*XgXwXeXtXZ.aX8XsXm.fX/.D.J.^.",
"8XW.V.G.S./.gXJ.V.+Xw S.L.0X5X;XS.B.9 g.g.0 r V.S.,X~.,X8X8X>X,X8X,XZ.T.tXY.1XV.V.j #X9XJ.pX9XL.9XL.N.G.Z./.qXZ.V.T.w Z.T.qX5X;X",
"0 u @ S.K.D.S.>X`.W.!.;X>XtX).8X!.!.G.G.G.J.,X,X~.J.~.L.L.L.>X>X8XqXS.9 A.N.P.g 4 x.$ 8X_.>XL.L.0 u @ N.K.D.S.<X9XW.;X>X>XwX9X8X",
"> 5 % 6 S.5 i L.2X;XV.#XS.A.k.7 /.>X*XwXeX4X8XQ.XX6 4 0 g.g.r Z./.>X%XjX^.r 7 S.j.8 f.qXfXfXI.4 > 5 u * S.5 i Z.>X;XV.L.S.B.k.7 ",
";XU.q 6 S.7 % Z.4XR.9 e 9 q % % S.*X8X X|.8X=XZ.s.8 g.o 2 V.Z.;X!.W.L.B.*X8XtX>X8XR.0X*X*X>XqX>X*XW.q 5 S.7 u Z.>X;X9 9 9 q % # ",
"^.9X^.W.~.A.A.gXfX^.4 8 % # f.*X~.,X,XS.M.W.qX9X:XL.W./.;XrX^.D.@ 6 u % p.f.'.8X,XfXT.9 A.L./.9X^.9X^.W.~.A.A.gXhXT.> 0 % # f.*X",
"9X*X8XQ.qX>X:XJ.D.1XoX5 6 %XS.D._.8XqXqX0X>X8XeXeX8X8X/./.P.S.7 h.8 4 !.W.8X>X^.O T.P.D.~.D.~.=XqX*X>XQ.qX<X/.W.D.aXOX5 6 %XS.D.",
"9 a.Y.}.%X>X/.A.Z.L.;XS.!.9X!.!.A.6 g.U.I.j.O r 8 Y.:X!.L.C.tX'.8X0X>X,X>XtX;Xr i C.L.,X~.L.:XZ.9 * Y.}.;X;X!.A.S.L.;XZ.!.9X!.!.",
"8 + 0 W.<X1XM.7 L.L.,X!.`.).qX>XP.7 O q q @ 6 N.R.>X8XtX`.J.S.oX!.W.J.T.>X/.}.Z.,X>X=X&Xi 4 B.~.8 + g.W.,XqXM.7 L.S.,X!.tX).8X,X",
"W.7 * O %XW.W.:XH.D.L.S.T.e S.S.).^.8X,X>X8X8XuX/.9X,XA.9 0 0 8 @ 6 5 S.!.,X%X!.U.k.8 8 g.@ 7 J.W.7 % O T.T.!.sXF.D.G.S.R.e S.S."
};
