/* XPM */
static char *_553459740fd4357cb719f904aea58cctiNECnDlcvpvFZDr[] = {
/* columns rows colors chars-per-pixel */
"64 64 238 2 ",
"   c #3D646E",
".  c #38726D",
"X  c #3D6373",
"o  c #3C6A74",
"O  c #3D647B",
"+  c #326D79",
"@  c #3D6C7B",
"#  c #346974",
"$  c #3C727C",
"%  c #387279",
"&  c #2E6375",
"*  c #3B5E72",
"=  c #7E615D",
"-  c #435E73",
";  c #495E78",
":  c #515E71",
">  c #6E5D6E",
",  c #745A74",
"<  c #705B6C",
"1  c #45676C",
"2  c #50646D",
"3  c #436573",
"4  c #4A6474",
"5  c #446B75",
"6  c #4B6A75",
"7  c #43657A",
"8  c #4A657B",
"9  c #436A7B",
"0  c #4A6A7B",
"q  c #536575",
"w  c #52667A",
"e  c #526B7B",
"r  c #56677B",
"t  c #417176",
"y  c #42717D",
"u  c #4E717D",
"i  c #4E7173",
"p  c #50707F",
"a  c #7D6968",
"s  c #6A777B",
"d  c #72737C",
"f  c #79747C",
"g  c #656575",
"h  c #9C593A",
"j  c #AD5D33",
"k  c #AC563C",
"l  c #AB5D3D",
"z  c #A55A39",
"x  c #B25C3A",
"c  c #9C6235",
"v  c #A56138",
"b  c #B86736",
"n  c #BD753B",
"m  c #B2692B",
"M  c #C5742C",
"N  c #C76E38",
"B  c #C57333",
"V  c #CA7433",
"C  c #C37934",
"Z  c #C5753D",
"A  c #CC723B",
"S  c #CA7B38",
"D  c #CE7233",
"F  c #965552",
"G  c #AB5C43",
"H  c #A85944",
"J  c #B35A46",
"K  c #926A58",
"L  c #A86447",
"P  c #B6684A",
"I  c #BA7349",
"U  c #AF7559",
"Y  c #8A5C6A",
"T  c #965D6A",
"R  c #8F5D74",
"E  c #896668",
"W  c #92656A",
"Q  c #896779",
"!  c #916476",
"~  c #8B7771",
"^  c #AC7E7A",
"/  c #C86A46",
"(  c #C77745",
")  c #D27342",
"_  c #5F837F",
"`  c #76807C",
"'  c #BC8D3D",
"]  c #CA863E",
"[  c #BD9150",
"{  c #83827D",
"}  c #BF9364",
"|  c #BCA768",
" . c #CB8C45",
".. c #C58C4B",
"X. c #CB8D4D",
"o. c #C78649",
"O. c #D28D4D",
"+. c #D58949",
"@. c #C99346",
"#. c #C5934B",
"$. c #CC924C",
"%. c #C39448",
"&. c #D3914B",
"*. c #D8924A",
"=. c #CB8E51",
"-. c #C88B55",
";. c #D28D54",
":. c #D88B56",
">. c #C69252",
",. c #CC9253",
"<. c #CD9259",
"1. c #C69858",
"2. c #D39254",
"3. c #D69657",
"4. c #E69858",
"5. c #C7A25E",
"6. c #DBA95D",
"7. c #D8A658",
"8. c #DAB051",
"9. c #E3A45D",
"0. c #E4A85A",
"q. c #CB8A67",
"w. c #C79964",
"e. c #D29068",
"r. c #E29E64",
"t. c #F09F60",
"y. c #DCA664",
"u. c #DBA865",
"i. c #DCAC6A",
"p. c #E1A462",
"a. c #E5A968",
"s. c #EFBF6C",
"d. c #F8C56B",
"f. c #F8C674",
"g. c #E4C06C",
"h. c #3D6C83",
"j. c #3D6385",
"k. c #3D7081",
"l. c #446581",
"z. c #4B6482",
"x. c #446A83",
"c. c #4B6B82",
"v. c #476989",
"b. c #536D83",
"n. c #556887",
"m. c #497081",
"M. c #487485",
"N. c #5A728C",
"B. c #5C7687",
"V. c #5D7B97",
"C. c #6A6E8C",
"Z. c #756F88",
"A. c #647486",
"S. c #6B7584",
"D. c #657B84",
"F. c #6C7B84",
"G. c #64758C",
"H. c #6C758B",
"J. c #647B8C",
"K. c #6C7B8C",
"L. c #737484",
"P. c #797584",
"I. c #747A85",
"U. c #7B7A85",
"Y. c #73758B",
"T. c #7C758B",
"R. c #737B8C",
"E. c #7B7B8D",
"W. c #6D7593",
"Q. c #647B93",
"!. c #6C7C93",
"~. c #6E7B9A",
"^. c #647897",
"/. c #747592",
"(. c #7B7694",
"). c #747B93",
"_. c #7A7B93",
"`. c #747C9A",
"'. c #7B7D9B",
"]. c #747399",
"[. c #7A6F97",
"{. c #747DA2",
"}. c #7B7EA3",
"|. c #7A7DA8",
" X c #6D7CA1",
".X c #4B5D83",
"XX c #81798C",
"oX c #887986",
"OX c #847B9A",
"+X c #936B81",
"@X c #837DA2",
"#X c #857CA1",
"$X c #6A8286",
"%X c #63818A",
"&X c #6C818D",
"*X c #668386",
"=X c #73818D",
"-X c #78808D",
";X c #6D8293",
":X c #6C839B",
">X c #6D899E",
",X c #668697",
"<X c #748294",
"1X c #7C8296",
"2X c #73839C",
"3X c #7A839C",
"4X c #74899D",
"5X c #7C899E",
"6X c #738997",
"7X c #6685A1",
"8X c #6C83A2",
"9X c #6B89AD",
"0X c #6A86A7",
"qX c #7484A3",
"wX c #7B84A3",
"eX c #748AA3",
"rX c #7B8AA4",
"tX c #7685AA",
"yX c #7C84AA",
"uX c #748DA9",
"iX c #7B8BAA",
"pX c #7685B0",
"aX c #7690A7",
"sX c #5C8984",
"dX c #858287",
"fX c #828295",
"gX c #82849C",
"hX c #81899A",
"jX c #928496",
"kX c #8284A4",
"lX c #8389A4",
"zX c #8285AC",
"xX c #8886A7",
"cX c #8384B4",
"vX c #95A2BC",
"bX c #E9B4A6",
"nX c #EFCE87",
"mX c #F3C1A6",
/* pixels */
"K.`.rX`.<XS.r !./.wXrXH.K.R.R.P.K.).rXqXeX2XrXK.x.7 5 9 9 3 !.Y.}.1XK.6 x.l.J.I.K.yX2XH.tXwX<XtXK.).qX'.<XS.r !./.wXrXK.K.R.I.P.",
"R.!.yXyX{.rX`.2XeX<XD.x.3 q F.eX'._.Y.L.R.G.2X3XI.Y.R.K.2X2XrX`.R.R.K.F.R.R.R.I.).).<XH.R.L.L.F.).!.yXpX{.rX`.2XeX<XD.z.3 q S.eX",
"'.4X3XD.I.$X_.3Xd K.R.U.P.K.R.U.&X4XlX|.|.'.@X(.L.L.I.H.2XqX^.n.o 0 L.E.R.K.F.I.8X6 7 c.D.=X_.I.'.4XgXD.I.$XE.3Xs H.R.U.P.!.!.U.",
"3X2XW.x.].5 _.R.N.G.).2XqX2XeX^.R.<XS.4   o % + K.K.).R.2XrXK.H.%X7XpXqXI.U.K.9X&X0 X 7 p Q.{.wX3X8XW.9 ].5 _.R.N.G.<X2XqX3XeX^.",
").7 r 7 H.8 _.F.- w R.2X3XK.F.6 0 B.!.eXiXtXyXwX3XR.fXgX).2X6X<XtX}.(.Y.K.3XwX#Xd Y.K.&X2X3XR._.).7 r 9 H.8 _.K.- r K.<X3XF.F.6 ",
"!.6 F.sXF.%XS.3X0X9X9X3X!.l.x.4 d E._.}.wX).K.I.I.S.R.K.z.l.x.c.P.3XwX6XF.s R.W.T.zXrX<XqXlXR.).!.6 S.sXF.J.S.3X9X9X9XrX!.l.x.3 ",
"qX`.lXrX}.iXH.5XwXfXZ.wX'.Y.L.`.'.kXG.0 @ $ h.x.R.=XF.J.c.x.x.j.8 K.<X<X,Xb.&Xs qXtX8X^.z.C.!.4X2X6XlXiX}.tXH.hX3XOXZ.wX'.L.Y.`.",
"wXR.F.Y.H.'.kXH.F.<Xq K.K.rX:X2X&XK.7 x.x.7 q K.W.lX2X3X2XqX2X1XqXqXW.'.zX].lXR.F.s =X3XY.gX}.R.wX/.S.I.K.'.lXH.F.&Xq K.R.eX2X2X",
"9 y 5 F.T.L.K.4X}./.<X<X2XtXqXwX5X_.Y.Y.<XK.`.tXU.F.P.%XR.F.6X:X3X0X!.h.Y.U.Y.&XO M.O tX|.3X!.I.9 y o H.XXL.K.4X|./.).<X2XtXqXwX",
"; 3 @ $ K.4 u H.4X;XF.R.K.J.e 9 L.qX8X<X=X9XiXP.H.c.z.l.; z.n.].OXiXrXK.K.0 0 K.c.O 8 qXeXwX/.0 ; 4 t t K.4 0 H.4X<XF.=XR.J.p 9 ",
"2XW.8 3 K.6 $ H.2X~.w w 8 7 9 O $X8XyXxXgXtX:XF.y O x.g < Q Y T Y R R W oX X{.kX9X'.rX>X3X}.eX2X2XW.0 3 K.6 $ H.2X~.w 8 8 7 9 o ",
"`.3X`._._.G.J.xXkX~.3 7 @ O c.:XY.3X3X].W.~.qX3X2X].U.H m v G j v L H z F v.~.2XeXOXW.0 K./.!.rX`.wX`./._.J.J.lXkX~.3 7 @ O c.~.",
"kX:X2X_.rX2X3X/.L.hX&X3 5 ;XK.S.@X2X>XwXqX:X:XfXdXoX~ / V N ( N D S ( V / I.dX{ > R.<XW.<XK.).gXwX,X3X(.rX2X3X(.S.hX&X1 5 ;XK.S.",
"8 k.Q.OX;X6X_.J.F.R.<XH.).kX)._.Y.h.9 S.Y.c.2 E k G L :.2.>.>.@.$.3.a.0.( P J l W d Y.5X;X%X).T.8 k.Q.OX!.6X_.J.H.R.<XK.).kX)._.",
"9 + x./.3X5XA.8 /.R.3X).yX{.qX3XL.c.h.5 q g E P D n I >.O... . .:.-.[ $.$.#.[ &.I ~ dX).y 5 Z.K.9 + x./.3XrXA.6 Y.R.3X`.yX{.qX3X",
"Y.8 $ X !.!.R.1XU.L.=XK.!.w K.K.4XY.3X9X~.! J V &.%.2.[ X.&.<.-.@.1.+.>.=.0.p.p.-.J a # 8 0 5 W.Y.8 $ X !.K._.3XU.L.R.K.!.w K.K.",
"Y.4 %X4 5 7 /.qXY.6 8 @ @ 4 8 !.*X'.~.dXK / ( 2.,.,.O.B ) A V A Z M D V n 2. .p.;.>.} F > c.o I.T.5 $X6 x.: K.yX/.5 4 o $ 7 8 K.",
"4XR.R.R.6 %X!.kX$XW.x.v.S.$X5XwX{.OX_.~ L (  .=.' &.$.( v z L H k G k z ( O.X.-.6.7.2.l W U.G._.rXK.L.K.c.%XK.@X<XH.h.x.S.K.3XqX",
"3X).H.R.H.2X2X!.`.5XK._.qXeXkXG./., = I Z O.1.] :.N V B V M M M C ;.>.-.;.Z ;.i.0.@.[ -.U ^ oXvX`._.K.`.H.<XeX8XqX3XK.(.eXtXkXF.",
"2X3XwX).xX`.,Xb._.`.yX2X'.Y.9 @ 6 E c ( O.&.%.$.3.I z <.-.<.;.2. .0.8.7.o.m ] 9.y.,.-.y.+.J E T.tXfX4X!.jX!.8Xb.).`.wX3X'.H.9 9 ",
"@ ).3X/.H.8 k.3 7 0 /.qXeX;X$ 8 & W G Z ,.=.-.( M M &. .,.,.X.:.<.<.;.,.,.,.X.M X.p.a.p.&.c a $ h.Y.2X/.s 9 v.X 9 0 !.2X5X_.@ x.",
"7 !.3X<XH.e c.7 O $ . K.qX{.Y.1 i W G C @.;.:.M v ;.X.<...$.$.@.$.X.:.-.,.y.-.x V t.p.6.] L E 1 3 ).qX<XS.0 c.5 + $ 6 R.eX7XH.4 ",
"`.;X4X).<XK.Q.0 o r * 8 Y.<XhXOX~ I o.&.$.M M V ,...<...<.,.=.>.@.X.<.3. .$.,.-.%.n X.#.6.y.q.F XX2X2XK.5X`.^.6 5 w & 8 L._.wXqX",
"wX`.(.(.;XeX'.!.(.K.R.).2XkXY.fXx / ,. .;.) v Z $.X.,.&.X. .2.X.=.X.%.#.=.=.,.6.<.j Z 2.4.f.=.c dX2XOXT.:XqX3XY._.H.E.<X2XwX~.qX",
"K.5 7 8 Q.eX8X}.:XqXwXR.K.7 ).Q x A X.,.$.V H V ,.X.=.,.=.,.X.,.=.X.=.=.=.=.$.y.<.x Z 0.6.d.o.J E q o 0 ^.2X2XtXqX'.5X).G.w _.H.",
"S.!.y 0 4 3 ).3XwXpX/.1 5 !.s T l V X.,.,.M k V X.,.=.X.=.=.=.X.=.=.=.X.=.X.$.p.-.k ( 7.6.d.>.L R H.M.X 7 b.L.wXyX8X~.  6 %X*XI.",
").G.!.X 6 R.A.`.E.S.XXL.1XW.8 Q l A X.#.,.V H V ,.=.=.$.$.=.=.=.=.X.=.>.=.=.,.y.;.l X.6.s.nX5.l R ).J.8 c.S.D.!.1XS.U.I.<XK.9 %X",
"3 kX2X2X5X<X_.5 # b.!.S.T.'.fXR z A X.>.<.V l V X.=.=.=.=.X.,.=.X.=.,.X.,.X.$.9.=.z ,.y.f.nX5.v , '.>X_.kX4XS.0 & b.H.T.Z.gXfXR.",
"0 ~.zX2X<X(.e X y 0 9 %XJ.eXY.! l A $.>.X.V l V >.X.=.=.=.=.$.=.=.X.X.=.=.X.,.p.=.v <.6.g.nX1.G > 8XwX'.}.Y.6 9 x.3 9 !.!.;X_.H.",
"iXwX8X;X6X;XH.~.Y.H.(.<XeXyXc.> l A ,.,.X.B x M =.=.$.=.X.,.=.=.=.X.,.=.,.X.X.6.$.v o.6.d.mXw.H oXkXeX2X2X%XS.!.R.K._.6XeXtXx.8 ",
"_.!.!.<X).S.!.3X}.qX@XH.(.(.s Q G N -.,...V P M =.=.=.X.=.>.=.=.,.X.X.=.,.=.,.p. .x ( 7.s.mXw.L oXK.G.K.<XK.I.wX~.eX`./.).R.D.I.",
"E.F.K.T.T.I./.3X=XK.  t 5 9 J.~ G N ;.<...V P V $.=.=.,.$.=.X.=.>.X.,.X.=.=.$.9.$./ :.9.8.bXw.U { K.F.XX(.L.I.2X).R.1 6 9 7 ).L.",
"I.K.I.F.*XI.T.).T.K.. % 8 9 $ S.(.! H ) +.$.$.V j -.w.o.,.>.$.X.,...2.<.#.a.r.j B a.7.9.=.H { T.R.I.S.F.*XI.T.R.T.J.# . 8 x.@ D.",
"; b.O c.Q.9   R.Y.XXG.n.W.L.).yX0X~ G n $.,.=.( B S +.;.$.o.X.<. .$.$.,.$.r.3.n O.r.9.a.O.L { 7 - n.9 x.Q.0 X K.E.XXH.N.W.S._.zX",
";X%XF.f L.R.rXwXD.2XtX`.hXqX8X'.F.E H N X.,.O.] ;.b m -.,.<.;.-.;.X.>.u.3.V n  .[ 3.6.g.X.H dX{.&X&XF.f d R.rXwXD.2XtX2XgX2X8X'.",
"'.rX'.qXuX_.XXF.9 _.E.:X8XyXwX).(.> K I Z  .2.-.&.C N S B V B B n C  .] *.S  .3.u.6.7.5.w.W E.yX'.rX}.qXaX_.XXF.0 /.Y.:X8XiXwX).",
"9 R.R.F.L._.V.l.7 Y.I.b.@ ^.3X2XK.4 4 a L Z  .@...,.$.I b z l x J J J x o.o.-.-.t.6.X.k E 1 X 6 9 R.R.F.L.).V.j.7 R.I.b.h.Q.3X<X",
"L.Y.S.R._.F.s ` I.2XeXG.i 5 !.3XrX8X,X` U N Z 1.&.&. .V A Z Z A M V N C  .u.a.p.r.;.} E , h.M.F.L.R.H.I._.F.s dXI.eXtXA.6 6 !.2X",
"Q.u !.E.G.rXzX X).J._.wX2XL.(.qX].kXcX|.OXW h I ;.<.-.;.;.X.$.$.X.O.O.9.0.7.8.f.| H K . /.`.Y.L.!.x.K.E.S.rXzX X_.A./.wX3XL.(.qX",
"@ 4 0 9 J.gXY.E.8 + 9 Y.'.iXQ.6 9 0 A.`.qXU.T / n V V @.%.$.X.%.#.y.u.y.9.2.[ w.w.K dXK.3X:XT.&X@ 4 0 9 J.hXY./.8 % 5 R.3XeX^.6 ",
"K.F.L.`.9X3XY.z.E.K.qXyX}.).3 @ o $ 5 Y.xXqXY.! l k x <.#.X.$.$.#.a.6.8.0.H J z Q P.'.!.I.d U.).K.F.L.`.9X3XT.z.Y.K.}.yXwX).7 @ ",
"wXwX@X'.<XR.I.&X&X(.eXG.7 $ 7 8 c.r A.:X XeX1XI.R Q T I A ) ) D V -.=. .q.Y Q W dXgXyXqXd $XF.^.wXwX@X'.<XK.I.$X;X_.qXG.7 $ 7 7 ",
"`.{.2X<XK.0 5 J.R.2XgX0 @ 9 O c.7 !.3X).eX2Xr F.K.K.dXK z G L h x G G H ^ _.tX2X;X>X:X:X).H.p 7 `.qX2X<X&X0 9 J.R.2XgX0 5 9 @ z.",
"D.2XiX2 F.7 h.4 K.C.<X/.R.2XrX7XyXqXgX_.H.0 # 5 u _.OXXXfXoXQ +XT Y T E oX!.8XrXzX/.L.Y.#X#X_.S.D.`.iX2 F.7 h.; H.S.2XY.R.2XrX8X",
"5X|.C._.T.!.7 Y.!.<XJ.S.R.2X).iX8XeX<X_._.Y.`.(.T.s &X>X3XXXs X @ + 9 L.-Xt y L.).J.e J.K.6X;X5XwXwXC._.P.!.7 R.;X<XK.H.).1X).iX",
"A.!.3XS.3XrXqXwXS.i 3 5 q T.!.H.9 `.H.B.K._.'.8XqXuXqX(.1XQ.x.v.h.h.z.Y.E.F.S.T.'.lX<XF.K.<XK.).A./.3XK.'.rXtX3XL.i X t 6 E.).G.",
"6 1 ;X2XqXqXqX XU.H.$ y J.R.L.w . 7 u t o H.lX>XK.K.K.E.L.3X2XzXqXwXkX3X`.3X<X:X8X2XF.2 0 3 7 5 6 1 &X2XeXqXqXqXL.S.$ 9 J.R.Z.e ",
"c.3 ).yXtXI.XXK.I.H.(./.2XR.=XS.E.L./.H._.kX'.`.8 i o j.v.$Xs rXvXtXqXqX!.!.- b.!.wX].].=X_ 6 v.c.- `.yXqXY.T.K.I.H.]./.<XR.&XS.",
"K.`.rX`.<XH.r !./.wXrXH.K.R.I.P.R.`.rXqXeX2X3X!.x.7 9 9 9 3 K.R.'.2X&X8 x.l.K.I.R.qX2XH.yXwX:XuXK.2XrX).).S.w ~./.wXrXH.K.R.R.P.",
"R.!.yXyX`.rX`.2XeX<XD.0 3 q F.eX'.Y.Y.L.R.J.2XwXI.I.R.K.2X XqX'.-XR.K.H.R.I.R.I.`.).<XS.R.L.L.d =XW.@XpX{.rX`.2XeX<XJ.0 3 q F.4X",
"'.4X3XD.I.$X_.3Xd K.K.E.P.!.!.U.&X4XzX|.|.}.OX(.L.L.I.S.2XqXW.n.@ q L.I.R.K.F.R.8X6 7 c.D.=X`.I.`.4X3XJ.I.$X_.3Xd F.K.U.P.!.!.U.",
"3X2XW.x.].5 _.R.N.G.).2XqX3XqX^.R.=XS.6 1 # % + !.K._.R.6XrX!.D.%X7XuXqX=Xf /.8X!.6 7 O b.Q.{.wX3X4XW.x.).6 _.R.N.G.).qXqX3XqXQ.",
"!.8 r 9 W.7 _.F.- r K.2X3XF.F.6 6 N.:XeXiXtXwXwX2XR.1XgX).2X2X1XtX}.(.Z.!.2XkXkXs Y.K.&X`.3XY._.).8 r 9 H.7 ).S.- r K.<X3XF.F.6 ",
"!.4 F._ F.D.S.3X0X9X9X3X!.l.x.3 d E._.'.wX`.K.R.R.d R.K.8 l.x.x.I.5XqX2XF.s R.W.(.wXwX<XqXwX=X).!.4 F.*XF.%XS.5X9X9X9XrX!.l.x.3 ",
"qX2XlXiX}.yXH.5XrXfXZ.wX'.L.Y.2X'.kXG.0 @ @ @ x.I.=XK.!.c.x.x.x.0 K.<X<X,Xb.&Xs qXtXeX^.n.G.!.4XqX`.rXrX}.iXG.hX3XOXZ.wX'.L.Y.`.",
"rXY.S.I.K.'.lXH.F.R.q K.R.qX2X2X&XK.7 x.x.9 w F.W.rX<X3X{.2X2X3XtX2X/.'.zX].lXR.I.s R.3XY.gX3XR.rXR.F.Y.Y.'.kXH.F.&Xq K.R.eX2X2X",
"9 y o F.XXL.K.4X}./.).2X2XrX{.wX).).I.I.L.I.1X2X_.Y._.Y.Y.R.2X2XqXrXQ.8 J.S.U.L.7 M.# qX}.2XK.).9 x.o K.T.L.K.4X|./.).<X2XtXqXwX",
"; 8 t o K.4 0 H.4X:XF.R.K.J.b.9 (.2X8XqXyX8XtX(.sX5 3 9 x.x.e G.`.2X<XhX_.e 8 K.c.O c.wXkXkXG.4 ; 4 t t ;X4 u W.4X<XF.=XR.J.p 9 ",
";XW.0 7 K.8 $ H.2X`.8 6 8 7 @ o K.>XqXzX@XtX>XK..X7 y o 1 F.K.).)._.H.G.2XqXiX2XqX~.eX,X>X2XrX2X6XW.0 3 H.6 t H.2X~.w 8 0 7 9 o ",
"`.kX)._._.J.J.xXkX~.4 7 9 O c.:X_.3X3XK.A.).wX}.1XR._.`.:XaX)./.o 3 u % h.l.~.eXrXkX/.6 J.R.'.}.`.wX)./._.J.B.xXkX~.3 7 @ O c.~.",
"wX:X2X(.5X6X'./.S.hX&X1 3 ;XK.S.|.{.rXrXeXqXqXyXwXqXqXqX'.Y.F.i c.7 3 /.].qX2X`.X !.E.Y._.Y._.>XwX,X3X(.5X6X'./.L.hX&X3 3 ;XK.S.",
"8 k.Q.OX:X6X_.J.K.R.<XH.).kX_.<XJ.5 0 W.G.c.X e O Q.1XE.R.W.iX{.8XrX2X5X2XrX;Xr 0 J.Y.3XE.R.1XH.8 k.Q.OX:X4X_.J.K.R.=XH.`.kX)._.",
"9 + M.!.3XrXA.0 Y.R.3X`.yX{.qX3XE.6 5 8 c.@ 5 S.!.2XqXyX|.H.K.$X).(.Y.!.2X'.OXH.3X2XeX,Xu 3 A.E.9 + x./.3X5XG.6 R.K.1X`.yX{.qX3X",
"Y.8 9 * !.H._.1XU.L.R.K.!.w K.K.{.~.2X2X2XqXqXtX}.kX3XQ.7 9 0 7 o 5 3 K./.rX;X).W.c.7 7 9 @ u Y.Y.8 $ X !.K.).OXP.L.=XK.!.w K.K."
};
