/* XPM */
static char *_8489_eed87b87256539950bc7b08712cc553d11d4b6c53ae6484dd7458aac0c6add8a[] = {
/* columns rows colors chars-per-pixel */
"64 64 243 2 ",
"   c #3C646D",
".  c #366D6D",
"X  c #3E6373",
"o  c #3C6A74",
"O  c #3D657B",
"+  c #336D7A",
"@  c #3D6C7B",
"#  c #336874",
"$  c #3C727C",
"%  c #36727C",
"&  c #2D6D76",
"*  c #796A5B",
"=  c #425E74",
"-  c #4A5E77",
";  c #6A5B6D",
":  c #715A6C",
">  c #745C73",
",  c #645F73",
"<  c #45676C",
"1  c #446473",
"2  c #4A6474",
"3  c #446B75",
"4  c #4A6A75",
"5  c #44657A",
"6  c #4A657A",
"7  c #436A7B",
"8  c #4A6B7C",
"9  c #536574",
"0  c #52667A",
"q  c #526B7B",
"w  c #56677A",
"e  c #417176",
"r  c #42727D",
"t  c #4E7179",
"y  c #50707F",
"u  c #4C696D",
"i  c #7D6567",
"p  c #7A6473",
"a  c #69777B",
"s  c #72737C",
"d  c #79787C",
"f  c #7F5153",
"g  c #81523E",
"h  c #A65C3C",
"j  c #AC5B3C",
"k  c #A75638",
"l  c #B35D3A",
"z  c #B6563A",
"x  c #B04C3C",
"c  c #A8623A",
"v  c #BD6D3C",
"b  c #B8653B",
"n  c #AC682B",
"m  c #C8693B",
"M  c #C8753B",
"N  c #C7702E",
"B  c #975C4F",
"V  c #A45B42",
"C  c #AC5C43",
"Z  c #AC5D4C",
"A  c #A95948",
"S  c #B35C45",
"D  c #AB5A51",
"F  c #86655C",
"G  c #AD6444",
"H  c #A36245",
"J  c #BB6847",
"K  c #B97144",
"L  c #BA754A",
"P  c #A47559",
"I  c #BD6C55",
"U  c #8B5B6C",
"Y  c #945568",
"T  c #866769",
"R  c #96636B",
"E  c #987668",
"W  c #85657A",
"Q  c #967A78",
"!  c #8F6B78",
"~  c #A47865",
"^  c #A96F6B",
"/  c #C36C46",
"(  c #C36A4B",
")  c #C96845",
"_  c #C66C55",
"`  c #C97453",
"'  c #CA724A",
"]  c #5F837F",
"[  c #7E847A",
"{  c #B9913C",
"}  c #BD8A47",
"|  c #BD924B",
" . c #BB9557",
".. c #8C8373",
"X. c #B7896F",
"o. c #C68C4B",
"O. c #CB8D4D",
"+. c #C88A47",
"@. c #D28D4B",
"#. c #D5874A",
"$. c #C69344",
"%. c #CA9244",
"&. c #C6914D",
"*. c #CC924C",
"=. c #CB9B49",
"-. c #D2944A",
";. c #CC8553",
":. c #C68D53",
">. c #CB8C53",
",. c #CB8D5C",
"<. c #C98659",
"1. c #D48B55",
"2. c #D88959",
"3. c #C49253",
"4. c #CC9253",
"5. c #CB925B",
"6. c #C99659",
"7. c #D29353",
"8. c #D59459",
"9. c #D9A55A",
"0. c #D9A84B",
"q. c #E2A55A",
"w. c #D48E64",
"e. c #C99662",
"r. c #D7966A",
"t. c #CB8877",
"y. c #D98B78",
"u. c #D39B73",
"i. c #DBA764",
"p. c #D9B362",
"a. c #E6A869",
"s. c #E38D6B",
"d. c #F8C877",
"f. c #F2C76C",
"g. c #3C6A83",
"h. c #317082",
"j. c #456581",
"k. c #4B6381",
"l. c #446B82",
"z. c #4A6C82",
"x. c #476B88",
"c. c #526C82",
"v. c #556A88",
"b. c #437282",
"n. c #497081",
"m. c #4F7288",
"M. c #5C768B",
"N. c #5D7B97",
"B. c #6A6E8E",
"V. c #756E88",
"C. c #647486",
"Z. c #6B7584",
"A. c #657C84",
"S. c #6C7B84",
"D. c #64748C",
"F. c #6C758B",
"G. c #647A8B",
"H. c #6C7B8B",
"J. c #737484",
"K. c #797584",
"L. c #737A85",
"P. c #7C7986",
"I. c #73768B",
"U. c #7C758B",
"Y. c #737B8C",
"T. c #7B7A8D",
"R. c #6D7592",
"E. c #647C93",
"W. c #6C7C93",
"Q. c #6D7C9A",
"!. c #657997",
"~. c #747592",
"^. c #7C7693",
"/. c #747B93",
"(. c #7A7B93",
"). c #747D99",
"_. c #7B7D9B",
"`. c #76739A",
"'. c #746E90",
"]. c #747DA2",
"[. c #7A7DA3",
"{. c #7C7EA9",
"}. c #6F7BA1",
"|. c #4B5D83",
" X c #827A8C",
".X c #877C88",
"XX c #987988",
"oX c #837897",
"OX c #B17888",
"+X c #837CA3",
"@X c #867EA5",
"#X c #63818A",
"$X c #6C818D",
"%X c #698286",
"&X c #73808D",
"*X c #718083",
"=X c #6D8294",
"-X c #66869B",
";X c #6C839A",
":X c #6E899E",
">X c #668895",
",X c #738294",
"<X c #7C8296",
"1X c #74839C",
"2X c #7A839C",
"3X c #74899D",
"4X c #7B899D",
"5X c #748893",
"6X c #6685A1",
"7X c #6C83A2",
"8X c #6F88A6",
"9X c #6D82AB",
"0X c #6B88AE",
"qX c #7484A3",
"wX c #7B84A3",
"eX c #748AA4",
"rX c #7B8AA4",
"tX c #7685A9",
"yX c #7B84AB",
"uX c #7C8BAA",
"iX c #758EAA",
"pX c #7991A6",
"aX c #7983B0",
"sX c #7288B1",
"dX c #5C8984",
"fX c #858288",
"gX c #82839C",
"hX c #81899B",
"jX c #858395",
"kX c #8284A4",
"lX c #8389A4",
"zX c #8184AB",
"xX c #8A86A7",
"cX c #D78A83",
"vX c #CC9B8D",
"bX c #F0B898",
"nX c #D0AFA7",
"mX c #F6B9AC",
"MX c #CDA895",
"NX c #E9C98F",
"BX c #EBC1AD",
"VX c #DCC694",
"CX c #939EC7",
/* pixels */
"H.).rX).,XF.q Q.I.[.rXZ.H.Y.L.K.Y./.rXqXtX3X2XW.z.3 3 @ O 5 H.I._.2X$X8 l.j.W.L.Y.wXqXF.yXrX1XtXG.).wX_./.S.0 Q.I.[.rXZ.H.Y.L.K.",
"Y.W.yXaX`.uX).1XeX,XG.z.5 9 S.eX).^.I.J.Y.A.1XqXI.I.Y.H.1X1XrX).Y.Y.H.F.Y.L.L.L././.,XF.Y.J.L.s Y.W.aXtX).uX).1XeX,XG.l.5 9 S.eX",
"_.3XgXA.L.%X(.2Xs F.$XP.K.H.W.P.=X3XrX{.{.[.oX^.L.L.L.Z.1XqXR.v.o q J.L.T.G.S.I.;X8 5 z.A.&X/.I./.3XgXA.I.%X(._.s F.Y.P.K.H.W.P.",
"<X7XR.7 /.2 (.H.M.D./.1XqX2XqXE.L.&XZ.4   o $ + H.F.(.~.1XrXW.G.#X6XsXqXL.L.H.9XE.4 X 5 8 E.].rX2XeXR.7 /.4 /.Y.M.D.,X1XqX2XqXE.",
"W.6 w 7 F.6 (.S.= 0 H.1X2XF.A.4 8 M.W.tXuXqXwXwX2XH.gXgX~.1X1X5XrX[.oXI.Y.2XwXxXs Y.H.$X).2XI././.5 w 7 F.6 (.S.= 0 H.,X2XF.%X4 ",
"W.4 Z.dXS.G.Z.4X8X0X0X2XQ.5 l.2 s T.(._.qX).H.I.Y.s I.H.6 j.j.l.J._.qX;X%Xa Y.F.^.{.rX,XtXlX&X/.W.4 S.dXS.G.Z.4X8X0XsXrXW.j.l.1 ",
"qX1XuXrXwXuXF.4X2XjXV.wX_.J.L.1X[.lXD.8 @ $ 7 x.H.L.$XG.z.l.l.l.6 H.,X5X-Xc.H.S.rXqX].!.k.D.W.3XqX1XlXrXwXuXF.4XqXjXJ.wX_.J.K.1X",
"wXY.Z.K.F._.kXF.S.=X9 H.~.rX;X1XH.H.6 l.l.7 4 Z.R.lX,XrXqX1X1X_.qXrX~._.zXR.kXY.S.a &X2XI.gXwXH.wXI.Z.I.F._.kXF.H.H.9 H.~.qX;X1X",
"7 7 3 H.U.J.G.3X[.R./.1X1XrX].wX,X(.I.L.K.Y.4X1X#XA.L.I.I./.1XqXtXrX!.6 G.Z.P.K.o b.O qXwX2XH.(.7 r o S.U.J.G.3X[.~.,X1X1XrX].[.",
"- 1 $ e W.2 y I.3X,XS.&XH.G.n.7 ^.;X-XyXtX7XqX^.&Xw 2 l.l.8 4 A.).:X;XhX/.4 3 >Xx.O k.rXkXwXF.2 - 2 $ o W.2 y I.3X=XS.&XH.G.c.3 ",
"1XR.6 1 H.4 $ F.1X).6 0 6 5 7 o H.:XeXkX+XqX:XF.6 5 r o   G.~.oX^.oXU.F.1X_.wX).wXQ.eX-X;X1XrX1X1XR.8 5 H.4 @ F.1X1X9 6 6 5 7 o ",
").2X)./.^.G.G.lXzXW.1 5 7 O z.Q.`.gX<XH.C.~.rXwXqXR.Q.Q.2X3XW.A.1 o b.7 7 5 }.yXwXkXW.4 G.W.^.rX_.2X(./.^.G.G.lXzXW.= 5 @ O x.;X",
"rX:X2X(.rX3X_.I.Z.hX$X3 3 =XH.J.[.].rXtX1XqXtXyX3X2X2X_.kX~.E.c.l.O 5 W.~.qX1X_.X H.T.I.(.U./.:XrX;X2X^.3X2X2XI.J.4X$X1 2 =XH.J.",
"6 g.E.^.=X1X(.G.Z.Y.,XF.).wX/.(.G.3 z.R.R.z.o 8 k.E.3XY.Y.Z.lX).6XrX1XeX;XwX1Xz.8 G.I.2XY.I.<XF.6 h.E.oX=X1X_.G.H.Y.&XF./.rX/.(.",
"7 & n.~.2X4XC.4 /.Y.2X/.yX[.qX1XT.3 o 8 8 O 3 Z./.).1XlX2XF.I.Z.oXI.Y.Y.<X=X,XF.rX1X:X-Xz.1 A.T.7 & n.~.2XrXC.4 Y.Y.4X/.wX[.qXqX",
"~.8 @ X =X~./.(.P.J.Y.H.W.q G.Y.{.).1X1X1XqXqXyX7XuX_.T.; > : : ; : : .X.XjX(.(.R.6 8 5 8 @ 8 I.^.6 $ X W.Y./.2XK.J.Y.H.Q.0 G.Y.",
"T.1 #X4 3 4 /.2X~.4 3 3 $ 5 6 H.I.eXF.gXQ.A.L.9XzXM.L.~ S S n A c j S D A c E 4XrXZ.7 5 k.+ j.d I.1 #X2 3 4 /.2X~.4 2 3 @ 5 8 H.",
"2XY.Y.Y.8 M.W.kX&XR.g.l.Z.H.4X1X2X1XW.2XwX4X,XzX1XjXXXK b I v S j J v @.@.=.X.Q fXH.kXF.Y.*XF./.3XY.Y.Y.4 M.W.@X$XF.@ l.C./.4XqX",
"2X/.F.Y.I.1X;XQ.).1XZ.^.tXiXgXG.~.b.@ 6 I.kX[.qX1XE D >.*.w.2.k z 2.&.9.q.0.>.k * 2 R.wXtXCXpXCX2X~.F.Y.F.1X;XQ.qX2XF.(.qXiXgXG.",
";X2X4X~.xX~.-Xm._.).rX1X_.F.7 5 g.1 g.b.F.8 j.p XXK m 7.%.K ) ) ( ,.| i.a.i.4.-.w.* ..[.iX9Xa T.1X2X4X/.xX/.-Xm._.).wX1X(.F.7 5 ",
"@ /.2X~.F.8 7 5 2 6 !.eXwX/.7 l.8 3 o 5 $X/. XE H o.6.=.*.j h 4.:.O.@.-.@.#.4.9.$.h T }.$X0 9 r 7 /.2X/.F.6 l.1 6 8 E.1XkX~.r l.",
"5 W.2X,XF.8 l.5 + $ 4 Y.eX-XR.2 O I._.W.4XL.Q ` b 7.4.` ) ` G 6.3.v ' / J _ w.9.3.2.~ fXd 6 g.h.5 !.2X/.D.q b.5 + $ 4 I.eX6XF.2 ",
").;X1X/.<XH.G.z.3 0 # 8 I.(.wXqXrXY.J.rXrXW h :.8.5.+.` z >.o.5.O.C x G j V J 2.2.q.+.C R 6 x.4 ).;X1XY.5XF.E.8 3 0 # 7 J.(.rXqX",
"_.1X^.(.=X3X2XR.(.C.(.Y.1X2XW.rXqX_.Y.7X}.XXc o.O.J ) v ,.4.@.m v w.,.*.%.o.K ) m 5./ C p 2X6XzXwX;X(.^.,XeX2X~.(.G.T./.1XwXQ.qX",
"G.3 5 8 G.eX8X[.rX_.1X/.F.6 /.Y.0X8X].rX,XF l :.4.J l 4.o.o.4.h V ;.*.q.i.-.;.C L 1.) h F Y.T.;XH.3 O 6 G.eX8X_.qX_.2X/.F.6 (.Y.",
"J.W.7 7 6 1 /.2X{.7XW.  8 G.%XL.8 K.[.fXQ _ @.4.*.( j o.4.7.4.k h 8.*.o.o.9.8.j ( O.#.*.<.Y U T.J.W.3 z.6 1 /._.yX7XW.  8 #X%XL.",
"(.C.W.5 5 L.C./.<XA.U.L.,XW.7 G.%XJ.W...S m $.&.o.( j o.7.>.>.b c O.7.4.8.i.>.c / 8.p.0.*.Z T G.,XG.W.X 3 Y.C._.<XZ.K.Y.,XH.7 E.",
"5 wX1X1X4X5X(.5 # c.F.oXV.gXjXS.C.z.l.i h ) 7.3.>.( j 4.7.K L ;.>.>.+.o.o.*.*.>.>.G u.d.{ V T 2 1 kX1X2X4X,XY.o # c.H.U.V.gXjXS.",
"8 !.zX1X1X^.8 1 7 1 3 W.W.=X(.Y.m.@ 7 * c _ 1.o.4.( C >.@.k c 2.7.>.4.>.4.4.4.9.*.j e.d.=.S ! I.6 !.xX;X,X(.8 X 7 5 3 E.W.;X/.I.",
"rXwX;X=X,X=XF.=XY.W.(.3XeX7Xl.6 # 5 9 F S J o.7.O./ C :.@.j V >.*.o.5.>.*.>.9.f.i.j 9.f.9.A XX:XuXkX7X;X1X/.I.Q.Y.$X(.2XeXqXl.6 ",
"(.&XW.2X,XZ.W._.].1X(.~././.C.L.8 S.Y.i x ) =.;.O./ C >.-.S V *.%.>.:.*.-.o.a.d.a.b 9.NXa.k W -XT.=XR.2X,XZ./.2X).qX/.~./.Y.C.L.",
"T.G.H.U.K.I.(.2X,XI.1 3 7 o ,XK.H.P.qX XG m =.,.7./ C :.@.j H %.%.>.8.+.*.o.9.f.0.S y.BX2.M OX@XT.S.G.U.K.Y./._.,XH.< 8 7 1 ,XI.",
"Y.Y.J.S.%XL.P.Y.U.F.. . 6 l.@ Z.I.Y.[.fXA / | 2.1./ C 5.@.A V %.>.5.o.%.4.4.9.f.i.S cXbXr.m X.`.I.I.L.S.%XI.U.$XU.S.. . 8 l.g.A.",
"1 c.O x.E.7 X Y.Y. XW.v.R.J.,XzX1X;XU.~ ' @.$.-.o./ C :.@.G A *.4.8.o.*.o.5.6.bXvXk t.mXt.G d 4 1 v.@ 7 E.8   H.Y. XR.v.R.Z.(.zX",
"H.$XZ.d J.Y.rXwX%X1XtX).gX1X7X).].b.u P N >.*.| *.( C >.@.k V 1.+.o.o.8.4.6.e.bXMXV cXmXy.Z fXH.W.#XS.d s Y.wXwXA.qX{._.gX1X7X_.",
"1XrX_.rXiX/. XS.l.Y.(.;X7XyXrX/. X# & ~ M 5.5.6.7.( c *.@.k c 2.7.4.4.>.*.3.u.BXMXD cXbXy.z XXrX2XrX_.yXeX_. XS.z.Y.Y.;X7XuXwX/.",
"7 H.L.S.K.(.N.j.- (.Y.q 7 !.2X=Xa z.x.E ' | $.1.o./ j >.-.K L ;.;.>.7.:.o.-.6.vXcX) w.VXcXC * 3 7 Y.L.A.K.(.N.g.6 Y.Y.c.g.E._.,X",
"K.I.F.I.(.S.a *XL.1XqXC.4 3 Q.2XwXtX].~ M O.-.@.%._ j o.7.>.>.b c >.>.4.*.q.o.H ` #.y.VXt.G F W.K.I.F.I.(.S.a fXL.:XqXC.t 3 !.4X",
"E.y =XT.F.qXzX]./.Z./.wX3XJ.T.qXyX-XwXXXP I #.*.O.( l o.4.4.:.k h 1.$.3.:.q.8.k c e.s.bXcX~ U oXE.8 W.(.F.2XzX}./.Z.(.wX1XJ.T.qX",
"7 = 8 7 G.lXF.I.6 % @ Y._.tXW.4 1 e I.~.1XU G :.4.J j 4.4.o.4.j C O.%.3.5.1.1.j 9.BXy.N OX[.I.A.7 1 8 3 G.4XY./.6 % 3 I.2XqX!.4 ",
"H.%XK.Q.8X2XI.k.Y.H.qXyX[./.5 @ 8 + c.F.eXjXV %.8.( m v ,.*.O.m N ;.e.| %.2.( K 6.bXr.N P #Xa ^.$XS.J.).8X4XI.k./.H._.yXwX).5 o ",
"[.gX+X_.1XH.L.$X=X(.rXD.5 $ 7 6   8 F.Y.5X! Z =.:.:.;.( j ;.4.,.1.j A G c j K 1. .a.2.G R ~.&X&XwXwX+X_.1XY.L.%X=X^.rXD.5 % 5 5 ",
").qX1XY.H.8 3 G.I.1XgX6 O 7 + k.l.W.wXW.2X XR J M | 6.#.M _ J | 3./ ) ) J J 1.q.=.;.^ W L.A.9 # ).qX1X/.G.4 8 G.Y.2X2X6 7 7 @ k.",
"G.1XuXu S.5 g.2 I.Z.1XY.Y.2XrX6X7XtX_._.~.o < T j <.,.*.o.C S 7.3.4.%.#.4.3.3.9.+.G T Y.].+X X_.G.).rXu Y.5 g.- F.Z.,X/.Y.1XrX7X",
"2X[.B.(.P.W.5 Y.=X,XG.F.Y.2X/.uX2XkX5XS.(.>XF.U U ( m ;.*.v v ( / :.} o.8.i.4.2.e.R > s [.zX,X>X2X+XB.,XK.E.5 Y.$X,XF.F.Y.2X/.uX",
"C.W.2XZ._.uXqX_.J.4 1 o 8 T.W.F.3 B.I.Y.Y.).qXjXqX~ Z ,.4.5.&.h z ,.5.1.+.p.9.m ..{.wX*XZ.I.G._.C.W.2XI.2XrXqXwXZ.t 5 e 4 T.W.F.",
"t < =X1XqXqXqX7XU.S.$ 7 Z./.J.0 % z.8 . 5 ].yX).).p Y J ) _ ) z k / J _ v @.,.X.XXtXM.e @ b.$ < 4 < $X1XeXqXwX7XK.Z.$ 7 G.Y.V.q ",
"x.1 ).yXqXI. XH.L.F.~./.,XY.$XJ.Y.F.H.L.J.kX_.=X6 . 6 B A A n V j J k V z z f k.K.2X XI./.Z.z.5 z.= /.yXqXI.U.H.L.F.~.~.,XY.$XZ.",
"H./.rX).(.Z.q Q.~.[.uXS.H.H.L.K.H.).wXqXrX;X3X~.z.2 9 , : : .X[ .X.X.X> > ; fXd Y.qXqXF.yXwX1XsXH.,XrX)./.F.q Q.I.wXrXF.S.Y.L.P.",
"Y.W.aXyX}.rX).1XeX5XF.7 5 9 S.eX_.I.I.L.&XF.1XwXG.G.Y.~._.[.wX;X[ L.H.I.J.T.Y.S.)./.,XZ.Y.L.s s ,XR.{.aX).rX).1XeX,XG.j.5 9 A.eX",
"_.3XgXA.L.%X(._.s Z.H.P.K.H.Y.P.$X4XrXyX{.].oX^.L.L.Y.H.2X[.!.m.O 8 #X$X~.R.W.G.7X4 5 z.A.&X/.I._.3X2XA.I.%X(._.s F.Y.P.K.H.Y.U.",
"<X7XR.7 /.4 (.H.M.D./.qXqX1XeX!.I.,XZ.2   o $ + Y.Y.L.J.<XkXI.Z.=XQ.zX,XT.L.(._.H.4 5 5 8 E.].rX2X1XR.l./.4 (.H.M.D.,X1XqX1XqXE.",
"W.6 w 7 F.6 (.S.= 0 H.1X2XH.S.4 8 M.Q.qXuXtXtX[.2X~.4X1XQ.qX1X2XtXwXI.J.I.kX2X<Xs I.H.$X).2XY./.W.6 w 7 R.5 (.S.= 0 H.).3XH.S.4 ",
"Q.2 S.dXS.G.Z.4XqX0X0X2XW.j.l.1 s T.(.2XqX/.Y.Y.T.S.H.H.7 7 l.l.C.wXwX,XS.S.F.W./.yXrX5XwXrXY./.W.4 S.] S.A.Z.4X8X0XsXrX/.j.l.1 ",
"1X1XlXrX[.yXF.4XqXjXV.wX1XK.K.Q.2XkXD.8 @ $ @ l.S.L.L.A.8 7 O o 6 W.4X/.1Xc.W.H.rXqX].!.k.B.=X3X1X1XuXuX[.yXF.4X1XjXJ.wX).K.K.Q.",
"rXI.Z.I.H._.lXF.S.=X9 H.Y.tX1X1XY.G.6 l.l.5 0 S.W.wX_.wX].tXyXwX=X2XR.).uXW.2X(.S.a Y.2XI.gXwXY.wX~.a P.H._.lXF.S.W.9 H.Y.tX1X1X",
"7 r o H. XI.H.3X[.~./.1X1XrX].wX/.(.J.L.J.Y.4X2X(.I.Y.I.Y.I.1X3XqXrXE.6 G.Z.P.d 5 b.# qX[.2X/.Y.7 r o H.U.J.G.3XwX~./.2X1XtXqXwX",
"- 2 o e H.2 8 R.3X=XS.&XH.G.c.3 _.;X-XyXtX7XqX^.dX3 3 7 l.z.8 D._.1X,XhX_.8 8 H.z.5 z.wXkXrXD.1 - 4 o o W.2 y I.3X=XS.Y.H.G.q 7 ",
"1XR.8 1 F.4 e F.1X).6 0 6 5 @ o H.:XtXkX+XqX:XH.|.5 b.o < A.H././.Y.I.F.;XqXyX1XqXQ.eX;X;X1XuX1X1XR.8 5 H.4 @ F.1X1X6 4 6 5 O o ",
").wX)./.^.G.G.lXzXW.1 5 l.O z.;X^.4X<XF.C.~.uX_.<XI.~._.;XrX/.I.o 5 r $ g.j.Q.qX2XzXW.4 G.~._.2X).2X(./.^.G.G.lXzXR.- 7 7 5 z.-X",
"rX:X2X(.rX5X2X~.J.4X$X2 5 =XH.J.{.[.rXuXqX1XtXyXyXqXqX1X_.Y.F.t z.5 1 ~.`.qXqX).X W.Y.J.T.I.(.:XrX:X1X^.rX3X_.U.J.4X$X< 3 =XH.J.",
"6 g.E._.=X2X/.G.H.Y.&XF./.wX/.&XA.3 7 R.R.l.X q 5 E.<X(.Y.F.uX].7XrX1X4X1XrX=Xw y D.I.4X(.Y.<XF.6 g.E.oX=X1X,XG.Z.Y.,XF.).wX/.(.",
"7 & 8 ~.1XrXC.4 Y.I.4X).{.[.rX1X(.4 o 8 8 @ 3 Z.Q.1XqXyX[.R./.A./.~.I.W.1X).oXF.2X1X:X>Xy 1 A.T.5 + n.~.2X4XC.4 ~.Y.2X).yX[.qX1X",
"I.8 @ X /.H./._.P.J.L.G.Q.0 G.Y.].Q.2X1X1XqXqXsX_.kX2XG.2 7 7 7 3 3 1 Y.~.rX=X,XR.c.6 5 l.# 8 I.~.4 $ X W.W./.<XP.J.&XH.W.0 G.Y."
};
