/* XPM */
static char *_cff1d0cca734a0db868847770f3e6c23PNvAjNDnWgMHpZ2[] = {
/* columns rows colors chars-per-pixel */
"64 64 250 2 ",
"   c #3C646E",
".  c #3E6373",
"X  c #3C6A74",
"o  c #3E657B",
"O  c #336D7A",
"+  c #3D6C7B",
"@  c #336875",
"#  c #3C727C",
"$  c #35727B",
"%  c #35706E",
"&  c #425E74",
"*  c #4A5E78",
"=  c #575E6B",
"-  c #6D586D",
";  c #73576B",
":  c #705C73",
">  c #44676C",
",  c #446473",
"<  c #4A6474",
"1  c #446C74",
"2  c #4A6A76",
"3  c #44657B",
"4  c #4A657A",
"5  c #436A7B",
"6  c #4A6B7C",
"7  c #536575",
"8  c #52667B",
"9  c #526B7B",
"0  c #57647D",
"q  c #43727C",
"w  c #4A7178",
"e  c #50707F",
"r  c #4B686B",
"t  c #697779",
"y  c #72737C",
"u  c #78787C",
"i  c #6F6A75",
"p  c #766F5C",
"a  c #9D5B36",
"s  c #9C5E2F",
"d  c #AC5C3C",
"f  c #A75837",
"g  c #B25C3B",
"h  c #B45639",
"j  c #AE5333",
"k  c #9B633A",
"l  c #AC633C",
"z  c #A36339",
"x  c #BB6C3C",
"c  c #B87037",
"v  c #A4602E",
"b  c #C5673D",
"n  c #C4753B",
"m  c #CD5C3C",
"M  c #92544E",
"N  c #A55C44",
"B  c #AC5C43",
"V  c #AB5947",
"C  c #B55A47",
"Z  c #AA5953",
"A  c #87665F",
"S  c #956159",
"D  c #A56243",
"F  c #AB6345",
"G  c #BD6B4A",
"H  c #BA6844",
"J  c #BA7447",
"K  c #B86A56",
"L  c #AD7157",
"P  c #865B6B",
"I  c #875C75",
"U  c #995E72",
"Y  c #8B656A",
"T  c #85786A",
"R  c #9C7564",
"E  c #886875",
"W  c #956478",
"Q  c #857D7C",
"!  c #897A7A",
"~  c #91626C",
"^  c #A77966",
"/  c #AF716D",
"(  c #C36B44",
")  c #C36B4A",
"_  c #C8684A",
"`  c #C5754A",
"'  c #C76B53",
"]  c #D06C50",
"[  c #D17E76",
"{  c #5F837F",
"}  c #7D8179",
"|  c #C78F3A",
" . c #BD9754",
".. c #85837D",
"X. c #BB9B62",
"o. c #C48C4D",
"O. c #CB8D4C",
"+. c #C98A47",
"@. c #D58C47",
"#. c #CC924C",
"$. c #C89449",
"%. c #D39348",
"&. c #CC8D53",
"*. c #C98A55",
"=. c #D48A5A",
"-. c #D58B55",
";. c #C59353",
":. c #CD9252",
">. c #CA9758",
",. c #D29354",
"<. c #D4945A",
"1. c #DC9954",
"2. c #E69F5F",
"3. c #DCA45C",
"4. c #DAA758",
"5. c #CEA552",
"6. c #E3A55C",
"7. c #E6A75A",
"8. c #E8A64E",
"9. c #C79863",
"0. c #D7996B",
"q. c #D08E71",
"w. c #E49170",
"e. c #D6A463",
"r. c #DAA868",
"t. c #D3A969",
"y. c #E5A666",
"u. c #F3BF73",
"i. c #ECB56A",
"p. c #DDCD70",
"a. c #EDC56B",
"s. c #F7C76A",
"d. c #E9CC77",
"f. c #F6C773",
"g. c #F5D577",
"h. c #ECDA71",
"j. c #F3C65F",
"k. c #3D6D83",
"l. c #3C6184",
"z. c #3C7085",
"x. c #4B5D83",
"c. c #446482",
"v. c #4B6482",
"b. c #446B82",
"n. c #4A6C82",
"m. c #476988",
"M. c #526C82",
"N. c #546786",
"B. c #497283",
"V. c #5B738C",
"C. c #5E7B89",
"Z. c #587695",
"A. c #696E8D",
"S. c #756E8B",
"D. c #647485",
"F. c #6C7484",
"G. c #657B84",
"H. c #6C7B84",
"J. c #64758C",
"K. c #6C758B",
"L. c #647A8C",
"P. c #6C7B8C",
"I. c #737484",
"U. c #797584",
"Y. c #747A85",
"T. c #7B7A86",
"R. c #73768B",
"E. c #7C758B",
"W. c #737A8C",
"Q. c #7B7A8D",
"!. c #6D7593",
"~. c #647C93",
"^. c #6C7C93",
"/. c #6E7B9A",
"(. c #657998",
"). c #747592",
"_. c #7B7693",
"`. c #747B93",
"'. c #7A7B93",
"]. c #747D99",
"[. c #7B7D9B",
"{. c #767499",
"}. c #796D91",
"|. c #747DA2",
" X c #7A7DA3",
".X c #7C7EAA",
"XX c #6F7BA1",
"oX c #867A87",
"OX c #947B87",
"+X c #827A9B",
"@X c #896E81",
"#X c #827DA4",
"$X c #887EA1",
"%X c #5C8984",
"&X c #63818A",
"*X c #6C818D",
"=X c #698186",
"-X c #72808C",
";X c #798388",
":X c #6D8294",
">X c #6C839A",
",X c #6D899D",
"<X c #678798",
"1X c #738294",
"2X c #7C8395",
"3X c #73839C",
"4X c #7A839C",
"5X c #75899D",
"6X c #7B899D",
"7X c #7B8C94",
"8X c #6785A1",
"9X c #6C83A2",
"0X c #6B89AD",
"qX c #6988A6",
"wX c #7484A3",
"eX c #7B84A3",
"rX c #748AA4",
"tX c #7B8AA4",
"yX c #7584AA",
"uX c #7B84AB",
"iX c #7C8BAB",
"pX c #748CA9",
"aX c #7A90A7",
"sX c #7784B0",
"dX c #6D90A3",
"fX c #848485",
"gX c #828395",
"hX c #82849B",
"jX c #81899A",
"kX c #8B8199",
"lX c #B79E8E",
"zX c #8284A4",
"xX c #8389A4",
"cX c #8685A9",
"vX c #899BB3",
"bX c #A0A79B",
"nX c #CB9D9B",
"mX c #D38F8B",
"MX c #D4A498",
"NX c #D0A38E",
"BX c #ECBC99",
"VX c #F3B993",
"CX c #EBBCA8",
"ZX c #CAA3A6",
"AX c #F6D88A",
"SX c #EBCA90",
"DX c #DBC6A8",
"FX c #D5D3B1",
"GX c #EEC8AD",
"HX c #F7EEB8",
/* pixels */
"P.].tX].`.F.9 /.R. XtXP.W.P.W.U.P.].tX|.tX3X3X^.5 3 5 5 o , :XR.[.4XP.5 b.c.P.Y.P.uX3XH.uXeX3XyXP.4XtX].'.F.9 ~.). XtXP.P.W.W.U.",
"W.^.cXsX|.tX].3XrX1XD.b., 7 H.5X].Q.R.Y.W.J.4XeXY.Y.W.P.3X/.tX].Q.W.P.K.W.Y.-XY.`.'.1XK.W.Y.y Y.*X!..XyXXXiX].3XrX1XD.n., 7 G.tX",
"].6X4XG.Y.=X'.4Xy P.W.T.U.P.`.T.*X5XeX.X.X[. XE.I.Y.Y.K.4XwX(.V.X 6 F.Y.W.P.H.Y.9X2 3 n.G.Q.`.F.'.3X4XG.Y.=X'.4Xu H.P.T.I.K.P.T.",
"4X9X!.5 ]., '.W.V.J.1X3XwX3XwX(.W.1XH.7   X # O ^.P.'.W.3XtX!.H.&X8XsXtXT.Y.K.0X~.2 , 3 n.~.|.tX4XrX!.b.`.2 '.W.V.J.].3XwX4XtX(.",
"`.4 0 5 K.6 '.H.& 8 P.3X6XH.H.2 6 V.~.rXiXyXyXeX4XP.hXhX`.3X1X1XuX X+XR.P.3XzXzXy K.P.*X].4XR.].`.4 0 5 K.6 `.H.& 8 P.1X6XH.H.2 ",
"^.2 H.{ H.&XF.6XrX0X0X4X^.c.b.< y oX'. XtX`.R.W.W.y Y.P.v.c.b.m.U.4XwX:XH.t W.).'.uX6X1XyX6X-X'./.2 F.%XH.L.F.2XrX0X0XtX^.c.b., ",
"wX>XxXuX XuXK.jXeXgXS.eX[.I.I.].[.xXJ.6 + + + b.H.W.P.L.n.l.b.k.4 P.1X1X<XM.P.H.eXuX9X(.N.J.^.5X3X>XxXiX XuXK.6X|.gXS.eX].I.I.3X",
"eXW.F.Y.K.4XeXK.H.^.7 P.P.tX9X3X*XL.4 c.k.5 9 H.!.xX1XtX].tX3X2XrX3X/.{.cX{.tXY.H.t W.4XY.+XeXP.tXR.F.Y.P.[.xXK.H.^.7 R.P.tXwX3X",
"5 q X H.oXR.L.3X X`.1X1X4XyXwXeX`.'.H.Y.Y.R.4X4X'.R.'.W.'.R.3XtXyXtXL.4 L.K.Q.Y., B.O wX X].W.Q.5 q X H.oXI.P.3X X`.1X4X3XyXyXeX",
"* , 5 # ^.r e R.3X:XH.P.P.L.9 5 +X>X>XyXuX9XwX_.%X1 , 5 + 5 4 D.[.3X`.xX'.4 < P.B.o m.eXxXzX~.< * , 5 # ^., e R.3X1XH.Y.P.G.9 5 ",
"3X!.6 . K.2 # K.3X/.7 8 4 5 5 + P.,XrX#X#XwX,XP.x.3 q X > H.H.3X'.W.P.K.3XwXuX3XwX/.tX<X>XwXeX3X3X!.6 , K.2 # K.3X/.4 4 4 3 o X ",
"].eX`.'.'.J.L.xXcX/., 5 + 3 n.(.{.hX4XP.D.`.eX X2XQ.).].3XpX`.}.X 1 q + k.c./.tXeXzX^.< C.Q.].tX].4X].).'.L.L.xXcX/.< 5 + o n.>X",
"zX>X4X].6X3X4X).I.jX*X> , :XP.F.uX|.tXtXwX3X|.uXeXrX|.|.[.Q.H.w n.5 , ).{.tXwX].. P.Q.I.'.R.`.,XxX<X4X_.tX3X2X).I.7X*X> 2 :XP.I.",
"4 # ~._.:X5X'.L.P.W.1XK.].zX'.1XG.1 5 !.!.n.X 6 o ~.4XQ.W.J.iXXX>XtX3X4X].rX:X9 6 J.Q.4X'.R.2XK.4 z.~._.:X5X`.L.K.W.1XK.].eX`.'.",
"4 O n.`.3X6XD.6 W.R.4X].uX XeX3X'.2 . 6 6 + 2 F./.3XwXiX X).P.=X].).R.^.3X].+XK.6X3X,X<X6 , D.Q.5 O B.`.3XjXD.6 `.W.4X].eX XtX3X",
"R.6 + . /.K.'.2XT.I.W.P.~.8 H.P.|.].3X3X3XwXrXsX[.eX4XL.4 5 5 3 X 1 , W.].4X1X`.!.M.3 3 n.O 6 Y.).5 + & /.K.'.2XU.I.W.P.^.8 L.P.",
"R., &X< 1 4 `.wX`.2 , X # 3 , ^.L.hXY.8XQ.R.W. X4X`.`.K.R.Y.Q.L.!.1XS.E.5X X3XyXyXP.9 v.O + B.t Q., &X< 1 , ].4XW.6 < 1 + 4 2 P.",
"5X`.W.W.2 &X!.zX-X!.k.5 K.W.4XtX5X].^.rX2X>X5XeX X4XgXfXQ ! OXfXOXu fXfX; ; W.5X9XH.`._.).+X}.;X3XW.W.W.2 C.!.zXP.K.k.b.J.P.4XwX",
"4X'.K.W.K.4X>X/.3X4XK.).rXpX#XH.].m.+ 5 I.iX8X5XqX;XR l F D V C z F B N Z M = 3 N.< :XrX1XvXiXvX4X].K.W.R.4X3X/.wX3XP._.uXpXzXP.",
"3X4X4X^.cX].<XB.[.].eX4X].R.5 3 4 b.& n.K.c.n.K.zX/ ] b -.9.X.9.V f +.:.>.9.u ; o 1 /.dX1X5X).'.3X4X6X`.cX].<XB.'.].xX].`.K.X 5 ",
"+ `.4X`.I.4 q & < 6 (.5X6X`.5 5 4 6 1 k.].].I.4XL  .` %.a.d.a.s.h l 2.7.a.4.a ^ ].F.+X[.).6 3 % o `.hX'.K., # & 6 5 ~.wXzX`.5 k.",
"3 ^.4X`.K.6 B.3 O # 2 W.rX8X!.< + P.Y.0X4XK.fXI ( +.,.#.y.y.6.3.y.r.O.:.d.4.9.0.Q fX1XwX1X, b.# 3 ^.3X`.P.6 n.3 O q 2 R.rX<XK.< ",
"].>X3X`.1XK.J.n.1 8 @ 5 R.'.eXyXaXK.F.pXgXu S Z +.$.$.+.&.,.o.o.d.AXg j y.2.a.4.V ^ y K.&X4 m.3 ].>X3X`.4XP.J.n.1 8 @ 5 I.'.eXyX",
"wX].'.'.:XtX4X^._.D.Q.`.4X4X~.tX3X.X_.4XoXgXR ] :.=.+.` *.*.` _ 7.4.t.9.O.+.f.r.,.9.A : W.[.yXwX4X>X_._.:X5X4X/.'.D.Q.`.3X4X/.tX",
"P.2 . 6 J.rXrX XwX[.4X`.J.8 '.W.qX2XuXtX! D m #.#.O.J d n n j d $.>.h.g.h ' e.e.SX4.h p 2 Q.V.tXP.2 . v.~.rX9X[.tX[.4X'.J.4 '.P.",
"F.P.5 n., , ].4XuX9X/.  w L.G.Y.3 W..X X@XV ]  .@.n *.&.7.y.O.+.] l y.t.nXq.` @.3.6.B Y 5 1 ~.oXF.:X5 5 4 , `.hX.X9X/.  w L.=XY.",
"'.L.^., 2 W.D.`.2XF.T.W.1XK.5 ~.E.Y.{.6XoXf _ ;.n ( +.%.f.f.4.r.Z d 2.e.GXMXh _ 8.@.f u ].I.-Xt 1XJ.^.. 2 W.V.1X2XD.T.Y.1XP.5 &X",
", eX>X4X6X1X'.5 @ M.P.E.E.gXhXH.Q.> = M K <.;.@.] f O.$.>.3.a.u.v x 4.3.BXNXD _ &.&.=.t.T U 2 c., hX3X4X6X1X'.2 @ M.K.E.S.hXhXY.",
"n.(.cX3X1X_.6 , + 3 2 &X^.>X'.R.3 1 Y l x @.O.O._ F O.$.*.>.f.f.d N y.r.CXnXa G  .$.3.*.B OXP.~.n./.cX>X1X_.6 . + 3 1 ^.^.>X'.K.",
"tXzX<X/.3X:XK./.W.W.'.3XrXrXb.4 c.6 ; g ` %.*._ H =.#.+.<.O.4.7.nXMXx <.FXnXC _ o.y.a.1.f ~ 1XeXtXzX>X>X3X:XR.~.W.*X'.1XrXwXn.4 ",
"'.^.^.3X1XK.^.hX|.3X'.`./.'.G.Y.z./.W j b =.' a ,.#.#.:.+.+.:.$.GXVXV L FXFXV x @.r.f.X.d P :XtXQ./.!.3X'.F.P.4X|.tX'.`.^.'.D.Y.",
"Q.H.P.E.U.Y.W.[.1XK., 2 , . '.H.u P.oXl ) >.x C &.+.&.&.#.:.*.;.d.h.D _ f.3.N ' O.y.d.<.F oX<X.XQ.H.P.E.U.W.`.4X'.K., 5 , X '.Y.",
"W.P.Y.H.G.H.E.P.E.L.% $ 4 5 # D.~.[.! z ] o.G d +.,.+.$.#.:.+.&.g.g.h G d.e.F _ O.3.d.e.f I rXR.Y.W.Y.H.G.W.Q.P.E.H.% X 6 b.k.G.",
"& N.+ n.~.6 X W.W.oXK.N.!.F.'.cX5X:XW s ( =.J d :.:.&.&.o.;.;.:.4.r.h ` a.1.B ) ,.3.a.;.h @X>X8 & M.o n.~.6   W.'.oX~.N.!.F.'.zX",
"P.*XH.u U.W.tXeXG.4XyX].xX3X9X[.W.e Y f _ -.J j ;.O.:.<.&.O.:.+.3.e.B ( j.7.h G ;.6.f.9.g ;X4X^.*X=XH.u y W.tXeXG.3XyX].jX3X9X[.",
"4XtX].uXrX'.oXH.3 `.Q.3X8XuXeX`.F.1 P l ) -.( F O.O.o.:.&.:.O.O.i.e.C ( s.u.g G +.6.AXt.g OX3X,X4XuX|.eXpX[.oXH.5 `.E.>X9XuXeX`.",
"5 W.W.H.Y.'.Z.l.4 `.I.M.+ ~.[.3XP.6 E d _ *._ d :.:.o.&.O.,.O.>.5.y.h G AXd.z ( :.r.AX0.k Y . N.5 P.W.t Y.`.Z.l.4 W.I.M.k.~.4X1X",
"Y.I.K.R.'.F.t fXY.3XrXD.w 2 ^.3X9X>XOXd _ >.( f -.,.#.#.O.O.o.;.4.r.g ` HXFXB ( *.<.VXw.k Y q I.I.W.F.W.'.H.t fXY.wXpXD.2 6 ~.4X",
"^.B.L._.J.tXuXXX'.L.].eX3XI.Q.yXrXwXOXf _ ,.*.` ` ` :.:.O.*.t.q.,.,.J *.HXFXV ( =.0.BXq.d ~ V.Q.^.n.L._.K.tXcXXX'.D.`.eX5Xy _.wX",
"5 r 6 5 L.hXR.Q.4 $ 5 I.4XuX~.1 * n.E k _ +.;.-.G l &.;.*.9.BXBXf d o.4.HXFXV ) *.w.VXmXC Q Y.W.5 < 6 5 L.jXK.'.4 $ 1 W.[.uX~.2 ",
"P.=XI.].rX4X).v.Q.L.wXuX X]., + + v.- ^ J =.*.$.H d &.*.O.$.VXSXZ f 7.6.HXDXl b #.9.ZXq./ A oXK.P.H.Y.].rX4XQ.4 W.^.3XuXeX]., + ",
"eXeX#X[.4XH.Y.=X:X'.tXJ.3 # 4 4 z., F.P...Z _ &._ j &.;.r.y.BXCXg d s.i.CXnXh _ 3.&.F T.~.:XI.'.eX X#X[.3XP.F.-X*X_.uXJ.3 $ 4 4 ",
"].wX4X^.P.6 5 L.W.3X4X6 o 1 + v.n.+X$X9X! d n O.] ' n +.#.*.NXZXx G p.g.MXmXx q.y.w.f ~ u K.O 1 ].wX4X^.P.6 5 L.W.3XhX4 X 5 + v.",
"D.3XiXr H.3 k.< R.F.`.'.W.3XtX8X9X9X.X{.Y B b =.;. .x f h g C f y.y.VXVXa J =.>.DXNXV E #XuXW.Y.D.4XiXr H.3 k.4 W.A.1XW.W.4XrX8X",
"zX XA.1XE.^.4 W.:X1XJ.F.'.1X`.uXwX3X7XY.Q.E / ( | %.=._ ' G o.$.BXGX[ w.=.-.e.r.mX[ Y T *XdX[.+X4X XA.'.U.~.4 W.P.1XL.K.'.4X`.iX",
"D.K.4XF.[.tXwXwXI.6 , X 2 Q./.K.7 _.I.C.L.6X! D *.<.O.#.%.*.y.y.FXDXF v e.y.a.4.f R 9XQ I.^./.T.G./.4XF.[.eXwXeXI.w , 5 2 E.`.J.",
"w > 1X3XrXwXwXXXU.H.# 5 D.Q.I.9 n.k.l.m.v._.oX;XG x =.,.o.t.4.s.lXlX>.| f.e.>.0.OXoXY.X m.z.5 k.1 r :X3XrXyXwX9XU.K.# 5 D.1XI.9 ",
"m., {.uX9XQ.T.P.Y.W.).`.3XP.*XF.^.Y.} y ].1X5X).S k >.+.6.r.f.a.N f 0.i.s.3.D M !.yX;X{.D.Q., 5 n.& ].uX9XI.oX*XY.K.).`.1XW.P.F.",
"P.`.tX[.1XJ.9 ~.).eXtXH.P.P.W.U.P.`.eXeXpX3XtXP.: Y L b -.-.O.>.g V &.o.>.*.S P K.eX5XJ.uX X>XpXP.4XtX].1XK.8 ~.).eXtXP.P.W.W.Y.",
"W.^.uXyX{.iX].4XrX1XD.n.4 7 H.5X[.).Y.Y.W.J.].4XW.! R D V C V V g C f B D ^ +X(.].`.1XK.W.Y.Y.y W.^..XyX{.tX].3XrX1XD.v., 7 H.5X",
"[.3XhXG.Y.=X'.[.u K.P.T.I.K.^.T.*X5XuX X.X[. X_.I.Y.fXQ fXfX! i - - ....} fXF.Q.9X2 4 n.G.-X`.Y.[.5X4XG.Y.=X'.4Xu K.P.T.U.^.`.T.",
"4X,X!.b.`.2 '.P.V.J.`.3XtX4XtX(.Y.1XH.<   X # O `.F.-X*X:X3X].D.`.wXeX4X-Xt R.eXP.2 3 3 6 ~.|.uX4XwX!.5 ].2 '.P.V.J.1X3XwX3X3X(.",
"`.4 0 5 K.5 '.H.& 8 P.4X3XH.D.2 6 V.~.tXiXyXyX X2XP.'.4X^.wXuX4X<X6XF.Y.).sXrXqXy R.P.=X4X[.W.'.`.4 0 5 K.5 '.H.& 8 W.1X6XP.H.2 ",
"^.2 H.{ H.&XF.6X9X0X0X4X/.3 n.< u Q.'. XtX`.P.Y.Y.W.`.`.6 3 X + {.[..X].H.Y.y E.'.uX4X3XyXzXY.^.^.2 H.{ y &XF.4X9X0X0XtX^.3 c.< ",
"wX3XxXuX XiXK.jXtXgXS.eX].Y.W./.[.xXJ.6 + + k.n.W.K.`.^.4 4 3 4 N.D.4X:XrXn.=XG.uXwXrX(.v.J.^.5X3X3XxXuXeXuX!.jXeXgXS.4X[.I.Y.].",
"wXW.F.Y.R.[.eXK.H.^.7 P.W.tX3X3XP.L.4 b.b.5 8 H.W.1X4XtX>XrXwXyX>X7X[.K.3XwX2X_.H.t `.4XR.hXeXW.wX`.F.Y.K.4XtXK.P.^.7 P.P.uX,X3X",
"5 q X H.oXI.H.3X X).1X4X3XyXwX X`.'.H.Y.Y.I.4X4X'.R.'.I.'.R.3X5XwXeXP.2 L.K.E.y 3 B.O wX[.4XP.Q.5 5 X H.oXY.P.5X X`.1X1X3XuXwXyX",
"* < X q ^.< B.R.5X:XH.Y.P.G.e 5 '.3X8XuXuX9XrX_.%X1 , 5 k.6 6 J.4X3X/.xX`.9 6 *Xn.o v.tXcXeXJ.< , < q # ^., e K.3X1XH.W.P.L.6 2 ",
"3X!.6 , K.2 # K.3X/.4 4 6 3 5 X ^.>XpX#X#XrX,XK.x.3 q X > D.P.`.].'.P.G.3X|.uX3XwX/.rX>X>X3XeX3X3X!.4 . K.2 5 K.3X>X7 8 4 5 5 + ",
"].eX].).'.L.L.xXcX/.< 5 + o v.>X_.4X4XH.D.`.eX X2XW.'.].>XaX`.}.X , w + k.c./.rXeXzX^.< L.^.[.tX]. X].'.'.J.L.xXzX/.& 5 + o 6 /.",
"eX<X4X'.6X3X4X).I.jX=X1 , :XP.F. X XtXtX3X3XyXuXuXwXwX4X[.Q.H.w n.o , ).{.wX>X].X ^.Q.Y.Q.R.'.,XxX>XwX_.tX5X'.).I.jX*X, , :XP.F.",
"4 z.~.+X:X5X'.L.K.W.1XK.].zX`.'.L.1 b.!.!.n.. 6 o ~.'.'.P.P.iXXXwXtX3X6X4XtX>X9 6 J.R.4X'.W.2XK.4 # <X_.:X3X1XL.P.W.-XP.].zX`.'.",
"5 O n.`.3X6XJ.2 W.W.2X].eX XtX3X'.2 X 6 n.X 2 F./.3XrXuX X).P.=X`.).I./.3X].+XF.4X3X,X<Xe , J.Q.3 O n.).4X6XD.2 W.R.2X].uX XtX3X",
"Q.5 o   /.P.'.'.T.I.W.P./.v.H.P.|.].3X3X3XwXrXsX[.eX4XL.4 3 5 5 X 1 , P.'.4X3X`.).n.3 3 b.X 2 K.Q.6 +   ^.^.'.[.U.Y.W.P.^.v.H.P."
};
