/* XPM */
static char *_f560242cf7742e6bb1a51a7211d92b62STSoKZttFqDc7UJ[] = {
/* columns rows colors chars-per-pixel */
"64 64 237 2 ",
"   c #3C5F7B",
".  c #3C646D",
"X  c #316E6F",
"o  c #37716C",
"O  c #3E6474",
"+  c #3C6A74",
"@  c #3D657B",
"#  c #336D7A",
"$  c #3D6B7B",
"%  c #346875",
"&  c #3D727C",
"*  c #36727B",
"=  c #7C6A57",
"-  c #797457",
";  c #425E74",
":  c #4A5E77",
">  c #505F76",
",  c #6A5C6E",
"<  c #725B6B",
"1  c #745A73",
"2  c #645F73",
"3  c #44676C",
"4  c #50646D",
"5  c #446573",
"6  c #4A6474",
"7  c #446B75",
"8  c #4A6A76",
"9  c #44657B",
"0  c #4A657A",
"q  c #436A7B",
"w  c #4A6B7C",
"e  c #536475",
"r  c #52667A",
"t  c #526B7B",
"y  c #56657C",
"u  c #407176",
"i  c #42717C",
"p  c #4D717D",
"a  c #4E7073",
"s  c #50707E",
"d  c #69777A",
"f  c #72737C",
"g  c #78787D",
"h  c #7F6B60",
"j  c #AB5B35",
"k  c #A55C3B",
"l  c #AB5C3C",
"z  c #A85637",
"x  c #B3593C",
"c  c #B1552C",
"v  c #9E643F",
"b  c #AC623C",
"n  c #A46237",
"m  c #B96C3B",
"M  c #BD753B",
"N  c #C5683C",
"B  c #C8763C",
"V  c #905551",
"C  c #AC5C42",
"Z  c #A85B45",
"A  c #B25A47",
"S  c #B95951",
"D  c #AA5751",
"F  c #85665A",
"G  c #9B765F",
"H  c #9A6749",
"J  c #A56343",
"K  c #AA6243",
"L  c #BE6B4B",
"P  c #BA6944",
"I  c #B37056",
"U  c #8D5D6E",
"Y  c #9C7969",
"T  c #936E70",
"R  c #A37464",
"E  c #A8766A",
"W  c #AC6F69",
"Q  c #C05E41",
"!  c #C36645",
"~  c #C96A47",
"^  c #C37245",
"/  c #C86A53",
"(  c #D06C4E",
")  c #5F837F",
"_  c #7E847A",
"`  c #BF903E",
"'  c #CC8D3F",
"]  c #C5913E",
"[  c #BD9053",
"{  c #9E846E",
"}  c #A98378",
"|  c #CB8C4D",
" . c #C78C46",
".. c #D48B4B",
"X. c #CC924D",
"o. c #C69347",
"O. c #D1934D",
"+. c #CB8C51",
"@. c #C68C54",
"#. c #D38B57",
"$. c #CA9253",
"%. c #CB935B",
"&. c #C69355",
"*. c #D29253",
"=. c #D6A85A",
"-. c #E2A052",
";. c #CF8862",
":. c #CA9365",
">. c #D48E63",
",. c #DDAC63",
"<. c #E7A567",
"1. c #EFBF6F",
"2. c #E59D53",
"3. c #F6C568",
"4. c #E8CB79",
"5. c #F6C677",
"6. c #EBCA6F",
"7. c #DDD268",
"8. c #3C6C82",
"9. c #3B6483",
"0. c #3C6D89",
"q. c #465E82",
"w. c #456482",
"e. c #4B6381",
"r. c #446B82",
"t. c #4B6B82",
"y. c #4B6C88",
"u. c #526C82",
"i. c #576B88",
"p. c #497081",
"a. c #487385",
"s. c #5A728C",
"d. c #5A7789",
"f. c #5D7B97",
"g. c #6A6E8F",
"h. c #756E88",
"j. c #647485",
"k. c #6C7584",
"l. c #657B84",
"z. c #6C7B84",
"x. c #64758C",
"c. c #6C758B",
"v. c #647B8B",
"b. c #6C7B8C",
"n. c #737484",
"m. c #797584",
"M. c #737A85",
"N. c #7B7986",
"B. c #73758B",
"V. c #7C758B",
"C. c #737B8C",
"Z. c #7B7A8D",
"A. c #657694",
"S. c #6D7593",
"D. c #647C93",
"F. c #6C7C93",
"G. c #6D7C99",
"H. c #687C9B",
"J. c #747592",
"K. c #7C7693",
"L. c #747B93",
"P. c #7A7B93",
"I. c #747D9A",
"U. c #7B7D9B",
"Y. c #707299",
"T. c #6F7DA3",
"R. c #747DA2",
"E. c #7B7EA3",
"W. c #7C7EA9",
"Q. c #81798C",
"!. c #887988",
"~. c #837B9B",
"^. c #906283",
"/. c #827DA4",
"(. c #857DA8",
"). c #698286",
"_. c #63818B",
"`. c #6C818D",
"'. c #678085",
"]. c #73818C",
"[. c #7C8187",
"{. c #6D8294",
"}. c #648699",
"|. c #6D839B",
" X c #6E899D",
".X c #658795",
"XX c #738294",
"oX c #7B8296",
"OX c #73839C",
"+X c #7A839C",
"@X c #75899D",
"#X c #7B899D",
"$X c #74909E",
"%X c #6685A1",
"&X c #6C83A2",
"*X c #6B88AE",
"=X c #6C87A5",
"-X c #7484A3",
";X c #7B84A3",
":X c #748AA3",
">X c #7B8AA4",
",X c #7684AA",
"<X c #7B84AB",
"1X c #7C8AAA",
"2X c #748CA9",
"3X c #7990A5",
"4X c #7883B0",
"5X c #7288B1",
"6X c #6E89B4",
"7X c #5C8984",
"8X c #848384",
"9X c #82839C",
"0X c #81899A",
"qX c #828295",
"wX c #95868D",
"eX c #BF9F90",
"rX c #8284A4",
"tX c #8289A4",
"yX c #8284AB",
"uX c #8A86A7",
"iX c #8BA2B4",
"pX c #D1998E",
"aX c #ECBA93",
"sX c #F8BC97",
"dX c #F4BC8C",
"fX c #EEBCA9",
"gX c #C8A494",
"hX c #ECC88C",
"jX c #DAD5A8",
"kX c #D4D5B3",
"lX c #D3D2BC",
"zX c #D0CFAC",
"xX c #E7C4AF",
"cX c #F6F4B8",
"vX c #DBD1C3",
"bX c #FFEEC1",
"nX c #EFF8C1",
/* pixels */
"b.I.>XI.L.k.r G.B.E.>Xz.C.b.M.m.b.I.+X>X:XOX>Xb.t.@ 7 q $ 6 b.B.E.oXb.8 r.w.v.M.C.;XOXc.,X;XOX2Xb.L.>XI.L.k.r G.B.;X>Xc.z.b.C.m.",
"C.F.4X<XR.1XI.OX2XXXx.q 9 e k.:XU.K.B.B.C.l.OXU.B.M.C.b.-XG.>XI.Z.b.C.x.C.C.C.M.I.L.XXc.B.M.n.f C.G.W.,XR.1XI.OX:XXXv.t.0 e z.@X",
"I.@X9Xl.M.).P.U.f z.C.N.m.b.C.N.).OX1XW.W.E.U.K.n.C.B.k.OX-XA.i.+ w k.N.Z.z.z.M.&X8 9 t.l.].I.M.P.@X9Xl.M.).P.+Xf z.L.N.m.b.S.N.",
"oX-XS.q L.8 P.b.s.x.XX-X-X-X:XD.C.XXk.6 . + & # F.z.P.C.+X>XF.z._.%X5X>XC.M.C.*Xv.8 9 9 s D.R.;X+X&XS.r.L.6 P.C.s.x.F.OX-X+X:XD.",
"L.0 y $ c.0 P.z.; r C.OX+Xz.z.8 w d.G.>X1X-X,X;XXXC.qX9XL.OXOXXX,XE.Q.B.b.OX;X/.f b.b.`.OXoXC.P.L.0 y q c.9 P.z.; y b.XX+Xb.l.8 ",
"G.8 z.'.z._.k.#X=X*X*X+XF.w.r.6 f Q.L.+X>XI.C.B.M.k.C.b.0 w.r.r.m.+X-X Xz.d C.B.K.W.#XXX-X>XC.L.H.8 z.) z._.j.#X=X*X*X>XF.w.t.6 ",
"OXOX1X>XE.1Xc.0X>XQ.h.;XU.m.B.I.+XrXs.w $ $ $ r.C.].b.D.t.r.r.r.w b.XXXX|.u.`.z.>X,X-XA.i.g.F.@XOXI.tX1XE.1Xc.0X;X~.n.;XU.n.n.|.",
";XC.k.M.c.U.;Xc.b.{.e b.F.:X|.OXb.b.0 r.r.q r z.S.tXXX+X-XOXOXU.-X>XJ.I.yXY.rXC.z.d C.#Xc.U.;Xb.>XC.z.B.B.U.;Xc.z.`.e b.J.:XOXOX",
"q q + z.Q.M.b.@XE.J.I.XXOX>XR.E.+XL.M.B.M.M.+XOX).l.z.C.C.J.OXOXW.;XG.e c.B.L.V.9 a.$ -XU.+XS.P.q i + b.Q.M.v.@XE.L.I.XXOX-X-X;X",
"6 0 & 7 b.6 w c.@XXXz.b.`.v.u.q K.|.}.W.,X&X-XK.C.y 6 t.r.w t j.-XOX{.@X.Xw 6 _.r.@ t.-XrX1Xb.6 : 6 u + b.6 w B.@XF.z.].C.v.u.q ",
"|.Y.w 5 c.8 i c.OX|.e r 0 9 q + b.|.:X(./.-X=Xb.0 9 i + . v.B.~.P.Z.C.k.U.OX>XG.-XG.:X|.|.OX>XOXOXS.w 5 c.8 i c.OXG.r 6 0 9 q + ",
"I.+XI.L.K.v.v.tXrXG.; q $ @ t.|.U.+X+Xz.j.J.tX+X-XS.G.G.OX@X{.v.+ + i 6 w e.H.:X>XrXS.8 v.c.U.>XI.;XI.K.P.v.v.tXrXI.9 9 $ @ t.|.",
"rX XOXP.>X@XU.B.n.0X`.3 6 {.b.k.E.R.1X>X-XOX;X<X@X+XU.K.9XS.F.u.r.q 0 G.G.;XU.U.O F.Z.B.P.B.P. X;X|.OXP.>X@XU.B.n.0X`.3 6 {.b.k.",
"0 8.D.K.XXXXI.v.c.C.XXb.I.;XP.XXv.7 w S.A.r.O w w..X@XXXC.c.tXI.OX-X@X:X|.>X|.t w x.J.oXoXB.oXc.0 8.D.~.{.OXI.v.z.C.XXc.I.;XL.P.",
"q # a.J.+X>Xj.w C.C.oXI.<XR.>XOXZ.8 + w w 7 q k.L.I.U.tXOXc.M.M.Q.B.B.S.OXOX|.v.+XOX X|.w 5 l.Z.q # p S.oX>Xj.w J.b.oXI.<XR.-X+X",
"J.8 $ O F.b.L.oXm.n.C.b.F.r c.b.R.G.;XOXOX-X-X,X&X1X+XZ., 1 < 1 < 1 , V.J.rXI.Z.S.t q 9 w # w n.J.8 $ O F.C.L.oXN.n.C.b.F.t b.b.",
"B.6 _.6 7 8 L.;XJ.8 8 + & 0 0 b.F.K.P.-XB.Z.L.,XU.J.B.G D x c Z S j C C.Y.,XrX=XrXJ.0 q + i 7 v.B.6 _.6 8 7 L.+XJ.8 6 7 $ 0 0 b.",
"@XC.C.L.8 d.S.rXb.c.8.r.x.b.#XOX#XU.G.OX+XOX|.E.yX-X>X{ v &...k j M m U 1 r.B.:X+XA.OXS.K.V.h.P.#Xb.C.C.8 d.S.rX{.c.$ r.x.b.#X-X",
"+XL.c.B.B.+X|.G.-X+Xz.K.:X2XrXv.b.y.8.+ C.-X2X>X%XH.U.I z ,.,.b j %.| S V $ q e.$ w S.>XOXiX3XiX+XL.c.C.B.+X|.G.OXOXb.K.>X2X9Xv.",
"OX+X#XL.uXL.}.a.U.I.rXOXP.B.9 q 8 @ @ p.S.: e.c.G.wXU / N $.<.:.:./ ~ N ! F < t.# 7 L.+X X Xb.V.OX+X#XL.uXL.}.a.U.I.rXOXL.c.9 q ",
"$ J.+XL.c.8 r.@ 0 0 H.OXrXL.$ q w 8 X w J.V.{..XV.R C  .@.| ..5.7.k x &.X.K R l.K.B.~.U.S.t w q $ Y.+XL.c.0 r.9 0 w D.-XrXJ.q 8.",
"9 G.+XXXc.w t.9 # i 8 b.:X%Xg.6 # b.Z.OXI.Z.].L.F.V C  .&.^ m 6.3.Z l %.| z } I. X@XXX#Xx.6 q 8.0 F.oXXXx.t p.9 # i 8 B.:X%Xc.8 ",
"I.|.OXJ.XXb.v.t.8 w % w B.P.>X-X-XI.j.>X;Xc.C.Q.OXR Z %.>.z Q =.=.A b &.@.J Y |.oXI.I.c.OX0 $ @ I.{.OXS.OXb.D.t.7 0 % q B.P.;X-X",
"OXOXP.P.XX@X+XS.J.z.C.C.OX+XG.>X;XrXY.XX-X=X>XU Y ^ #. .o.n c hX3.#.X.N ~ #.m I ~.c.u 7 v.9XU.:X-XOXP.K.XX@XoXS.L.z.Z.C.OX+XG.>X",
"b.8 9 0 x.2X XE.;XU.#XL.c.6 L.C.&X,XyX&X;Xr.7 F C +.@.#...l J 5.3.<.<.b L +.$.A = u.@ t.9 M.L.+Xb.8 9 w d.:X&XU.>XU.#XP.x.r L.B.",
"k.b.q w 0 5 I.+XW.&XG.. i v.'.N.0 K.C.1XD.6 q F k *.X.L ^ 2.-.+.X.1.6.n ! #.o.l Y k.b.$ t.q D.m.k.b.q q 0 5 +X~.W.&XF.. 8 _.).M.",
"Z.v.G.O 8 C.d.P.oXk.m.C.P.c.q _.l.Z.B.}.3XB.OXF k X.O.! k 4.4.x l hX4.n / O.[ j W U.@XXX|.N.N.F.XXv.G.O 8 Z.j.I.oXk.V.B.XXb.q v.",
"9 ;XOXOX#XXXN.9 % u.b.V.V.9X9Xz.C.+ 8 q K..X@XT A o...( v kXkXl z sXdXc /  .o.b = P.-X<Xl.d @ w 5 rXOXOX#XXXL.7 % u.v.V.V.9X9Xz.",
"8 H.yXOXXXP.w 9 $ 9 7 F.b.|.L.B.q 0 i % 9 B.+XE C &.| ~ C vXvXl k fXfXl ^ | $.C Y =XV.m.E.+XM.F.0 G.yXOXXXK.t O $ 9 7 {.A.|.P.n.",
"1X;X|.G.OX{.c.|.C.b.P.OX:X=Xt.0 q w.q 8.t y j.G j %.+.m A hXaXb b lXlXK N +.%.C Y z.p $ j.XX-XOX1X;X|.{.XXF.c.|.C.b.P.OX:X-Xr.0 ",
"P.F.F.OXXXk.J.U.R.OXP.C.L.L.l.M.7 S.K.$ G.|.oX= l &.X.^ A aXaXK l kXjXl ! +.#.l R #XI.P.r.k.c.W.P.b.S.OXXXk.F.E.R.-XL.J.F.Z.l.M.",
"Z.z.z.V.m.B.XXoXXXC.5 w 9 O P.z.`.B.oX9X+Xv.7 E S ` o.( Z lXvXk x xXxXl ! &.| l F v.L.@XL.tX:X=XZ.b.b.V.m.C.P.oX].C.3 w q O P.C.",
"C.B.n.z.).z.V.L.V.b.X X 0 r.$ l.B.F.oXOXL.C.C.R Z | @./ A jXkXZ J aXaXk L $.' x F e.t.w x.c.>Xb.C.C.n.z.).C.B.C.V.v.o + 0 8.q l.",
"; u.$ r.D.w . C.C.Q.S.i.S.k.oXyX;XG.I.S.U.OX+XY n O.o.P l cXcXj z bXbXk ! $.$.l = r.# O i.L.=X8 ; u.$ w D.w . C.Z.Q.A.i.S.n.P.<X",
"`.`.z.g m.c.#XE.'.OX,XI.9X-X&XK.n.w p @ p w l.Y l | $.~ l cXcXl z cXcXk ~ X.%.C { =X X@XOXI.-XZ.F.).z.g g B.>X;Xl.-X,XI.9XI.&XU.",
"I.>XU.>X2XP.Q.z.t.C.Z.G.&X1X>XI..Xq @   t.+ & h C $.@.~ C kXkXA C 4.4.l ~  .%.k W +X|.J.J.rX<XI.I.>XR.;X2XP.Q.z.q C.Z.|.&X1X#XI.",
"w C.C.d M.L.f.9.; Z.B.u.$ D.I.XXJ.y.q r.r.$ 0 F j X.X.N C zXzXx C 3.3.b ~  .$.l R D.u.w @ 0 8.+ q C.C.d M.L.f.9.9 P.B.u.8.D.U.XX",
"B.C.c.C.P.k.d 8XM.-X-Xl.a 0 G.OXXX|.oXL.n.C.b.R l $.+.N Z xXxXC k 3.3.l L X. .b - 7 9 7 $ $ q z.m.B.k.B.P.z.d 8XM.@X:Xj.a q G.+X",
"F.w D.Z.c.>XyXR.L.v.L.;X>Xf K.-X<X-X>X,X;X#XU.W l %.&.^ ^ pXpX+.$.hXhXk / *. .C F q i 5 x.P.L.m.G.p D.P.c.>XyXR.L.k.J.;X:Xf Z.-X",
"$ 6 w q v.#XB.B.0 * 7 B.U.>XD.7 9 @ j.G.+Xz.b.Y x $.o. .#.Z n 1.3.jXkXn ! +.$.l E g.L.B.:XXXb.N.$ 5 w 8 v.0Xc.J.0 * 7 C.U.,XD.8 ",
"`.z.M.Y.2X+XJ.t.Z.b.OX,XE.I.0 $ @ & 7 B.yX-XB.U F N +.$.>.j x 5.5.gXeX( m @.~ F ^.Q.K.b.C.z.C.].b.z.M.I.2X+XB.e.C.b.OX1XE.I.9 $ ",
";XrX/.U.+Xz.M.z.{.K.>Xx.9 & q 0 t.t j.F.G.&XOX].).R K $.+.b n 5.3.n P ..;.b G _.J.+XOXOXB.Z.k.c.;XrX~.U.XXb.M.`.{.K.-Xg.9 & 0 0 ",
"I.-XOX{.b.w q v.C.OX~.w $ q % e.w.F.#XL.:XOXi.b.d.E x O.O.] [ 3.1.z l &.#.j { &X:X-X@XD.b.x.u.7 I.-X-XF.b.8 q v.C.+XU.w q q % e.",
"j.OX>X4 z.9 8.6 c.k.OXC.C.+X>X%XW.,X9XP.c.t.% 7 a Y H X.+.=.<.<.<.D C [  .n R 9X~.J.B.B.uX~.L.A.x.OX>X4 b.q 8.: b.k.XXL.C.OX>X%X",
";XE.g.P.V.b.0 C.`.XXz.c.P.oXL.>X&X:XXXP.Z.J.L.U.m.^.U / ~ <.<.[ ' L N B ^ F < J.OX{.d.l.b.P.P.9X+XrXg.P.m.G.9 C.`.XXv.c.Z.XXI.1X",
"l.S.oXk.U.1X-X-Xn.w 9 + 8 J.L.x.9 I.B.j.b.P.+X-XOXOXN.R Z -.=.B ^ #...K W G.c.V.J.I.XXb.v.{.b.C.j.S.oXb.oX1X-X+Xn.8 O & 8 Z.F.c.",
"8 7 XXOX:X-X-XT.M.c.& q j.C.h.t X 5 8 & + x.1X.XY.L.].T D o.] ^ ^ L ^ g 8X-Xn.+X#X+Xb.6 3 . $ $ 8 3 {.OX-X-X;X&Xm.c.& w v.C.h.t ",
"t.3 I.<X&XZ.m.b.M.B.J.F.+X].XXk.N.k.L.C.B.9XU.F.& ; 5 V A n C A l j A 5XB.C.o 0.G.OXB.P.L.b.t.q y.; L.<X&XZ.m.b.M.c.K.J.XXC.`.k.",
"b.OX>XI.P.c.r G.B.;X>Xz.b.b.C.m.b.I.>X-X>X|.#XJ.t.0 e 2 , < !._ !.!.[.6 9 t.l.g J.-XOXc.<X;X|.,Xb.I.>XL.L.c.t G.B.E.>Xb.M.b.B.m.",
"C.S.W.<XI.1XI.OX:XXXj.t.9 e z.:XU.V.B.n.C.z.I.OXv.b.b.B.~.E.;X|.XXb.`.d z.M.L.J.+XL.XXk.C.M.n.n.].F.4X4XI.1XI.OX2XXXv.9 9 e z.@X",
"P.@X+Xl.M.'.P.oXf z.C.N.m.b.C.N.`.@X;XW.W.U.E.K.g M.C.c.+XE.A.s.+ t c.N.L.c.B.Q.}.w 9 t.l.].L.M.U.@XqXl.M.'.P.+Xf z.C.N.m.b.S.N.",
"+X&XS.t.L.q P.C.s.x.I.OX-X-X-XD.C.XXz.6 O + & # C.M.C.C.oX;Xb.k.).+X,X<XN.g ].|.b.8 9 q w A.R.>X+X|.S.t.L.6 P.C.s.x.XX-X-X+X:XD.",
"F.0 y q c.q I.k.; r b.+X+Xz.z.8 w d.G.:X1X-X-X<X+XJ.+XOXG.-XOXOX,XE.B.n.l.{.3X+Xf B.b.`.I.+XC.P.F.0 y q c.q P.l.; r b.OX#Xz.z.8 ",
"H.8 z.'.z.v.k.#X=X*X*X;XF.w.r.5 f Q.P.U.-XI.B.M.Z.z.].v.q r.r.w B.>X-X|.z.k.P.Y.J.<X>XXX-XrXC.L.F.8 l.'.f _.k.#X-X*X*X>XF.w.t.9 ",
"+XOX1X>XE.,Xc.0X;XqXn.;XU.n.B.OXE.tXx.w $ & 8.r.z.M.M.z.8 @ q @ 0 v.oX-XR.s.Z.g >X,X-XA.e.x.F.@X-XOXtX>X;X,XS.0X-XqXh.+XU.n.n.G.",
">XB.k.M.c.oXtXc.z.b.e b.C.-XOXOXb.v.w w.r.q t z.D.;XU.;X-X,X,X;X-X+XC.J.;XG.@Xv.z.d ].+XB.9XrXC.;XC.k.B.c.+XrXc.b.b.e b.L.:XOXOX",
"q q + b.Q.n.z.@XE.L.XXXXOX>XR.;XI.P.k.M.M.B.oX+XP.B.Z.B.L.B.OX@X;X>Xb.8 v.k.N.n.9 a.% -XU.+Xb.C.q & + z.Q.n.v.@XE.J.XXOXOX-XR.;X",
": 6 & 7 b.6 p.c.@XF.z.C.b.v.u.q P.OX|.,X<X=X-XK.7X7 5 q q w w x.U.OXL.tXI.t 8 b.y.9 t.-XyXrXA.6 : 6 q u b.6 p B.@XXXz.C.b.v.s q ",
"OXS.w 5 b.8 q c.-XG.r 0 0 9 q $ b.|.:X(./.-X Xb.q.9 i + 3 b.b.L.L.L.c.j.G.-X1XOX-XF.:X|.|.OX1XOXOXS.w 9 b.6 $ c.OX|.e r w 9 q $ ",
"I.+XI.L.P.x.v.tXrXI.5 9 $ @ w |.U.+XoXc.k.S.>XE.oXC.P.I.|.2XI.h.$ 5 p * 8.w.T.-X>XrXS.8 v.b.P.>XI.+XI.L.K.v.v.tXrXG.; q $ @ w G.",
";X|.OXP.#X@XoXJ.n.0X`.3 6 {.b.k.E.-X>X>X:XOX-XW.<X-X-XI.U.C.b.a t.9 5 L.Y.-XOXI.O F.Z.B.P.m.I. XrX XOXP.>X@XoXJ.n.0X).3 6 {.b.n.",
"w 8.D.~.{.OXI.v.k.C.XXb.I.;XL.XXv.7 t.A.A.t.@ t 9 D.oXP.C.c.1XR.&X:X+X;X+X>XOXt w v.C.oXP.B.oXc.0 8.D.K.{.OXP.v.c.C.XXb.I.;XJ.XX",
"q # t.J.oX>Xj.8 C.J.+XI.<XE.;XOXZ.8 @ w w + 7 k.G.OX-X1XE.S.`.z.L.J.B.F.OXU.P.c.+XOX X}.p 5 z.Z.q # a.J.oX>Xj.8 C.b.+XI.yXE.>XOX",
"B.8 & O {.F.J.oXN.n.C.b.F.e.z.C.R.I.OX+XOX-X-X5XU.rXoXD.0 q 9 q + 8 3 b.J.>X{.P.S.u.w.9 w % w B.J.8 $ O F.S.L.9Xm.n.C.b.F.e.z.b."
};
