/* XPM */
static char *Empty1676382441[] = {
/* columns rows colors chars-per-pixel */
"64 64 168 2 ",
"   c #3D636E",
".  c #376A6E",
"X  c #3A6B6F",
"o  c #35706E",
"O  c #336474",
"+  c #3D6473",
"@  c #356C76",
"#  c #3C6A74",
"$  c #3C657B",
"%  c #336D79",
"&  c #3D6C7B",
"*  c #36727C",
"=  c #3C727C",
"-  c #425E74",
";  c #4A5E77",
":  c #475F79",
">  c #565F7C",
",  c #42646C",
"<  c #4A676F",
"1  c #486A6C",
"2  c #50646D",
"3  c #446473",
"4  c #4A6474",
"5  c #446B75",
"6  c #4A6A75",
"7  c #44657B",
"8  c #4B657B",
"9  c #436A7B",
"0  c #4A6B7C",
"q  c #536575",
"w  c #526A77",
"e  c #52667B",
"r  c #59637E",
"t  c #526B7B",
"y  c #407176",
"u  c #4E7173",
"i  c #42717C",
"p  c #4E717D",
"a  c #50707F",
"s  c #687877",
"d  c #60757A",
"f  c #6B767A",
"g  c #67797D",
"h  c #687878",
"j  c #72737C",
"k  c #7A747E",
"l  c #5F837F",
"z  c #3F6383",
"x  c #3D6C82",
"c  c #3B7487",
"v  c #4B5D83",
"b  c #456581",
"n  c #4B6481",
"m  c #446B82",
"M  c #4B6C82",
"N  c #446B88",
"B  c #496D89",
"V  c #536483",
"C  c #5B6682",
"Z  c #536C82",
"A  c #5A6B86",
"S  c #546D8C",
"D  c #437384",
"F  c #4A7181",
"G  c #4F7288",
"H  c #547283",
"J  c #5A728C",
"K  c #5F7C8D",
"L  c #5D7B97",
"P  c #636F87",
"I  c #676D8F",
"U  c #6C6F8E",
"Y  c #716F84",
"T  c #746F8E",
"R  c #7B6E89",
"E  c #647485",
"W  c #6B7584",
"Q  c #657B85",
"!  c #6C7A84",
"~  c #65748C",
"^  c #6C758B",
"/  c #647B8C",
"(  c #6C7B8C",
")  c #737484",
"_  c #797584",
"`  c #747A85",
"'  c #7C7A86",
"]  c #73758B",
"[  c #7C758B",
"{  c #737A8C",
"}  c #7B7A8D",
"|  c #657593",
" . c #6D7592",
".. c #647C93",
"X. c #6C7C93",
"o. c #657E9A",
"O. c #6E7C9A",
"+. c #747592",
"@. c #7C7694",
"#. c #747B93",
"$. c #7A7B93",
"%. c #727399",
"&. c #747D9A",
"*. c #7B7D9B",
"=. c #6F7BA1",
"-. c #747DA2",
";. c #7A7DA3",
":. c #7C7EA9",
">. c #82798C",
",. c #817D95",
"<. c #827D9E",
"1. c #837DA3",
"2. c #887EA1",
"3. c #827FAC",
"4. c #5C8984",
"5. c #5E808A",
"6. c #5E8193",
"7. c #678085",
"8. c #698286",
"9. c #63818A",
"0. c #6C818D",
"q. c #73818C",
"w. c #668196",
"e. c #6D8294",
"r. c #668699",
"t. c #6D839B",
"y. c #6D899D",
"u. c #738294",
"i. c #7B8296",
"p. c #728A96",
"a. c #7D8997",
"s. c #73839C",
"d. c #7A839C",
"f. c #74899D",
"g. c #7B899D",
"h. c #6685A1",
"j. c #6C83A2",
"k. c #6D8AA4",
"l. c #6C84AA",
"z. c #6B88AE",
"x. c #7484A3",
"c. c #7B84A3",
"v. c #748AA3",
"b. c #7B8AA4",
"n. c #7684A9",
"m. c #7B84AB",
"M. c #758CA9",
"N. c #7D8AAB",
"B. c #7A90A7",
"V. c #7C90A9",
"C. c #7883B0",
"Z. c #7288B1",
"A. c #828483",
"S. c #828295",
"D. c #82839C",
"F. c #89859E",
"G. c #81899B",
"H. c #8284A4",
"J. c #8C86A2",
"K. c #8389A3",
"L. c #8888A0",
"P. c #8184AB",
"I. c #8886AB",
"U. c #8D9DB7",
"Y. c #8B9EBE",
"T. c #8BA4BA",
"R. c #95A1B7",
"E. c #989CC1",
/* pixels */
"( &.b.&.#.^ t X.T c.b.^ ( q.` _ { &.b.x.b.t.d.X.M $ 9 9 & 8 ( ] ;.i.( 6 m b / q.] x.d.^ n.b.s.n.( s.b.$.#.W t X.T :.b.( ( { { ` ",
"{ X.C.m.&.N.&.f.v.u.E 0 7 q ! v.*.] ) ] { W s.d.` ` { ( s.&.b.&.{ ( ( W { { ` ` &.#.u.^ { ) ! j { X.:.C.=.b.&.f.v.u.E 8 7 q W f.",
"&.f.S.Q ` 8.$.d.j ^ ( ' _ ^ ( ' 0.f.c.:.:.;.<.@.W ) ` W x.x.| A # t ) } { ( ! ` h.w 7 M Q q.&.) &.f.d.Q ` 7.$.d.j ( ( ' _ ( { ' ",
"d.f. .m +.5 $.{ J ~ u.x.x.d.x.o.{ u.! 4   @ = % X.( $.{ p.b.X.! 9.h.Z.x.' ` ( l.w.6 + 7 t ..-.b.d.f. .m $.6 $.{ J E s.s.x.d.x.o.",
"#.8 r 9 ^ 8 $.W - e ( s.f.! ! 6 0 K X.M.N.x.n.c.g.] S.d.$.s.s.u.n.;.@.T ( f.c.2.j ] 0.0.&.d.{ @.#.7 r 9 ^ 8 &.W - e ( &.f.! ! 6 ",
"O.4 W 4.g 9.W g.x.z.z.d.X.b m 4 j } @.*.x.&.] ` { f { ( n b m N ' *.b.p.! f {  .@.m.d.u.x.g.q.&.X.4 W 4.g 9.W g.x.z.z.b.X.b m 4 ",
"s.s.K.b.:.n.^ g.b.S.Y H.*.) ] &.;.K.~ 0 & = x m ` { ( 0.M b x z 8 ( u.u.w.H 0.! b.n.j.| V ~ X.f.c.t.K.b.;.n.^ G.b.,.Y H.*.) ] &.",
"x.#.W ` ] i.K.^ ! X.q ( X.b.t.s.0.E 8 m m 9 q !  .K.u.x.s.x.d.i.x.x.+.&.P.%.H.` ! f { c.] D.d.( b.] W { { *.K.^ ! X.q ( ( b.t.s.",
"9 i # ( [ ) ( f.;.+.u.u.d.b.-.c.&.{ ` ` ` ) d.d.$.] $.[ $.] s.x.x.x.X.8 / W } j 7 D $ M.d.d.X.$.9 i # ( [ ) ( f.c.+.u.u.d.x.x.c.",
"; 4 = # e.4 p ^ f.e.! { ( K M 9 *.t.j.m.n.j.M.@.4.5 3 9 & 9 t E *.f.e.K.&.e 8 0.F $ M c.H.H.^ 4 ; 4 i # ( 4 p ^ f.e.! { ( / Z 9 ",
"s. .0 3 ^ 6 9 ^ s.&.8 e 8 9 9 # ( t.x.1.1.x.y.^ v $ i # , ( ^ u.$.{ ] ~ x.s.n.s.c.X.x.r.t.s.b.s.t.+.0 + ( 8 i ^ s.&.8 e 8 7 & # ",
"&.d.&.$.$.E / K.H.O.3 7 9 $ n t.@.D.d.( E #.c.c.i.{ { &.t.B.&.] # 5 p @ x n O.x.c.H.X.6 K X.@.b.&.c.$.$.$./ / K.H.O.- 9 9 $ M O.",
"H.t.s.@.b.p.*.+.W G.0., 3 e.( ) m.x.b.b.f.x.x.:.c.x.x.&.*.] ( u M 9 - +.+.x.s.&.+ X.} ] } ] $.y.c.y.d.@.b.s.i.+.W G.0., 5 w.{ ) ",
"8 c ..,.e.f.$./ ^ { u.( &.c.$.u.E 5 M | | M + t 7 o.i.$.{ ^ N.-.k.v.s.b.d.b.s.t 0 ~ ] d.i.] i.^ 8 = ..*.O.p.$./ ( { u.^ &.c.$.{ ",
"9 % M #.s.g.E 6 { { i.&.m.;.x.f.} 5 + 8 M # 5 W O.s.x.N.;. .( 7.$.+.] ( s.@.*.W d.p.t.t.0 3 Q } 9 * m +.d.g.E 6 { { d.&.m.:.x.f.",
"] 8 &   X.X.$.$.' _ { ( X.e ~ { ;.O.x.f.d.x.x.Z.*.H.d./ 8 9 9 9 # 5 3 { #.b.&.X.X.V m 7 0 % 0 ] ] 8 # + X.X.#.$.' _ ` ( X.e / { ",
"] 3 9.4 5 8 $.x.#.6 4 # = 7 4 ( $.d. .b.( ) @.j.*.( ( q.j } ] ^ ( ] [ $.X.f.m.;.c.#.8 & % m 4 ( ] 4 9.6 5 4 +.d.#.5 3 # = 7 8 ( ",
"f.#.{ { 6 5. .H.0. .x m W { g.x.d.f.O.s.s.a.x.c.n.b.f.^ u.x.s.c.x.&.&.X.Z 8 / p.u.! $.] &.] ) >.d.X.{ { 9 K X.H.{ ^ & M ^ ( d.x.",
"d.$.^ { ^ d.t.X.&.d.^ @.M.M.H.E O.9 $ 8 &.u.t.N.m.%.2.^ 7 & B $ 6 0.g.X.7 $ N N m M X.b.b.Y.N.T.d.$.^ { ^ d.t.O.x.d.W @.b.M.L.! ",
"s.d.d.X.J.#.r.G d.&.c.&.$.^ 7 7 9 $ M V ..7 e  .f.u.( w 0 6 5 0 $ Z u.g./ 6 3 5 9 3 9.u.s.*.X.( t.d.d.#.J.#.r.G *.&.c.x.&.^ & 7 ",
"& #.*.#.^ 8 & 7 4 0 X.f.c.#.9 m 3 M 7 6 / ] d.p.[ W ! 0.0./ 5 . n | u.{ ) ( 0.Q @.+.$.i.X.q 8 5 & #.d.$.^ 3 & 7 8 0 X.y.H.#.9 x ",
"7 X.d.u.~ Z M 7 % = 6 ( v.h.^ 4 & ( ) f.y.X.$.{ X.4 0 / ^ ;.*.X.u.X.` { ' ] @.g.l.v.e.b.| n z c 7 X.s.$.^ t F 7 % = 6 ] v.r.U 4 ",
"&.t.f.{ s.( / M 5 e O 9 ] } b.-.f.&.W s.d.&.$.W d.i.&.X.P.N.&.x.-.n.b.{ { } ` W d.#.q.! u.q 5 @ &.t.f.X.s.( | 0 5 e O 9 ) $.c.x.",
"c.&.@.@.e.f.*.X.$.~ } #.f.d.O.b.x.&.d.*.c.x.t.[ 0.E } $.&.s.s.$.c.b.t.( u.u.O.x.H.| t 3 / c.;.P.x.&.@.@.e.f.d.#.$.E } #.s.c.O.b.",
"( 5 7 8 / v.k.;.b.*.d.&.~ e $.( b.w.H.x.&.M 9 $ m { _ #.f.} ~ = b m 7 5 3 e.i.{ , M $ M 3 { ] c.{ 9 $ 8 / v.x.*.x.;.g.$.~ 4 $.( ",
"W ( i 0 8 3 $.;.:.h.X.  6 / 7.` e @.o.F./ 8 M # & F + + 8  .<.] 9 9 9 9 8 w.s.s...( ( # 8 m ^ ` W ( 9 M 8 3 &.d.:.k.X.  y ( 8.` ",
"$.~ X.+ 6 { E &.i.E ' { u.( 9 ....} { t.x.Q { 9 4 m & = # B M.g.( W X. .&.b.d.&.[ H.g.u.w.@.' / q.E X.+ 5 { E &.i.! [ { u.( 9 ..",
"7 H.t.d.g.u.{ 5 O Z ^ >.R S.F.! { $ 8 6 { y.k.] D.X.E { { %.m.&.R.K.g.X. .~ e ; 9 @.-.N.d ! 9 6 3 H.s.d.g.u.{ 5 O t ^ [ R S.F.! ",
"8 w.I.s.u.@.t + 9 7 5 X.X.e.$.! 9 # 5 7 $ &.e.H.t.( { $.c.d.u.6.b.&.;.b.b.b.^ 0.t.k.>.` -.c.' / M t.I.O.u.@.t + & 7 5 X.X.O.$.^ ",
"b.m.t.t.u.e.^ O.{ 0.@.f.v.k.M 8 5 m c 8 t M ^ ( $.` ) X.d.i.^ e ] +.c.x.&.s.! q.v.( 4 $ E $.x.p.b.H.t.t.u.w.^ O.{ { $.f.v.k.M 8 ",
"} X.( s.u.W X.*.&.x.@.X.&.$.g ! 3 ^ e.7 | t.$.8 5 # # 6 8 / d.[ #.( t.M 9 M 6 5.0.P.&.+.p E ^ 3.@.X. .p.$.W X.*.-.x.$. .&.{ Q ` ",
"{ ( ( [ [ ` #.*.u.{ , 6 7 + u.] } ( s.d.f.X.5 ( #.+ 0 ^ #.k.v.) _ { s.7 N m 7 M M E $.y.*.c.c.y.{ ( ( [ >.{ { d.u.{ , 6 5 + &.` ",
"{ ! ` ! 7.` } X.[ ! o @ 8 x 9 E ^ &.g.u.X.{ { i.*.c.d.b. .X.b.t.M.X.v.t.$.R ( # 9 7 9 t E ] D.#.{ ^ ) ! Q ` } ( [ ! . o 8 N & Q ",
"- Z $ M o.0   { { >.^ S  .) u.P.F.+.$.X.c.x.n.n.N.U.x.X.3 9 7 8 ~ C | s.v.v.b.@.: 9 % # A &.t.0 3 Z $ F o.0   ( { >.^ S  .W $.P.",
"0.0.! _ k ^ c.c.! f.n.&.L.s.k.$.6.9 0 # 5 < E q.~ f.6.9 8 7 & D 0 7 Z +.d.t.d.*.x.v.f.x.t.s.d. .X.0.! k k { c.m.8.d.n.&.D.s.k.$.",
"*.b.&.x.B.$.>.! 9 +.@.t.h.m.d.&.| 3 7 9 M 7 n 7 t ( ^ e F & 9 7 D @ O e  .x.x.k.<.c.&.X.+.H.c.j.&.b.&.b.v.&.>.! 9 +.$.t.j.m.c.&.",
"9 { ` ! ` $.L z 8 $.] H 9 | d.u.t.M 0 $ + x x 9 T &.u.t. .| e 9 5 0 9 # F e.c.x.+.| H 9 - 0 & & 9 { { g ' $.L b 8 $.' Z x | d.u.",
"] { W { } ! h A.` t.x.E 6 9 O.f.&.&.d.d.^ ` ` ` d.d.D.g.f.f.u.$.( W 6 9 | H.+.8 = # + M & # 8 X.` { ! { } ! h A.` t.x.E u 5 O.d.",
"X.0 X.$.^ x.P.-.#.Q #.c.f.j @.x.N.f.c.*.b.c.x.j.d...o.t ( ^ { ( } { E ( { $.J p 9 # i 8 ^ $.[ ]  .M / @.^ b.P.-.#.Q &.c.d.) } x.",
"& 3 0 5 / H.^ ] 8 * 5 ] *.N...6 $ 9 ..X.i.] { ( 7 m 8 3 t ( ! ` ) { ` ( 6 . 6 ( { ] $.^ f.p.! ` & 4 0 9 / g.^ ] 8 % # ] d.M.| 5 ",
"( ! ` %.k.d.] n { ( &.n.;.$.3 & & 9 t ~ c.d.^ ] y 3 8 M # 9 4 ( ( ! ( ! 6 # 9 9 #.( u.#.{ ^ { { { g ) &.k.g.@.n { X.&.N.;.&.7 & ",
"c.H.2.*.f.( ` { e.@.b.| 7 * 7 8 7 8 ^ s.g.s.p.( { ^ ] ( ( 0.q.} { [ ' ,.] { { @.+.*.s.g.( } ] W m.m.<.*.s.! ` 8.0.@.v.I 7 * 9 8 ",
"&.x.d.X.( 0 5 / { f.g.8 & 9 & n 8 O.&. .g.&.P X.W $.*.*.x.x.n.&.y.b.&.f.t.x.x.x.y.f.g.$.{ ~ H # &.f.x.#.( 0 9 / { f.<.8 9 7 # n ",
"/ s.v.2 ( 9 x 4 ] W u.$.{ s.b.h.x.b.g.u...0 O + e | d.d.D.u.a.{ ^ { W $.$.( u.g.*.U ^ ] D.$.u.X.Q &.b.2 ! 7 x ; { W u.#.{ p.b.j.",
"c.;.I } _ X.7 { 0.u.^ W $.u.#.N.k.t.u.#.X.X.+.*.g ! u.u.b. .| 8 m M 9 w.X.8 8 | H.t.H K ( p.e.d.c.;.I $._ | 0 { 0.u.E ^ $.s.$.M.",
"E  .g.^ *.b.x.c.W 6 7 # 6 @.X.^ > #.{ W d.d.&.d.1.m.-.d.&...H +   3 6 ^ ] ` ) i.] *.&.] $.*.#. .E X.d.] d.b.x.c.W p 5 # 6 [ X.^ ",
"u 1 e.s.v.x.x.=.' ^ = 0 E $.) w 9 5 6 5 , L V.d.] ` { ( #.i.s.s.M.j.x.*.*.H.@.&.H.d.( 3 3 3 4 8 5 1 0.s.x.x.c.j._ ^ = 0 / #.Y t ",
"B   $.m.j.} [ ( ` ( +.+.u.0.0.W X.^ ! ` #.d.c. .9 & & 7 8 X.#.d.E.c.x.b.#./ 3 i X.s.{ { { / 9 = M - $.m.x.] ' ( ` ^ +.+.u.{ q.W ",
"( s.b.$.#.^ t X.+.;.b.( ( ( ` _ { &.b.x.v.s.b.( m 7 5 9 7 3 ( { ;.d.9.8 m m ( ` { x.b.^ m.c.s.M.( u.b.&.#.! e O.T ;.b.^ { ( ` _ ",
"{  .:.C.=.b.&.s.v.u.E 9 8 q ! v.*.{ ) ] { E &.d.{ ` { ( s.j.b.&.} ( { ! { ` { ) &.#.u.^ { _ W j u. .:.C.-.b.&.f.v.u.Q 9 7 q ! v.",
"&.f.d.Q ` 7.$.d.j ! { ' _ ( ( } 0.f.c.m.:.*.1.@.` ` { W s.x.| A # 6 W } { ( ( ` o.0 7 M Q q.&.` $.f.S./ ` 7.@.d.f ( { ' _ ^ { ' ",
"d.f. .m $.6 $.( J ~ u.x.x.d.v.| { u.W q   @ = @ ( ^ $.] u.b.e.^ 9.h.n.b.` ` ^ l.( 6 + 7 0 ..-.x.g.k. .9 $.6 $.{ J ~ &.s.x.f.x.o.",
"&.3 r 9 ^ 8 $.W - e ( u.d.( ! 6 6 K X.x.N.x.m.c.s.{ S.d.$.d.s.u.N.;.,.T X.d.c.F.j ] ( 0.s.d.] $.#.8 r 9 ^ 7 $.! - e ( s.g.W ! 6 ",
"X.4 ! l ! 9.W g.k.z.Z.c.X.b m 3 j } $.-.x.&.^ { ` W ` ( n b m m ` d.b.X.! h {  .$.m.b.u.x.H.` &.O.4 W 4.g / W f.x.z.z.c.X.b m 3 ",
"x.s.K.b.:.n.^ G.c.S.Y c.*.) ` &.;.K.E 0 & = & m { { 8.w.M m N m 8 ( u.u.r.Z 0.! b.n.x.| V ~ X.f.s.s.K.b.m.m.^ g.c.S.) c.$.) ] u.",
"c.{ W { W d.K.^ ( ( q ( #.v.s.s.( ( 8 m m 9 w W  .K.&.d.t.x.s.$.l.x.+.$.P.%.H.] ! h q.d.] D.c.{ x.#.W ` ) d.H.^ ! X.q ^ #.M.s.s.",
"9 i # ! [ ) ( f.;.+.u.u.d.x.x.c.&.{ ` ` ` ] d.g.@.] { [ { ] s.x.x.b./ 0 / W } ) 7 D $ x.;.s.( { 9 i # ( >.) ( f.c.+.u.u.s.b.-.c.",
"; 4 i # e.4 p ^ f.e.! { ( / Z 9 @.f.h.m.n.j.x.@.4.5 3 9 x 0 t E *.f.e.F.$.t 6 ( M 7 m b.H.H.| 4 4 6 # # X.4 0 ^ s.e.! { ( / M 9 ",
"t.+.9 7 ^ 6 9 ^ s.O.8 e 8 7 & # ( t.M.1.1.x.y.^ n b i @ , ( ^ u.$.{ ^ ~ t.x.b.s.x.X.v.t.t.f.c.f.s. .0 7 ^ 6 = ^ f.t.e e 8 7 9 # ",
"&.c.$.@.$./ / K.H.&.3 7 9 $ M O.@.d.d.( E #.c.c.i.] } &.t.B.&.] # 7 p * x b =.x.c.H.X.6 / #.@.x.&.c.$.+.$./ / K.H.%.- 9 9 $ M t.",
"c.y.d.@.b.p.*.] ) G.9.5 5 w.{ ) :.-.b.b.f.x.x.m.c.x.x.&.*.] ( u M 7 3 $.%.x.s.&.+ X.} ) $.) $.y.H.e.d.@.b.p.*.[ W G.0.1 3 e.( ) ",
"8 = ..*.O.p.$...^ { u.^ &.c.$.{ / 5 9  .| M + t 9 o.d.} { | N.-.t.v.s.c.d.b.t.t p ~ ] d.$.^ a.^ 8 c ..$.u.s.&./ ^ ( u.^ &.c.$.u.",
"9 % M X.d.g.E 6 { ( d.$.m.:.x.f.{ 6 # 8 0 & 5 W O.f.x.m.;.] ( 7.&.@.] X.f.$.,.^ d.s.y.r.p 3 ! } 9 % N #.s.g.E 6 { { d.&.m.;.x.f.",
"] 8 &   X.X.#.$.' _ ` ( X.e / { :.O.d.d.s.x.x.C.&.H.d./ 8 9 9 7 # 5 3 ( +.d.&.#. .Z 7 7 m # 0 ] +.4 & + X.X.$.$.' _ ` ( X.e ~ { "
};
