/* XPM */
static char *b938224c8f3e4330ae40d1d56fdd62f7xhWT2BtaxFgFQO4P[] = {
/* columns rows colors chars-per-pixel */
"64 64 238 2 ",
"   c #293B53",
".  c #3C3C5A",
"X  c #353C56",
"o  c #30384F",
"O  c #2E435A",
"+  c #2B495A",
"@  c #35435B",
"#  c #37465B",
"$  c #2F555F",
"%  c #33515F",
"&  c #2B4D63",
"*  c #344D63",
"=  c #3C4C63",
"-  c #3B4F69",
";  c #2B5765",
":  c #345364",
">  c #3B5264",
",  c #345369",
"<  c #3B546B",
"1  c #3D5A6B",
"2  c #355A6B",
"3  c #3C5C74",
"4  c #3B5272",
"5  c #3D6474",
"6  c #3C6B75",
"7  c #3C667A",
"8  c #356C7C",
"9  c #3C6A7B",
"0  c #356778",
"q  c #3B7079",
"w  c #3B616C",
"e  c #454D5B",
"r  c #465359",
"t  c #414E66",
"y  c #42536A",
"u  c #47566A",
"i  c #445E74",
"p  c #4B5D75",
"a  c #485773",
"s  c #535975",
"d  c #584D6F",
"f  c #44646C",
"g  c #4B636E",
"h  c #496A6F",
"j  c #446475",
"k  c #4B6474",
"l  c #446A75",
"z  c #4B6A75",
"x  c #44657A",
"c  c #4B657B",
"v  c #446B7B",
"b  c #4B6B7C",
"n  c #536474",
"m  c #536A76",
"M  c #53657C",
"N  c #546A7B",
"B  c #5B6B7D",
"V  c #5B6478",
"C  c #43717C",
"Z  c #457077",
"A  c #52707D",
"S  c #52626F",
"D  c #6C747E",
"F  c #6B787E",
"G  c #74757D",
"H  c #727A7D",
"J  c #3B6B82",
"K  c #3E7288",
"L  c #595D80",
"P  c #456682",
"I  c #4B6682",
"U  c #436B81",
"Y  c #4C6B82",
"T  c #536B82",
"R  c #5B6D85",
"E  c #516985",
"W  c #467182",
"Q  c #4C7284",
"!  c #49708A",
"~  c #5C7583",
"^  c #5F7C8D",
"/  c #547288",
"(  c #6A6F86",
")  c #756E87",
"_  c #647484",
"`  c #6C7585",
"'  c #647A85",
"]  c #6C7A85",
"[  c #65758C",
"{  c #6C758B",
"}  c #647B8C",
"|  c #6C7B8C",
" . c #737685",
".. c #7A7585",
"X. c #737A85",
"o. c #7B7A84",
"O. c #73758B",
"+. c #7A758C",
"@. c #737B8C",
"#. c #7A7B8C",
"$. c #667591",
"%. c #6B7691",
"&. c #657C92",
"*. c #6C7B93",
"=. c #6C7C9A",
"-. c #667B98",
";. c #727692",
":. c #7B7593",
">. c #747C93",
",. c #7A7B92",
"<. c #737D9B",
"1. c #7B7E9B",
"2. c #797699",
"3. c #796F92",
"4. c #6E7FA3",
"5. c #747EA2",
"6. c #7B7DA3",
"7. c #777FA8",
"8. c #80738C",
"9. c #817888",
"0. c #837D95",
"q. c #827D9E",
"w. c #827693",
"e. c #837DA3",
"r. c #857EAA",
"t. c #5E848C",
"y. c #63818B",
"u. c #6C828C",
"i. c #6C8588",
"p. c #74818C",
"a. c #798189",
"s. c #678194",
"d. c #6B8293",
"f. c #6D849C",
"g. c #6D8A9E",
"h. c #678899",
"j. c #738295",
"k. c #7B8194",
"l. c #74839C",
"z. c #7B839D",
"x. c #74899D",
"c. c #7B8A9C",
"v. c #738997",
"b. c #6D84A3",
"n. c #6D89A6",
"m. c #6D83AC",
"M. c #7484A3",
"N. c #7B84A3",
"B. c #738AA3",
"V. c #7B8AA4",
"C. c #7485AA",
"Z. c #7B85A9",
"A. c #748AAA",
"S. c #7C8AAA",
"D. c #7692A7",
"F. c #7988B1",
"G. c #6D90A6",
"H. c #818395",
"J. c #82839D",
"K. c #84889E",
"L. c #81838F",
"P. c #8284A3",
"I. c #838AA4",
"U. c #8184AA",
"Y. c #838CAA",
"T. c #8B89A8",
"R. c #8698AB",
"E. c #8D95B4",
"W. c #8C9CB5",
"Q. c #8D9DBA",
"!. c #869DB8",
"~. c #939CB5",
"^. c #939DBB",
"/. c #9A9EBD",
"(. c #999BB5",
"). c #9698AF",
"_. c #A19EBE",
"`. c #8DA4B5",
"'. c #8DA3BB",
"]. c #8EA9BD",
"[. c #84A9B9",
"{. c #92A2B5",
"}. c #9AA1B7",
"|. c #94A2BC",
" X c #9AA3BD",
".X c #94AABC",
"XX c #99A8BF",
"oX c #9CAAB7",
"OX c #8AA0AD",
"+X c #A8ADB7",
"@X c #A6B5BB",
"#X c #AAB0AE",
"$X c #979EC3",
"%X c #8D9CC3",
"&X c #8DA4C2",
"*X c #95A4C2",
"=X c #9AA5C2",
"-X c #95AAC3",
";X c #9BABC4",
":X c #99A5CA",
">X c #9CABC9",
",X c #91A8C8",
"<X c #9DB4CC",
"1X c #9DBACD",
"2X c #97B4C8",
"3X c #9EBDD3",
"4X c #9EB3D0",
"5X c #9EAED2",
"6X c #A1A4C4",
"7X c #A3ACC3",
"8X c #A3ADCA",
"9X c #A9ABC7",
"0X c #A4B2C4",
"qX c #ABB5C4",
"wX c #A3B4CC",
"eX c #A9B5CD",
"rX c #A3B9CC",
"tX c #AABACA",
"yX c #B2B4C5",
"uX c #A4B5D2",
"iX c #A4BAD2",
"pX c #ABBBD4",
"aX c #A7B7D7",
"sX c #B7A9CC",
"dX c #9EC3D3",
"fX c #BDC9C8",
"gX c #A7C4D8",
"hX c #BBCBDB",
"jX c #B5C9D7",
"kX c #BED0DB",
"lX c #BBCEE3",
"zX c #B6D3E3",
"xX c #BDD3E4",
"cX c #C3CBDC",
"vX c #C1CCD4",
"bX c #C3CDD5",
"nX c #C4D1E3",
"mX c #C0CEE8",
/* pixels */
"O.l.M.M.=.[ B d.O.l.f.s.| X.O.;.%.l.l.M.Z.c.N.@.P b v v 7 b %.;.N.<.-.x x Y *.| O.k.k.O.N.N.N.C.,.k.5.S.%.%.R } ;.z.z.>.@.{ | @.",
"| >.N.P.z.k.>.d.Y.l.*.k b c =.k.>.>.@.] ] { N.M.] ] | | *.>.I.c.{  .L.o.o.D X.G l.l.l.{ @._ ] @.` *.M.M.M.l.j.v.l.k.%.C 5 b { c.",
"M.S.l.B @.k.>.C.[  .9...O.%.p.H >.k.N.N.N.<.<.>.X.X. .9.,.k.s.v 6 v ~ | @.O.@.o.-.T p m | p.a.H C.M.B.` o.@.2.6.@.y.y.| O.,.a.` ",
"1.M.d.A } j.>.2./ $.l.B.f.B.z.#.i.a.{ { >.O.#.G 9 / $.<.O. .@.` e.r.U.Z.M.B.A.M.c.*.$.$.l.M.<.O.P x z h ' @.l.M.k.,.O.M l } c.;.",
"@.k c x x $.K.@.6 Y b.<.P.;.| v 7 U v l } d.B.M.C.M.l.j.>.v.c.u.=.l.l.l.f.l.k.:.{ @.z.V.M.Z.N.<.@.{ =.5.P.q.@.@.[ E 7 9 Q -.*.I ",
"-.T } u.] >.N.b...;.Z.l.k.@.[ c m | @.@.H.H.#.@.] X.p.@.D ( O.{ ] @.{ @.>.{ j.>.,.,.@.@.X.] ` ] x.x.B.S.l.*.' d.p.] X.O._ Z 6 z ",
"M.M.>.@.X.X.$.A.l.M.M.Z.M.-.Y 9 ` >.<.1.Z.;.{ | @. .G o.o.>.| M 6 l l x Y I b.M.N.N.>.X.D X.@.c.6.M.>.X.G X.>.Y.k.o.] i.p. ...@.",
"H.@.=.N.N.J.@.X.*.]  .` V.l.@. .M.c.%.} u.z l 9 J U T [ @.j.x.| ..k.{ j v U B.M.b.M.| @.o.@.%.N.C.M.j.{  .@.>.<.b.A.Z.e.6.Z.M.M.",
"v v x =.6.M.l.| >.@.@.` j.l.N.6.M.M.$.b x v w b N } | c.l.z.N.l.M.M.V.<.M.M.f.<.G { f.C.N.@.` { U -.M.l.l.V.,.>.X.] @.] O.z.M.n.",
"m 0 J v B ` u.1.>.z.O.k.z.V.-.A.B.z.N.l.*.d.*.{ f.N.| @.>.( k.` } { Z.Z.6.Z.N.O.| N Q l t.z b z 6 c >.U.A.$.| 9.P 9 U x T y.b p ",
"$.*.z ~ l Z { #.M.| ,.@.$.c Y U p *.l.6.P.N.z.P.Z.<.>.@.{ #.` a.I b M ' d.l.M.N.1.6.| { O. .{ <.#.;.Z.7.Z.M.f.f b c v 8 8 v 3 ! ",
"Z.j.#.i.l 9 6 +.V.*.| | c U U 9 z f.=.>.N.l.<.N.6.U.<.z.z.z.@.] | B.=.C.Z.Z.1.z. X^.Y.;.P.N.c.l.x.l.P.6.N.l.z.@.o.' z k 6 W U u.",
"l.N.b.,.@.z l.=.<.| m l v v 9 v k } l.Y.B.M.V.=.N.N.|.N.$XQ.Z.<.Z.^..XR.K.~.=X%X&X*X{.Z.C.b.M.f.b.Z.| @.{ k.N.N.5.k.` Y Y ] G G ",
"b J $.%.;.,.l.Z.z.j.| l v 0 Y b >.P.N.<.5.5.N.Z.V.|.wX=XaX:XQ.Z.W.wX3XiXiXwX1X1XaX|.J.J.1.Z.6.Z.6.=.m | o.O.$.n.l.F.M.@.*.m.Z.o.",
"8 b z J.Z.C.<.@.>.@.@.u.k T [ M.<.N.5.Z.=X*XP.J.|.rXrX8X*X*XM.c.U.,X;XtXhX9X XuXiX;XtX0X|.B.Z.%.b y.{ @.` >.P.6.C.` o.5.F.f.B.m.",
"@.b 7 n.c.%.z v | @. .` l.=.V.|.M.M.Z.b.M.C.1.P.}.qX{.V.l.l.;.z.Q.3XgX2X~.I.(..X@X@X@XXXM.M.j.X.@.z.j.v.@.{ | l U x @.o.] M { X.",
"' c s.N.6.j.*.] #. .c.Z.M.5.M.|.*XM.l.O.| 1.;X{./. Xl.' <.l.l.{.rXwX^.c.l.[ V.l.P./.^.Z.|.M.M.M.b.=.| | z ' ] X.x b 8 I x v k @.",
"K.%.` k.z.k.z.@. .] >.l.l.N.N.*X,X1.| #.l.T.^.*X=X/.} N { I.'.lXzX|.n.x j T | J.N.N.V.<.=XM.z.N.#.X.f b p T | *.{ C 0 v U { n.1.",
"6.,.%.| | >.J.N.p.] _ >.>.k.<.|.5.P.*.O.c.^.Q.|.&XP.z l ;.^.3XlX Xl.c v 9 v [ >.5.Z.M.M.^.^.l.<...D d.x ! J j | H.O.6 l b l.N.&.",
"b.k.M.z z $.{ C.| m n ] @.<.V.*XN.1.j.,.-.I.W.*X|.%.j A 6.=X<X'.O.a < , ; v M } M.M.S.=.=X<XW.l.M.Y.z.-.v 9 g a._ #.#.| 6 >.j E ",
"T ' b.b ^ <.@.j.*.M [ l.1.z.^.,X=Xz.x.;.c *.-X^.N.Y b [ B.^.|.g.y # = = M D.W.;X^.^.^.=X>X1X'.*X$XQ.{.c.c.>.>.l.M.O.,.@.w | b v ",
"i | Z.<.M.z.H.@.l.l.V.l.>.5.:X'.=XY.} k c V.-X|.P.3 y O.].pX/.b : + y >.~.W. X^.|.N.l.V.wXiXiX1X,X{.@X+X).=X5.N.l.;.^ ,.k.k.} q ",
";.V.k.1.;.| { { >.l.M.Z.B.Z.=X^.^.M.j y Y Z.!.eX1.< u >.{.^.1.: % > *.~.=XY.M.B.| *.-.=.V.W.<XrX'.oX+X+X XM.S.;.+.x.x.*.V.:.h.l.",
"Z.b.i.J. .i.x b X.z.M.Q.:X^. X{.*XM.x 2 + -.-XeXI.y # | =X^.%.: e >. X^.B.c P , z z k k *.l.=X^.$X/.@X.X|.5.| ] X.{ B.6.M.b.Z.q.",
"` m z | b U 8 b @.@.k.^.|..X*X<X XV.6 : : v |.2X).3 > { $XP.+.< z ^./.B.v $ : : : x U v 5 } >.q.`.<X;X^.|.l.s.k W { 1.H.*.6 j.X.",
"v.B Z =.x x 9 x >.l.V.=X=XQ.|.|.Q.q.>.# # x B./.XXx 1 j.,XP. .> s.;Xr.L y = t c c c 7 b b z } z.|.pX;X;X^.d.R i j s.@.v.*.w.( @.",
">.;.*.P.z.>.l.;.M.V.W.N.N.6X^.=X+X=XP.:.= = { *X=Xn.x c.|.(.p.j &X!.S.P U j B.M.z.=X>X^.k.{ %.>.j.~.8X X=Xl.=.*.w.x.v.` O.@.A ] ",
"c M.V.1.^.c.l.j.M.<.=X X~. X<.Z.b.W.sX Xs.Y v %.|.!.P M.|.{.{ *.gX^.6.r.^. X|.&X<X;X%X*XQ.;XV.f.;.c.T.^.^.|.N.l.l.O.{ ] l.=.k.@.",
"c x.l.[ V.>.P.|.:X^.|.qXqX`.V.-.-.n.*X2X'.1.v x V.=XF.=.=X~.N.C.XXI.Y.'.-XN.J.z.V.<.6.1.T._./.6Xc.s { N. X XZ.5.x.>.k b c f.>.*.",
">.V.k.f.;.>.q.^.=X^.~. X@X{.x.x M j z.=X-X|.>.l.l.~.Q.:X(. XZ.$XdXl.Q.Q.XX( | j x Y T c *.l. X|.=X*.<.{.|.=X*.Z.:.s.b c j B.9 k ",
"x.d._ l c &.P..XwX'.;X{.;X*Xf.M : y 7 P N.=.8X^.c.T.uX&XyX+X|.+X8X X$X{.V.#.+.,.[ E p - p u =.M.Q.V.l.Q.eX|.V.M.| | _ v v j.{ @.",
"@.O.,.j *.B.1.Z.&X4XuXQ.|.8X*X*.v : < - v 9 >.1.%X(.:XwXfXfXOX@XiX*X*X*Xl.}.0X]..X'.B.x : v v c A.>XXXwXuX`.V.M.k.+.@.@.l 6 X.9.",
"..#.>.z.Z.5.C.M.k.eXwX.X-X>XE.Z.O.d.j x * < , v | *.M.{.tXcXbXhXvX+X X/.l.B.@.| Z.^.iX|.%.m v 6 } .XjX3X4X'.Y.6.b.B.N.f.D.j j y.",
"0 U x f.*.>.>.H.1.N.^.^.|.=X8X^.}.|.D.[ <.M x v j p B.*XrXjXjXfXkXhX<X$Xr.M j d a x n.{.!.V.%.x n j.<XgX1X'.M.M.M.6.e.;.1.@.<.J.",
"*.@.@.k.| *.M.A.M.N.$X=X/.1.z.P.J.~.|./.P.1.M.G.B.V.*X|.W.wXnXkXkX2XiX>X|.Q.=.s > > k B.|.^.N.N.<.*.{.<X<X*X&X*X,XV.l.%.*.l.z.5.",
"<.c.K.,.,.>.z.l.B.l.I.~.=XI.{ =.1.N.Q..XM.6.Z.<.B.=.=.|.;X0XnXhXxX1X|.|.'.uX6X5.{ u > M { V.'.=X^.>.V.Q.uX*X{.{.^.<.| @.p.>.<.<.",
"T } ' j.` I.z.M.^.Z.N.I.N.*.M k i x v v C b v P P / c A.'.<XhXzXjXpXf.{ @.].[._.=XV.a # c &.J.|.wXl.V..XwX Xz. Xz.>.X.X.p.{ c.B.",
"X.] X.@.{ M.4.m.N.5.N.>.N.*.z v < - = @ o O * < 4 * c Q.*X;X[.uX+XwX=X1.e b } eXlXrXB.< : k @.k.wXpX*.|.pXuX~.N.@.@.{ ] { V } l.",
"[ R *.{ @.@.@.o.%.>.1.I.*X|.f.b.W + u + > % Z 6 M l.;X6X<.1.Z.$X[ f.^. Xk % k.OX1XhX<Xx < : z ;.l.;X0X|.~.=Xl.-.O.X.| @.O.O.,.l.",
"v 9 l v j | O.k.V.>.z.=X(.uX*X*X<.,.O.X.{ j.O.z.f.B.l.[ M V.!.C.k x ].:X;.: z @.{.hXnXl.Y ; x v %.=X{.|.|.M.n.c l l 9 j k x.s.c ",
"X.| -.*.@.@.c.M.z.Z.M.$X*X{.|./.H.Z.C.b.C.l.c.D #.| j 2 c l.:Xy < 9 l.|.>.$ > v N.wXzXyX| 6 c J c '.^.^.*XN.1.;.*.@.) +.k.} k v ",
"q.1.k.z.P.2.>.[ l.Z.M.B.|.|.|.Z.b.j.@.*.*. .%.E # 1 2 % l.$XN.a # x l.6X,.% X y $.V.<XcXI.b 7 v 3 2XaXuX;XQ.l.B.l.c.*.l.s.z U 7 ",
"@.M.M.l.| i.' b %.N.S.l.B.l.M.<.} b x r e y 4 O . O * c =X/.d .   Y ;.q.J.u X = c &.R.jX(.*.9 x Y b.Q.wX-XQ.B.f.O.z.M.f.G.x Y Y ",
"[ V.V.| k k z l @.1.M.N.<.M.l.A.| g k ; * > t < ; , c  Xz.<.< + X b l.'.s.: X y x Y *.uX6X>.9 Y Y &X>Xc.j.*.T j #.z.z.=.M l.5.b.",
"J.@. .O.;.>.=.| @.c.N.<.<.V.=.4.Y.%.$.Y 3 * % : s $.M.f.$.= @ # = s._.1.j.+ % $ < 7 >. XQ.1.-.j b.|.E.k.j.n k *.@.| >.( :.J.j.B.",
"u.{ z.k.z.k.l.Z.] @.l.Y.|.|.=X*XE.A.M.@.` / U l v v c B = # : j 8.k.q.V.k % u : < 5 M.wX1XT.z.n..X=XP.P.;.@.| ] y.k k d.;.@.| s.",
"U l ' ' M.C.M.] | { { N. X^.;X|.:X(.I.=.M.>._ P c u > > O   u ;.z. XT.$.u > # ; > *..X<X<X^.(.&X{.$XN.<.<.V.| o.k l Y x *.| | k ",
"U k j.;.J.O.@.#.n >.*.N.1.N.~.XX#XqX`.M.Z.M.c.@.j : + O t = ;.P.XX&X6.P 2 , M v x P.2X3X|.|.6X8XaXM.5.F.M.<.>.@.*.x 9 v k @. .#.",
" .c.C.7.z.>.+. .@.%.N.l.b.*XQ.XXwX0X7X X Xv.&.c < , , > s >.c.|..Xl.*.c * x Y b l.=XhXtX=X%X$XuX5XY.l.` @.>.` | O.#.{ u.] @.a.X.",
"| ` N.B.| ] ' #.z.,.>.c.*.l.V.W.'.|.XXW.|.c.&.M M c x *.N.N.^.z.l.l.| k R d.&.[.*XwXhX;X|.Z.M.B.&XM.j.p.@.` B u.G.s.Z.N.l.c &.l.",
"l.M.<.=.v 6 @.[ o.` @.@.@.V ;.N.^.+X/.=X8X^.V.-.M.f.M..X^.~.=XZ.{ s | *.f.{.;XwXpX>XwXXX*Xl.N.>.N.1.,.@.O.O.{ O.2.z.f.c.@.O.@.@.",
"M.5.<.x 7 Y b 2.u.] X.] | [ f.B. X6X(.^. X=X|.>X*X>X'.uX*X*X*X*XT.| l.K.|.;X~. XW..X-X^.^.|.;XN.z.>.@.` >.N.l.l.{ T.>.| k v.k.O.",
"| k Z u.h f 9.' O.@.@.#.O.P.M.N.x.W..X*X'.'.!.wX>XpX2XaX*X^..XQ.{.l.V.^.*X^.>X^.l.S.W.XXXX|.$XN.l.| ' | j.l.f.l.I.z.%.;.:.>.&.v ",
"%.m _ t.@.O.' H.,. .@.O.O.>.1.1.1.P.N.l.l.N.I. X>X!.-X!.l.M.|..X*X*X*X*X|.5.Z.Z.V.$.B.Q.|.l.N.N.6.>.@.@.>.z.z.<.*.[ >.>.s.j l l ",
"Z.Z.f.6.Z.M.P.j.} z j w b k } d.>.;.%.| ;.<.;.P.l.=. XS.l.1.z.z.N.^.*X^.*XB.M.<.<.=.M.N.z.>.<.N.P.1.:.` { ;.>.*.,.@.| v.k.O.,.>.",
"l.@.+.z.M.b.*.{ @.{ n d.} @.@...l l C v l l b } >.N.l.{ >.>.@.` %.z.|.|.|.|.=XN.z.N.Z.Z.[ c.<.Z.B.^ b z z v v v 7 Q $.N.N.M.B.M.",
"W 5 p O.1.7 6 l | @.>.N.Z.6.>.O.' +.+._ | +.:.f.>.V.*.b x v x x b { z. X$X=XZ.M.| | { z 6 v <.l.c.*.} D o.o.} U j k >.{ Z.N.=.C.",
"5 C Q s.} k.{ ,.j.z.k.>.| @.X.H @.@.@.u.v.| @.>.S.6.%. .] A 5 K 9 b $.z.P.l.j.| ,.n | @.O.` >.| 5.l.o.@.>.M.N.{ u.{ X.,.l.d.b l ",
"@.*.P n.l...,.Z.M.Z.l.l.} | ] ] | { ;.O.H.@.] ' [ N.V.;.| i.{ | { ] @.| S.M.<.;.D ] @...0.@.} 0.Z.z.o.] [ M.N.0.P.;.;.l.B.x 9 v ",
"k.P.%.b.c.>.Y.h.F.N.%.{ M k B { N.J.J.*.| +.#.o.@.j.f.*.O.@...9.B.M.N.q.O.O.@.#.d.#.| _ { y.v.8.| | | p.] X.@.@.*.%.N.V.M.c T } ",
"C.l.c.k b $.1.>.{ X.X.p.| | | @.M.<.B.B.l.|  .] >.@.@.#.o.X.%.B.q.k._ l 9 U ! -.j.{ k Y %.,.c.@.l z m X. .X.` | j.c.@.' c | ` @.",
"J x | *.B.Z.;. .@.@.@.` ;.l.l.;.&.v Y } $.z 6 b S ' k.@.` ;.c.M.A.=.N.N.V.l.u.m c ;.;.<.V.;.;.| J U _ >.N.N.l.' O.,.,.>.*.V.k.] ",
"v v z { z.l.*.z ` O.k.<.Z.M.V.<.,.x 7 P Y 9 Y { j.l.A.C.f.*.@.{ { @.@.%.M.l.d.>.g.l.I.<.j c | ,.U x A } Z.6.} m @.O.1.z.S.-.V.B.",
"O.v 9 Y | ] >.1.@. .@.{ *.m ' a.k.| k.M.N.l.M.c.M.6.I.%.B f v v l b k { { I.j.@.>.6 9 v 9 C k ] @.l 0 v @.+.#.d.' ] ] >.*.M | { "
};
