/* XPM */
static char *Exit1676382441[] = {
/* columns rows colors chars-per-pixel */
"64 64 225 2 ",
"   c #2D3D53",
".  c #2F3F58",
"X  c #363B55",
"o  c #2C455B",
"O  c #2C4457",
"+  c #3A425B",
"@  c #334A5D",
"#  c #374459",
"$  c #34525C",
"%  c #3A515F",
"&  c #2D525A",
"*  c #2E4E61",
"=  c #334D62",
"-  c #3C4D64",
";  c #3B4F6B",
":  c #2C5763",
">  c #345264",
",  c #385365",
"<  c #355569",
"1  c #3B5469",
"2  c #385A68",
"3  c #3E5872",
"4  c #3E636D",
"5  c #3D6374",
"6  c #3C6A74",
"7  c #3D657B",
"8  c #326D79",
"9  c #3D6B7B",
"0  c #346875",
"q  c #3C727D",
"w  c #36727C",
"e  c #35706E",
"r  c #434B68",
"t  c #425465",
"y  c #42536B",
"u  c #445C6D",
"i  c #4E5F6F",
"p  c #435E74",
"a  c #4A5E77",
"s  c #4D5F78",
"d  c #51576F",
"f  c #43646C",
"g  c #49686B",
"h  c #50686E",
"j  c #446474",
"k  c #4A6474",
"l  c #446B74",
"z  c #4A6A75",
"x  c #44657A",
"c  c #4B657B",
"v  c #446A7B",
"b  c #4A6A7C",
"n  c #536474",
"m  c #52657B",
"M  c #5A647E",
"N  c #516B7B",
"B  c #566875",
"V  c #407175",
"C  c #42727D",
"Z  c #4E717D",
"A  c #4E7173",
"S  c #50707F",
"D  c #646E7E",
"F  c #67767B",
"G  c #72737B",
"H  c #7A747E",
"J  c #5F837F",
"K  c #3C6C82",
"L  c #3F6184",
"P  c #3C7683",
"I  c #4B5D83",
"U  c #456581",
"Y  c #4B6582",
"T  c #446B82",
"R  c #4B6B82",
"E  c #496C88",
"W  c #526B82",
"Q  c #5A6B84",
"!  c #576787",
"~  c #497281",
"^  c #477284",
"/  c #5B7484",
"(  c #5A728B",
")  c #5E7B8B",
"_  c #577585",
"`  c #5E7B93",
"'  c #6B6E8E",
"]  c #746E87",
"[  c #647585",
"{  c #6B7585",
"}  c #657A84",
"|  c #6C7B84",
" . c #65758C",
".. c #6C758B",
"X. c #647B8C",
"o. c #6C7B8C",
"O. c #737484",
"+. c #797684",
"@. c #747A85",
"#. c #7C7986",
"$. c #73758B",
"%. c #7C758B",
"&. c #737B8C",
"*. c #7B7A8C",
"=. c #6C7592",
"-. c #647C93",
";. c #6C7C93",
":. c #6E7D9A",
">. c #657896",
",. c #737592",
"<. c #7B7694",
"1. c #747C94",
"2. c #7A7B93",
"3. c #747D9A",
"4. c #7A7D9B",
"5. c #707299",
"6. c #6F7DA1",
"7. c #747DA2",
"8. c #7A7EA3",
"9. c #7B7DAA",
"0. c #7B77A9",
"q. c #81788D",
"w. c #807C96",
"e. c #827C9C",
"r. c #837DA4",
"t. c #887EA1",
"y. c #5E8587",
"u. c #658085",
"i. c #6B8186",
"p. c #63818B",
"a. c #6C818C",
"s. c #73818D",
"d. c #658294",
"f. c #6D8294",
"g. c #65849B",
"h. c #6D839B",
"j. c #6E899D",
"k. c #738294",
"l. c #7B8296",
"z. c #73839C",
"x. c #7B839C",
"c. c #75899D",
"v. c #7B899E",
"b. c #788997",
"n. c #6685A1",
"m. c #6D83A2",
"M. c #6C8AA3",
"N. c #6B89AD",
"B. c #6C82AB",
"V. c #7484A3",
"C. c #7B84A3",
"Z. c #748AA3",
"A. c #7B8AA4",
"S. c #7584AA",
"D. c #7B84AA",
"F. c #7C8AAA",
"G. c #758CA9",
"H. c #6F90A1",
"J. c #7892A7",
"K. c #7984B1",
"L. c #7589B1",
"P. c #828296",
"I. c #82849C",
"U. c #81899A",
"Y. c #828483",
"T. c #8284A4",
"R. c #838AA3",
"E. c #8383AC",
"W. c #838BA9",
"Q. c #8A8AA8",
"!. c #8D9BB5",
"~. c #8D9DBA",
"^. c #8598B2",
"/. c #939CB5",
"(. c #949DBA",
"). c #999EBC",
"_. c #9799B4",
"`. c #8CA1B5",
"'. c #8DA3BB",
"]. c #8CA9BC",
"[. c #92A2B5",
"{. c #93A3BC",
"}. c #9AA3BD",
"|. c #95A9BD",
" X c #99A2B5",
".X c #A4AFBD",
"XX c #A3B1BF",
"oX c #959DC2",
"OX c #9B9EC2",
"+X c #A09EC3",
"@X c #8DA7C1",
"#X c #95A5C2",
"$X c #9AA5C3",
"%X c #93AAC2",
"&X c #9BA9C3",
"*X c #99AAC9",
"=X c #9BB3C6",
"-X c #9CBCC7",
";X c #9DB4CB",
":X c #9DBACD",
">X c #96B3C8",
",X c #9DBCD1",
"<X c #9CB4D1",
"1X c #A4AECB",
"2X c #A7ABC7",
"3X c #A4B4C6",
"4X c #AAB2C4",
"5X c #A3B4CC",
"6X c #A9B4CD",
"7X c #A3B9CF",
"8X c #ABB9CC",
"9X c #A4B5D4",
"0X c #A3BBD1",
"qX c #ABBBD2",
"wX c #A9B8D6",
"eX c #A8C0D6",
"rX c #BCCDDC",
"tX c #B6CBD6",
"yX c #BACEE3",
"uX c #B3D3E6",
"iX c #C5C9DA",
"pX c #CBD3DE",
"aX c #C3D1E4",
"sX c #C8CDE1",
"dX c #D3F3FE",
/* pixels */
"o.3.C.3.1.{ m >.,.C.F...| | &.#.o.3.C.Z.C.z.v.;.R 6 v v 7 c a.$.x.l.| b T T o.@.$.C.c...C.D.h.S.o.k.C.4.1.{ m ;.,.C.F.o.o.| &.#.",
"&.;.K.D.7.F.3.c.Z.k.} b c n { Z.4.%.$.@.&.} 3.x.@.$.$.o.z.3.C.3.1.o.&. .&.$.&.@.3.1.k. .@.+.@.G &.;.K.K.7.F.3.z.Z.k.} x k n { Z.",
"3.c.P.} @.i.2.x.G | &.#.+...;.#.a.c.D.9.9.4.8.<.O.+.@...V.V.>.Q 6 N O.@.&.o.| @.m.z c E } s.3.@.4.c.P.} @.i.2.x.G o.@.#.+...;.#.",
"x.c.=.T 1.j 2.&.(  .3.z.V.x.Z.-.&.s.{ z 5 6 q 8 o.o.1.&.k.A.;.[ p.n.L.V.#.@.o.B.p.z 5 x R -.7.C.l.j.=.T ,.z 2.&.(  .z.z.V.x.Z.-.",
"1.c M v ..x 2.| p m ;.k.v.| } z b ) ;.Z.F.G.S.9.z.&.P.l.3.z.z.b.D.8.<.$.o.v.C.t.G $.a.a.3.l.&.1.3.x M 9 ..b 2.} p m o.z.x.o.} z ",
">.z | J | p.{ x.Z.N.N.C.;.U T k G q.2.4.C.1.$.@.&.G $.o.Y U U E @.x.C.k.| F @.=.<.D.C.k.V.R.s.1.=.z | u.| u.{ x.V.N.N.x.;.U U z ",
"x.h.R.F.8.D...v.C.P.] x.4.O.$.3.8.T.) b 9 9 9 T @.&.o.o.R U T K c o.k.k.g.W a.| A.V.7.>.! ( ;.v.V.z.F.C.8.D.=.U.Z.P.] T.4.O.@.3.",
"C.1.{ @...l.R...o.o.n o.1.Z.z.z.o.X.c T T v z | ;.R.k.Z.3.Z.z.l.V.Z.1.3.E.5.R.$.| F &.C.$.I.C.$.C.&.{ @...l.A...| ;.n o.o.F.h.z.",
"v q l o.%.O.o.c.R X.R.o.x o.r.C.x.C.=.2.@.$.k.o.;.f l u.@.@.#.{ C.z.D.D.7.T.4.$.a.| k.s.f.p R x x :.4.T.x.} j T 8.,.k.k.Z.V.7.C.",
"a k 9 V o.k Z $.j b ;.X.^ b z.N.2.} l w 6 z ..2.T.3.A.C.3.4.x.;.,.C.:.m.G.h.c d.9.0.E.T.1.o.o.b.c.k.@.X.R T T 9 c.k.} @.&.X.W v ",
"z.=.z j o.z 9  .&.$.] I.z.4.T.7.z x j o.*.8.E.e.,...1...&.&.X.c v 9 9 K c h.A.1.i.i.@.1.;.A.6.V.S.:.;.k. .;.1.@.z.:.m m c x v 9 ",
"3.C.3.1.<.X.X.R.b.F.@.3.F ;.1.V.m.&.&.F.V.o./ K b j z h o.1.b.o.p.) b R Y j.c.A.| @.O.{ x.k.x.3.h [ 1.I.b.v.3.V.T.:.p v 9 x R d.",
"T.h.z.<.A.c.4.%.;.g.x.,.s.3.*...C.S.V.4.O.W T 6 9 ^ ` -.R.3.x.x.2.Q.1.3.3.C.' <.V.S.F.;.;.m X.k.j.F.8.<.O.@.%.<.{ U.a.l j f.| ..",
"c q -.e.f.k.3.X.c C d.3.b.;.| b.9.8.Z.M.G.2.q.<.;.z.C.$.$.$.&.1.,.2.3.F.C.Z.-.v b z ) N j k Y M.<.&.| y.9 K K 0 o.$.k...3.T.1.2.",
"x 8 v 1.x.A.[ b ,.c c %.I.3...3.v K x m ;.V.M.j.4.x.l.&.&.&.&.{ 7 v T X.Z.3.z.z.x.[ 2.&.o.a.| T.D.3..._ j x b l &.&.l.3.9.7.Z.x.",
"$.b 9 5 ;.&.1.l.| l v o.V.l U j v v v x -.c.8.D.D.S.S.V.z.c.l.,.c.{.{.D.4.T.).#XoXD.V.z.C.z.C.V.X.F.C.<.k.} b U #.O.@.o.;.W o.| ",
"*.k X.z l z ,.Z.=...x.A.c. .m c 6 v W -.8.7.F.V.V.C.{.7X`.7X+XV.{.:XeX/.6X0X:X'.1.A.S.V.C.z.=.m $.@.$.C.V.T...&.&.z z l 9 c c o.",
"z.;.&.&.z ) ;.t.F.z.c.[ [ R.d.5 R -.Z.V.x.V.~.~.c.).5X9X,X!.W.V.M.).7XuX3X/.;X6XXX3X{.k.| B f.X.i.$.C.z.j.a.x.T.s...K T  .o.c.V.",
"x.1.$.o...x.h.:.<.c.x c 1.,.o.a.C.C.~.C.Z.:.A.A.z.}.6X'.Z.C.=.h.).:X>X{.Z.|.).9X8X/.D.F.,.=.1.Z.c.;.1.m 5 v -.$.V.z.{ <.S.G.I.| ",
"k.C.v.1.Q.1.g.E V.F...@.*.O.I.z.3.V.#X{.c.=.-.x.4X{.).m.x ,.z.eXyX6XZ.6 5 W.1.z./.F.oX3.D.C.:.c x z [ p.R U W k 4.3.R.3.2...v x ",
"v 1.l.1.{ c C p o.o.T.V.>.;.{ #.S.3.#Xz.;.M x.). X|.}.R Y T.].rX,XC.b q v  .C.z.&.k.&Xx.{ k.[ z b v Y h.D B b K x b >.c.C.1.v T ",
"x >.x.1. .N ~ x 9 c ..l.X.z k :.D.V.{.c.A...1.4.{.!.X.x Y 3.;XwX=.< * 1 x R ,.z.x.A.^.&X1.x.k.G.x 5 b ;.2.$.) v 8 C z $.Z.n...z ",
"3.h.c.1.k...-.R z X.;.G.-.b f.{ V.(.(.{.;.;.W V.{.$XR R ( {.qXn.> + 1 v c.).'.}.oX#XwX<X&X'.&X~.V.k.f.1.C.1.;.g l N 0 x O.2.C.V.",
"x.z.<.2.f.v.x.=.| R.1.,.T.4.C.z.V.{.&X Xf.c j M.;X$X5 : J.5XOXT X > x ).$X'.{.C.C.m.,X0X3X`.{.6X4X/.z.C.x.o.&.$.<.} *.1.c.C.:.V.",
"o.l x c  .Z.M.8.U.o.o.k X.x.A.{.T.{.@X@Xk = b j.9X&X> y 3.<Xv.$ : v '.}.&.f j 9 v U V.}.4X(.&XXXOXA.f.$.,.V.c.x.C.4.v.3...m &.&.",
"{ o.v T z j 3.4...j ~ j 3.4.=.$X(.(.9XV.k u o x wX!.> - V.%Xo.$ d 2X'.p 2 2 < * T 5 z :.C. X.X}.#Xz.X.b c V.3.1.S.m.;.4 l X.i.@.",
"1.X.;.j z &.[ l.3.b 6 5 1.4.C.{.(.*X~.$X3.- O T '.9Xb u ;.'.1.% v.&XZ.- , $ b T q 6 T j f.`.7X7X~.Z.z v v ;.P...l.{ #.&.k.;.x d.",
"j T.z.z.v.k.1.x z.3.=.3.f.M.%Xz.{.{.#X!. X;.1 = -.0Xh.c F.6X;.k }.{.p b z f.x.).`.*XC.&.&.=.}..XoXT.=.;.X.x.$.k.0 W ..%.] P.P.| ",
"c g.E.z.k.<.b 5 C.2X4.x.V.Z.{.;X}.:.Z.M.:X5Xk.W 1 c.@Xc z.qXX.z.5XV.h.'.].3XwX0XOX_._.(.4.k.{ z.$X(.x.T.4.o.z X.9 x l ;.;.f.2...",
"F.T.j.;.k.f.$.;.;.-.Z.*X)._.).6X2XW.p U H.:X*Xz.s x #X'.v.2Xk.k.:XV.(.6XI.} x q R :.c.%X;X].b c /.%X3.T.1.z 5 l &.&.2.c.Z.S.R c ",
"%.;.;.z.k.{ ;.4.x c d.{.1X2X(.{. Xj.Y < j p J.@X&Xg.7.wX[.4X[.}.1XC.#Xz.z f z < @ y ; X.c.9X:.z.=X'.F.3.;.) b v 7.Z.<.;.3.&.} @.",
"&.| o.%.q.@.1.4.z f.x.3.%X>X0X'.0X`.c < , 1 x 9 4.*XoX'.8XiX[.4X<X%X~.V. X6X(.{.N.c , Y Y k.qX(.8XOX7.Z.Z.o.1.a k.$.f z l 5 3.@.",
"@.@.O.| u.@.%.;.V.C.C.z.Z.3X3X{.,X{.x.>.c v > , 1 k d.G. XiXtXtXtXXX{.z.Z.;.X.k.:X'.,.R 9 v {.yX5X@X6.F.Z.V.z.V.+.| e 6 c T 9 } ",
"x W 7 ^ -.b 4 &.z.:.=.7.Z.F.{.~.$X(.).}.'.Z. .m v b c ;.{.8XtXpXpXtX5X(.Y 1 X t c }.0XZ.R 3 z.0X=X&XV.6.F.x.1.C.1.q. .( =.{ 1.E.",
"o.a.| +.+.o.C.T.x.;.C.C.8.7.*X{.T.3.>.Z.5X5X#X{.'.%X*X{.%X%XtXtXiX X|.:X1Xz.u # @ b c.^.#XW.) {.8X!.&X(.).I.$.2.} z.9.3.U.z.V.4.",
"l.G.<.C.G.3.q.} $...x.S.$XV.3.{.g.T q w 7 x v 7 c 0 v j x.2XsXaXrX`.m h.'.|.[.s.y * x z./.;XV.F.-X@Xm.#Xc.} @. .v 1.*.h.m.D.C.1.",
"v $.s.F @.1.` U | &.R.3.C.V.3.c.2.c z = - r   # 1 = 1 W #X X'.-X|.0X-.y c c.iXrXc.$ > m =.0X1Xz.qX5X(.1.1.@.&.@.a 1.@.W K -.l.z.",
"$.$.| &.2.{ F Y.{ s.| 1.k.;.F.{.{.f.J.z = O - - 5 ~ h.#X~. .R._.x z.eXk t  .].aXrXl = 1 W z.,X}.(.).E.1...&.2.@.@.Z.V.[ z v ;.x.",
"-.Z ;.2...Z.E.7.s W ;.k.3.x.{.oX9X#X/.3.F.V.x.D.Z.z.z.h.y W ~.:.r c 7X&.@ S  .;XdX}.b > x 9 #X'.'.n.m.T b 4 k x 1.} 1.C.c.G *.S.",
"9 k b x X.U...2.V.V.V.1.C.3.V.#X'.$XT.7.D.m.V.V.=.R c < . C. X1 o c `.c.% O W h.-XrXk.7 K x @X5X).&XC.3.Z.;.;.z.c q v $.4.D.-.l ",
"| | @.5.G.x.,.Y c.;.&.j ;.c.r.V.V.V.C.-.j 1 $ > # O +   z 5X$.X o s 6.*Xt O t ;.k.uXZ.c v v z.0XwX{.f.j.1.2.R.z.&.o.z.D.D.3.k 9 ",
"9.R.e.4.k.o.@.i...m i z 1.z.3.3.7.D.h.k c p 1 1 @ 1 : 6 {.c.@ O . Q %Xd.# # t k :.;X{.k 7 x {.#X9.M.^ b =.3.>.v f.<.C. .j w c c ",
"3.V.z.;.o.z b X.<.;.k.[ 2.z.Z.C.C.z.A.A.-.a > = 3 r $.A.,.- - X > ;.~.;.3 & 2 k M '.{.3.b Z.$X~.h.z f o.$.*.*.$.$.z.I.c v x 8 Y ",
"} z.F.h o.x K k 1.1.k.v...;.c.).$X}.!.{.Z.c.-.Q j 9 v 1 & o . x 1.&Xc.c @ > & < ..3X5Xz.m.#X(.D...3.4.;.l 6 v f.o.{ 3.&.&.k.F.n.",
"C.r.' l.+.;.c &.,.R.o.s.i 1.=.z.3. X&X5X!.A.z.z.Z.5 1 X   + r z./.{.V.= 1 W j R [.0X&X~.;X9X3.Z.Z.l.<. .b l 5 c f.k. ...1.l.1.F.",
"[ =.k.o.4.F.V.C.z.2. .s.X.%.l.v.#X{.{.9XqX}.!.C.K ; ; , y k -.$X'.c.! 1 b x E m.rX=X{.(.eX<X4.Z.| | s.&.D 2.P.{ O.A j V B &.;...",
"V g f.z.V.V.V.6.Z.1.f.$.b.O.v.;.V.Z.!. X[.(.&X:.c c v j ;.C.~.m.R. .c R >.z.#X<XyXeX{.T.m.#XF.z.&. .N X.c.Z.m.m.O.{ P b } 1.] N ",
"E u <.D.m.$.#.o.X.N j &.&.$.o.%.c >.F. X}.{.5X}.V.j.G.z.].9X$XV.X.n ;.k.|.=X7X6X7X`.$X4.S.h.x.;.@.#.O.2.$.3.F.,.@...,.,.k.&.a.{ ",
"o.3.C.4.1. .m ;.x R v k o.@.O.2.z.C.D.).oX*X!.$X0X0X;XqX5X#X#X{.S.:.C.{.=X{.'.C.$X{.[.#X{.C.O.*.o.T.l.o.$.s.a.c ] C.F...@.| &.#.",
"s.;.K.D.3.F.3.x.g.c | { &.| l.D ;.l.1.c.V.V.z.C.{.}.{.!.#XV.~.%X(.2X).(.Q.x.T.=.V.{.#Xl.7.k.:.} } k.C.D.C.=.1.o.Z.k.} v x B | V.",
"4.c.P.} @.i.2.4.k.h.Z.x.O.B l P v -.1.2.&.$.$.$.h.Z.z.&XC.k.C.k.z.@X@X#X3.h.h.h.8.e.V.;.L.A.z.&.*.$.$.o.s.} k.v.G o.&.#.+...;.#.",
"l.j.=.T 1.z 2.&.V.T.O.$.3.=.c X.@.@.| z 6 6 v T W -.V.h.3.m ;.;.2.k.~.#XoX1X2.P.M.h.3.3.T.3.[ N K 9 ^ 5 b c V.K.(  .1.V.V.z.Z.-.",
"3.c M v ..b 2.| X.v K R o.&.2.S.c.1.1.O.*.| i.[ 4.4.C.z.a f b 6 p f.C.&XOX4.l.o.X.z f R d.h.;.1.@.@.;.c z k X.k.p m ;.k.x.o.} B ",
">.j | J | p.{ c.D...1.k.V.Z.C.%.+.O.$.&.1.1.e.e.@.1.4.;.o.o.Z x v b >.3.T.k.( z c } 3.O.<.P.x.} o.h.V.V.F.:.R.8.V.N.N.C.;.U T k ",
"x.k.F.D.8.F...U.x.3.M.Z.x.b.) l 6 C d.V.k.;.o.| | o.C.l.&.@.o.=.V.h.x.,.1.&.k.{ l...$.@.4.&.3.&.%.*.#.+.G { 3.D.C.P.] x.4.O.O.h.",
"C.1.| @...4.T. .T R z.,.<.$.l.{ @.$.,.7.C.V.x.&.@.1.$.,.@.O.$.v.8.:.b 6 6 j l.,.k b i.z.a.Y 5 7 | $.=.3.C.c.;.c o.a.n o.1.Z.z.z.",
"v C l o.%.O.o.c.8.,.k.k.C.C.V.S.1.&.@.@.@.$.x.x.2.$.2.&.&.$.z.c.V.C.;.z X.{ %.G j ^ 7 V.8.z.o.&.v v 6 o.q.O.X.c.8.,.k.k.z.C.7.S.",
"a j 9 V a.k Z $.c.f.} @.o.X.S x 4.z.m.S.S.m.V.<.y.l j v T T m [ 4.c.k.I.3.N b a.E 7 T C.T.T.-.k c c V V o.k S $.c.f.| s.o.X.S b ",
"z.=.z j ..z v  .z.3.c N Y v v 6 o.j.Z.r.r.V.j...I x C 6 f | ..z.1.1.O. .z.V.C.z.V.:.Z.d.h.c.C.z.h.=.z j o.z 9 ..z.:.z c R x v 6 ",
"3.C.3.1.<.X.X.R.E.;.p x v x Y d.,.T.l.o.{ 1.C.8.x.@.,.k.z.G.3.] 7 l C q K U 6.V.C.T.1.z X.1.2.C.3.8.3.,.2. .X.R.T.3.p c 7 x Y d.",
"T.h.c.<.A.z.l.,.{ U.p.k j f.@.{ 9.V.C.G.z.V.C.S.C.V.V.7.4.&.o.A R v k 1.,.V.z.3.5 o.*.$.2.%.3.c.T.h.c.<.A.c.2.,.$.U.a.f l f.o.{ ",
"c q -.4.h.k.2.X.o.@.k...3.C.1.k.} l R =.=.R 5 b v -.l.*.o.=.W.6.m.Z.z.x.z.F.z.m Z  ...U.*.@.l. .c q -.4.h.k.l.X.| @.k...1.T.1.1.",
"x 8 R ,.x.A.[ z &.&.x.3.D.8.C.c.*.z 6 c R 6 z { :.z.V.D.8.$.a.} 3.%.$.o.z.4.w.{ C.z.j.g.Z j } *.c 8 b 1.x.A.[ b 1...l.3.D.8.C.x.",
",.z 9 5 ;.o.1.4.#.+.@.o.;.m  .&.7.:.C.z.z.Z.V.L.4.C.x.-.c v x U 6 l l $.1.C.;.1.=.W x c v 8 b $.$.b 9 5 ;.o.1.2.#.+.s.o.;.c o.o."
};
