/* XPM */
static char *_55eb3886e234676af9e624eccbc35beWRU29rxYGBd93ONZ[] = {
/* columns rows colors chars-per-pixel */
"64 64 248 2 ",
"   c #020302",
".  c #040306",
"X  c #090112",
"o  c #2A3539",
"O  c #36353C",
"+  c #2F2F35",
"@  c #782937",
"#  c #703037",
"$  c #214537",
"%  c #7A4034",
"&  c #2C2E43",
"*  c #372C45",
"=  c #2C3647",
"-  c #333349",
";  c #363748",
":  c #2D3B57",
">  c #323C54",
",  c #333D5A",
"<  c #3B3D5A",
"1  c #373853",
"2  c #363D63",
"3  c #1A3E4A",
"4  c #483651",
"5  c #6B3345",
"6  c #6F2F48",
"7  c #2D434D",
"8  c #34414E",
"9  c #2B435C",
"0  c #2B4355",
"q  c #33425C",
"w  c #384557",
"e  c #2C575A",
"r  c #385359",
"t  c #22544B",
"y  c #2D4564",
"u  c #384866",
"i  c #3A536B",
"p  c #335670",
"a  c #3C656D",
"s  c #3E6373",
"d  c #3D6A74",
"f  c #3D657B",
"g  c #3D6C7B",
"h  c #326A77",
"j  c #3C727C",
"k  c #37727A",
"l  c #346F72",
"z  c #46465C",
"x  c #47535B",
"c  c #575759",
"v  c #56544F",
"b  c #645355",
"n  c #566057",
"m  c #474B69",
"M  c #574A6E",
"N  c #485367",
"B  c #575567",
"V  c #4A4B75",
"C  c #544C74",
"Z  c #564978",
"A  c #425E74",
"S  c #4A5677",
"D  c #555578",
"F  c #66597B",
"G  c #6E576F",
"H  c #46676C",
"J  c #446473",
"K  c #4A6474",
"L  c #446B74",
"P  c #4A6A75",
"I  c #44657B",
"U  c #4A657B",
"Y  c #436A7B",
"T  c #4A6B7C",
"R  c #536575",
"E  c #52667A",
"W  c #516B7B",
"Q  c #56657B",
"!  c #41717C",
"~  c #497179",
"^  c #50707F",
"/  c #50646D",
"(  c #68777A",
")  c #72747B",
"_  c #76787D",
"`  c #6E6A73",
"'  c #893233",
"]  c #93462F",
"[  c #B06335",
"{  c #CF723B",
"}  c #944848",
"|  c #5F837F",
" . c #E2A650",
".. c #E0A25E",
"X. c #F1C564",
"o. c #3B5A8D",
"O. c #3C6D82",
"+. c #3D6888",
"@. c #3A7282",
"#. c #3A6399",
"$. c #3B6AB2",
"%. c #525485",
"&. c #6A5885",
"*. c #695F91",
"=. c #446B82",
"-. c #4A6C82",
";. c #476683",
":. c #526C82",
">. c #566986",
",. c #497284",
"<. c #5A758C",
"1. c #577393",
"2. c #68688B",
"3. c #756E89",
"4. c #657486",
"5. c #6C7484",
"6. c #657B84",
"7. c #6C7B84",
"8. c #64748C",
"9. c #6C758B",
"0. c #647B8C",
"q. c #6C7B8C",
"w. c #737484",
"e. c #7A7584",
"r. c #747A85",
"t. c #7B7986",
"y. c #73758B",
"u. c #7B758C",
"i. c #737B8C",
"p. c #7A7A8D",
"a. c #6D7593",
"s. c #647B93",
"d. c #6C7C93",
"f. c #6E7C9A",
"g. c #657997",
"h. c #747592",
"j. c #7C7694",
"k. c #747B93",
"l. c #7A7B93",
"z. c #747D9A",
"x. c #7B7D9B",
"c. c #757499",
"v. c #796F94",
"b. c #747DA2",
"n. c #7B7EA3",
"m. c #7A7EA9",
"M. c #6F7BA1",
"N. c #4B6EB0",
"B. c #455ED4",
"V. c #817B89",
"C. c #837C9A",
"Z. c #816F97",
"A. c #857DA3",
"S. c #3D90BA",
"D. c #5C888B",
"F. c #63818A",
"G. c #6C818D",
"H. c #688186",
"J. c #73818D",
"K. c #77838E",
"L. c #6D8294",
"P. c #6C839B",
"I. c #6D899D",
"U. c #678797",
"Y. c #748294",
"T. c #7B8295",
"R. c #73839C",
"E. c #7B839C",
"W. c #74899D",
"Q. c #7C899D",
"!. c #778A96",
"~. c #4D92BA",
"^. c #6C84A3",
"/. c #6C89AD",
"(. c #6785A2",
"). c #7484A3",
"_. c #7B84A3",
"`. c #748AA4",
"'. c #7B8AA4",
"]. c #7684AA",
"[. c #7B84AB",
"{. c #7B8BAA",
"}. c #758DAA",
"|. c #7784B1",
" X c #728CAF",
".X c #3C98C7",
"XX c #5091D1",
"oX c #79B9D3",
"OX c #7BB5E1",
"+X c #5294DB",
"@X c #68C1D4",
"#X c #82839C",
"$X c #828597",
"%X c #828483",
"&X c #8283A3",
"*X c #8984A4",
"=X c #8389A4",
"-X c #8687AB",
";X c #949DBA",
":X c #959AB7",
">X c #8991AD",
",X c #94A3BD",
"<X c #97A4B8",
"1X c #8EA4BD",
"2X c #A9B1BB",
"3X c #B6BCB4",
"4X c #A8B0B3",
"5X c #B8C3B9",
"6X c #D4CDBC",
"7X c #FFE98B",
"8X c #98A5C2",
"9X c #9DB3C6",
"0X c #A7B6C7",
"qX c #B9BBCA",
"wX c #AAB6D0",
"eX c #9A9EC3",
"rX c #C3BBC8",
"tX c #EFBDC6",
"yX c #B9C6C8",
"uX c #BBCAD6",
"iX c #B8D2D7",
"pX c #ADC7C8",
"aX c #BDD4E5",
"sX c #BACFE7",
"dX c #C6C9C9",
"fX c #C5C9D9",
"gX c #C5D4DC",
"hX c #DFC2C6",
"jX c #EAEADA",
"kX c #C4D6E7",
"lX c #C9CDE4",
"zX c #DEEAEC",
"xX c #DBE7E6",
"cX c #DBF3E9",
"vX c #D8EAF7",
"bX c #DAF3F6",
"nX c #E3E6EB",
"mX c #E3EBEC",
"MX c #E7EAE6",
"NX c #F5E8E7",
"BX c #E7F1EB",
"VX c #FAFEED",
"CX c #E6EBF6",
"ZX c #E5F5F9",
"AX c #FEFCFE",
"SX c #FAFBF9",
"DX c #F6E7F9",
"FX c #DCEDDB",
/* pixels */
"q.z.'.z.k.5.E f.h.x.'.9.7.i.r.e.q.z.'.).'.P.Q.d.=.J Y Y f P q.i.n.T.q.T =.;.0.r.q.'.).9._.[.R.].q.k._.x.Y.8.Q d.h.n.'.q.7.i.i.e.",
"i.d.[.[.b.'.z.W.`.Y.0.T I R 7.`.x.k.y.e.i.4.z._.r.i.i.0.).z.].k.i.i.q.5.i.r.r.r.k.h.Y.9.i.w.5.) J.g.[.|.c.{.z.W.`.Y.0.I I R 5.W.",
"x.W.E.6.r.H.l.E.) q.q.t.e.q.d.t.G.Y._.[.[.b.C.j.7.e.r.w.W.).s.>.d T w.i.r.7.q.r.(.P I -.6.J.x.r.k.W.#X6.r.H.l.T.) 7.i.t.e.q.d.t.",
"E.R.a.=.k.P l.i.<.8.k.).).E.).g.i.Y.7./ a d j h q.q.k.h.Y.'.d.q.F.(. X_.p.r.a./.L.P J I ~ s.b._.Q.`.a.Y k.P l.i.<.8.Y.).).E.`.s.",
"k.I Q Y 9.T k.7.A E q.Y.Q.7.6.P T <.d.].{.]._.m.Y.k.#X#Xk.R.R.Y.'.n.j.3.d.E.Q.A.) 9.G.q.R.E.i.l.k.I Q Y a.U l.q.A E q.Y.E.q.6.P ",
"d.P 7.| 7.0.5.Q.)././.'.d.;.=.J ) V.l.n.).z.q.r.t.5.r.q.U ;.;.;.e.E.].!.7.( r.a.j.m.'.Y.).'.i.k.a.P 7.| 7.6.5.E./././._.f.I =.K ",
").R.=X]._.].9.#X).$X3._.x.w.e.f.x.=X8.T g g O.=.7.J.q.s.-.=.=.O.U 0.Y.Y.P.-.L.7.'._.M.g.>.2.d.W.).R.=X'.m.{.a.Q.E.$Xw.&Xx.w.e.P.",
"_.i.5.r.9.x.=X9.7.d.R q.i.`.).R.G.0.U =.=.Y E 7.a.=XY.E.b.R.W.x.].).a.z.-Xc.&Xr.7.( J.Q.y.E._.i._.i.5.i.5.T._.9.7.d.R q.q.].R.R.",
"Y ! d 7.u.e.0.R.n.h.k.Y.W.].).n.Y.k.w.r.r.y.Q.T.e.w.l.i.9.k.'.P.W.z.d.U 0.q.p.7.J ,.h ]._.R.q.i.Y ! d 7.V.w.0.W.n.h.k.Y.W.].b._.",
"S K g ! G.K ^ y.W.Y.7.J.q.0.^ T j.R.(.[.[.(.).j.D.P a L Y T K k.A.'.)._.q.K H J.-.f ;.'.*X_.a.K S K g ! q.K ^ y.W.Y.7.J.q.0.~ T ",
"R.d.T J 0.P j 9.R.f.U U U I Y d q.P.).A.A.).I.9.;.I @.j T q.5.i.i.7.i.5.=Xx.b.].).d.`.P.P.R.'.R.R.d.T J 0.P g 9.R.f.E U T I Y g ",
"z.E.z.y.C.8.0.=X&Xf.K I g f ;.P.z.E.E.q.4.h.'._.).b.c.a.L.L.Q.y.h Y T Y A >.g./._.&Xd.P 0.d.l.E.R.E.k.h.C.8.0.=X&Xf.K f I f -.f.",
"=XP.R.j.'.!.x.h.5.$XG.L P L.q.w.m.).'.'.W.R._.[._.f.P.&X&Xc.L.I 1.f U z.9.R.E.E.s d.l.w.l.u.x.I.&XP.R.j.'.R.T.h.w.Q.G.L P d.q.5.",
"U @.s.x.L.R.k.0.q.i.J.9.k._.k.k.0.L T a.a.=.f T J R.#Xh.a.R.f._.R.f.).z.W.}.P.T T 8.y.E.k.y.T.9.U j s.x.L.!.k.s.9.i.J.9.k.'.k.k.",
"Y h T h.T.'.4.P k.i.T.z.[.b.'.W.p.P s T -.d L 5.R.d.`.R.S M D C Z &.Z S D y.w.H.Q.R.I.U.~ J 4.p.Y h -.h.E.'.4.T i.i.T.z._.m.'.W.",
"h.T g s L.h.k.T.e.w.i.q.d.E 9.q.b.z.).R.R.).).[.z.].m i ).W.A.*XQ.E.b._.).A u k.h.-.U I =.g T r.y.T g s d.i.k.l.t.w.i.q.d.E 8.i.",
"i.K F.K L K h.).h.T K g j I U q.Z.R.q.E.k.c.y.Y.< < h.).`.C.A.,X8X;XA.*X'._.c.w < F.a R ;.-.L w.i.K F.L L P k.E.h.L K g j I U q.",
"W.i.i.i.T D.a.&XG.9.g =.5.q.E.).k.}.q.).!.W.x.= S F '.d.A.>X,X;X:X8X,X*X*Xz._.D C 8 Y.0.z.1.i.r.E.k.i.i.T <.h.&XJ.9.g =.5.q.E.).",
"T.k.9.i.y.R.R.d.R.E.9.j.'.}.&X7.G.T h ;.i.E.= i C a.R.-XA.;X,X,X,X,X,X;X&X*XE.k.S m & !.R.8XR.<XE.k.9.i.9.W.P.f.).E.q.j.].}.&X7.",
"R._.Q.h.*Xz.U.,.x.z._.R.z.9.I Y l :.U I ( = 8 C F f.x.*X:X;X9X;X1X:X8X1X;X#Xx.a.&.M < 1 Y.#Xz.8.R.E.Q.h.*Xk.U.:.z.z._.E.k.9.Y Y ",
"g k.E.h.9.U =.J K T g.W._.h.Y =.a U g -.e.; x S F v.=XP.'.-X<X8X8X8X;X-X=XP.{.3.*.V i - 0.a h :.g k.E.k.9.U Y f P T g.`.#Xk.Y =.",
"I d.T.Y.9.T ,.I h ! P i.`.(.9.K P ).9.z.= w - %.C &.c.].P.n.*X;X1X;X&X*Xz.R.h.2.Z V 1 1 - d ,.K I d.E.k.8.W ,.I h ! P y.`.(.9.P ",
"z.P.W.h.Y.9.8.=.L E h T y.l.Q.)._.<.K.l.= < > i D V &.v.=XE.A.&X{.C.C._._.v.F C D i w q ; P s =.z.P.W.q.Y.9.s.-.L U h I y.p.'.b.",
"_.R.l.l.P.Q.E.d.k.9.y.J.R.E.f.'._.z.t.* 8 , u : i D C &.F c.W.Q.x._.R.c.F 2.V %.u , > z > & '.).).z.j.j.!.W.E.a.h.q.p.i.R.'.f.).",
"q.P f U s.`.^.n.).E.R.l.y.U l.9.b.{.E.= 0 w 1 2 u y N C Z D x.7.j.j.u.%.C D u i w > q 1 z - i.Y.q.K -.I P.P.P.b.'.x.E.k.9.P k.y.",
"5.q.Y T K J k.#X].}.0.J L q.6.V.T y.k.- 4 , , 9 ; w , r C %.%.F &.>.V S %.m q q q : y q 1 o i.t.5.T.s L J P c.=Xm.^.f.a ~ 0.H.r.",
"i.0.d.f P i.4.k.t.5.t.q.L.L.P 9.6.i.= x > u 9 8 u w 0 , u u M Z m S D m 2 > w w 1 w 0 q u w > H.q.d.a.,.Y i.4.q.T.6.t.i.T.0.T 0.",
"J &XR.R.Q.Y.k.Y Y E 4.y.u.E.l.K.k./ = = 9 : > qX3X3XyXqX; u < p %.V 2 : 8 qX3X3XqXqXz 7 : > ; H I T.'.8.T.Q.i.T h Q 9.u.3.#X#X7.",
"T f.-XR.Y.j.W s =.J W q.k.L.y.q.P K = m < : qXBXZXCXCXzXqX< w < z > 7 > yXCXnXZXzXzX0Xw : < - t.Q U.b.>Xi.y.P K O.P L q.d.P.l.q.",
"{._.P.f.!.L.9.f.4.G.$XE.R.{.-.Y -.= i m - uXbXxX      bXzX5X3 w u > u yXxXFXX . . bXZXqX4 i S * _.R.U.a.#XU.d.s.y.G.l.W.'.^.-.U ",
"l.q.d.R.k.5.d.E.{.P.h.k.d.y.7.r.& =XD i 8 yXbX4 q #.0 X bXMX2 + 8 = > zXCX. : ;., 0 xXfX> i A *X+ R.R.Y.4.i.0.#XM.).c.h.k.i.4._ ",
"i.q.q.u.e.i.i.x.y.i.L d g L l.* Y.k.V Z w iXvXy OXvXo.> O vXrXq > < qXCX+ , vXo.oXy CXaX9 Z C 9.E.& w.i.y.t.p.L.Y.i.H T Y s Y.i.",
"i.y.w.7.H.r.t.k.p.k.P a g =.> V.J.M Z %.2 nXNXy .X    +X+ vXbX1 9 , FXcXO XXX   XX: CXNX; C %.S d.x.1 ( r.j.u.) t.0.l l U ;.g 6.",
"A :.g -.s.Y s i.w.( Y.E 9.O w.c.Z i %.$ NXBXtX#.+X. bXS.B.ZXxXy X.2 vXCX$..X. bXXXN.6XnXDXw C x V f.y.; 7.d Y d.j.V.9.1.h.5.x._.",
"q.G.5._ w.i._._.i.).m.b.1 &.%.D r ; M 1 CXcXNXCX~.9XoX@XXXMXcX..7X..CXvXXX@X9X@X/.vXDXmXjX> V o S M F F = 8.W.'.6.R.].z.&XW.^.x.",
"R.'.z.'.}.x.V.7.h G.r.* F M N r O O e - CXhXNXFXvX+X+X~.vXBX{ ..X...{ xXbXXX.XXXbXMXBXhXbX; N & & x m Z &.- w.y.T h.i.P.(.[.E.k.",
"L i.r.7.e.k.s.f E w.( ; q 9 = & h.O m O 5XgXNXCXzXSXAXSXxXiX[ .. . .[ sXnXSXVXAXBXnXjXrXyXo V O J o = : u 4 ) H K i.i.:.Y s.T.R.",
"y.i.5.y.p.5.( K.p.].[.9.q , z.`.z.; w ; dXuXMXMXVXAXSXAXAXNXsX@ ] @ iXDXSXAXVXSXAXBXMXfXdXo z o T.<.r.O O 7.F.h.e.W.].4.P T f.Y.",
"g.T d.l.8.'.-XM.y.6.G.Y.Y.} r.R.P.4 0 o dXfXkXxXSXAXSXSXAXAXVXiXaXsXVXAXSXSXSXAXAXnXiXdXlX+ m + 8.>.i.r.r.i.-XE.k.6.k._.R.) l.].",
"! J T P 0.=X9.u.O.U T q.E./.f.K K + y * uXsXxXMXCXSXAXVXAXSXSXCXzXNXSXAXAXZXSXSXBXxXzXlXdXo w & P Y f L 0.A.c.G.U k Y y.x.'.s.L ",
"q.H.r.z./.T.h.;.p.d.R.].n.k.K h g T o * dXiXkXxXmXmXMXSXAXAXAXAXCXSXAXAXAXAXBXmXnXmXiXfXfX* O e.q.7.e.z.`.E.y.T k.0.z.[._.z.I g ",
"n.&XA.x.Y.q._ G.L.j.'.8.I j U U =.U : o qXqXdXaXxXnXmXmXmXmXMXMXjXBXBXnXzXnXnXnXzXlXiXuX9XO = p._._.A.x.R.q.e.G.L.j.'.8.I k I U ",
"k.).R.k.q.T P 0.k.Y.#XU g Y g ;.I 7.t.; 4X3XgXdXsXgXnXmXmXmXxXBXnXmXxXxXBXzXzXkXkXyXfXrX4X+ Y d z.).E.d.q.T T F.i.Y.&XT Y Y g ;.",
"0.R.'./ q.I O.K 9.5.Y.i.i.R.'.(.`.].#X+ 8X0X0XuX6XyXiXsXsXiXgXjXCXzXgXfXgXgXyX5XyXiX9X4X4X- _ 9.4.R.}./ 7.f @.S y.5.Y.h.y.Y.'.(.",
"_.n.9.T.e.g.I i.G.Y.0.5.k.Y.z.{.-XY.&XG &.:X2XwXpXuXfXuXfXuXuXuXfXuXfXyXyXgXuXsXrXwXpX8X%.9.=XW._.n.2.T.e.s.I i.G.Y.8.5.k.Y.z.{.",
"4.d.z.9.T.{.)._.w.T J g R t.f.9.f p.G B N !.<X4X2X0X9XwX0X0XyX3X5XyXqX0X0X0X9XwX4X4X>Xz.G b F _ 6.d.R.y.T.{.].E.w.~ J ! R p.f.9.",
"P H i.R.).'.).b.e.q.k T 8.i.w.W Y ;.r t N N ( J.8X,X<X2X0X2X2X0X2X2X2X0X0X0X,X,X<Xw.C.t e p t +.L H J.R.).].).).w.5.j T 6.i.w.W ",
"-.J z.[.^.i.e.q.r.9.c.k.Y.J.i.5.k.y.` B v B # @ y.7.i.q.Y.&X*XA.*X-XA.#X!.q.r.r.| 6 ' b v v m g -.A k.[.^.u.t.q.r.9.h.h.R.i.G.5.",
"q.z.'.z.Y.5.W d.h.n.'.9.q.q.i.e.k.Y._.a.C 5 # @ # # 5 r r e c v V B B r e r 5 @ # 5 6 5 N d.Y.&Xq.Y._.x.k.q.E f.h._.'.9.q.q.r.e.",
"i.d.[.[.b.'.z.W.`.Y.6.-.P R 5.W.7.p.q.w.p._ # } ] # b c D Z D %.B c c v n b v @ ] ' # _ V.z.d.0.Y.a.[.|.z.{.z.Y.`.Y.6.-.K E 7.`.",
"x.W.E.6.e.H.k.T.) 9.q.t.e.d.d.t._.'.f.].].a.'.6.p.w.G M G M B e r r c B B B F ) '.! O.>.w.w.i.) x.W.E.6.e.H.l.T.) q.q.t.e.q.q.t.",
"T.^.a.T z.K l.i.<.8.k.R.).E.).s.y.5.Q.K g g g W 0.7.7.Y./.).k.e.F.&X^._.w.G.z.|.d.P h J d j._.`.T.I.a.T k.Y l.i.<.8.k.R.).E.).g.",
"k.I Q Y a.Y l.7.A E q.Y.Q.q.6.P P i.5.C.-X).z.{.Q.x.R.n.d.Y.Y.E.E.Q.w.i.5.C.Y.T.) p.5.U.&Xz.t.5.f.U Q Y a.U k.7.A E q.Y.Q.q.6.P ",
"f.P ( | r.F.5.Q./././.'.d.I =.K w.r.F.U.Y.z.k.5.) 5.e.x.U @.=.I y.`.).k.F.( T.q.q.].'.E.|.P.P.].f.K 7.| ( F.5.E.]././._.d.;.;.J ",
"R.R.{.{.m.].a.Q.E.C.3.#Xx.w.e.f.).^.j.;.=.=.g T Y.p.H.3.O.+.@.P ;.h.I.!.b.1.d.( b._.k.q.l p.3.#XW.z.{.{._.].a.Q.).$Xw._.z.e.e.P.",
"_.h.7.e.5.T.&X9.q.q.E q.q.{.P.R.i.i.T -.g O.P H.y.R.(.Q._.C.).].).!.3.l.b.b.E.t.q.r.i.].j.P.'.r._.i.5.r.y.x.=X9.7.q.R q.k.).R.R.",
"Y ! d 7.V.w.0.W._.h.k.!.R.'.b.b.k.l.w.i.e.7.E.E.l.i.k.y.k.y.Y.Q.)._.d.P 0.9.t.w.I =.g ].x.T.q.k.Y ! d 7.V.w.0.W.n.k.Y.Y.R.].)._.",
"S K ! g d.K ^ 9.W.L.7.J.q.0.:.Y x.P.U.[.[.^.).j.D.L K Y Y -.T 8.x.R.Y.*Xk.W T q.-.f -.).-X_.8.K S K g ! q.K ^ y.W.L.7.i.i.0.W Y ",
"R.d.T J 9.P ! 9.R.f.U U T I Y d q.P.).A.A.^.`.q.S I ! d H 0.q.k.k.k.q.0.^.z.'.R.).d.`.P.P.W._.R.R.d.T J 9.T j 9.R.P.U U U I Y g ",
"z.E.k.l.j.0.0.=X&Xz.K I f f -.P.j.E.Q.q.4.h.'.n.T.i.l.k.R.}.z.3.d J ~ h O.;.M.).'.&Xd.K 0.d.x._.z.E.k.k.j.0.0.=X&Xc.A T g f ;.P.",
"_.P.E.l.'.W.x.y.w.$XG.K P L.q.w._.b.{.'.).R.).[.[.].R.z.x.k.7.~ -.Y K d.c.).R.z.f q.p.y.p.u.k.I.=XP.R.j.Q.W.x.h.5.$XG.L K L.q.r.",
"U @.g.x.L.R.k.0.q.q.Y.9.k._.k.k.0.L T g.8.T f W g s.T.l.i.9.{.M.^.`.R.E.R.'.L.Q T 0.y.Q.k.i.T.9.U @.s.x.L.R.k.0.q.i.J.9.k._.k.k.",
"Y h T h.T.'.4.P i.q.T.z.&Xm.'.R.l.K L T -.g Y 5.f.R.).{.m.9.Y.6.k.h.e.d.W.l.C.9.E.R.(.U.~ K 7.p.Y h T k.T.'.4.P i.h.T.z.[.b.'.R.",
"h.T j s L.h.k.T.t.w.q.q.d.E 0.q.b.z.R.).Y.).).].x.&XE.s.K Y I I L L K q.c.'.L.k.h.-.U I Y g T y.h.U g s f.i.k.T.t.w.i.q.d.E q.q."
};
