/* XPM */
static char *Player1676382441[] = {
/* columns rows colors chars-per-pixel */
"64 64 230 2 ",
"   c #020302",
".  c #0B0102",
"X  c #000904",
"o  c #02020B",
"O  c #07080A",
"+  c #13000D",
"@  c #000312",
"#  c #312D2C",
"$  c #33322B",
"%  c #293235",
"&  c #333235",
"*  c #342932",
"=  c #45333A",
"-  c #442D3D",
";  c #3D423B",
":  c #2E713E",
">  c #1C2D41",
",  c #392D44",
"<  c #3A3143",
"1  c #333645",
"2  c #382E51",
"3  c #2E3548",
"4  c #2C7D4B",
"5  c #297D49",
"6  c #337C4D",
"7  c #3B7C4D",
"8  c #367A47",
"9  c #267D54",
"0  c #2B7B52",
"q  c #2D7C5A",
"w  c #3C7654",
"e  c #327E53",
"r  c #3A7D53",
"t  c #347D5B",
"y  c #377757",
"u  c #3B5F79",
"i  c #3D636D",
"p  c #39686E",
"a  c #3C7A65",
"s  c #367766",
"d  c #3E6374",
"f  c #346C76",
"g  c #3C6A74",
"h  c #3D657B",
"j  c #326D79",
"k  c #3C6C7B",
"l  c #336475",
"z  c #36727C",
"x  c #3C727C",
"c  c #3D7071",
"v  c #2F6D78",
"b  c #417C56",
"n  c #42724A",
"m  c #425E74",
"M  c #4B5E77",
"N  c #515D6A",
"B  c #43656C",
"V  c #466A6D",
"C  c #50646D",
"Z  c #446573",
"A  c #4A6474",
"S  c #446B75",
"D  c #4A6A75",
"F  c #44657B",
"G  c #4A657B",
"H  c #436A7B",
"J  c #4A6A7C",
"K  c #536575",
"L  c #516A77",
"P  c #52667A",
"I  c #59637E",
"U  c #526B7B",
"Y  c #407176",
"T  c #4D7074",
"R  c #42727C",
"E  c #4F717D",
"W  c #51707F",
"Q  c #5D797D",
"!  c #6A797B",
"~  c #6B767A",
"^  c #72737C",
"/  c #78787E",
"(  c #6E6D7F",
")  c #8D4739",
"_  c #944738",
"`  c #BD773B",
"'  c #BE6F37",
"]  c #C97628",
"[  c #CA6C3D",
"{  c #C77636",
"}  c #D16A34",
"|  c #EA7434",
" . c #C87443",
".. c #C7704D",
"X. c #2D854C",
"o. c #24854A",
"O. c #318245",
"+. c #32844C",
"@. c #3C804C",
"#. c #348949",
"$. c #2E8454",
"%. c #268559",
"&. c #328452",
"*. c #388555",
"=. c #388363",
"-. c #2B8468",
";. c #428356",
":. c #5E827E",
">. c #738079",
",. c #D79E51",
"<. c #E99E58",
"1. c #E99D4F",
"2. c #DBA756",
"3. c #D6B252",
"4. c #E6A84B",
"5. c #EDA45E",
"6. c #E6A455",
"7. c #E69A69",
"8. c #F79C61",
"9. c #E79C72",
"0. c #D7A866",
"q. c #E6A765",
"w. c #F3AB63",
"e. c #3C6C82",
"r. c #3D6484",
"t. c #3D7689",
"y. c #4B5D83",
"u. c #456582",
"i. c #4B6482",
"p. c #446B83",
"a. c #4B6B82",
"s. c #466B8C",
"d. c #536C82",
"f. c #566887",
"g. c #497081",
"h. c #467284",
"j. c #5A728C",
"k. c #5E7E8D",
"l. c #5C7B96",
"z. c #426D90",
"x. c #6A6E8D",
"c. c #756E89",
"v. c #647486",
"b. c #6C7584",
"n. c #657B84",
"m. c #6C7B84",
"M. c #64758C",
"N. c #6C758B",
"B. c #647B8C",
"V. c #6C7B8C",
"C. c #737484",
"Z. c #797583",
"A. c #747A85",
"S. c #7B7986",
"D. c #73758B",
"F. c #7C758B",
"G. c #737B8C",
"H. c #7B7A8C",
"J. c #647693",
"K. c #6D7593",
"L. c #647C93",
"P. c #6C7C93",
"I. c #6D7C9A",
"U. c #667E9B",
"Y. c #747592",
"T. c #7C7593",
"R. c #747B93",
"E. c #7A7B93",
"W. c #747D99",
"Q. c #7B7D9B",
"!. c #74739A",
"~. c #6D7CA1",
"^. c #747DA2",
"/. c #7A7DA3",
"(. c #7B7EAA",
"). c #7977A5",
"_. c #81798C",
"`. c #81758A",
"'. c #827B95",
"]. c #837E9E",
"[. c #837DA3",
"{. c #877CA5",
"}. c #5D8789",
"|. c #678085",
" X c #6A8286",
".X c #63818A",
"XX c #6C818D",
"oX c #6A8A89",
"OX c #73818C",
"+X c #73888A",
"@X c #6D8293",
"#X c #66879A",
"$X c #6C839B",
"%X c #6E8A9D",
"&X c #638296",
"*X c #738294",
"=X c #7B8296",
"-X c #73839C",
";X c #7A839C",
":X c #74899C",
">X c #7B899D",
",X c #7F8995",
"<X c #6685A1",
"1X c #6C83A2",
"2X c #6B88AE",
"3X c #6C87A8",
"4X c #7484A3",
"5X c #7B84A3",
"6X c #748AA4",
"7X c #7B8AA4",
"8X c #7684AA",
"9X c #7B84AB",
"0X c #758DA9",
"qX c #7B8AAA",
"wX c #7991A5",
"eX c #7C92A9",
"rX c #7984B0",
"tX c #7687B1",
"yX c #828483",
"uX c #828295",
"iX c #82839B",
"pX c #81899A",
"aX c #8B8199",
"sX c #8284A4",
"dX c #8389A4",
"fX c #8284AB",
"gX c #8A86A6",
"hX c #8A90B9",
"jX c #8BA4BA",
"kX c #8EA5C5",
/* pixels */
"V.W.7XW.R.b.P I.D./.7XN.V.G.G.Z.V.W.7X4X6X-X>XP.p.F H H h Z V.G./.=XV.G p.p.B.A.V.9X:XN.5X8X$X8XV.*X5XQ.R.b.P P.Y./.7XN.G.V.G.Z.",
"G.P.rX9X^.qXW.:X6X*Xn.p.Z K m.6XQ.H.D.C.V.b.-X;XA.A.G.V.-X-X5XQ.H.V.V.m.OXA.G.A.E.R.*XN.G.C.^ A.*XJ.rX9X^.7XW.:X6X*Xn.p.Z K m.6X",
"Q.:XuXn.A.|.H.;X^ V.G.S.Z.N.V.S.XX:X9X9X(./.[.T.C.A.A.b.:X4XJ.f.k D b.H.G.V.m.A.1XD F a.n.OXW.C.Q.:XuXn.A.|.E.;X^ V.G.S.Z.K.G.S.",
";X%XK.p.R.D E.G.j.M.R.-X4X7X4XL.G.OXb.A i g z f P.V.R.D.-X7XP.m..X<XtX4XA.Z.K.3XL.D Z F U L.^.7X;X%XK.p.W.D E.G.j.v.W.-X4X:X4XL.",
"R.F I H N.J R.N.m P V.R.>Xm.n.D J j.P.4XqX4X8X5X;XG.uXuXW.-X-X-X9X/.'.D.P.>X>X{.^ N.V.XXW.;XG.W.R.F I H N.J R.b.m P V.-X>Xb.m.D ",
"P.A ! }.m.B.b.>X6X2X2X7XP.u.u.A ^ _.E.5X5XW.N.A.G.^ G.V.i.u.u.a.S.Q.4X@Xm.~ G.N.E.9X>X*X4XpXOXR.P.A ! }.m.B.b.>X6X2X2X5XP.u.p.Z ",
"4X-XdX7X/.9XN.>X4XuXc.5XQ.C.D.*XQ.dXM.J k x e.p.m.G.V.B.a.p.p.e.G V.*X:X$Xd.V.m.5X8X1XJ.f.M.R.:X4X-XdX5X5XqXN.pX5X'.C.5XQ.C.D.*X",
"5XG.b.D.N.=XdXN.m.P.K G.V.7X1X-XXXB.G u.e.J P m.K.dX*X7X-X4X-XE.6X-XK.Q.fXK.sXG.m.! H.5XD.Q./.G.5XG.b.G.N.Q.5XN.m.V.K N.R.6X-X-X",
"H h.S N.`.C.B.:X/.Y.*X*X-X9X4X4XE.R.b.A.A.A.=X;XE.D.R.D.R.G.-X4X8X5XL.A B.N.H.A.Z h.j 4XQ.;XG.G.H R g N.F.C.V.:X5XY.*X*X-X5X8X4X",
"M Z c Y P.A E D.:X*Xm.G.G.B.U H Q.*X<X9X9X1X6XT.}.V Z H k J U v.W.-X*XdXW.P D V.p.F i.7XsX9XL.A G A Y c P.A E N.:X@Xm.G.V.B.U H ",
"$XK.J Z N.D x N.-XI.K G G F H k N.%X6XsX[.4X$XN.y.F R g B V.N.*XE.R.D.v.4XW.9X-X4XI.6X$X$X:X7X-X-XK.G Z N.D k N.4XI.P P G F H k ",
"W.;XW.Y.E.B.B.dXfXI.Z H k F a.U.W.iX;XN.v.R.9X5X=XG.R.E.-X0XW.c.g Z R x e.u.I.6X5XsXP.D B.N.Q.4XW.5XW.E.E.B.B.dXsXI.m H k F J U.",
"sX$X-XT.7X-X=XY.C.,XXXV Z @XV.C././.5X7X-X4X^.9X9X5X4XW.Q.H.V.T a.H Z Y.!.4X4XW.d K.H.C.E.F.E.%X5X$X-XT.7X:XE.Y.b.pXXXV A @XV.C.",
"G t.L.'.@X-XE.B.N.G.*XN.E.5XR.*XB.S a.J.J.a.g J k L.=XE.G.J.qX~.-X6X-X7X-X7X*XU T B.D.;X*XD.,XN.G x L.].@X-X=XB.b.G.*XN.W.5XR.*X",
"H f a.P.;X7Xv.D G.G.;XW.9X^.4X>XH.S d G J k D b.I.*X8X9X/.N.V.n.W.Y.D.V.-XQ.'.N.7X-X%X#XJ Z b.T.H f a.P.;X>Xv.D G.R.;XW.9X^.5X:X",
"Y.D k d P.V.R.Q.S.C.G.V.P.P N.V.(.I.:X>X-X4X6XtXQ.sX-XB.G H J F g S Z G.R.;XR.P.K.G i.F a.f T N.Y.G k i P.R.R.E.S.C.G.V.P.P N.V.",
"D.A .XA S A R.4XR.D Z k x F Z V.Y.iXK.7XG.Z.E.1X1XR.V.OXF.G.@XD.&XT.A.N.9X6X;XtX5XR.G H j h.G N.G.Z B.A S A Y.;XY.D Z S x F G P.",
":XG.G.R.D k.K.sXG.N.e.a.b.N.>X4X-X-XI.^.-X:X4X/.[.%X*XF.C.%X0XsX^.aX*XXXD Z m.*X*XN.E.N.E.G.C._.>XG.H.G.D k.P.sXXXN.k p.v.V.;X4X",
"-XE.N.D.N.;X*XI.4X;XN.T.6X0XsXV.W.H k G W.W.%XqXsXP.;XN.d.a.y.F Z oX8XJ.D p.z.F a.a.I.5X4XjX0XjX-XW.N.V.D.-X$XI.^.:XN.T.8X8XiXV.",
"-X;X>XR.gXW.#Xh.*XW.sX-XQ.N.Z H H h G d.B.F P N.@X-XXXg k d H R a.u (.gXB.i.h T k Z .XR.:XQ.D.V.-X;X>XR.gXW.#Xg.Q.W.sX;X=XN.S H ",
"k R.;XR.N.H H F F G I.:X5XR.k a.Z J S J L.D.;X*XT.R.B.T.Y.*XN   X R.G.A.G.G.b.S.T.Y.=X=XP.P G S H R.Q.R.N.A k F A p.P.:X5XR.H p.",
"F K.;X*XN.P a.F j Y D N.6X<XN.A k V.D.:X%XP.R.H.R.V K b.&X*X  w b   m.! G.G.G.;X3X6X@X5XK.i.r.t.H K.>XR.B.P g.F j x T N.6X#Xx.D ",
"W.$X:XG.*XV.B.p.S P l H D.E.5X4X4X*XN.*X4XW.R.m.P.wXD.iX3X;X  e %.. 6Xm.`.@   &X;XOXOXm.*XA H f W.$X:XP.-XV.L.a.D G l G C.R.7X8X",
"5X*XT.T.$X>XQ.P.E.B.H.H.-X;XU.7X4XW.W.].Q.6X*XH.R.n.H.T.W.dXX r 7 0.o X . 2 . 5X9XK.J Z B.;X/.fX-XW.T.T.*X:X;XY.T.B.H.R.-X;XI.7X",
"V.D d G L.6X1X/.5XQ.>XR.M.G R.G.sX$XQ.3X8Xp.H H c C.V.T.Q.N.  +.e 4.7.b 5 &.. N.H H g x F R.G.:XV.D h G L.6X1X/.7XQ.>XR.N.P R.G.",
"b.P.H a.G Z *X;X8X1XP.i T V.m.A.p.I.sX,XA.f u.k i.u.j k a.V.  q a ,.2.X.=.+.. qXK.'.F.A j i.N.Z.b.@XH J A B W.5X(.1XP.i S B.|.A.",
"E.M.P.d D G.j.E.=Xb.F.G.*XV.D &XV.C.D.8X).Y._.Z t.J U V o o   r +.{ 3.a 8 { X D.m.R.5X%XG.^ F.D.H.B.P.Z A G.v.E.=Xn.S.G.*XV.H L.",
"Z 5X-X:X>X*XH.S l d.N.F.c.;XaXm.F.p.t.p V.0XU.E.^.H.    9 ;.4 7 n 7 4 7 $.' |   X P.8X^.G.+XV k Z 5X-X-X7X*XG.S l d.N.F.c.pXaXm.",
"J U.fX-X*XT.P d k F D L.K.@XE.N.e.g G u.a.N.*X9X@Xo = $.t %.6 t q $.t 8 q $. .* + H.R.R.N.E.N.R.J U.gX4X*XT.U d k F S P.K.$XR.N.",
"qX5X$X$X-X@XD.U.G.OXE.-X6X6Xp.G D G e.a.p H N.S.+ # y r +.X.%.*.o.*.7 0 &.8 , 1   oXp D H.V.5X^.7X5X$XI.-XP.N.$XG.V.E.-X6X6Xa.G ",
"T.P.K.*X*Xb.R.;X^.-XE.P.P.R.n.A.p.T.H..     X d   ; 9 %.6 6 8 4 7 q %.r @.X.+.o     o . o m.M.hXR.V.K.-X*Xb.P.Q.^.4XE.R.R.E.n.A.",
"H.m.XXF.Z.G.G.Q.*XG.B J H d E.A.m.V.OXX 0 *.t   3 * 1 & & *.*.q X.7 o.& 3 - % < o w +.b X ;XdX$XH.V.V.F.Z.G.H.;X*XG.B H S d R.C.",
"G.m.A.m.|.A.D.R.F.n.f c G e.H n.G.P.).  y 4 =.6 2 %.X.8 +.%.r w w r %.6 O.$.9 2 r q O.$.X !.qXb.G.G.C.m.|.m.F.P.F.m.p f G p.x n.",
"m d.h a.L.J i G.H._.N.f.K.C.R.9X@XsX/   o 1.5 +.@.&.y +.@.9 X.+.+.X.9 7 +.y &.@.t 4 6.. . G./.U m d.k a.P.J i G.G._.J.j.K.C.R.fX",
"G.XXm./ C.G.>X5X|.-X8X-XpX-X4XQ.H.h.f     q.,.y $ 0 s &.e t $.$.q $.*.6 e s 0 $ 8 q.9.X O *X*XJ.XXXXm.^ C.G.5X5X|.-X8XW.dX-X4XQ.",
"-X7X^.5X0XE.`.m.H R.T.$X1X9X5XW.m.F z.  + q.,.1.= $.4 +.6 a 5 X.X.5 s e #.$.%.= 2.8.q.    /.5X7XQ.7X^.5X0XE._.m.p.G.F.$X1X9X;XR.",
"H G.A.m.A.R.l.r.M R.D.d.k J.>XP.R.H r.X ] ] } ,.>   . X & & *.5 8 *.& &   . X > { ` { }   f.p.z H G.G.n.C.R.l.r.Z R.D.d.k L.;X*X",
"D.G.b.D.E.m.~ yXA.%X6Xn.D H P.>X$X:X-X. X  .[ 2.< - X     .   , &   o     o = < 8.} '   o l k / A.G.b.D.H.m.! yXA.-X6Xv.D H J.>X",
"L.g.P.E.N.4XfX~.R.v.Y./.>X^ T.4X5X{.9Xo X o 5.& 1 < # ` ] 9.7.q.q.7.9.] ` $ , 1 # w.    . *XD.Q.J.J @XE.N.7XfX~.W.b.R.5X>Xb.H.4X",
"H Z G D B.sXD.H.G z S G.Q.qXL.D k S m.A.  w 6 *.$ ..6.<.5.,.4.<.<.4.2.5.5.6. .$ -.o.7   8X4X X/ H Z J D B.pXD.Y.G z S D.Q.qXJ.D ",
"XXm.A.!.3X>XD.i.=XV.-X9X/.R.Z k e.k J OXo       5 q.] ` _ ) ) ) ) ) ) _ ..] 0.O.      O ~ A.G.N.V.m.C.Q.6X>XY.G G.V.W.qX/.W.F k ",
"5X5X].Q.-Xm.A.OXXXT.7XM.F z H G D J N.( O       .  .1.q.7.2.4.q.q.1.6.5.1.6....         _.E.C.Z.5X5X[.Q.-XN.m.XX@XT.4XM.F x F G ",
"W.4X-XR.V.J D B.G.-XiXG k H h i.s.l.:XR.;XdXN o @ . .   .   .         X     . @ @ =X9XW.B.XXG u.W.4X:XP.V.D J B.G.-X].G H H k G ",
"n.-XqXC N.F e.Z N.x.*XR.G.-X7X<X^.(.9XQ.L.Z k p.. X o o o o   @   o o .   o   . *XN.A.b.=X*XV.XXv.*XwXC N.F e.M G.b.*XR.G.-X7X<X",
"sX/.x.H.S.P.F G.XX*XN.N.R.*XR.qX@X>XR.G.G.G.V.V.A.:.OX[.I.oXP.s.H e.J n.OXu.p..XqXU.M W.R.4X7XW.9X[.x.E.S.K.F G.XX*XV.N.G.-XE.qX",
"v.K.:XN.Q.7X6X5XC.D Z c L T.P.N.J V.V.H.N.4XR.>X5X<XQ.!.6X! D d A r.F XXC.Y.V./ m.=XiXG.^ C.m.E.v.P.;Xm.Q.7X6X;XC.D d Y L F.R.M.",
"T V OX-X6X4X^.~.A.N.x H v.H.C.U g H i.G A P.5XfX/ N.'.G.m.].fX>XOXeX/.4XiXgXv.].~.eXn.Z J u.a.Z S V @X*X6X4X^.1XS.N.x H B.R.b.U ",
"s.i W.9X1XH.F.V.A.G.Y.Y.-XXXXXb.R.C.G.G.P.*X>XJ.p.k Z x S R.M.7XkX^.[.4Xb.B.x u.R.].Y.V.XXB.J p.a.m W.9X1XH.F.V.A.N.Y.Y.*XG.OXb.",
"N.W.5XQ.R.b.P I.D./.7XN.V.G.G.Z.G.R.7X:X4X-X7XV.p.F S H H Z V.G.5X=XV.J p.p.V.A.N.5X:XN.5X4X-X8XV.E.5XW.R.b.P P.Y./.7XN.V.G.G.Z.",
"OXP.rX9X^.qXW.:X6X*Xn.a.Z K m.6XQ.D.D.D.G.B.W.-XG.A.G.V.-X-X5XW.H.G.V.v.G.A.G.C.W.R.*XN.G.A.C.^ R.P.rXrX~.7XW.:X6X*Xm.p.Z K m.6X",
"Q.:X=Xn.A.|.H.>X^ V.V.S.Z.N.V.S.XX:X9X/.(./.].T.C.A.A.N.-X4XJ.f.f L b.H.G.V.V.A.1XD F a.n.OXW.A.Q.:X=Xn.A.XXH.;X^ N.G.S.C.N.V.H.",
";X:XK.p.R.D E.N.j.M.R.-X4X7X4XL.G.*Xm.K i g x f P.N.R.D.-X7XP.V..X<X8X7XA.A.N.8XP.D d F d.L.^.5X;X%XK.a.R.D E.G.j.M.*X-X4X>X4XL.",
"P.G I H N.J E.V.m P V.*X>Xm.n.D J j.@X6XqX4X9X5X=XG.'.=XW.-X-X*X8X/.'.c.P.:X5X].^ N.XXXXW.;XD.W.P.G I H N.J W.b.m P V.*X>Xm.m.D ",
"I.A m.:.m..Xb.=X6X2X2X5XK.p.u.A ^ H.E./.5XW.N.A.A.b.G.V.i.u.p.p.A.>X5XI.m.~ G.K.E.(.>X*X4X5XOXR.I.A m.:.m.B.b.>X6X2X2X5XP.u.u.Z ",
"-X-X7X9X/.9XK.>X4X'.c.sXQ.D.D.*X;XsXM.J k x e.p.G.OXm.V.a.p.p.p.G V.*X*X#Xd.XXm.5X4X4XJ.f.M.P.:X:X-X7XqX/.qXN.>X5X'.C.5XQ.C.D.*X",
"7XD.b.A.N.=XdXN.m.@XK V.V.7X$X-XV.V.F p.p.H K m.P.sX-X:X-X4X-XE.8X:XR.W.fX!.dXG.m.! G.5XD.uX5XG.5XD.b.A.N.=XsXN.m.@XK N.R.6X4X-X",
"H R g V.F.C.V.-X/.Y.*X*X-X9X4X4XW.R.A.A.C.A.>XW.E.G.E.D.G.D.:X4X4X5XK.D .Xb.H.C.F h.l 4X/.;XG.R.H Y Z N.`.C.B.:X/.Y.*X*X4X5X4X^.",
"M A x c P.A E N.:X*Xm.G.V.B.U H T.%X<X9X9X3X4XT.}.V Z H e.a.P v.W.-X*XsXW.P D V.a.F a.4XsXsXJ.Z G Z x Y P.A E D.:X@Xm.G.V.B.d.H ",
"*XK.G Z N.D x N.-XI.P P G F H k V.$X6XsX[.4X%XV.y.F R g B m.N.*XW.R.G.B.-X^.7X4X4XP.6X$X%X:X5X*X*XY.J Z N.D k N.-XW.G P G F H f ",
"W.5XW.E.E.B.B.dXfXP.m H k h G $XT.sX=XN.v.R.5X/.,XD.Y.W.%X7XW.D.g Z T f e.u.I.6X7XsXP.A B.K.Q.5XW.5XW.R.E.B.B.dXfXP.Z F H F a.$X",
"9X$X>XT.7X-X=XY.C.,XXXV G @XV.b.(.^.7X7X-X4X8X9X9X4X4XW.].D.m.T a.S Z !.!.4X-XW.d P.H.D.E.F.E.%X9X$X-XT.7X:X=XY.C.pXXXZ Z @XV.m.",
"G x L.Q.@X-XE.B.N.G.*XN.E.7XR.R.B.S J J.J.a.d D h L.=XE.G.J.qX^.1X7X-X>X-X7X*XU a.B.N.pXR.V.=XN.G x L.Q.@X-XE.B.N.G.OXN.E.5XR.R.",
"H z a.Y.;X>Xv.D R.V.=XW.9X).7X-XH.D g G a.k D b.P.-X8X9X/.N.V.|.W.c.D.P.-XT.Q.N.;X*X%X#XE Z V.H.H j a.R.;X>Xv.D G.R.=XW.9X).7X-X",
"D.G k i P.R.G.=XF.C.OXV.P.P B.G.^.W.4X;X-X:X4X8X/.5X>XB.F H J G k S Z V.R.7XR.R.K.f.F F J f D C.Y.G k i P.P.R.=XZ.C.OXV.P.G V.G."
};
