/* XPM */
static char *c17a27a46d7e4f1f98ab995170801982g7uByEcHIeCepZuc[] = {
/* columns rows colors chars-per-pixel */
"64 64 233 2 ",
"   c #010203",
".  c #0B0003",
"X  c #01020B",
"o  c #040905",
"O  c #110004",
"+  c #010412",
"@  c #060A16",
"#  c #2C2C2F",
"$  c #2D2C34",
"%  c #2C2D3B",
"&  c #262A38",
"*  c #322E35",
"=  c #3A2C36",
"-  c #322E3B",
";  c #3B2B3E",
":  c #2E323C",
">  c #2B3538",
",  c #343234",
"<  c #3B3334",
"1  c #34323C",
"2  c #3A343C",
"3  c #353A3C",
"4  c #333A28",
"5  c #5E3936",
"6  c #6A352E",
"7  c #782B39",
"8  c #6B343A",
"9  c #78333E",
"0  c #702D2B",
"q  c #1F3449",
"w  c #2C2E41",
"e  c #272D43",
"r  c #332E42",
"t  c #3A2B44",
"y  c #2D3243",
"u  c #2C344B",
"i  c #29384A",
"p  c #343442",
"a  c #3A3442",
"s  c #343943",
"d  c #3B3A43",
"f  c #32354A",
"g  c #333A4D",
"h  c #3A3C4C",
"j  c #38364B",
"k  c #2D3B54",
"l  c #2E3E5A",
"z  c #263A53",
"x  c #333D54",
"c  c #3A3E53",
"v  c #333E5A",
"b  c #373B56",
"n  c #343E61",
"m  c #41374A",
"M  c #752A41",
"N  c #3E424F",
"B  c #2D4259",
"V  c #334154",
"C  c #3A4156",
"Z  c #34415B",
"A  c #3A435B",
"S  c #3B4B5D",
"D  c #3B535A",
"F  c #31544E",
"G  c #2E4363",
"H  c #344262",
"J  c #3A4D64",
"K  c #394E6A",
"L  c #384863",
"P  c #3C5466",
"I  c #3C526B",
"U  c #375177",
"Y  c #3D636C",
"T  c #3A6B67",
"R  c #3E6374",
"E  c #3C6A74",
"W  c #3D647B",
"Q  c #326D79",
"!  c #3D6C7B",
"~  c #336675",
"^  c #3C727C",
"/  c #36727C",
"(  c #35706E",
")  c #434A5A",
"_  c #5B4D5C",
"`  c #555659",
"'  c #4C5950",
"]  c #6B4F58",
"[  c #6A5252",
"{  c #5F6058",
"}  c #464B68",
"|  c #43536C",
" . c #4B5569",
".. c #55576B",
"X. c #4C5473",
"o. c #425E74",
"O. c #4A5E77",
"+. c #475578",
"@. c #57557B",
"#. c #524A70",
"$. c #6B576D",
"%. c #43646B",
"&. c #48686D",
"*. c #54636C",
"=. c #446573",
"-. c #4A6474",
";. c #446B74",
":. c #4A6A75",
">. c #44657B",
",. c #4A657B",
"<. c #436A7B",
"1. c #4A6A7C",
"2. c #536574",
"3. c #536A76",
"4. c #52667A",
"5. c #59637E",
"6. c #526B7C",
"7. c #5B6474",
"8. c #407176",
"9. c #4D7172",
"0. c #42727C",
"q. c #4E717D",
"w. c #50707F",
"e. c #686272",
"r. c #6A7B7D",
"t. c #6B777B",
"y. c #72747C",
"u. c #79787E",
"i. c #8C453A",
"p. c #8B4A48",
"a. c #5F837F",
"s. c #3C6C82",
"d. c #3E6587",
"f. c #4C5B84",
"g. c #535881",
"h. c #565591",
"j. c #554884",
"k. c #456581",
"l. c #4B6382",
"z. c #446B82",
"x. c #4B6C82",
"c. c #486888",
"v. c #536C82",
"b. c #556988",
"n. c #437384",
"m. c #497182",
"M. c #4F728A",
"N. c #5A738B",
"B. c #5E7988",
"V. c #5D7B97",
"C. c #6A6E8E",
"Z. c #716E84",
"A. c #776E8C",
"S. c #657486",
"D. c #6B7584",
"F. c #647B84",
"G. c #6C7B84",
"H. c #65758C",
"J. c #6C758B",
"K. c #647B8B",
"L. c #6C7B8C",
"P. c #737484",
"I. c #797583",
"U. c #747A85",
"Y. c #7B7A86",
"T. c #73758B",
"R. c #7C758B",
"E. c #737B8C",
"W. c #7B7A8D",
"Q. c #6D7593",
"!. c #647C93",
"~. c #6C7C93",
"^. c #6D7C9A",
"/. c #677A98",
"(. c #747592",
"). c #7C7694",
"_. c #747B93",
"`. c #7A7B93",
"'. c #747D99",
"]. c #7B7D9A",
"[. c #707299",
"{. c #6E7CA1",
"}. c #747DA2",
"|. c #7A7EA3",
" X c #7C7DA9",
".X c #727FB3",
"XX c #817A89",
"oX c #817C98",
"OX c #837DA4",
"+X c #887EA1",
"@X c #5C8984",
"#X c #678184",
"$X c #6A8286",
"%X c #63818A",
"&X c #6C818D",
"*X c #73818C",
"=X c #6D8294",
"-X c #66879A",
";X c #6C839A",
":X c #6E899D",
">X c #658093",
",X c #748294",
"<X c #7C8295",
"1X c #73839C",
"2X c #7A839C",
"3X c #74899D",
"4X c #7B899D",
"5X c #718E96",
"6X c #6685A1",
"7X c #6C84A2",
"8X c #6B89AE",
"9X c #6D88A7",
"0X c #7484A3",
"qX c #7B84A3",
"wX c #748AA4",
"eX c #7B8AA4",
"rX c #7584AA",
"tX c #7B84AB",
"yX c #7D8BAB",
"uX c #748CA9",
"iX c #7883B0",
"pX c #7285B3",
"aX c #7A90A7",
"sX c #818488",
"dX c #828395",
"fX c #82839B",
"gX c #818A9A",
"hX c #8284A3",
"jX c #8389A4",
"kX c #8384AB",
"lX c #8A85A7",
"zX c #838CB5",
"xX c #96A3BA",
/* pixels */
"L.'.qX'.,XJ.4.~.(.|.eXJ.L.E.U.I.E.'.qX0XwX1X4X~.z.;.>.<.W >.L.U.|.2XL.1.z.k.~.U.E.0XeXJ.tXrX1XrXL.'.eX'._.G.4.~.(.|.eXG.E.L.T.I.",
"E.~.tXiX[.yX'.3XwX,XF.<.>.2.G.wX].T.T.U.E.H.'.0XU.T.E.L.0X'.eX'.E.E.L.G.E.U.E.U.'._.,XD.U.P.y.G.E.~.tXiX}.eX'.3XwX,XH.>.=.3.G.wX",
"'.3XfXF.U.$X`.].y.L.E.Y.I.L.~.Y.&X3XeX XtX].OXR.P.U.U.D.1X3XQ.b.E 1.P.U.E.F.G.U.;X:.>.c.F.*X'.U.`.3XdXF.U.#X`.2Xy.L.L.Y.I.J.E.Y.",
"<XwXQ.<._.;.`.E.N.H.'.1X0X2X0X!.L.<XD.-.Y E ^ Q ~.L.E._.1XeX~.F.%X6XpXqXY.U.Q.9X>X:.=.<.6.!.}.qX2X7XQ.z.`.>.`.E.N.H.'.1X0X3X0X/.",
"'.>.5.<.J.1.`.G.o.4.L.1X2XL.F.:.1.N.~.wXyX0XtXqX2XE.dX2X_.1X,X3XyX|.).T.~.3XfX+Xy.T.L.&X1X2XE._.'.>.5.<.J.1.`.G.o.4.L.3X4XL.F.:.",
"~.-.G.a.G.%XD.4X0X8X8X2X~.k.z.-.y.Y.`.|.qX'.L.T.T.t.U.L.l.l.c.c.I.2XqX1XG.t.E.Q.).tX2X,X0XjXE._.~.-.G.a.G.%XD.2X0X8X8XqX~.k.z.-.",
"0X1XjXrX|.eXQ.gXqXdXA.qX].I.I.1X|.jXH.1.! ^ ! z.E.E.$X>Xx.z.s.s.,.K.,X,X=Xv.&XG.qX0X{./.l.H._.3X0X1XjXrX|.rXJ.gX2XdXA.2X].I.I.^.",
"qXE.G.U.J.].qXJ.G.&X2.L.~.0X;X1X&XG.>.z.z.>.1.L.Q.jX'.2X1X0X2X`.0X0XQ.'.kX[.jXL.G.t.,XqXP.fX|.E.qXE.G.U.J.2XjXJ.G.~.2.L.L.rX:X1X",
">.0.E L.R.I.K.3X|.[._.,X1XrX0X|.'.`.G.U.P.U.<X2X_.T.E.E._.E.1X1X0XrXL.1.K.J.Y.U.=.n.! 0X|.].L.E.>.<.E G.R.P.L.3X|.'.,X,X3XrX}.tX",
"O.-.^ 8.L.-.w.L.3X,XG.*X&XK.v.;.).1X6XtXtX7X0X).@X9.=.>.! 1.1.S.].1X,XgX`.,.1.L.z.W x.qXhXjX!.-.-.:.! ;.~.-.q.J.3X~.G.E.L.K.w.;.",
"1XQ.1.=.L.1.<.J.1X;X4.4.,.>.>.E J.:XwXOXOX0X:XJ.f.k.0.E %.G.L.'.`.E.T.H.1X0XrX1X0X^.wX-X:X3XqX1X;XQ.1.E L.:.0.J.1X^.,.4.,.>.>.E ",
"'.2X_.(.`.H.K.jXhX^.o.>.! >.x.-X_.fX2XL.S._.qXqX<XE.).'.7XaX'.A.E =.0.^ s.l.^.wXqXeX(.:.B.E.'.qX].qX'.`.).H.K.jXhX'.=.>.! W x.;X",
"eX-X2X).eX5X].(.P.4X&X%.>.=XL.D.|.}.eXwX0X1XrXtXqX0X0X1X2XT.L.9.x.<.=._._.}.0X'.R ~.).U.`.R.'.:XeX-X2X).eX,X2XT.P.gX&X;.:.=XL.U.",
",.s.!.oX=X1X`.K.D.E.,XL.'.fX`.,XK.;.x.Q.Q.x.E 6.W !.].`.E.J.yX}.0XwX1XqX].eX,X4.1.H.E.<X`.T.<XJ.,.s.!.].=X1X'.K.J.E.*XJ._.qX_.`.",
">.Q x._.2XeXS.:.E.E.2X'. X|.0X3XW.;.=.,.<.! ;.D.^.1X0XyX|.Q.L.$X'.(.T.L.1X).oXJ.2X1X:X-X<.=.F.W.;.Q x._.1XjXS.:.E.E.2X_.tX}.0X1X",
"T.1.! R ~.L.`.].Y.P.E.L.~.,.L.E. X^.3X1X1X0X0XrX].hX2XK.,.>.<.l.E ;.=.E.'.3X;X_.(.x.,.>.x.Q 1.I.(.1.^ I ~.L.`.].Y.P.E.L.~.4.L.L.",
"E.-.K.-.;.>.`.1X_.;.-.E ! >.1.L.'.`.`.3X~.I.E.7X2XE.y.u.a - v b n v c f w oX2X1XqX~.4.>.;.>.-.&X`.-.%X=.;.:.[.2XE.1.=.E ! >.1.L.",
"2XL.E.L.:.%X~.hX*XJ.s.x.J.L.<X0X3XeXQ.3X=XwX3XrX1X'.x y  .@.} g.X.X.X.#.@.g u eX'.~.2XL.;X~.T.T.3XE.E.E.:.B.~.hXE.J.s.x.J.L.2X0X",
"3X`.J.E.T.1X1X^.0X2XD.).wXuXhXF.L.W s.x.E.}.'.3Xu x S | J L | v L k | K L J J e i ,.~.1X^.xX3XxX2X_.J.E.J.2X;X~.0X2XG.).uXuXhXG.",
"1X2X2X'.lX'.-Xx.'.'.hX1X].J.>.>.=.M.k.| =X,.4.f x Z V l L v H v j H v v L A b ) A y I.oXjX2X'.J.1X2X2X_.lX'.-XM.'.'.eX].).J.;.>.",
"! _.2X`.J.:.<.W >.1.~.3XqX_.<.z.,.>.;.x.S.Y.X V h c A v H k b c c S k k v V x V i ) + 4X~.>.<.n.<.'.].`.J.>.n.o.>.1./.1XeX_.<.z.",
">.Q.1X'.J.1.x.>.Q 0.-.L.wX6XJ.:.<.L.J.wX:X  , p 3 1 : : N s 1 1 t r f h c w r a s $ 2 + D.6.R W >.!.2X'.J.6.0.>.Q ^ 9.T.wX6XJ.-.",
"'.;X3XL.1XL.K.x.;.4.~ <.P.`.qX0X'.,XH.3XdX  * 3 1 r p r a w p f d 1 1 % 1 1 p - 1 3 2   L.:.m.<.'.;X1X~.,XL.!.x.;.4.~ 1.U.`.qX0X",
"].1X).`.,X3X2XQ.`.H.W._.1X2X^.eXdXrX^.dXX y p 2 3 $ 2 2 * 1 a $ > 1 2 * 2 3 $ p 1 2 = 1 + 3X^.wX2X'.`.`.=X3X2X(.(.L.E._.1XqX^.0X",
"L.;.>.1.K.wXwX|.0X].2X'.H.,.`.E.rX1X7XyXX = r > - r 1 a 1 1 1 : 1 1 1 1 1 1 1 1 a - a > X t.`.2XL.;.>.,.K.wX7X|.qX2X4X'.J.4.`.J.",
"D.L.<.1.,.=.'.].rX7X~.Y 9.K.F.U.-.E.].,Xo 2 2 p p 1 p 1 1 1 1 1 r 1 1 - 1 1 - 1 1 d $ 1 X *.L.~.D.=X<.<.>.-._.]. X7X~.Y ;.%X#XU.",
"`.H.~.R ;.E.S.,X<XD.Y.T.,XQ.;.K.&XL.I.+ & $ $ a p p 1 1 1 2 1 1 1 2 - 2 1 1 1 1 , $ m * - X G.L.`.K.~.=.;.E.B.`.<XS.Y.T.,XL.>.>X",
"R hX1X3X4X,X`.>.~ v.L.XXR.fXfXG.G.<.;.  m p 3 r 1 1 - 1 1 1 1 1 1 1 1 1 1 1 1 1 p $ * a 2 X 2.4.>.2X1X2XqX,X`.;.~ v.L.R.A.dXfXG.",
"1./.kX1X,X).6.R s.=.;.~.~.=X`.J.-.m.Y   t % , 2 p 1 1 1 1 1 1 p p p 1 1 1 1 1 1 $ m - - 2 X D.&X1.^.kX1X=X).6.E ! >.;.L.~.;X`.L.",
"yXeX;X;X1X=XJ.~.E.L.`.1XwX9Xx.,.s.,.+ 1 : y # m 1 1 2 - 1 1 p p u p p 1 1 1 1 p > 1 p 1 1 > + *XeXhX;X;X,X=XJ.^.E.L.`.1XwX0Xx.,.",
").~.~.1X,XD.~.].}.0X`._.'.`.r.U.! t.. 3 > 1 a * p 1 1 2 - p f g x g s p 1 1 1 p 1 a - 1 1 2 X dX`.~.Q.1X`.D.~.].}.wX`.'.'.W.S.u.",
"W.G.G.R.I.T.`.2X,XE.%.1.R E '.D.~.  , 1 < 2 f > - 1 1 1 1 p g A Z V g s 1 1 1 1 1 - p - d $ p X E.G.G.R.XXE.E.1X`.E.%.>.=.E ,XL.",
"T.U.P.G.F.U.W.L.G.'.x.E E >.1.U.X  .r - 1 p - : 2 3 p y u x Z v x A Z v f f r 1 1 1 - - p s w } . E.G.T.%XU.W./.R.L.( E 1.z.s.F.",
"o.v.! c./.1.E T.E.y.L.! ).$X~.  ..f s : 1 1 1 1 - a g g V V Z Z Z Z v v v c j p 1 1 3 a - p : h +.  ,.;.D.4.E D.W.W.J.b.Q.D.`.kX",
"L.&XG.u.y.E.jXqXH.yXgX XrX].X g.x w p 1 2 1 * 2 y g c C Z v v v Z B k v Z A b p p : 1 1 * 3 1 p Z #.o =XH.`.1X4XF.0XrX'.fX1X7X].",
"2XwX].eXwX'.XXG.1.G.N.<X2XX ) h j s 1 2 $ 3 d - f x v Z v v v B V Z Z v Z Z V x V p - 1 * 1 1 - t F } . |.,XW.J.<.E.W.;X7XyX2X'.",
"<.L.T.F.U.`.V.>.3.N.*X4.  V p - - 1 2 * a : y A Z Z v v v l Z Z x v Z v v v v v v b f p a - $ - y 1 & A   <XL.1.>.E.I.w.! /.2X,X",
"I.E.G.T.`.G.t.*XR.uXhX  i p ; r - d * 3 - p Z k Z Z v A v Z Z Z A Z v v v A v v v L x r p - a d , - p 3 ;   /.T.U.wX0XS.:.;./.2X",
"~.m.~.).J.0XkX}.G.*X  a 4 < : o + & * 2 1 f x Z Z V v v Z l A L K J Z Z v Z H b Z Z x y 1 1 d $ X X - * 2 j . jX`.S._.tX2Xt.`.0X",
"! -.1.;.K.gXJ.(.,.;.X ; w o   >.&.@ $ - - s g Z x Z b Z Z V J I I I K Z v V Z Z B V h s > 1 ,   ,.&.o X 3 , + t.,./ <.T.].yX!.:.",
"L.G.T.'.9X2XT.l.U.L.*XX X U.-.( >.  < : u * m G Z v Z Z k L J B P B I B v x k Z Z c h 1 : : 3   *XF.D.E.X   Y.>.E.L.0XtX|._.>.! ",
"|.jXoX|.3XL.U.G.3X_.].~.;.E ! b.<.  < b % = a H b A b x L S P H S B P +.A A A V G x h $ p p $   fX).jXqX2XU.W.!.=X).0XH.>./ >.,.",
"'.0X1X~.L.1.>.$X(.qXqX,.<.! k.l.1.  5 r s 2 r H v b u x x V I J P J I k C g u C H b w p d 1 2   Q. X0X~._.,.R !.E.1XoX,.<.;.! l.",
"F.1XeX*.G.>.s.,.T.D._.E.~.`.aX7XeX@ & & a * g B x x u ) x V | K S P +.z A C e A n k ) $ * 1 -   `.1XwX%.S.1.n.&.L.D.,X`.E.3XeX6X",
"2X XC.<XY./.>.E.G.E.&XS.E.gXE.2X;X<XX d % 1 g V v Z u Z x B K I I K K L k C g k Z A w p , * + <X<XI.,XG.W.;X>.`.&X,XH.D.E.,X_.yX",
"F.J.1XJ.].eX0XqXE.:.! >.,.`.Q.'.n.%XX & p * - p x A g & C Z Z K I K G Z C & A x x f 1 1 2 1 X ~.F.E.2XJ.qXiX0X'.P.q.=.0.4.W.~.J.",
":.&.*X1X0XqX0X}.Z.L.! m.~.J.L.-.=.-.7.o , d 1 2 y c ) p p C V Z l L Z x c y ) x 1 $ p 2 # o 3.>.! q.H.eX6X'.jX;XI.J.^ <.H.E.Z.6.",
"c.=.'.tX7XT.Y.L.*XT.T.T.<XG.*XG.~.`.e._   o & p 1 - * 1 X : g V Z x V g X p 1 : 2 1 ,     ` P z.s.Y W.2X0XE.I.&XE.D.T.'.,X_.*XD.",
"L.,XrX`._.D.6.~.(.|.eXJ.E.L.T.I.J.lX#.j.@.+.X .   V > 1 *   m : , 1 r X 2 , 2 - o O   ` g.j.@. X~.1XqX].`.L.4.~.(.|.eXL.G.E.E.I.",
"*XQ.kXiX}.eX'.3XwX,XF.>.=.3.G.wX%XU.e.` ` [ 8 6 M O     X   .                 o 0 5 M { ` ' $.y.E.Q.iXrX}.eX'.3XwX,XH.>.>.2.G.3X",
"'.3X<XF.U.#XW.2Xy.L.L.Y.I.J.E.Y.4X,X}.T.+. ._ 8 9 6 0 7 5 $...) J S ` ] 8 9 9 0 7 7 D D ` $.E.$X'.3XdXF.U.F.`.2Xy.D.E.Y.I.L.~.Y.",
"2XwXQ.z.`.>.`.E.N.H.'.1X0X3X0X/.H.E.`.&.>.P | } i.i.7 6 @.X.` ..`  .f.#.] 6 0 p.p.F U K *.u.tX.X2X3XQ.z._.;.`.E.N.H.,X0X0X2X0X!.",
"_.>.5.<.J.1.`.L.o.4.L.1X4XG.K.:.v.Q.E.'.wXrX XrXpX=XR.@._ h.@.O.h.} ' { _ @.R.G.U.y.%XE.kX8X=X).'.>.5.>.J.>.`.G.o.4.L.1X4XG.K.:.",
"~.-.G.a.r.%XD.4X0X8X8XqXQ.k.x.-.r.L.G.kXE.aX#Xr.U.G.Z.Y.c.<.9.T P.lX2X~.Q.`.T.W.U.rXlX:X|.<Xr.:XQ.-.D.@XG.%XD.2X0X8X8X2XQ.k.z.-.",
"0X1XjXrX|.tXJ.4X0XdXI.qX].P.U.^.zX|.~.x.<.>.,.<.y.U.XXT.;.! +.l.l.[.OXqX1X6.r.L.9XlX=XT.n.[.~.5X3X1XjXeXqXrXJ.4X0XdXA.qX].I.I.;X",
"qXE.G.U.J.2XhXJ.G.L.2.L.E.rX:X1XP.r.1.E d.<.1.L.E.rXwX0XrX,XiX9X9X,XU.E.>X9XyXA.~.F.(.wXG.<X|.).qXE.G.T.T.2XjXJ.L.L.2.L.L.wX0X1X",
"<.<.E G.R.P.L.3X X_.,X1X1XrX1XtX'.E.I.U.I.L.2X2X`.T.W.T.`.T.3X1XwXrX~.1.K.D.Y.P.>.n.~ 0X].2XL.`.>.<.;.F.R.P.L.3XqX(.,X,X3XrX|.qX",
"-.-.^ ;.L.-.q.J.3X=XG.E.L.K.6.;.].^.6XtXtX7X0X).@X8.;.>.! 1.1.S.].3X,XgX'.6.1.G.x.W x.tXhXhXH.:.-.:.^ E L.-.q.J.3X,XG.E.L.K.w.>.",
";X[.,.E L.1.0.J.1X1X-.4.1.>.<.! L.:XwXOXOX0X:XJ.f.>.0.E %.G.J.'.`.`.L.H.1X0XrX1X0X^.wX-X:X3XqX1X;XQ.,.=.L.1.0.J.1X^.4.1.,.>.<.E ",
"'.2X'.`.).K.K.jXhX[.=.>.! W ,.;X`.2X2XL.S._.qXqX<XT.(.'.7XaX'.(.E =.0.E s.l.^.wXqXhX_.:.B._.).rX].qX'.`.).K.K.jXhX^.o.>.! W x.;X",
"eX;X2X`.eX3X].T.P.gX&X=.>.=XL.D.|.}.eXeX1X1XtXtXtX0X0X].].T.G.9.x.E -.'.[.0X1X'.E ~.R.T.`.T.`.:XeX-X2X).eX3X].T.P.gX&X;.>.=XL.G.",
",.s.!.].~.3X`.K.J.E.*XL._.jX_.`.K.;.x.Q.Q.x.E 1.! !.<X`.E.~.yX}.0X0X1X2X1XeX1X4.q.H.T.<X`.E.<XJ.,.s.!.].~.3X`.K.J.E.*XJ.`.qX_.W.",
">.Q x._.1XeXS.:.E.E.2X_.tX}.0X2XY.:.=.,.<.! ;.D.^.1X0XtX|.J.L.#X'.T.T.~.3X].oXJ.2X3X1X-Xq.=.F.R.;.Q 1.'.1XeXS.:.E.E.2X_.tX|.0X2X",
"(.:.! R ~.L.`.].Y.P.E.L.~.4.L.L.rX^.0X1X1X0X0XiX].hX3XK.,.>.<.l.E ;.=.T._.2X=X_.Q.l.1.>.<.Q q.T.(.1.^ I ~.L.`.].Y.P.E.L.~.1.L.L."
};
