/* XPM */
static char * Exit_xpm[] = {
"64 64 135 2",
"  	c #000000",
". 	c #33323D",
"+ 	c #FFFFFF",
"@ 	c #E9E9E9",
"# 	c #BEBEBE",
"$ 	c #808080",
"% 	c #585858",
"& 	c #000000",
"* 	c #000000",
"= 	c #4686BA",
"- 	c #71BCDA",
"; 	c #92E5EF",
"> 	c #A4335E",
", 	c #DD5066",
"' 	c #E88980",
") 	c #5474AE",
"! 	c #7DC3D9",
"~ 	c #B6FBF9",
"{ 	c #CA67A1",
"] 	c #F391B7",
"^ 	c #FFFFFF",
"/ 	c #5D4797",
"( 	c #885FB9",
"_ 	c #B584D4",
": 	c #AD56B0",
"< 	c #D981BD",
"[ 	c #EBA5C5",
"} 	c #AB5C3F",
"| 	c #CB9050",
"1 	c #EED878",
"2 	c #F7F2B6",
"3 	c #722F37",
"4 	c #8E4838",
"5 	c #C97336",
"6 	c #DEA65F",
"7 	c #000000",
"8 	c #C89A64",
"9 	c #F2C66E",
"0 	c #F7F79B",
"a 	c #BB3C51",
"b 	c #D66953",
"c 	c #DD916E",
"d 	c #000000",
"e 	c #D4897C",
"f 	c #EEBC9E",
"g 	c #34535B",
"h 	c #3B797B",
"i 	c #49AE78",
"j 	c #29797B",
"k 	c #3AAE70",
"l 	c #78D37D",
"m 	c #328052",
"n 	c #61B95B",
"o 	c #B4E189",
"p 	c #41726B",
"q 	c #48967F",
"r 	c #61C28E",
"s 	c #3C534B",
"t 	c #486E5B",
"u 	c #5D9A6D",
"v 	c #000000",
"w 	c #000000",
"x 	c #000000",
"y 	c #385C97",
"z 	c #5394C2",
"A 	c #486E5B",
"B 	c #3C534B",
"C 	c #486E5B",
"D 	c #5D9A6D",
"E 	c #3D6ABD",
"F 	c #4E92CB",
"G 	c #71BCDA",
"H 	c #695689",
"I 	c #94A2BD",
"J 	c #BBD2DC",
"K 	c #525078",
"L 	c #7683A3",
"M 	c #A0B8CF",
"N 	c #B7D2DF",
"O 	c #DBECF3",
"P 	c #000000",
"Q 	c #634260",
"R 	c #745973",
"S 	c #877E8A",
"T 	c #76394E",
"U 	c #8E4F52",
"V 	c #9F7966",
"W 	c #000000",
"X 	c #000000",
"Y 	c #000000",
"Z 	c #8F6071",
"` 	c #B57E83",
" .	c #CCA09B",
"..	c #E7CAC1",
"+.	c #000000",
"@.	c #000000",
"#.	c #000000",
"$.	c #000000",
"%.	c #000000",
"&.	c #000000",
"*.	c #000000",
"=.	c #000000",
"-.	c #000000",
";.	c #000000",
">.	c #000000",
",.	c #000000",
"'.	c #000000",
").	c #000000",
"!.	c #8680A1",
"~.	c #C1CAD2",
"{.	c #7CB985",
"].	c #C46A48",
"^.	c #E4A25A",
"/.	c #FFE781",
"(.	c #000000",
"_.	c #000000",
":.	c #000000",
"<.	c #34405A",
"[.	c #3A5167",
"}.	c #436A7C",
"|.	c #000000",
"1.	c #000000",
"2.	c #000000",
"3.	c #000000",
"4.	c #000000",
"5.	c #000000",
"6.	c #83685F",
"7.	c #B1A18D",
"8.	c #D5D4B4",
"9.	c #727989",
"0.	c #A9B4B9",
"a.	c #E2EAEB",
"b.	c #5E4D47",
"c.	c #7A6857",
"d.	c #9F907A",
"9.L L L 9.9.}.9.9.L L 9.9.9.9.9.9.L L L L L L 9.}.}.}.}.}.}.9.9.L L 9.}.}.}.9.9.9.L L 9.L L L L 9.L L L 9.9.}.9.9.L L 9.9.9.9.9.",
"9.9.L L L L L L L L 9.}.}.}.9.L 9.9.9.9.9.9.L L 9.9.9.9.9.L L L 9.9.9.9.9.9.9.9.9.L 9.9.9.9.9.9.9.9.L L L L L L L L 9.}.}.}.9.L ",
"L L L 9.9.9.9.L 9.9.9.9.9.9.9.9.L L L L L 9.L 9.9.9.9.9.L L 9.}.}.}.9.9.9.9.9.9.L }.}.}.9.9.9.9.L L L 9.9.9.9.L 9.9.9.9.9.9.9.9.",
"L L 9.}.9.}.L 9.}.9.9.L L L L 9.9.9.9.}.}.}.}.}.9.9.9.9.L L 9.9.9.L L L 9.9.9.L 9.}.}.}.}.9.L L L L 9.}.9.}.L 9.}.9.9.L L L L 9.",
"9.}.}.}.9.}.9.9.}.}.9.L L 9.9.}.}.9.9.L L L L L L 9.L L 9.L L L L L 9.9.9.L L L 9.9.9.9.L L 9.9.9.}.}.}.9.}.9.9.}.}.9.L L 9.9.}.",
"9.}.9.9.9.9.9.L L L L L 9.}.}.}.9.9.9.L L L 9.9.9.9.9.9.}.}.}.}.9.L L 9.9.9.9.9.9.L L L L L 9.L 9.}.9.9.9.9.9.L L L L L 9.}.}.}.",
"L L L L L L 9.L L L 9.L L 9.9.9.L L 9.}.}.}.}.}.9.9.9.9.}.}.}.}.}.9.L L L }.9.9.L L L 9.}.9.9.L L L L L L L 9.L L L 9.L L 9.9.9.",
"L 9.9.9.9.L L 9.9.9.}.9.9.L L L 9.9.}.}.}.}.}.9.9.L L L L L L L L L 9.9.L L L 9.9.9.9.L 9.L L 9.L 9.9.9.9.L L 9.9.9.}.9.9.L L L ",
"}.}.}.9.9.9.9.L L 9.9.L L L L L L 9.9.9.9.9.L L 9.9.9.9.9.9.L L L L 9.}.9.9.9.9.}.}.}.L L L 9.9.}.}.}.9.9.9.9.L L 9.9.L L L L L ",
"}.}.}.}.9.}.}.9.L L 9.9.9.9.}.}.9.L L L L L L 9.9.}.}.}.}.}.}.9.L L L L 9.}.}.9.}.}.}.L L L 9.}.}.}.}.}.9.}.}.9.L L 9.9.9.9.}.}.",
"9.9.}.}.9.}.}.9.L 9.}.}.}.}.}.}.9.L L L L L L 9.}.}.}.}.}.9.9.9.9.9.9.9.L L L L L L L L L L L L 9.9.}.}.9.}.}.9.L 9.}.}.}.}.}.}.",
"L L 9.9.9.9.9.L L 9.}.}.}.}.}.9.9.L L 9.9.9.L L L 9.9.9.L L L 9.}.}.}.}.}.}.9.L L L 9.}.9.9.9.L L L 9.9.9.9.9.L L 9.}.}.}.}.}.9.",
"L L L L L L L 9.9.L 9.}.}.9.9.9.L L L L L L L L L L L L L 9.9.}.}.}.}.9.9.L L L }.9.9.9.9.9.L L L L L L L L L 9.9.L 9.}.}.9.9.9.",
"}.}.9.9.L L 9.9.9.9.9.9.9.L L 9.9.}.}.9.9.}.}.}.}.9.L 9.9.9.L L L L L L L L L }.}.9.9.L L 9.9.9.}.}.9.9.L L 9.9.9.9.9.9.9.L L 9.",
"}.}.}.9.L L 9.}.9.9.L L L L L L 9.}.}.}.}.}.}.9.9.L L L L 9.9.9.9.9.9.9.L L 9.9.L L L 9.}.}.9.9.}.}.}.9.L L 9.}.9.9.L L L L L L ",
"9.}.}.}.9.9.9.L 9.9.9.9.9.}.9.9.L 9.L L L L L L L L L 9.}.}.}.}.}.}.}.9.9.L L 9.9.}.}.}.}.}.}.9.9.}.}.}.9.9.9.L 9.9.9.9.9.}.9.9.",
"9.}.9.}.}.}.9.L 9.}.}.}.}.}.}.9.9.L 9.L 9.9.9.L L 9.9.9.9.9.9.9.9.9.9.9.L L L L L 9.}.}.}.}.}.9.9.}.9.}.}.}.9.L 9.}.}.}.}.}.}.9.",
"L 9.9.9.}.9.9.L 9.9.}.}.9.9.L L L }.L 9.9.L L 9.9.9.9.9.}.9.9.9.L L L L 9.9.L L }.}.9.L L 9.}.9.L 9.9.9.}.9.9.L 9.9.}.}.9.9.L L ",
"L 9.9.9.9.9.L L L L 9.9.L L L 9.9.9.9.L L L }.}.9.L 9.9.9.9.9.}.}.}.}.L L 9.9.9.L L L 9.9.9.9.I L 9.9.9.9.9.L L L L 9.9.L L L 9.",
"L L L L L L L }.9.L L L L 9.}.}.}.L L 9.9.9.L L L 9.}.}.9.9.L L L 9.9.L L L L 9.9.L 9.L L L L 9.L L L L L L L }.9.L L L L 9.}.}.",
"}.9.L 9.9.}.}.}.}.}.9.L L 9.}.}.}.}.9.L L L L L L L 9.9.L 9.9.9.9.L L L }.}.9.}.}.L L 9.9.}.}.}.}.9.L 9.9.}.}.}.}.}.9.L L 9.}.}.",
"}.9.L 9.9.}.}.}.}.}.}.9.L L 9.}.}.9.}.L }.}.}.}.9.L L L L L L 9.L L L L I !.L L L L L L 9.9.}.}.}.9.L 9.9.}.}.}.}.}.}.9.L L 9.}.",
"9.L L 9.L 9.9.}.}.}.}.}.9.9.L L L 9.L L 9.}.}.}.L L L L I M M L I M M M M !.L L 9.9.9.9.L L 9.}.9.L L 9.L 9.9.}.}.}.}.}.9.9.L L ",
"L L 9.9.L L L 9.9.9.9.9.L L L L L L }.9.9.9.L I L L L L 0.I L L I M I I 0.M L L 9.L L 9.}.}.9.L L L 9.9.L L L 9.9.9.9.9.L L L L ",
"9.}.}.}.9.L L L L L L 9.9.}.9.9.L L L 9.9.L L I L 9.L I I }.L M M 9.}.L L L I L 9.}.}.9.9.}.}.L 9.}.}.}.9.L L L L L L 9.9.}.9.9.",
"9.9.}.}.}.}.9.L L L 9.}.}.9.9.9.}.}.9.L }.9.L I L 9.L I 9.}.L M 9.g }.}.L L I I L L }.}.9.9.}.9.9.9.}.}.}.}.9.L L L 9.}.}.9.9.9.",
"9.9.9.}.}.9.9.9.9.9.9.9.9.9.}.9.9.9.L L L L L I !.}.L I }.9.M L <.}.I I I L M M I 0.I L L 9.9.9.9.9.9.}.}.9.9.9.9.9.9.9.9.9.}.9.",
"}.L L 9.L L 9.}.}.}.9.9.9.L L 9.9.9.9.9.L I I I L [.9.M K 9.M }.}.I L }.}.}.9.I I 0.I L 9.L L }.}.L L 9.L L 9.}.}.}.9.9.9.L L 9.",
"}.L L L L 9.}.}.}.}.}.9.9.L 9.9.}.9.}.9.L I I I !.[.}.I }.9.I K !.S [.[.}.}.}.9.I M I }.}.9.9.9.}.L L L L 9.}.}.}.}.}.9.9.L 9.9.",
"L L L 9.L 9.9.9.9.9.L L L L }.}.}.L L L L I I I I I }.9.I 9.M 9.I 9.L I I I I L 9.I I L L 9.9.L L L L 9.L 9.9.9.9.9.L L L L }.}.",
"L 9.9.L 9.9.9.L L L 9.9.9.9.9.9.}.9.L I I 0.I }.9.M I }.I I 0.L I I I 9.}.}.L I I }.I L L }.}.L L 9.9.L 9.9.9.L L L 9.9.9.9.9.9.",
"9.9.9.9.9.9.9.L 9.9.}.}.}.}.9.9.9.}.L I M I I }.[.[.9.!.I I # 0.M I L I L 9.[.}.I I M L L 9.}.L 9.9.9.9.9.9.9.L 9.9.}.}.}.}.9.9.",
"9.9.9.9.9.9.9.9.9.9.}.}.}.}.}.9.9.L L L I I I !.L }.[.}.9.I ~.~.~.I L 9.9.I !.}.}.M M L L L L 9.9.9.9.9.9.9.9.9.9.9.}.}.}.}.}.9.",
"}.}.}.}.9.}.}.9.9.9.9.}.9.9.9.L L L L L L I L 9.I M I I I I I J ~.I M L g [.L I L I M I I L 9.}.}.}.}.}.9.}.}.9.9.9.9.}.9.9.9.L ",
"9.9.9.9.9.9.L L 9.L L L L L L L 9.9.L L L !.9.}.[.[.[.[.}.L 0.M M L 9.I 0.}.[.L M L M I L 9.9.9.9.9.9.9.9.9.L L 9.L L L L L L L ",
"L L L L L L 9.9.}.9.9.L L L L 9.9.9.9.9.9.I I L }.[.[.}.L I 9.I }.M }.9.M M [.}.L I I L 9.9.9.L L L L L L L 9.9.}.9.9.L L L L 9.",
"}.9.9.9.9.9.9.}.}.9.9.}.}.9.L L 9.L L L L I I !.L L L 9.}.[.L 9.[.I }.[.L N 9.}.}.I I L L 9.9.}.}.9.9.9.9.9.9.}.}.9.9.}.}.9.L L ",
"9.9.9.9.9.9.9.9.9.L L 9.}.}.9.L L 9.9.9.L L L L }.[.[.<.<.}.I [.[.L 9.<.}.I I }.}.I I L 9.L L 9.9.9.9.9.9.9.9.9.9.L L 9.}.}.9.L ",
"9.}.9.9.9.L L L 9.9.9.L L 9.9.L L 9.9.9.L L L L 9.}.[.[.9.L [.<.}.I }.g }.9.I 9.L I L }.9.9.9.9.9.}.9.9.9.L L L 9.9.9.L L 9.9.L ",
"}.}.}.}.9.L 9.9.}.}.}.9.L L 9.}.}.9.L 9.9.L I I I L 9.9.}.g <.}.I L [.}.}.I M I I L L L 9.}.}.9.}.}.}.}.9.L 9.9.}.}.}.9.L L 9.}.",
"9.9.9.9.L L 9.}.9.9.L L L 9.}.}.}.L 9.9.9.L I I M I L }.[.[.}.I I }.}.}.L ~.I I M L 9.9.9.9.9.9.9.9.9.9.L L 9.}.9.9.L L L 9.}.}.",
"L L L L L 9.9.9.L 9.L 9.}.}.}.}.}.9.}.9.9.9.9.L I I I L L L I L 9.9.L I M M I L L L 9.9.9.L L 9.L L L L L 9.9.9.L 9.L 9.}.}.}.}.",
"9.L L 9.9.}.}.9.9.L L }.}.}.}.}.}.}.}.9.9.9.L L I I I M M M I I L L I I L I I I L 9.9.L 9.L 9.}.9.L L 9.9.}.}.9.9.L L }.}.}.}.}.",
"9.L L }.9.}.}.}.9.9.9.9.9.L L L L L L 9.}.}.}.9.9.9.9.L L I L L !.I I L 9.L L L L 9.9.9.9.9.L 9.9.L L }.9.}.}.}.9.9.9.9.9.L L L ",
"L 9.9.9.9.9.}.9.9.9.9.9.9.L L L L 9.9.9.9.9.9.9.9.9.9.9.L 9.}.9.9.!.I !.L 9.9.9.L 9.9.9.}.}.L L L 9.9.9.9.9.}.9.9.9.9.9.9.L L L ",
"9.9.L 9.L L L L 9.}.}.}.}.9.9.9.}.L 9.L L 9.9.9.9.9.9.9.L 9.9.}.}.9.L L }.}.9.9.L 9.9.L L 9.L 9.9.9.L 9.L L L L 9.}.}.}.}.9.9.9.",
"}.}.9.L L L L L 9.9.}.}.9.9.9.}.}.}.L 9.9.9.9.9.L L 9.9.9.9.9.L L 9.}.}.9.}.9.L }.}.9.9.9.L 9.}.}.}.9.L L L L L 9.9.}.}.9.9.9.}.",
"}.}.9.L L 9.9.9.9.9.9.9.L 9.9.9.9.9.9.9.9.L L 9.}.}.}.}.}.9.9.L I L L L 9.9.}.}.9.L 9.9.9.9.}.}.}.}.9.L L 9.9.9.9.9.9.9.L 9.9.9.",
"9.L L L 9.9.}.9.9.L L 9.9.9.9.9.9.L L L L L L 9.}.}.}.}.}.}.9.9.L L 9.}.}.}.9.9.9.L L 9.L L L L 9.L L L 9.9.}.9.9.L L 9.9.9.9.9.",
"9.9.L L L L L L L L 9.}.}.}.9.L 9.9.9.9.9.9.L L 9.9.9.9.9.L L L 9.9.9.9.9.9.9.9.9.L 9.9.9.9.9.9.9.9.L L L L L L L L 9.}.}.}.9.L ",
"L L L 9.9.9.9.L 9.9.9.9.9.9.9.9.L L L L L 9.L 9.9.9.9.9.L L 9.}.}.}.9.9.9.9.9.9.L }.}.}.9.9.9.9.L L L 9.9.9.9.L 9.9.9.9.9.9.9.9.",
"L L 9.}.9.}.L 9.}.9.9.L L L L 9.9.9.9.}.}.}.}.}.9.9.9.9.L L 9.9.9.L L L 9.9.9.L 9.}.}.}.}.9.L L L L 9.}.9.}.L 9.}.9.9.L L L L 9.",
"9.}.}.}.9.}.9.9.}.}.9.L L 9.9.}.}.9.9.L L L L L L 9.L L 9.L L L L L 9.9.9.L L L 9.9.9.9.L L 9.9.9.}.}.}.9.}.9.9.}.}.9.L L 9.9.}.",
"9.}.9.9.9.9.9.L L L L L 9.}.}.}.9.9.9.L L L 9.9.9.9.9.9.}.}.}.}.9.L L 9.9.9.9.9.9.L L L L L 9.L 9.}.9.9.9.9.9.L L L L L 9.}.}.}.",
"L L L L L L 9.L L L 9.L L 9.9.9.L L 9.}.}.}.}.}.9.9.9.9.}.}.}.}.}.9.L L L }.9.9.L L L 9.}.9.9.L L L L L L L 9.L L L 9.L L 9.9.9.",
"L 9.9.9.9.L L 9.9.9.}.9.9.L L L 9.9.}.}.}.}.}.9.9.L L L L L L L L L 9.9.L L L 9.9.9.9.L 9.L L 9.L 9.9.9.9.L L 9.9.9.}.9.9.L L L ",
"}.}.}.9.9.9.9.L L 9.9.L L L L L L 9.9.9.9.9.L L 9.9.9.9.9.9.L L L L 9.}.9.9.9.9.}.}.}.L L L 9.9.}.}.}.9.9.9.9.L L 9.9.L L L L L ",
"}.}.}.}.9.}.}.9.L L 9.9.9.9.}.}.9.L L L L L L 9.9.}.}.}.}.}.}.9.L L L L 9.}.}.9.}.}.}.L L L 9.}.}.}.}.}.9.}.}.9.L L 9.9.9.9.}.}.",
"9.9.}.}.9.}.}.9.L 9.}.}.}.}.}.}.9.L L L L L L 9.}.}.}.}.}.9.9.9.9.9.9.9.L L L L L L L L L L L L 9.9.}.}.9.}.}.9.L 9.}.}.}.}.}.}.",
"L L 9.9.9.9.9.L L 9.}.}.}.}.}.9.9.L L 9.9.9.L L L 9.9.9.L L L 9.}.}.}.}.}.}.9.L L L 9.}.9.9.9.L L L 9.9.9.9.9.L L 9.}.}.}.}.}.9.",
"L L L L L L L 9.9.L 9.}.}.9.9.9.L L L L L L L L L L L L L 9.9.}.}.}.}.9.9.L L L }.9.9.9.9.9.L L L L L L L L L 9.9.L 9.}.}.9.9.9.",
"}.}.9.9.L L 9.9.9.9.9.9.9.L L 9.9.}.}.9.9.}.}.}.}.9.L 9.9.9.L L L L L L L L L }.}.9.9.L L 9.9.9.}.}.9.9.L L 9.9.9.9.9.9.9.L L 9.",
"}.}.}.9.L L 9.}.9.9.L L L L L L 9.}.}.}.}.}.}.9.9.L L L L 9.9.9.9.9.9.9.L L 9.9.L L L 9.}.}.9.9.}.}.}.9.L L 9.}.9.9.L L L L L L ",
"9.}.}.}.9.9.9.L 9.9.9.9.9.}.9.9.L 9.L L L L L L L L L 9.}.}.}.}.}.}.}.9.9.L L 9.9.}.}.}.}.}.}.9.9.}.}.}.9.9.9.L 9.9.9.9.9.}.9.9."};
