/* XPM */
static char *b93bee117f774913d021e542278fe95dBPAi7GQLPVcYkXtc[] = {
/* columns rows colors chars-per-pixel */
"64 64 250 2 ",
"   c #030104",
".  c #02020B",
"X  c #090206",
"o  c #000311",
"O  c #080613",
"+  c #2C2D3A",
"@  c #2B2B35",
"#  c #342C34",
"$  c #322E3A",
"%  c #3A2C3A",
"&  c #2C343B",
"*  c #2B3436",
"=  c #343335",
"-  c #34333C",
";  c #3A343A",
":  c #343A3D",
">  c #292E2D",
",  c #423334",
"<  c #722F35",
"1  c #2C2E40",
"2  c #2D3343",
"3  c #2C374A",
"4  c #343443",
"5  c #3A3542",
"6  c #343A44",
"7  c #3D3944",
"8  c #343B4D",
"9  c #38384B",
"0  c #2D3B55",
"q  c #2F3D58",
"w  c #333D54",
"e  c #333E5A",
"r  c #393C57",
"t  c #362D46",
"y  c #303D60",
"u  c #413846",
"i  c #463E57",
"p  c #6B3847",
"a  c #2A4657",
"s  c #344255",
"d  c #394055",
"f  c #34425C",
"g  c #3A435C",
"h  c #3A4C5B",
"j  c #2B575D",
"k  c #355557",
"l  c #344C4C",
"z  c #344561",
"x  c #3A4462",
"c  c #3B4B64",
"v  c #3D4F6A",
"b  c #374966",
"n  c #3B5568",
"m  c #374D6D",
"M  c #3D626D",
"N  c #3D6373",
"B  c #3C6A74",
"V  c #3E647B",
"C  c #326D79",
"Z  c #3D6C7B",
"A  c #346674",
"S  c #3C727C",
"D  c #36727C",
"F  c #35706E",
"G  c #55534C",
"H  c #43485A",
"J  c #485A57",
"K  c #565859",
"L  c #515056",
"P  c #645353",
"I  c #434C6B",
"U  c #4B4E6C",
"Y  c #464965",
"T  c #564B6B",
"R  c #43516B",
"E  c #4A5464",
"W  c #595666",
"Q  c #4C4D76",
"!  c #524E75",
"~  c #544D7A",
"^  c #574C7B",
"/  c #4C5374",
"(  c #425E74",
")  c #485776",
"_  c #535374",
"`  c #53537B",
"'  c #58577A",
"]  c #62587D",
"[  c #6D5770",
"{  c #45666C",
"}  c #446473",
"|  c #4A6474",
" . c #446B75",
".. c #4A6A76",
"X. c #44657A",
"o. c #4A657A",
"O. c #436A7B",
"+. c #4A6B7C",
"@. c #536575",
"#. c #52667A",
"$. c #516B7B",
"%. c #57647D",
"&. c #427176",
"*. c #42727C",
"=. c #4F7179",
"-. c #51707F",
";. c #5C7379",
":. c #50636D",
">. c #697C7D",
",. c #6B747C",
"<. c #72737B",
"1. c #75787C",
"2. c #646377",
"3. c #963F38",
"4. c #8B4A31",
"5. c #C96537",
"6. c #8F4643",
"7. c #A76543",
"8. c #C96951",
"9. c #5F837F",
"0. c #6B837D",
"q. c #F49968",
"w. c #DAAB58",
"e. c #EFDE6C",
"r. c #3C6984",
"t. c #3A7281",
"y. c #585782",
"u. c #4D5781",
"i. c #685886",
"p. c #715588",
"a. c #4B6481",
"s. c #446B82",
"d. c #4B6B82",
"f. c #476786",
"g. c #526C82",
"h. c #546887",
"j. c #487284",
"k. c #5C768B",
"l. c #587695",
"z. c #68688A",
"x. c #756B88",
"c. c #647485",
"v. c #6B7584",
"b. c #657B84",
"n. c #6C7B84",
"m. c #65758C",
"M. c #6C758B",
"N. c #647A8B",
"B. c #6C7B8C",
"V. c #737484",
"C. c #7A7684",
"Z. c #747A85",
"A. c #7B7A86",
"S. c #73768B",
"D. c #7C758B",
"F. c #737B8C",
"G. c #7B7A8D",
"H. c #7A6D94",
"J. c #6D7593",
"K. c #647C93",
"L. c #6C7C93",
"P. c #6D7C9A",
"I. c #657996",
"U. c #737592",
"Y. c #7B7694",
"T. c #747B93",
"R. c #7A7B93",
"E. c #747D9A",
"W. c #7B7D9A",
"Q. c #74749A",
"!. c #747DA2",
"~. c #7B7EA3",
"^. c #7C7DA9",
"/. c #6F7BA1",
"(. c #4865CB",
"). c #817A8B",
"_. c #827B9A",
"`. c #827CA4",
"'. c #887EA1",
"]. c #63818A",
"[. c #6C818D",
"{. c #698186",
"}. c #72818C",
"|. c #758186",
" X c #6D8294",
".X c #6C839B",
"XX c #6E899D",
"oX c #648497",
"OX c #748294",
"+X c #7C8296",
"@X c #73839C",
"#X c #7A839C",
"$X c #74899D",
"%X c #7C899D",
"&X c #728896",
"*X c #73939D",
"=X c #6C83A2",
"-X c #6B89AE",
";X c #6985A4",
":X c #7484A3",
">X c #7B84A3",
",X c #748AA4",
"<X c #7B8AA4",
"1X c #7584AA",
"2X c #7B84AB",
"3X c #7C8BAB",
"4X c #748DA9",
"5X c #7684B1",
"6X c #718CB2",
"7X c #5C8984",
"8X c #4F8FCA",
"9X c #7BB3D8",
"0X c #6EC2D4",
"qX c #83849B",
"wX c #81899B",
"eX c #828295",
"rX c #828483",
"tX c #8284A4",
"yX c #8389A4",
"uX c #8586A8",
"iX c #959EBC",
"pX c #868DB2",
"aX c #96A4BA",
"sX c #91ACBA",
"dX c #ACB7BC",
"fX c #E8CBBD",
"gX c #909DC3",
"hX c #99A6C2",
"jX c #9BBCC3",
"kX c #A6B6C6",
"lX c #B0B8C7",
"zX c #BAC6CE",
"xX c #BDCAD8",
"cX c #ACD5D1",
"vX c #C1CACC",
"bX c #C4CAD6",
"nX c #C6D1D5",
"mX c #E8E4DC",
"MX c #C8CDE3",
"NX c #DCE8EC",
"BX c #DAE9F6",
"VX c #D5F1F0",
"CX c #E6EAE9",
"ZX c #E9ECF6",
"AX c #E6F1F7",
"SX c #FDFDFE",
"DX c #FCF9F6",
"FX c #EDF0EA",
"GX c #E9DCDF",
"HX c #DD9AA3",
/* pixels */
"B.E.<XE.T.n.g.P.x.>X<XB.B.F.F.C.F.T.<X@X<X.X%XL.s. .O.Z X.X.B.S.~.+XB...s.s.N.Z.M.<X<Xc.2X>X@X1XB.@X<XE.T.M.$.P.S.~.<Xn.B.F.S.C.",
"F.L.2X2XE.<XE.@X,XOXc.s.} @.v.,XW.F.S.S.F.M.E.#XS.Z.S.B.@X@X<XE.G.B.F.c.F.S.F.Z.T.T.T.M.F.V.,.V.}.J.^.2XE.<XE.@X,XOXc.d.X.@.n.,X",
"W.@XqXb.Z.{.R.#X,.n.T.A.C.B.B.A.[.$X<X^.^.~.`.Y.V.V.F.v.@X:XI.h.B ..V.A.F.n.n.Z.;X..X.d.b.}.E.Z.W.$X#Xb.Z.{.R.#X<.n.B.A.C.B.B.A.",
"#XXXJ.s.Q...R.F.k.m.T.@X:X#X,XI.F.OXv.| M F S C L.n.R.F.@X<XL.n.].;X6X1XF.Z.F.-X X..} O.-.K.!.>X#X$XJ.s.Q...R.F.k.m.E.@X:X@X,XI.",
"T.X.%.O.M.X.R.n.( #.B.@X#Xn.b...+.k.L.,X3X1X1X>X+XT.eXqXT.@X@XOX2X~.Y.S.F.@X>XqX<.M.B.[.@X#XF.T.T.X.%.O.M.o.R.n.( #.B.OX#Xn.n...",
"P.| n.9.n.].c.%X:X-X-X>XL.f.s.| <.).Y.>X:XT.S.F.Z.v.F.B.o.f.s.d.V.W.<XOXn.,.S.U.Y.~.#XOX:XyXF.T.P.| n.9.n.].c.%X:X-X-X<XL.f.s.} ",
"@X@X<X3X~.2XM.wX>XeXV.tXW.V.C.P.#XtXm.+.Z S Z s.B.|.B.K.d.s.r.r.o.B.OXOX.Xg.[.n.<X1X:XI.a.z.L.$X@X@X<X<X~.3XM.wX<X_.x.#XW.V.C.E.",
"<XF.v.C.S.#X>XM.n.L.@.B.B.<X=X@XB.N.o.s.s.O.#.n.L.tXOX#X!.$X#XR.:X,XL.Q.pXJ.yXS.n.>.F.>XS.wX>XS.<XS.v.F.S.W.>XM.n.[.@.B.T.,X=X@X",
"O.*.B B.).S.B.$X>XQ.T.@X@X<X!.>XT.R.n.Z.V.Z.#X#XC.Z.F.S.S.E.E.>X:X:XL.| n.F.|.n.X.j.C :XW.#XL.T.O.O.B n.).V.B.$X~.Q.OX@X@X:X!.>X",
") | Z &.B.| +.M.$X[.n.}.B.N.-.O.R.@X=X1X2X=X:XY.B.O.B ..O.C O.M.uX:X.X<XP.X.( @Xd.V d.>XuX<XB.| | | S Z B.} -.M.$X Xn.F.B.N.g.O.",
"&XQ.+.} M...*.M.@XE.o.@.o.X.O.A B.XX,X`.`.:XXXB.s.s.O.D +.S._.F.n.C.Z.OXL.#X2X:X:XP.:X.X.X@X<X@X@XJ.....B.o.O.M.@X.X@.#.o.X.O.B ",
"@X#XE.U.R.N.N.yXtXP.( O.V X.d..XQ.qX#XB.c.T.>X~..XJ.H.Y.@X@X+XB.f.r.f.( h.o. X@X>XtXL...N.F.Q.<XE.~.E.U.R.N.N.yXtXT.( O.V V d..X",
">X.X@XY.<X@X+XU.V.%X[.{ .. XB.v.>X!.<X<X$X$X1X2X#XwX#X%XW.T.N.Z ....| c.T.<XE._.N L.G.S.R.S.T.XX<X.X#XY.%X&XW.U.V.wX[.} .. XB.v.",
"o.S K._..X&XR.N.B.F.OXB.E.>XT.OXN. .s.J.J.d.N +.B L.R.N.k.Q.uXW.-XP.2X=X.X,X$XB j.c.S.qXG.S.+XB.o.t.K.W.@X&XE.N.B.F.}.B.T.<XT.R.",
"O.C d.T.#X%Xc...F.S.+XE.^.!.>X#XR...N +.o.Z  .v.Y.<X@XW.x.I z f u 4 1 u t @X XF.#X@XXXoX+.} b.G.O.C d.T.#X%Xc...F.S.#XT.2X!.:X#X",
"D.O.Z N L.B.T.W.A.V.F.B.L.g.n.B.!.E.@X@X@X:X:X5X1X1Xy.i._.>X4X$X!.y.' U Y .   1.U.d.o.X.s.Z ..S.U.+.S n L.L.T.W.A.V.F.B.L.$.B.B.",
"S.} ].|  ...T.:XT.....Z Z } o.B.S.#XS.#XF.U.S.#XW.' iXuX!.~.Q.y.~ ` U R R f 8 .   Z.o.s.B ..| T.G.} ]...&.o.T.>XS.o.| Z S X.| B.",
"@XT.F.T...k.J.tXF.M.r.s.M.B.#X:X%X:XB.:XOX<X#Xm.iXhXaX=X3XW.p.] ` / R v 0 f g 3 - . #XT.L.N.T.n.@XF.F.F...k.L.qX}.M.r.s.v.B.#X:X",
"+XT.M.F.M.#X@XP.:X#Xv.Y.,X4XtXn.oX+...X. X2X@XhXhXiX,X:XE.E.i.^ ) c c h 0 z w g & & o F.>XhX&XaX@XR.S.F.S.#X=XE.:X#Xv.Y.,X1XtXn.",
"$X#X#XT.uXT.oXj.T.E.tX@XR.M.O.X.V X.} d.K.:XiXhX3XE.tX`.i.y.' Q I e x q f f 1 1 % ; ; . W.tXF.S.@X>X#XL.uXT.oXj.E.E.<X#XW.M.O.O.",
"Z U.#XT.S.o.O.X.X.+.P.$X>XT.Z s.+.} ..o.c.tXyX>XW.Q.H.i.~ ` R z e e x 0 d : - - 9 - * * o } } &.O.T.#XT.M.| O.N ..o.P.,XwXT.Z s.",
"X.L.#XT.n.d.s.X.C *...B.,X;XM.| | oXN.<XwXE.qX`.i.i._ U _ b v 0 w b w w & - = ; + % , # u o +.Z X.L.@XT.M.$.j.X.C S ..M.,X;XM.| ",
"E..X@XT.OXM.N.d. .#.A +.S.G.<X:X$XP.B.P.' ^.W.y.! / / / n 3 x g q x 0 r 3 - - % & 5 @ 7 > . -.N E..X@XT.@XB.N.d.} ..A o.V.R.>X:X",
"#X@XR.R..X%X#XL.Y.c.F.T.@X#XP.<X<XE.R.~.E y.! ` m n b q g x 0 e a q x e 8 2 4 9 - - 5 - = : o <X@XE.Y.R..X$X#XU.Y.n.F.T.&X>XP.<X",
"B...V o.K.,XXXW.1XW.%XT.c.o.T.F.|.-X>X:Xb U I v s g 0 c q e f w e g f a g d 6 1 - - = $ - : o A.L...s.a.B.$X=X#X1X>X%XT.M.o.T.S.",
"v.B.*.+.o.} T.>X^.=XL.M =.N.n.Z.s.H.$Xt r r a y w 3 w w e e e f e f q f e r 8 9 - 4 - ; = + + O V.M.} j.O.o.T.#X!.=X Xn =.N.{.Z.",
"R.m.L.} | F.c.T.+Xv.A.F.T.B.O.K.1.!.B., j x bXvXxXs w e x e f e w e f f s s r r 4 & 4 - - - 4 . F.|. XV } N.M.[.#Xv.A.F.OXB.O.].",
"} >X@X@X%X&XR. .A g.n.Y.D.qXeXn.n.h.V a a xXBXmXbXbXs f 0 x 0 e f a x z f f f 0 r + 4 $ - 5 & 9   W.%XB.1X#X>.o.A g.n.Y.x.qXqXB.",
"+.I.uX@X@XY.#.N Z X...K.L. XR.S.N Z B g MXGXNXZXBXMX8 0 f f f f c b v R v I c a d 8 - 5 $ - 6 d . %XE.>X>XL.o.} r.} .. XL..XR.v.",
"3X>X.XP.OX XJ. XF.B.R.&X,X:Xs.o.o.*.f.i GXw Y NXNXAXAXs e w e 0 ) ) / ! ) ) ) v 0 8 4 $ ; # 4 6 . #X$XF.>X Xn.T.F.[.R.@X,X:Xd.+.",
"R.L.L.&XOXv.L.W.!.,XY.T.L.F.b.Z.f.;.N.w FXr.(.> AXNXNXs f f g R ! ` ^ ^ ^ ~ R R w 2 6 # 7 - @ 9 i . L.E.Z.S.E.OXE.:XY.L.T.F.c.Z.",
"G.n.B.D.D.Z.T.W.OXS.{ O.O.V R.Z.F.).e.8.ZX  9X3 NXVXBXs 0 R I R ~ i.i.i.i.' ~ Q I w 4 - = - 4 @ a . G.M.|.D.M.$XOXF.{ ..O.V T.Z.",
"F.S.V.n.{.Z.A.L.D.N.F D o.s.Z c.|.w.q.w.fXVX9X8XSXCXNXa g m ! ` ` T 2.Q.Y.] ' p.! f & % ; 4 $ 5 r   S.n.1.R.B.G.A.n.F F +.s.t.c.",
"} g.V s.K.+.N S.A.).M.h.J.V.OXuX5.q.w.8.HX8X0X8XCXSXZX3 I ) Q ! y.] G.@XW.W.J.p.~ q 3 % : @ 4 $ s   +.M k.g.n [.R.).J.h.J.V.R.uX",
" X[.n.1.V.S.>X>X{.@X1XE.wX:X=XW.A.7.5.5.6.VX8XCXCXCXCX9 I U y.^ u.i.M.$X>XE.#X] ` x 9 u - - - $ y . M.eXA.U.,X#Xb.@X1XE.wX@X=XW.",
"E.<XW.<X4XT.).v.X.T.D..X=X2X>XT.0.r.< 4.AXDXCXCXGXFXCXt c ! u.~ y.^ Q.P.<XB.M.] y.v 8 # + 6 - : r   <XP.>XE.OXv.O.T.D..X;X2X>XT.",
"O.F.F.>.V.T.K.r.X.U.C.g.O.I.#X&X1.s.) bXFXSXSXCXCXZXCX5 h ' R Q Y ] ` 2XW.Z.R.i.Q v s O - & 5 = b   v.F.1.T.].+.o.F.C.g.r.K.#XOX",
"C.S.n.S.R.n.>.rXZ.$X,Xc...O.L.@X6X1X2XvXDXDXSXFXAXvXbX@ n R ) z 9 t _ Q Y.,.Q.i./ n 8 . - & - - > X G.L.S.T.S.C.Z.=X1Xc.....L.#X",
"K.+.K.R.c.<XuX!.R.N.T.>X<X<.G.:X#X&X1XMXDXDXCXBXxXxXzXs Y c c 0 3 7 4 U ! i.y.^ / R 2 X - : $ - 2   A.n.V.W.@X#XR.b.T.>X$XV.R.:X",
"*.| #.O.N.tXM.F.o.C O.S.W.,XI...O.@.>.lXZXCXmXVXMXzXxXdX3 f r s f @ = 8 ~ y.` _ I a & X - - ; - 4 = . #.N.<XL.F.o.C  .F.W.:XI...",
"B.{.V.E.-X+XU.a.G.B.@X2X~.E.X.Z V j.o.dXmXCXVXnXxXxXzXdX+ f f q r 1 -   5 U ) R w 2   = $ 4 4 & & - . N.=X<Xn.a.R.B.E.2X>XE.X.Z ",
"~.tX'.W.@XZ.Z.{. XR.<Xm.X.D X.o.O.( _.F.zXvXMXcXxXMXdXdXdX2 d x h @ : =   X % # 6 . - ; - - $ & $ , X qXW.B.L.B. XR.<Xm.X.D X.o.",
"E.:X@XL.B...O.N.S.@XqXo.Z O.B a.#.T.1Xv.dXMXbXbXxXxXaXsXiX4 @ * t 4 & * * &     X % # ; 5 $ - ; 5 - & . }.....b.S.@XqXo.O.O.B a.",
"b.@X<X:.B.O.r.| S.c.@XF.S.@X<X;X$X;X.X*Xz.jXlXbXkXhXzXiXaXaX$ u % ; & 7 9 & 4 % 5 * 6 : @ : : * = + 6   ,.O.X.| B.v.T.T.F.&X<X;X",
">X~.z.G.C.L.X.F.B.OXN.M.R.OXT.3X4X5XeX[ W L gXkXlXkXaXhXaXaXt @ = ; # # u # ; ; # 5 + $ ; . X     . . A.V.P.f.@X XOXn.v.T.#XT.3X",
"b.L.#XM.#X3X:X~.v.=.}  ...Y.L.M.h.;X6.G P _ _ ,XsXkXgXgXiXaX6 - 3 * 7 $ $ 9 * * - 7 $ X . K W _.B.n.eXF.>X:X:X!.v.+.} *...D.L.M.",
" .{ OX@X:X>X:X!.C.M.S O.c.F.V.$.V d.l k k W Q E $X@XhXaXiXaXJ.r - t - & 6 @ 4 - . . . l J l n  . .| N.XX:X@X<XOXC.M.S O.c.}.x.$.",
"d.} T.2X=XF.A.B.Z.B.Y.T.@XF.F.v.F.B.2.W W / _ W k h tXE.1X:X<XW.< < < X   X   . W K W P K J k d.s.| F.1X1XV.A.F.F.v.U.U.@XF.[.v.",
"B.OX<XW.R.v.#.L.U.>X<XM.B.B.F.C.B.#XW.R./ / T W k h j n h p p < < < < < J j W J G ' U E / R.}.1XB.OX<XE.R.c.%.P.S.~.<XM.F.F.F.C.",
"OXJ.^.5X/.3XE.@X,XOXb.f...@.n.@XP.T.S.Z.A.U.z.T K P G J E L < 4.6.6.< P J K J P W / ' J.S.Z.V.R.OXJ.^.5X/.<X@X@X,XOXN.O.} @.n.$X",
"R.$X#Xb.Z.{.G.@X<.M.B.A.C.B.L.A.@XOX<X!.5XI.oX XoXJ.6.y.p.~ E J j j G P K W [ D.$Xo.X.h.b.B.G.M.#X$XqXb.Z.{.R.W.<.n.B.A.C.B.L.A.",
"#X,XJ.O.T...R.T.k.m.OX@X:X#X:XI.B.|.Z.| o. .*.A V.n.L.oX<X+XF.B.D.W.6X1XT.B.H.pXb.-.O.N $.B.>X<X#X=XJ.O.T...R.T.k.m.T.:X:X@X:XI.",
"T.X.%.O.M.o.R.n.( #.B.OX%Xv.b...a.M.OX~.2X#X~.pXqXW.:X`.Q.~.,X;X=X#XD.T.S.#XoXOXv.E.L.[.:XW.v.Q.T...%.O.J.o.T.n.( #.B.OX+Xn.n...",
"L.o.v.7Xn.].v.+X1X-X-X>XL.f.s.| }.n.v.@X3X@Xv.n.v.V.n.R.Z O.O.| T.:X@XZ.<.<.F.E.R.^.E.&X1XtX>.#XP.| v.7X>.].v.%X:X-X-X<XL.f.s...",
"@X@XyX<X~.2XM.%X<X).V.>XW.V.V.@XT.yXL...A s.s.O.G.F.{.n.} C Z #.t.U.*XoX2Xl.B.<.@X<X&XN.h.m.{.&X@XE.yX4X~.2XM.wX<X_.x.>XW.V.V.P.",
"<XU.v.Z.M.#XyXM.n. X@.S.L.<X.X@XF.m.g.X.O.r.o.>.Y..X2X>X_.,X:X5X~.W.D.F.<XE.,XD.F.v.}.#XS.tXtXQ.:XF.n.C.S.W.<XM.n.[.@.B.F.,X:X@X",
"O.*.B n.D.V.N.$X~.T.OXOX$X<X!.!.T.F.Z.F.V.V.#X#XW.V.F.F.T.S.@X:X1X<XB.o.N.M.A.V.X.j.C :X>XE.B.F.O.O.B n.).V.B.$X~.Q.T.&X@X2X!.>X",
") | *.Z L.| -.S.$XL.n.F.B.N.g.O._..X;X>X2X;X:XY.7X ...O.O.O.$.c.W.@XOXyXT.$.o.B.d.V a.>XuXtXK.| | | S Z L.} -.M.$X Xn.}.B.N.-.O.",
"$XJ.+.} B...S M.:XE.o.#.o.X.O.B B.XX,X`.`.:XXXB.u.r.*.B { B.M.OXT.T.M.N.@XE.<X@X:XL.,X.X.X$X>X@X@XJ.+...M...Z M.@XE.o.#.o.O.O.B ",
"E.>XT.Y.R.N.N.yXtXP.} X.V V d..XQ.qX#XB.c.T.>X>X+XC.Y.T.XX4XE.V.B } =.C r.f./.,X<XtXL.o.k.T.R.<XE.~.T.U.R.N.N.yXtXL.} X.V V a..X",
">X.X@XR.<X&XW.U.V.wX[.{ .. XB.n.>X!.<X<X:X@X1X2X2X:X:X@XW.S.B.=.d.X.} Q.E.:X@XE.V B.G.C.R.C.R.XX<X.X#XY.<X&XW.Y.V.wX[.} .. XB.v.",
"o.S I._.P.&XR.N.n.B.OXM.E.>XT.R.N. .s.J.I.d.N $.V K.R.G.F.J.3X!.=X$X@X<X@X<X@X#.+.c.F.#XOXS.+XM.o.t.K.W.@X&XT.N.n.F.OXM.T.<XT.R.",
"O.C d.T.#X%Xc...T.M.#XW.2X!.<X@XG...N +.+.Z  .v.L.@X:X3X~.M.B.{.T.Y.C.L.$XY.R.M.>X@XXXoX+.} n.R.O.C +.T.#X%Xc...F.T.#XT.2X!.:X#X",
"U.o.Z M L.T.T.+XA.V.F.B.L.#.n.B.!.E.:X#X@X@X:X1X~.tX@XL.o.O.O.X.B  .} B.T.<XT.T.M.g.s.X.O.Z +.V.U.o.Z N L.B.T.W.C.V.}.B.L.#.B.B."
};
