/* XPM */
static char *c0f94dfbb0fd405ebce800912c4f3f60bZcHndxeEwepj64d[] = {
/* columns rows colors chars-per-pixel */
"64 64 247 2 ",
"   c #020102",
".  c #00020B",
"X  c #080506",
"o  c #010313",
"O  c #342D2D",
"+  c #2E2D3A",
"@  c #2B2C37",
"#  c #312D35",
"$  c #332E3B",
"%  c #3A2C37",
"&  c #2E323C",
"*  c #293136",
"=  c #333235",
"-  c #34323C",
";  c #3A343C",
":  c #36383B",
">  c #302F2C",
",  c #42363E",
"<  c #442E3A",
"1  c #663537",
"2  c #742E37",
"3  c #392D44",
"4  c #2C3343",
"5  c #2C374A",
"6  c #333442",
"7  c #3A3642",
"8  c #353943",
"9  c #393A43",
"0  c #343B4B",
"q  c #37374A",
"w  c #2E3C54",
"e  c #2E3E5A",
"r  c #333D55",
"t  c #353E5A",
"y  c #393D5B",
"u  c #393955",
"i  c #2A2D40",
"p  c #393D67",
"a  c #413C45",
"s  c #6B3847",
"d  c #37454B",
"f  c #2C4458",
"g  c #334155",
"h  c #34425C",
"j  c #3A445C",
"k  c #394759",
"l  c #2B575D",
"z  c #385457",
"x  c #364560",
"c  c #3C4C64",
"v  c #3B4A67",
"b  c #395369",
"n  c #2F4869",
"m  c #3D636D",
"M  c #3D6373",
"N  c #3C6A74",
"B  c #3D657B",
"V  c #326D79",
"C  c #3D6C7B",
"Z  c #336574",
"A  c #3C727C",
"S  c #36727C",
"D  c #35706E",
"F  c #57564D",
"G  c #475A58",
"H  c #565859",
"J  c #495052",
"K  c #655455",
"L  c #424C6B",
"P  c #494D6A",
"I  c #554B6B",
"U  c #43526E",
"Y  c #4B5569",
"T  c #55566A",
"R  c #4A4873",
"E  c #524C75",
"W  c #544D7B",
"Q  c #5B4C79",
"!  c #4C5375",
"~  c #425E74",
"^  c #495A77",
"/  c #545579",
"(  c #585579",
")  c #66597B",
"_  c #6D576D",
"`  c #45666B",
"'  c #53676B",
"]  c #446473",
"[  c #4A6474",
"{  c #456B75",
"}  c #4A6A76",
"|  c #44657B",
" . c #4A657A",
".. c #436A7B",
"X. c #4A6B7C",
"o. c #536475",
"O. c #52667B",
"+. c #516B7C",
"@. c #58657D",
"#. c #417176",
"$. c #42727C",
"%. c #4F717A",
"&. c #50707F",
"*. c #69787C",
"=. c #73747B",
"-. c #75787B",
";. c #676C78",
":. c #963F38",
">. c #8C4639",
",. c #D56F34",
"<. c #B26A51",
"1. c #8A4741",
"2. c #DC6956",
"3. c #5F837F",
"4. c #DDA758",
"5. c #EDA258",
"6. c #E69D59",
"7. c #E5D573",
"8. c #3D6A83",
"9. c #3B7286",
"0. c #366891",
"q. c #366EB9",
"w. c #584E82",
"e. c #595683",
"r. c #4B5D83",
"t. c #635A85",
"y. c #675787",
"u. c #6C5A8E",
"i. c #446B82",
"p. c #4B6C82",
"a. c #476583",
"s. c #526C83",
"d. c #566685",
"f. c #487284",
"g. c #5C768C",
"h. c #517695",
"j. c #666A8C",
"k. c #766E89",
"l. c #657485",
"z. c #6C7584",
"x. c #647B85",
"c. c #6C7B84",
"v. c #64758C",
"b. c #6C758B",
"n. c #647B8B",
"m. c #6C7B8C",
"M. c #737484",
"N. c #7A7583",
"B. c #747A84",
"V. c #7C7986",
"C. c #73758B",
"Z. c #7C748C",
"A. c #737B8C",
"S. c #7B7B8D",
"D. c #6D7593",
"F. c #647C93",
"G. c #6C7C93",
"H. c #6E7C9A",
"J. c #647B99",
"K. c #747592",
"L. c #7C7694",
"P. c #747B93",
"I. c #7A7B93",
"U. c #747C9A",
"Y. c #7B7D9B",
"T. c #76759A",
"R. c #6F6793",
"E. c #747DA2",
"W. c #7B7EA3",
"Q. c #7A7EAA",
"!. c #6F7CA5",
"~. c #84798B",
"^. c #827D9B",
"/. c #837CA3",
"(. c #847EA7",
"). c #6B8186",
"_. c #63818A",
"`. c #6C818D",
"'. c #678085",
"]. c #73818C",
"[. c #778189",
"{. c #6D8293",
"}. c #658599",
"|. c #6C839B",
" X c #6E899E",
".X c #638692",
"XX c #748294",
"oX c #7B8296",
"OX c #73839C",
"+X c #7B839C",
"@X c #74899D",
"#X c #7C899E",
"$X c #728896",
"%X c #71939D",
"&X c #6D84A2",
"*X c #6B88AE",
"=X c #6A85A3",
"-X c #7484A3",
";X c #7B84A3",
":X c #748AA3",
">X c #7B8AA4",
",X c #7584AB",
"<X c #7B84AB",
"1X c #788BAB",
"2X c #7684B1",
"3X c #748BAD",
"4X c #57919F",
"5X c #498ECF",
"6X c #6FBAD4",
"7X c #7EBDE0",
"8X c #698AC0",
"9X c #82849C",
"0X c #81899A",
"qX c #828294",
"wX c #828483",
"eX c #8284A3",
"rX c #8289A4",
"tX c #8686A9",
"yX c #8C96B7",
"uX c #95A3B8",
"iX c #92A2B9",
"pX c #A9B4B7",
"aX c #B0A7B1",
"sX c #BAC7BE",
"dX c #98A4C4",
"fX c #96ACC8",
"gX c #ABB7C6",
"hX c #AEB5CC",
"jX c #C7BFDA",
"kX c #BBCAD7",
"lX c #B8D3D7",
"zX c #BAC4C7",
"xX c #BFC7EC",
"cX c #C3CBD6",
"vX c #C2D6D7",
"bX c #E8E9D6",
"nX c #DBE7E7",
"mX c #DBEAF2",
"MX c #D9F3E8",
"NX c #E7E9EA",
"BX c #F3EAE7",
"VX c #E5F5EB",
"CX c #E4E9F4",
"ZX c #E7F3FA",
"AX c #FDFEFE",
"SX c #F8FAF6",
"DX c #D7D1DD",
/* pixels */
"m.U.>XU.P.z.O.H.K.W.>Xc.m.A.A.N.A.U.>X-X:X@X+XG.X.B { ....] m.B.W.oXm.} i.a.n.B.m.<X@Xb.<X;X|.,Xm.I.-XU.P.z.O.H.K.W.>Xc.m.A.A.N.",
"A.G.<X<XE.>XU.@X:XXXv.X.| o.x.@XY.C.C.M.A.l.OXW.A.B.A.m.OXE.,XY.A.m.m.b.A.A.[.B.I.P.XXb.A.M.M.-.].H.<X<XE.>XU.@X:XXXv.X.| o.c.@X",
"Y.@X+Xx.B.'.I.Y.=.c.m.V.N.m.P.N.`.@XeXQ.Q.E./.Z.N.M.B.b.OX-XD.d.C } M.V.A.c.c.A.&X} X.a.x.].I.B.Y.@X+Xx.B.'.I.+X=.c.m.V.N.m.G.N.",
"oX@XD.i.P.X.I.m.g.v.U.OX-X+X:XJ.A.XXc.[ ` N S V G.m.P.A.@X:XG.c._.=X3X-XA.B.D.=X_.} B | X.F.E.,XoX@XD.i.P. .I.m.g.v.U.OX-X+X:XJ.",
"H. .@...b.X.I.c.~ O.G.XX+Xc.x.} X.g.F.>X1X-X<X-X@XC.9X+XP.OX@XXX,XW.L.C.A.@XeX^.=.C.`.`.OXoXA.U.H. .@.C b.X.I.c.~ O.m.U.+Xc.x.} ",
"G.[ c.3.c._.z.#X&X*X*X;XG.a.i.[ =.~.U.Y.>XU.b.V.B.*.B.m.O.a.i.a.N.+X;XOXc.*.B.D.L.Q.+XXX-XrXA.I.G.[ *._.c._.z.+X-X*X*X>XH.| i.[ ",
"-XOX>X,XW.>Xb.#X>X^.M.eXY.N.M.OXY.rXv.X.C C 8.i.A.A.m.n.a.i.i.8. .m.XX$X|.s.{.c.>X-X&Xv.d.j.G.@X-XOX>X>XW.,Xb.0X>XqXM.;XY.M.C.OX",
";XA.z.V.b.Y.eXb.c.m.o.m.m.,X|.OX`.v. .i.8.X.X.c.D.rXXX>X-XOXOXY.-X-XD.T.tXD.rXA.c.*.P.>XC.+X+XA.>XC.z.V.b.+XrXb.c.G.o.m.A.-XOXOX",
"..$.N c.Z.M.m.@X;XK.XXXXOX,X-X;XI.P.c.M.B.M.+XoXN.V.A.c.A.m.>X-X-X;Xb.d.G.m.M.A.] f.V -XW.oXG.P...$.N m.~.M.n.@XW.K.I.$X-X,XE.;X",
"^ [ N A {.[ &.b.@X{.c.A.m.n.+...I.OX=X<X<X=X-XL..X{ B f.B i.^ A.XX:X3X].x.X.X.x.p.B p.,XtX;Xv.[ ^ [ A #.m.[ &.b.@X{.c.].m.x.&...",
"@XD.X.[ c. ...b.OXH.o.O. .| ..C A.|.:X(./.-X Xm.a.8.i.$.` ).z.P.I.C.k.XX+XeXeX-X-XG.:X|.|.@X>X$XOXD.X.] m.X.$.b.OXH.[  . .| ..N ",
"U.;XU.K.I.n._.rXtXH.~ ....B a.|.U.+X+Xm.l.P.;X;XXX-.-.*.,X2X;X=.i.N N p.~  .g.,X;XeXP.} x.P.T.-XY.+XP.K.I.v.n.rXtXH.[ | ..| p.J.",
";X|.+XI.>X$XY.K.M.0X`.] { {.m.M.Q.W.>X:X:XOX;X<X>XE.,X2XeXz.n...p.8.i.m.m.,X,X9XM G.S.M.I.Z.I. X;X|.@XL.>X$XY.K.M.0X`.] { {.m.M.",
" .9.F.I.H.$XI.n.m.A.].b.P.;XP.XXx...X.D.D.i.B X.B |.Y.Z.c.].Y.<X-X-X-X&X@XrXD.[ X.v.C.+XXXC.oXb. .9.n.^.H.$XI.n.m.A.].b.U.;XP.P.",
"..V p.P.oX>Xl.} A.P.oXU.<XE.;X@XS.} N  .X.C { z.c.>X,X+X8 > - 6 y k b v j.P.XXH.+XOX X|.X.[ x.I...V i.P.oX>Xl.} A.P.oXU.<XE.>X@X",
"C. .C M G.G.P.oXN.M.A.m.G.O.b.m.E.H.+XOXOX-X-X<XQ.oX  X x e.w.y.b.U.-X;X/.y.) C.G.s.| | X.V } C.K.[ C M G.G.P.oXN.M.A.m.G.O.b.m.",
"Z.[ _.[ {  .P.OXG.} [ N A | [ m.C.9XT.W.H.c.C.9X  . r w U L L / w.t.T.;XY.tXdXe.m.m.X.^ C O...m.S.] n.[ #.[ I.+XK.} ] { S |  .m.",
"@Xm.A.m.} _.D.eX].b.8.i.b.A.#X-X@X-Xv.@X@X;XI.. - 0 j x h c U ! Q ( e.Y.>XY.uXdXuXA.XXP.m.A.A.M.@XA.A.A.} g.G.eX`.b.C i.b.m.+X-X",
"+XP.b.A.b.+X@XH.-X+Xz.L.:X3X9Xx.J.p.{ [ v.oXo : 6 j 5 h w h b v ! ( ( W.;X;X-XiXuXdX;X1X!.dXP.dXoXU.b.A.C.OXOXH.-X+Xz.L.:X3XeXc.",
"@XY.;XP.tXP.}.f.U.U.eXOXU.C.| ..] M f.| A.. - 4 + 6 4 t h f v t b ! E y.y.W.-X&X/.uXdXOXeX%XP.b.OX+X@XP.tXP.}.f.Y.U.;X;XU.b.....",
"..D.+XP.C. ...B [ X.J.@X;XG...i.+...i.` . , $ - 7 7 $ 0 0 t t g x t R E R j.K.K.eXY./.-Xb.] [ ....P.Y.P.b. .8.] [ X.F.:X9XP.....",
"| G.+XI.b.X.p.| V $.} A.:X=Xb.[ a.F.'.. - $ a # $ ; # - 4 j r g u y b b ^ ! Q ) d.E.<X,X*Xf.8.9.| G.oXP.b.+.f.| V $.} C.:X=Xb.[ ",
"U.|.@Xm.OXm.n.p.{ O.Z X.C.S.;X-X;XA.-.  $ 8 $ $ 6 - : - 4 j t w y h t h c L ! E Y ) C.L.d.T  .] U.|.@XG.$Xm.v.p.{ O.Z | C.I.,X-X",
"-XOXL.I.XX@XY.G.K.b.A.P.@X+XH.>X+XI.o $ = & - 6 & * : - u u x h f w r h y h b b L / ! t.L W.:X&X-XU.L.I.|.@X+XK.I.v.S.P.$X+XH.>X",
"m.} B  .F.:X&XY.|.#X@XC.P.o.C.c.$XOXo - # 7 $ 7 - - 0 r t x t y y y j w x h u j f b n w.k N.3.W.m.{ B  .F.:X&XY.-XY.#XP.b. .P.A.",
"z.m.$.X.[ [ I.;X<X=Xn.X.{ `.c.-.o.o 6 - - % - 6 @ 6 0 t h t t t y h w h f t y 4 h w v e 0 3 {.P.z.`...X.| ] I.;X<X&X|.b %.x.'.B.",
"P.v.G.] } A.g.I.M.C.S.l._.G. .|.A.o 6 6 - - 8 - q 0 g j h h g h h g f r h h j r cXcXzXd b 3 ~.M.I.x.H.] } A.l.I.oXz.N.A.XXm....X",
"] eXOXOX#XXXA...i.+.m.~.Z.I.^.b.. 9 - $ 7 - $ : g t t h x x h h h w h j t h w kXlXnXVXcXx u B N [ ;XOXOX#XXXP.{ Z s.n.~.k.9X9Xz.",
"X.J.tXOX|.L.X.] C | ] G.l.|.P.P.. d $ 7 $ $ 8 q h x v v b U L c c t x 5 x t 5 vXNXNXnXnXkXn G.].a.}.tXU.XXI.+.M C | { m.D.|.I.A.",
"1XeX|.H.XX{.C.J.m.XXZ.#X>X-XX.X.. 9 7 + - q * 8 f v ! ! ! W ! ! v x x h t r ZXmXNXmXp - BXf /.].>XeX=XH.XXG.C.J.A.m.I.@X:X-Xi. .",
"I.G.G.OXXXz.G.Y.,XJ.Y.D.P.Z.+.  0 q @ 9 ; - @ 6 h v ! / W W W W ! L w h h x mXnXCX* q.0.bX6 T.>XL.G.m.@XXXz.H.Y.E.-XT.P.U.P.l.-.",
"S.c.c.Z.Z.V.P.oXB.C.} f.Z ..wXX j 4 8 # # 9 6 u b ! E ( w.u.u.y.! ! c ! h 5 ZXCXCX7 7XX BX<.7.-XA.c.m.Z.Z.B.P.oXXXA.` { ] ] XXA.",
"A.C.B.c.x.c.C.P.C.].{ f.` C {   j @ : = 6 % 6 h E R.y.( A.D.t.Q E / W b y f mXCXAX5X6XZXDX4.5.6.A.*.`.S.Z.G.c.N.Z.x.D N | i.C x.",
"~ s.C p.G.&.m A.H.=.C.^ @XG.A.  j $ : $ $ ; 6 h E w.L.A.;XoXC.y.( R w.^ c d NXAXMX5XfX5XaX2.4.4.,.' 0.a.c.X.B ~.A.~.b.h.D.M.P.eX",
"m.`.c.-.=.A.;X;Xn.OX,X+X+XW.OX  t + ; $ $ a 0 c Q R.N.oX2X,Xz.u.E e.R e.L & VXnXNXBX5XbX>.,.,.<.n.G.P.*.*.[.:X!.x.OX,XU.rXOX&XY.",
"OX>XY.,X3XI.S.c.p.z.I.&X=X;X0X. h 6 ; $ $ @ t b w.w.B.z.,X-XA.y./ E w.W L @ NXBXBXCXCXSXbX:.2 $X<XI.@XeXQ.J.OXc.X.P.Z.|.=X<X;XI.",
"..A.A.c.V.P.F.|  .b.XX| 8.H.qX  0 7 ; $ - X 0 b E t.^.V.OX<XE ) J E ^ ! c 0 CXNXnXNXAXAXAXxXX.a.` Z.P.*.[.~.N.` [ P.B.s.C F.Y.OX",
"M.B.b.C.I.c.*.[.V.-XG.A.s. .S.  5 - $ 6 -   d b / t.R.I.C.! ( % 5 h b U k 5 cXcXVXbXAXAXAXzXi.-.m.|.U.z.*.c.m.Z.B.@X,Xl.} { G.+X",
"G.X.G.S.b.-XtXE.n.|.[.Y.*Xb.=.o - $ $ 6 :   8 b ! R t.( ( ! $ 6 t f c c Y 4 kXlXxXCXVXAXSXvXK.M.M.s.D.-.[.2X*X,XP.l.P.W.@XM.S.-X",
"C ] X...n.9Xb.A.[ 8. .S.;X@X. # - = - 4 &   - h c e.W Q w.6 > 3 t h h f 6 pXcXzXlXVXNXBXBXpXA.c.9.] .. .H.XXC.B. .S { A.Y.,XF.} ",
"`.c.M.U.3X+XC.a.B.U.U.:XoXB.. = 6 $ 8 - = %   = h L ! T $   ; : w f n w = gXlXcXkXvXMXZXNXpXV.[.n.c.V.T.*X+XK. .A.G.E.<X;XP.| C ",
";X;X/.Y.OXc.B.`.,Xb. Xm.| i.. ; 7 6 * : 6 6 8   = - 6 o . ; - & d p 5 3 hXuXhXlXsXxXxXcXzX~.U.B.;XeXW.Y.XXc.B.].`.L.-Xv.| S  . .",
"U.-XOXG.m. .{ n.~.H.>Xp. .. 5 % 3 + - - 6 $ # ;   X   - - > 9 $ q @ 3 7 iXiXpXkXcXvXkXsXpXx. .] U.;XOXG.m.X...n.A.#X9X .....C a.",
"x.Y.1X' m.| 8.[ B.].v.P.=.  O : & : ; - 8 6 - $ * - 7 # # a # ; @ ; $ aXiXdXpXhXpXlXfXgXY.<XA.XXl.OX1X' c.X.8. .A.j.XXA.A.XX>X=X",
";XW.j.S.N.G.| A.c.B.c.c.A.oX    X       # 4 6 4 0 + $ 8 - 8 @ # 4 ; > yXfXiXuXpXhXhXfXH J I.@X&X;XW.j.I.N.F.| A.m.XXv.z.A.XXU.1X",
"x.G.+Xb.+X>X-X;XA.a.` X...c.OXz.[ XX;.H     % O % , % 8 @ 5 4 7 4 O 4 fXuXiXyXgXgXH.P H K K _ ~.x.G.+XC.Y.>X-X;Xz.%.] A O.S.U.b.",
"} ` XXOX-X>X;X!.M.c.h.B `.G.;.s.9.C f G z G X   . ; O # 8 6 = < < ; <XyXiXdXuX@X!. .G z z z n 9.} ` `.@X-X@X;X&XN.b.A X.x.A.z.O.",
"p.] P.<X&XA.N.m.A.c.*.A.oXC.A.c.N.Z._ K T ! T T z .   X     1 2 1 ;X-X;X<XOX-Xb H I _ H H H b } p.~ P.<X-XC.Z.`.B.b.K.K.OXA.].z.",
"m.OX>XP.P.c.O.H.K.W.>Xb.n.A.A.N.m.+XW.P.! E I T z z l b k s 2 2 2 2 2 1 J l T H F ( Y Y ! P.].,Xm.I.-XU.P.l.O.H.C.W.>Xc.m.A.A.N.",
"XXD.Q.2XE.>XU.@X:XXXx.X.| o.c.@XG.P.A.B.V.C.y.I H K F J Y H s >.>.1.2 K G H G K T R ( K.C.B.M.I.XXG.tX2XE.>XU.@X:XXXx.p.| o.z.:X",
"U.@X9Xx.B.c.I.+X=.z.m.V.N.b.P.V.+XXX;XE.2XJ.}.{.}.A.1.e.u.E I G l l F K H T ) ~.@X .| s.x.c.A.A.Y.@X+Xx.V.'.I.+X-.b.m.N.N.m.m.V.",
"+X@XD...U.{ I.A.g.v.U.OX-X@X-XF.m.[.).[ X.{ #.M M.n.G.}.#XoXA.n.~./.*X-XP.m.T.tXx.&...M +.G.+X,X+X&XD...P.} I.m.g.v.U.OX-X+X:XJ.",
"P. .@...b...I.c.~ O.A.XX@Xm.c.} d.l.oXW.<XE.;XtX0XY.E.W.T.;X:X&X|.+XZ.P.C.9X.XXXz.U.H.`.-XU.z.T.U.] @.C b. .oXz.~ O.m.OX+Xc.x.} ",
"H.[ c.'.c._.z.oX&X*X*X>XH.| i.[ ).c.l.OX1X@Xz.c.z.M.c.S...i...[ T.@X@XM.=.=.A.H.S.Q.OXXX<X>X-.+XH.} c.3.c.x.z.oX-X*X*X;XG.a.i.[ ",
"OXOX>X,XW.,Xb.#X,XqXk.+XY.M.M.U.U.tXG.{ B 8.8.X.S.A.).c.M V C O.9.K.%X}.<Xh.G.=.@X-XXXn.d.D.`.$XOXOXrX1X;X,XD.#X>X^.M.;XY.M.C.U.",
">XC.z.B.A.Y.rXb.m.A.o.b.G.>X XOXB.v.s...X.B X.c.L.|.<X<X^.@X-X2XW.Y.Z.C.;XU.:XZ.B.c.].+Xb.eX;XP.;XA.z.V.b.Y.rXb.c.m.o.m.A.-X XOX",
"..$.N c.~.M.n.$X;XK.P.XX@X,XE.;XI.P.B.V.M.m.+XoXU.C.A.C.A.C.OX@X-X,XG.[ n.z.V.M.| f.Z -XW.oXm.A...$.N m.~.M.n.@X;XK.XXXX-X,XE.;X",
"^ [ C A `.[ s.b.@X{.c.].m.n.s.} I.OX=X-X<X=X-XL.'.{ ] ..i.p. .v.Y.@XXX0XU.+.X.m.p.B a.>XtXeXD.[ ^ [ #.#.m.[ &.b.@X{.c.A.m.x.s.{ ",
"OXD.X.[ b.X.$.b.OXH. . . .| C N m.|.-XeX/.-X Xm. .a.$.N ` n.b.XXI.A.A.v.OX-X>X-X-XH.:X|.|.@X>XOX@XD. .] m. .$.b.OX|.O.O. .| ..C ",
"U.+XP.K.Y.x.n.rXeXU.[ | ..B p.|.U.9X+Xm.l.P.;XW.XXC.I.U.@X:XP.Z.N ] $.C 8.a.H.-X>XeXm.} g.P.U.+XU.+XU.K.I.n.n.rXtXD.~ ..C B p.|.",
">X|.+XL.#X@XY.K.M.#X`.` ] {.m.M.<XE.,X>X@X-X;X<X;X-X-XY.Y.C.c.%.p.| ] P.K.-X-XU.B m.S.C.S.C.P. X;X|.+XU.>XXX+XK.M.#X`.] ] {.m.z.",
" .9.F.Y.|.XXI.n.b.A.XXm.U.;XP.XXx.{ X.D.D.a.N X...F.oXP.m.D.1XE.&X:XOX+XOX>X|.O.&.v.C.+XI.A.oXb. .9.n.^.G.@XI.n.c.A.XXb.I.;XP.XX",
"..V X.P.OX#Xl.} A.A.+XU.W.E.;X@XA.[ N  .X.C { z.G.OX-X<XW.b.m.'.U.Z.C.G.$XY.^.z.+XOX X}.&.] c.S...V p.P.OX#Xl.} A.A.oXU.<XW.;X@X",
"C. .C M H.A.P.+XN.M.A.m.G.d.c.m.Q.U.OXOXOX-X-X,XW.rX+XF. .....a.N { [ A.P.+XH.P.b.s.| B i.N X.C.K. .N M G.P.P.+XN.M.A.m.G.O.v.A."
};
