/* XPM */
static char *Wall1676382441[] = {
/* columns rows colors chars-per-pixel */
"64 64 251 2 ",
"   c #55463D",
".  c #59463C",
"X  c #554C3D",
"o  c #5B4A3E",
"O  c #564A36",
"+  c #45523F",
"@  c #58533D",
"#  c #55512E",
"$  c #634B3D",
"%  c #634739",
"&  c #62513F",
"*  c #30364E",
"=  c #5D3F49",
"-  c #633F4D",
";  c #38464D",
":  c #3B5553",
">  c #314E50",
",  c #3B5267",
"<  c #3C666C",
"1  c #3D6373",
"2  c #346D76",
"3  c #3C6A74",
"4  c #3D647B",
"5  c #326D79",
"6  c #3D6B7B",
"7  c #336474",
"8  c #3C727C",
"9  c #36717D",
"0  c #37706C",
"q  c #544743",
"w  c #594643",
"e  c #564B44",
"r  c #5C4C44",
"t  c #544C4A",
"y  c #5C4C4A",
"u  c #5B454A",
"i  c #535444",
"p  c #5C5145",
"a  c #55534C",
"s  c #5D524A",
"d  c #595A4C",
"f  c #4A4E59",
"g  c #5B4B52",
"h  c #4B5957",
"j  c #5C5452",
"k  c #5C555B",
"l  c #545B5B",
"z  c #575955",
"x  c #4E4E46",
"c  c #624642",
"v  c #624D44",
"b  c #634D4A",
"n  c #6A4B4D",
"m  c #694748",
"M  c #635245",
"N  c #63534B",
"B  c #69534A",
"V  c #6A584A",
"C  c #654D55",
"Z  c #635453",
"A  c #665759",
"S  c #735E55",
"D  c #75554B",
"F  c #74644D",
"G  c #7B6649",
"H  c #756354",
"J  c #7B6355",
"K  c #756954",
"L  c #7B6B54",
"P  c #74645A",
"I  c #7B6559",
"U  c #766B5C",
"Y  c #7C6A5B",
"T  c #706B53",
"R  c #445769",
"E  c #585765",
"W  c #5A4D74",
"Q  c #425E74",
"!  c #485977",
"~  c #565475",
"^  c #554D6C",
"/  c #68586A",
"(  c #73566A",
")  c #685977",
"_  c #755976",
"`  c #45686C",
"'  c #516568",
"]  c #446473",
"[  c #4A6474",
"{  c #446B74",
"}  c #4A6A76",
"|  c #44657B",
" . c #4A657B",
".. c #446A7B",
"X. c #4A6B7C",
"o. c #536575",
"O. c #52667B",
"+. c #526A7B",
"@. c #56667A",
"#. c #407176",
"$. c #42727C",
"%. c #4E7179",
"&. c #50707F",
"*. c #7D6B62",
"=. c #776665",
"-. c #676577",
";. c #776A75",
":. c #6A797B",
">. c #73737C",
",. c #76787A",
"<. c #716D65",
"1. c #556050",
"2. c #826554",
"3. c #82655B",
"4. c #836B5D",
"5. c #88695A",
"6. c #85715A",
"7. c #85674F",
"8. c #855579",
"9. c #836D62",
"0. c #866565",
"q. c #8B7465",
"w. c #947B65",
"e. c #9B7B63",
"r. c #947A6A",
"t. c #9C7C6C",
"y. c #987568",
"u. c #847A79",
"i. c #9A7A74",
"p. c #936A67",
"a. c #A67867",
"s. c #A67974",
"d. c #966852",
"f. c #5F837F",
"g. c #69827F",
"h. c #98856D",
"j. c #9C8371",
"k. c #9B8C74",
"l. c #9D8E79",
"z. c #968B77",
"x. c #9C937C",
"c. c #989476",
"v. c #938A6D",
"b. c #A5876E",
"n. c #A38C75",
"m. c #A48D7B",
"M. c #AA8E7B",
"N. c #A78875",
"B. c #A3927A",
"V. c #A9927A",
"C. c #AB9172",
"Z. c #998057",
"A. c #3D6A82",
"S. c #3C7484",
"D. c #505883",
"F. c #675881",
"G. c #456481",
"H. c #446B83",
"J. c #4B6C82",
"K. c #496785",
"L. c #526C83",
"P. c #566787",
"I. c #487183",
"U. c #5B748B",
"Y. c #5D7B97",
"T. c #696C8A",
"R. c #756E88",
"E. c #647486",
"W. c #6C7484",
"Q. c #647B85",
"!. c #6C7B84",
"~. c #64748C",
"^. c #6C758B",
"/. c #647A8C",
"(. c #6C7B8C",
"). c #737484",
"_. c #797583",
"`. c #747A84",
"'. c #7B7985",
"]. c #73758B",
"[. c #7C758B",
"{. c #737B8C",
"}. c #7A7A8C",
"|. c #6C7592",
" X c #647B93",
".X c #6C7C93",
"XX c #6E7B9A",
"oX c #677997",
"OX c #737592",
"+X c #7B7694",
"@X c #747B93",
"#X c #7A7B93",
"$X c #747C99",
"%X c #7A7D9B",
"&X c #737599",
"*X c #796F94",
"=X c #6E7AA2",
"-X c #747CA2",
";X c #7B7EA3",
":X c #7C7CA8",
">X c #827989",
",X c #837896",
"<X c #826A8C",
"1X c #827BA2",
"2X c #867DA7",
"3X c #837FB1",
"4X c #6A8386",
"5X c #63818A",
"6X c #6C818D",
"7X c #678085",
"8X c #73818D",
"9X c #7B8389",
"0X c #6D8294",
"qX c #6C839B",
"wX c #6E899D",
"eX c #678697",
"rX c #748294",
"tX c #7C8295",
"yX c #73839C",
"uX c #7A839B",
"iX c #74899D",
"pX c #7B8A9D",
"aX c #748995",
"sX c #6D83A2",
"dX c #6B89AD",
"fX c #6B87A2",
"gX c #7484A3",
"hX c #7B84A3",
"jX c #748AA3",
"kX c #7B8AA4",
"lX c #7583AA",
"zX c #7B84AB",
"xX c #7C8BAB",
"cX c #758DA9",
"vX c #7A82B1",
"bX c #7586B2",
"nX c #7390A5",
"mX c #5C8984",
"MX c #868384",
"NX c #969384",
"BX c #82839C",
"VX c #818999",
"CX c #828294",
"ZX c #A69683",
"AX c #AE8F85",
"SX c #8284A4",
"DX c #8289A4",
"FX c #8785A9",
"GX c #9087A4",
"HX c #8FA2B1",
"JX c #95A6C0",
/* pixels */
"(.$XkX$X@XW.O.oXOXhXkX(.(.(.].'.{.@XkXyXkXyXkX(.J.4 { ..| } (.{.;X#X(.} H.G.(.`.{.hXgX^.hXzX0XlX(.yXuX$XrX^.@.oXOXhXkX(.`.(.].'.",
"{..XvXzX-XxX$XiXjXrX^...] o.!.iX%XOX].{.{.~.yXyX].`.{.(.yXyXgX$X{.{.(.!.{.{.{.`.@X.XrX^.{.`.).`.rX|.zXvX&XkX$XiXjXrXE.H.| o.!.iX",
"%XiXCXQ.`.7X}.uX>.!.{.'._.(..X'.6XiXzX;X:X-X,X+X_.`.].W.yXgXoXP.6 } ).{.{.(.!.`.sX} | J.Q.8X@X`.$XpXCXQ.`.7X#X%X>.!.{.'._.(..X'.",
"uXwX|.H.@X} #X{.U.~.$XyXgXuXgXoX`.rX!.[ < 3 8 9 .X(.@X{.yXkX.XQ.5XfXbXgX'.`.^.dX0X} ] | X. X-XhXuXfX|.H.$X} #X{.U.~.$XyXgXuXgX X",
"@X| @...^. .@X^.Q O.{.@XpX!.!.} X.U.oXkXxXgXhXzXyX{.CXCX$XyXyXtXzX;X+X).(.iXhX2X>.(.(.6XyXuX].$X$X} @...^.| @X(.Q O.(.$XuX(.!.} ",
".X[ !.mX!./.W.pXsXdXdXkXoXG.H.[ >.>X#XhXhX$X(.`.{.>.].(.K.G.H.H.).hXhXyX!.:.{.].+XzXuXrXgXVX8X@XoX[ !.f.!.5XW.uXsXdXdXkX.XG.H.] ",
"gXyXDXkXhXzX~.VXkXCXR.hX%X).].rX;XDX~.X.6 9 A.H.!.{.(./.J.H.H.H. .(.rXaXqXL.6X!.hXlXsXoXP.T.@XiXiX$XDXxX;XxX^.VXkXCXR.hX%X).].rX",
"hX{.W.].].%XDX^.!..Xo.(..XkXqXyX(./.} G.H...o.!.|.DXrXkXyXyXyX%XgXgX|.&XFX|.DX{.!.:.{.uX].uX;X{.hX{.!.].].%XkX^.(.(.o.(.@XkXqXyX",
"....3 (.>X].(.iX;X&XrXrXyXzXgXhXSX&X|.{.!.^.zX%X}._.R.$X6X/.^.'.qXhX~.J.$X).{.(.] I.5 lX;X%X(.@X..6 { (.+X).(.iX;X@X$XaXyXgX-XhX",
"! [ 8 #.(.] %.^.iXrX!.{.(./.+...W.qXfXVXuXfXjX].^.S.2 {  .^ A l _ VXiXBX^.X.{ ].J.4 J.kXSXDX/.[ ! [ 8 #.(.[ %.^.uXrX!.{.(./.L...",
"yX.X .] (.} ..^.yXXXo. . .| 6 3 9XjXlX%X%XgXfX!...` I...P 7.P e c C ( Q.fXiX$XcXgX.XgXqXwXiXkXyXyX.X .] (.} $.^.qXqXo.O. .| ..3 ",
"$XuX$X@X+X/./.DXSXXX] ..6 | K.qXW.%X;X$XOX-XhXpXgX(.u.w.n.C.b.*.H y C E ] L.OX;XhXSX.X} U.@X+XkX$XBX$X@X+X/./.DXSXXXQ ..6 4 J.qX",
"SXqXyX+XkXiXuXOX).pX6X` } 0X(.W.uXhXhXtXuXhXsXgX2X$Xz.B.ZXNXl.a.Y @ w C f sXcX;X1 .X}.).#X[.@XwXhXqXyX+XkXaX%XOX).VX6X] } 0X(.W.",
" .S.eX,X.XaX#X/.^.{.rX^.$XhX{.#X.XH...Q.(.I.4 O.' r.ZXc.k.i.i.6.U o % y l ].rX| X.~.].uX@X].tX^. .S.eX,X0XyX#X/.(.{.8X(.$XhX@X}.",
"..2 ..@XuXkXE.X.{.{.tX$XzX-XhXgX@XH.H.O.[ 1 ..{.*.c.h.d.p.=.6.G r c N r y k `.0XpXyXwXeXI.] E.}...2 ..@XuXkXE.} {.OXuX#XzX-XgXuX",
"OX .6 1 .X{.@X#X'.).8X(..XO.(.(.{.@XgXsXwXxX(.l *.s.5.6.F o b y y N e i v u A ( |.L.|  ...6 %.].OX .6 1 .X(.@XtX'.).{.6XoXO.(.(.",
"].[ 5X[ { | @XuX/.} X.5 K.K.3 ].oX#X`.hX:.Z.e.9.r N r r I Y P p r b b M r M r r v /  .} X.3 ..{.[.] /.} { @.~.kX@X} [ { 9 | } (.",
"pX(.].{.} 5X|.SX{.]...X.{.@XuXlXyXDX|.:.s.j.V.p.Y . b Y r.n.V.5.M r r y r r s r r k rX!.^.oX X[.iX(.#X!.} /..XSX(.^.A...^.(.uXgX",
"yX$X)..X^.iXqXXXlXGX-.W.tXwXiX(.].3 G.u.r.AXa.6.*.p M H 9.t.t.5.y w Z N N w s y v y l g.tXJXnXHXyX@X.X(.).$XgXqXgXuX!.+XgXcXSX(.",
"yXuXuX@XGX$XeXL.&XsXzXxXkX^...H.X.A...  2.j.*.F w e s v I 4.J S w M P I P s r y r y r v _ ,XR.#XiX,XwXrXBXyXqXJ.%X$XzXyX%X^.{ | ",
"6 @X%X@X^...H.] ` ..0XsXgX].] ..3 H.z i m O *.& B w s a N I H V v J Y 9.9.J v r n v & r g E } 2 3 $X0XuX^.] H.4 } X.oXyXDX@XA.H.",
"| .XuX@X~.O.I.| 5 { X.^.kXpX;.T , `.J 0.Y L 0.H 0.e y g r a V   $ Y 4.q.4.J c M r r . v b y E ..| $XpX@X|.] I...5 8 } {.gXeX^.[ ",
"$XqXiX@XrX^. XX. .J.4 P.'.u.0.d !.0.k.B.AXM.z.V.I M e y s . y r r S 4.9.H M r y v U *.e d O l 6 +XjXXX~.DX{. X| { O.7 X.].@XkXgX",
"yX$X+X#XaXjXuX|.}.5XW.(.wX&XF.W / c.B.c.k.NXk.c.B.Y r r b v 3.9.P V P H N r s y r e Z g e $ b , ) gX,X].0XpXuX@X+XQ.{.@XuX%XXXkX",
"(.} 3  .~.jXfX;XlXyXaX<XOXH.!.z 2.r.n.k.B.B.B.m.e.J N r I j.k.x.Y v y N e r v $ N o B r y y w M u R 3 h ' _.rXgXgX;XpX@X^.O.@X].",
"W..X..J.| } @XSX;XBX(.} X./.-.c F q.n.n.M.n.w.L 2.*.Z r r.n.n.l.4.*.w s y e 0.U H r e . N M r s e k  .: q Z ].1XzXsXqX, #.7X7X`.",
"#X~..X] } ].E.@X.X(.{.(..X).q n M H i.t.t.r.6.F J p q y 9.V.n.ZXJ *.y y p N U *.L M r v I K M r M ; ) , Z d _ sXtXW.'.{.rX.X..0X",
"] hXyXyXpXrX@X} ] } eX_ ( `.b o r . H 9.4.H F Y Y N q N Y H r.Y Y I v r r Y 4.I F r y y H L K b O V E ~ !.,.Q.4 7 L.(.[.R.CXBX!.",
"X.XXFXyXrX+XX.3  .O.1 +X( h q.Y M b N a s *.P c . o S . *.J 4.Y L H o v H r.s.5.Y r g y M F P y N o r E OX{.o.6 A.] }  X.XqXOX].",
"xXhXqXqXyX0X^.XX(. XkXtXE r.j.ZXr.H p a a a v v v Y I Y H M H H K @ o M Y t.e.5.U v r b r M N w e A x m ! F.`.~.].6X#XuXjXgXH. .",
"}..X(.yXrXW..XCXuXiX|.-.I AXV.c.M.r.B p e w y r 9.r.r.j.H H V H U r b r P 6.S 3.r M r N r r r v a r r o m ^ ^.GXgXgX+X.X@X@XQ.`.",
"{.(.(.[._.].@X%X].@X} ( s.v.C.c.n.w.$ c b b y r 3.M.M.b.ZX9.H v r b w y *.o r v r Y H H N N w M v p c v @ h XXrX@X{.` ..{ ] @X`.",
"{.{.).!.Q.`.}.{.`. XO.L I NXk.c.N.9.j y c 2.2.L T r.m.m.n.w.4.u r M L 2.o r M v r *.2.4.I o y b u M v y e l ^.'.[.!.0 2 X.A.S.W.",
"Q L.6 J. XX.< ].`.XX].d 0.7.s.a.9.N e s Y j.j.q.Y 4.J t.j.4.. N Y q.t.6.Y e r r p P J 9.Y r r r i o p e t ; X.OX@X>X|.P.|.).}.zX",
"(.6X!.,._.(.kXzX(.jX#X* i 5.S J P w M *.z.k.B.m.S D v S *.Y M U m.AXw.H *.s j y e M n P H M s b n u n r Z a >.8X7XyXlX$XVXyXsX%X",
"yXkX-XhXcX#X>X`.| ).$X!   r V a N r 4.l.B.k.B.M.r.$ w Z P M o . H 4.4.4.r r P b N X r N M r r r X s v m R :.}.oX..@X[.qXsXxXuX$X",
"..{.{.:._.@XY.G...'.E.~ y y o w e S i.M.k.B.n.r.Y V M u N o 4.4.r v r r J 4.3.9.S b r r r b y r % j e z / ].`...[ @X].L.A.oXuXrX",
"'.].^.].#XW.:.g.(.tXMXoX; g e B b 9.t.N.n.B.h.2.Y <.r e H h.m.r.Y r e *.2.t.n.B.Y V p r e M N r y g C ;.].].`.W.`.iXgXE.} } oXiX",
".XI. X#X^.kXFX-X+X!.;.].zXE g o v H L w.s.i.w.6.S M M 4.B.B.k.B.h.H r 9.q.V.m.n.r.I p p b u r r v x h E.tX$XzXiX@XW.@XhXjX>.>XlX",
"..[  .{ /.kX(.]...0 ` ,.:XjXa a v K L F 5.3.3.F Y o H r.C.h.B.c.e.5.$ c 4.w.B.NXt.I o r n r r p y n f O.-.]. X_.| 9 { {.%XlX X} ",
"(.7X].$XcXuXOXG.'.W.FX>Xb.l P.> @ K Y H 6.G 3.@ b c 4.k.m.ZXz.B.e.2.p r 2.e.k.NXe.L r o n X y c i h +X^ 0.h ^ | ]..X$XzXzX$X] 6 ",
":XVX,X;XyX!.`.8XrX=XiXu.C.y.* %.> *.H <.H s x C e H r.ZXx.z.k.B.e.S p p L a.N.t.2.t j m # V   / W ,X4XJ T & ; 8X0X#XkX~.| 9 |  .",
"$XgXyX.X(.} } Q.oXsXFXU b.0.k , } A u T N t e n r Y 6.j.B.M.M.a.p.I a r 2.t.y.0.v s u p A > > ` ).SXQ.a a k , W.].uXuX .{ ..3 K.",
"Q.yXxX' (.G.A.] 8X$X;.u.2.P W XX2X~ a s r $ m # r 4.7.e.t.r.r.5.H M r r M Y *.i o o @ b k <X{.-.&XzXzX} )  .} +.{.W.rX@X].yXkXfX",
"DX;XT.}.'. X| @X).>.qX}.7X%XgXhXvXpX`.j r n y e Z U H L H H K Y r p e . n P P 1.p i e h / [.=.o z _.qX.X`.(...U.0XrX~.W.@XtX$XxX",
"E.|.iX^.%XkXgXuX'.K.#.3 K.#X>.).[ :.eX!._ F.l / t r M J Y P p o v r M b e S =.Z n g W ( l w.s.J # z 8XR.}.].nXkXW.%.] $.} [.$X~.",
"{ ` 8XyXjXgXhX=X).wX] 3 -XT.P <.z O.0 L.8.0.W.,.E j r v c v r b r M r r y N g t > F.&XJ.H B.T n * ! ].MXz `.%XuX_.W.8 ..E.{.W.+.",
"K.] $XzXgX{.[.(.].`.!.^.pX'.z.=.~ @X].U b.v.L _ ' h t s r p b y y y v v y f : : OX;XF.>.g.L y ; ! 4 0X,.]..XOX`.`.^.OX@XrX{.8XW.",
"(.$XkX+XrX!.@.oXOX;XkX^.(.(.]._.(.pXg.B.N.e.H A H.` E A O M u y r = * ! , 3 ].@X!.) W W.yXdX(.FX~.$XkX#X@XW.O.oXOXhXkX(.(.{.{._.",
"8X.XvXbX&XcX$XiXjXrXQ.J.} o.!.iX&X+X>X6.9.3.9.^ (.{.(.Q./ _ l k : ' ;.( ( _ / _.}._.(.#X!.`.`.>.{.oXvXvX-XxX$XiXjXrXE.J.] o.W.iX",
"$XpXCXQ.`.7X#XuX>.!.{.'._..X.X'.tXqXuXW.-.E >.(.[.].7X!.XXlXQ.{ < O.;.9.x.=./ ( uX| { H.~ l |.4X%XiXCXQ.`.7X}.uX>.!.{.'._.|..X'.",
"uXwX|.H.&X} #X{.U.~.$XyXgXuXgX X^.iX(.+.O...6 6 `.>.i.p.9XeXtX_.qXXX[.h.G =.E !.(.X.9 | +.}.FXfXuXwX|.H.@X} #X{.U.~.$XyXgXuXjX X",
"$X} @...^. .#XW.Q O..XrXpXW.Q.} Q 6X.XyXyXlXgXhXdX{.>.W.$X;XlX^.wXgX8.I Z ) cX9X`.{..X6X$XBX`.T.@X| @...|...@X^.Q O.(.yXpX!.Q.} ",
"oX} !.mX!.Q.W.pXgXdXdXhX.XG.H.[ 8X!.^.lXlXhX&X).!.,.>X{.< 8 [ <.].kX.X8X^.%X$XW.@XhX-XpX%XwX:.DX.X[ !.f.!.Q.W.pXsXdXdXhX.XG.H.[ ",
"yXyXDXkXzXzX^.pXgXCX).SX+X).].$X,XCX^.X.< 6 H.{ '.8X].oX9 S.< ` 3 @XjXyXiX3 &XrX=XFXgXXXH..X(.$XgXyXDXzX;XzX^.VXkX,X).SX%X).).$X",
"hX].W.].^.%XDX^.!..Xo.(..XkXwXyX.X6X .G.$.H. .:.@X&XkXjX;X2XiXvXlX%X8XT.zXhXuX!.`.!.!.hX`.tX:X@XhX{.W.`.{.%XkX^.(.6Xo.(.(.kXsXyX",
"....3 !.>X)./.iXhX&XrXrXyXgXgXhX$X{.`.`.).{.uXpX#X].@X].@X].iXiXgXkX/. .5XW.}.>.] I.5 gX;XyX(.@X....3 !.>X)./.yXhXOXrXrXyXhXgXhX",
"! [ 8 #.(.[ &.].uX8X!.{.(./.L...,XqXsXlXzXfXgX+XmX{ ] ..H...O.~.+XyXrXFX%XO.} (.J.| K.hXSXDX|.] [ } 6 #..X[ %.].uXrX!.{.(./.L...",
"yX.X .] (.} 6 ^.wXXXO.O. .| ..3 (.wXjX2X1XgXwX^.D.| $.3 ` !.(.@X@X@X].Q.yXgXxXgXgXXXiXwXqXyXkXyXyX|. .] (.} $.^.wXXX .O. .| 6 3 ",
"$XuX$X$X+X/./.DXSXXXQ ..6 4 K.qX+XuXuX(.E.@XkX;XtX{.[.$XwXcX@X].6 { $.3 A.G.XXgXhXhX@X} /.@X#XhX$X;X$X$X#X~./.DXSXXX] | 6 | K.qX",
"hXwXuX+XkXiXuXOX).pX6X` } 0X(.).:X-XkXkXgX$XgXzXzXgXgX$X%X].(.%.J.| ] OX&XgXyX$X3 .X[.].#X].#XwXkXqXuX+XkXiXuXOX).VX6X` } .X(.).",
" .S. X%X.XaX#X/.^.{.rX^.$XuX@XrX/.{ X.oXoXJ.3 X.6  XtX#X{.^.xX=XgXkXyXuXyXkXqX@.X.~.].uX#X].tX^. .8  X%X0XrX#X/.^.{.rX^.@XkX@X@X",
"..2 X.@XuXkXE.X.{.{.tX$XzX-XhXiX}.} {  .X.6 } W.XXyXgXzX;XOX(.7X$XOX]..XyX#X,X^.uXyXfXeX%.] Q.#X..2 J.@XuXkXE.} {.(.uX$XzX-XgXuX",
"OX .6 1 .X{.@X#X'.).8X{.oXO.^.(.gX&XyXyXyXgXgXbXuXSXuX/. .....| 3 { ` (.$XkX0X@X|.L...| H.3 } ].]. .6 1 .X.X@X#X'._.{.6X.XO.(.(."
};
